#N canvas 37 433 1383 547 10;
#X declare -lib cyclone -path mapping -lib aubio;
#X obj 138 264 env~ 32;
#X floatatom 466 434 5 0 0 0 - - -;
#X obj 466 512 s takt;
#X obj 122 326 *~;
#X obj 138 306 >;
#X obj 122 346 env~ 32;
#X msg 122 386 \$1 10;
#X obj 122 407 line;
#X obj 420 388 spigot;
#X obj 466 388 spigot;
#X obj 512 388 == 0;
#X obj 512 343 r joy;
#X obj 596 121 timer;
#X obj 596 87 spigot;
#X obj 645 87 spigot;
#X obj 646 63 == 0;
#X obj 420 410 / 1;
#X obj 420 430 int;
#X obj 596 39 r 6_b;
#X obj 646 40 r 6_bt;
#X obj 124 123 /~ 2;
#X obj 153 123 /~ 2;
#X obj 219 303 bonk~;
#X msg 296 321 learn 0;
#X msg 296 291 learn 10;
#X msg 360 287 write templates.txt;
#X msg 360 317 read templates.txt;
#X obj 122 366 mapping/autoscale 0 128;
#X obj 16 326 s~ filtered_mic;
#X floatatom 519 436 5 0 0 0 - - -;
#X obj 359 390 bng 15 250 50 0 empty empty empty 17 7 0 10 -258113
-1 -1;
#X obj 519 512 s duration;
#X obj 359 512 s retakt;
#X obj 133 98 s~ __fx_adcdirect_R;
#X obj 254 97 s~ __fx_adcdirect_L;
#X msg 474 58 start;
#X msg 506 101 stop;
#X obj 474 40 bng 15 250 50 0 empty empty empty 17 7 0 10 -258113 -1
-1;
#X obj 515 58 s start;
#X obj 502 83 bng 15 250 50 0 empty empty empty 17 7 0 10 -258113 -1
-1;
#X obj 503 129 s stop;
#X obj 399 101 s~ il;
#X obj 436 102 s~ ir;
#X obj 399 70 readsf~ 2;
#X obj 639 307 unpack;
#X floatatom 639 351 0 0 0 0 - - sincomp_1;
#X floatatom 653 328 0 0 0 0 - - sincomp_1_coef;
#X obj 685 307 unpack;
#X floatatom 685 351 0 0 0 0 - - sincomp_2;
#X floatatom 716 328 0 0 0 0 - - sincomp_2_coef;
#X obj 731 306 unpack;
#X floatatom 731 352 0 0 0 0 - - sincomp_3;
#X floatatom 775 327 0 0 0 0 - - sincomp_3_coef;
#X obj 809 124 tgl 15 1 empty empty empty 17 7 0 10 -258113 -1 -1 1
1;
#X obj 123 68 +~;
#X obj 152 68 +~;
#X obj 639 285 route 1 2 3;
#N canvas 532 326 1109 501 spectrum_analyzer 0;
#X obj 39 71 inlet~;
#X obj 39 102 rfft~;
#X obj 39 135 *~;
#X obj 70 135 *~;
#X obj 39 165 sqrt~;
#X obj 268 320 tabwrite~ spectrum;
#X obj 241 112 inlet;
#X text 304 263 25fps;
#X obj 241 286 t b b;
#X obj 241 354 s spec_write_done;
#X obj 241 263 metro 40;
#X obj 588 130 tgl 15 0 empty empty empty 17 7 0 10 -262144 -1 -1 1
1;
#X obj 40 253 max~ 0;
#X obj 39 210 expr~ 0.5 - $v1;
#X obj 588 234 gemhead 60;
#X obj 657 182 *~ 1;
#X obj 588 341 pix_texture;
#X obj 657 204 *~ 1;
#X obj 962 43 block~ 512;
#X obj 588 307 pix_sig2pix~ 1 512;
#X obj 651 398 outlet;
#X connect 0 0 1 0;
#X connect 1 0 2 0;
#X connect 1 0 2 1;
#X connect 1 1 3 0;
#X connect 1 1 3 1;
#X connect 2 0 4 0;
#X connect 3 0 4 0;
#X connect 4 0 13 0;
#X connect 4 0 15 0;
#X connect 6 0 10 0;
#X connect 6 0 11 0;
#X connect 8 0 9 0;
#X connect 8 1 5 0;
#X connect 10 0 8 0;
#X connect 11 0 14 0;
#X connect 12 0 5 0;
#X connect 13 0 12 0;
#X connect 14 0 19 0;
#X connect 15 0 17 0;
#X connect 15 0 19 0;
#X connect 16 1 20 0;
#X connect 17 0 19 1;
#X connect 17 0 19 2;
#X connect 19 0 16 0;
#X restore 692 162 pd spectrum_analyzer;
#X obj 123 42 *~;
#X obj 151 42 *~;
#X obj 167 6 tgl 15 1 empty empty empty 17 7 0 10 -258113 -1 -1 1 1
;
#X obj 122 511 s volume;
#X obj 203 34 clip~ -1 1;
#X obj 287 34 clip~ -1 1;
#X obj 204 8 inlet~;
#X obj 287 8 inlet~;
#X text 251 10 aux;
#X msg 232 197 clear;
#X obj 205 173 t f b;
#X msg 242 173 connect 0 \$1;
#X obj 124 173 matrix~ 1 5;
#X obj 121 240 +~;
#X obj 346 179 loadbang;
#X msg 346 201 0;
#X obj 400 28 openpanel;
#X obj 399 11 bng 15 250 50 0 empty empty empty 17 7 0 10 -258113 -1
-1;
#X msg 400 50 open \$1;
#X msg 517 31 rewind;
#X obj 122 2 adc~;
#X obj 123 145 +~;
#X obj 419 133 dac~;
#X obj 407 262 bng 15 250 50 0 bonkbonk2 empty empty 0 -6 0 8 -258113
-1 -1;
#X floatatom 495 190 5 0 1 0 - - -;
#X obj 271 512 s aubio_tempo;
#N canvas 97 573 450 300 (subpatch) 0;
#X array spectrum 259 float 0;
#X coords 0 0 258 0.5 259 130 1 0 0;
#X restore 942 178 graph;
#X text 982 305 2;
#X text 1013 305 4;
#X text 952 305 0;
#X text 992 321 -- partial number --;
#X text 1046 156 SPECTRUM;
#X text 1212 290 0;
#X text 1213 172 0.5;
#X text 1045 305 6;
#X text 1078 305 8;
#X text 1106 305 10;
#X text 1138 305 12;
#X text 1170 305 14;
#X obj 942 179 cnv 15 258 130 empty empty empty 20 12 0 14 -13381 -66577
0;
#X obj 205 131 s~ direct_mic;
#X obj 122 209 filterbank;
#X obj 13 13 cnv 15 94 174 empty empty empty 20 12 0 14 -13381 -66577
0;
#X text 69 106 bass;
#X text 70 91 low;
#X text 69 75 middle;
#X text 69 60 high;
#X obj 52 46 vradio 15 1 0 5 empty empty empty 0 -8 0 10 -4034 -1 -1
3;
#X text 70 44 off;
#X obj 16 48 vsl 15 130 0 127 0 0 empty volume empty 0 -8 0 8 -4034
-13381 -1 0 1;
#X obj 33 48 vsl 15 130 0 128 0 1 empty empty empty 0 -8 0 8 -99865
-4034 -1 4200 1;
#X obj 70 166 bng 15 250 50 0 empty empty empty 17 7 0 10 -4034 -1
-1;
#X obj 55 166 bng 15 250 50 0 empty empty empty 17 7 0 10 -4034 -1
-1;
#X obj 84 166 bng 15 250 50 0 empty empty empty 17 7 0 10 -4034 -1
-1;
#X obj 528 256 fiddle~ 1024 1 20 3;
#X obj 55 131 cyclone/scope~ 44 30 2 3 128 -1 1 0 0 0 0 0 255 4 0 0
0 32 32 32 0;
#X obj 359 360 rhythm_estimator x;
#X obj 17 17 tgl 15 0 empty empty DSP~ 17 7 0 10 -4034 -1 -262144 0
1;
#X msg 17 221 \; pd dsp \$1;
#X obj 219 258 aubioonset~;
#N canvas 0 91 450 300 switch~ 0;
#X restore 870 68 pd switch~;
#X obj 219 512 s bumm;
#X obj 219 281 s zack;
#X obj 974 21 declare -lib cyclone -path mapping -lib aubio;
#X obj 407 213 aubiotempo~ 5;
#X obj 692 191 s _spectex;
#X obj 55 511 s bonkbonk;
#X obj 70 489 s fiddlebonk;
#X obj 84 467 s aubiobonk;
#X obj 512 320 r tap_takt_divide;
#X connect 0 0 4 0;
#X connect 1 0 2 0;
#X connect 3 0 5 0;
#X connect 4 0 3 1;
#X connect 5 0 27 0;
#X connect 6 0 7 0;
#X connect 7 0 61 0;
#X connect 8 0 16 0;
#X connect 9 0 1 0;
#X connect 10 0 9 1;
#X connect 11 0 10 0;
#X connect 11 0 8 1;
#X connect 12 0 8 0;
#X connect 13 0 12 0;
#X connect 14 0 12 1;
#X connect 15 0 13 1;
#X connect 16 0 17 0;
#X connect 17 0 1 0;
#X connect 18 0 13 0;
#X connect 18 0 14 0;
#X connect 19 0 15 0;
#X connect 19 0 14 1;
#X connect 20 0 79 0;
#X connect 21 0 79 1;
#X connect 22 0 110 0;
#X connect 22 0 114 0;
#X connect 22 0 119 0;
#X connect 23 0 22 0;
#X connect 24 0 22 0;
#X connect 25 0 22 0;
#X connect 26 0 22 0;
#X connect 27 0 6 0;
#X connect 29 0 31 0;
#X connect 30 0 32 0;
#X connect 35 0 43 0;
#X connect 36 0 43 0;
#X connect 37 0 35 0;
#X connect 37 0 38 0;
#X connect 39 0 36 0;
#X connect 39 0 40 0;
#X connect 43 0 54 0;
#X connect 43 0 41 0;
#X connect 43 0 80 0;
#X connect 43 1 42 0;
#X connect 43 1 55 0;
#X connect 43 1 80 1;
#X connect 43 2 40 0;
#X connect 44 0 45 0;
#X connect 44 1 46 0;
#X connect 47 0 48 0;
#X connect 47 1 49 0;
#X connect 50 0 51 0;
#X connect 50 1 52 0;
#X connect 53 0 57 1;
#X connect 54 0 33 0;
#X connect 54 0 20 0;
#X connect 55 0 34 0;
#X connect 55 0 21 0;
#X connect 56 0 44 0;
#X connect 56 1 47 0;
#X connect 56 2 50 0;
#X connect 57 0 123 0;
#X connect 58 0 54 0;
#X connect 59 0 55 0;
#X connect 60 0 58 1;
#X connect 60 0 59 1;
#X connect 62 0 54 0;
#X connect 63 0 55 1;
#X connect 64 0 62 0;
#X connect 65 0 63 0;
#X connect 67 0 70 0;
#X connect 68 0 69 0;
#X connect 68 1 67 0;
#X connect 69 0 70 0;
#X connect 70 0 71 1;
#X connect 70 1 99 0;
#X connect 70 2 99 1;
#X connect 70 3 99 2;
#X connect 70 4 99 3;
#X connect 71 0 3 0;
#X connect 71 0 0 0;
#X connect 71 0 28 0;
#X connect 71 0 22 0;
#X connect 71 0 112 0;
#X connect 71 0 117 0;
#X connect 71 0 122 0;
#X connect 72 0 73 0;
#X connect 73 0 68 0;
#X connect 74 0 76 0;
#X connect 75 0 74 0;
#X connect 76 0 43 0;
#X connect 77 0 43 0;
#X connect 78 0 58 0;
#X connect 78 1 59 0;
#X connect 79 0 70 0;
#X connect 79 0 98 0;
#X connect 79 0 113 0;
#X connect 79 0 57 0;
#X connect 81 0 111 0;
#X connect 81 0 83 0;
#X connect 82 0 122 1;
#X connect 99 0 71 0;
#X connect 99 1 71 0;
#X connect 99 2 71 0;
#X connect 99 3 71 0;
#X connect 105 0 68 0;
#X connect 108 0 4 1;
#X connect 109 0 125 0;
#X connect 110 0 124 0;
#X connect 111 0 126 0;
#X connect 112 1 109 0;
#X connect 112 4 56 0;
#X connect 114 0 30 0;
#X connect 114 1 9 0;
#X connect 114 1 29 0;
#X connect 115 0 116 0;
#X connect 117 0 120 0;
#X connect 122 0 81 0;
#X connect 127 0 16 1;
#X coords 0 -1 1 1 100 180 1 10 10;
