#N canvas 354 336 327 582 10;
#X obj 177 83 r duration;
#X obj 150 382 random 360;
#X obj 150 183 bng 15 250 50 0 empty empty empty 17 7 0 10 -262144
-1 -1;
#X obj 150 210 random 23;
#X obj 150 239 * 100;
#X obj 150 268 t b f;
#X obj 150 324 delay 1;
#X obj 121 324 t b;
#X obj 150 438 line;
#X obj 150 412 pack 0 0;
#X obj 66 84 inlet;
#X obj 150 348 spigot;
#X obj 66 138 t f f;
#X obj 150 474 outlet;
#X obj 35 372 r 7_bt;
#X msg 68 424 0;
#X obj 81 372 r 7_bt_2;
#X obj 68 452 t f f;
#X obj 66 194 sel 0 1;
#X msg 66 215 0;
#X connect 0 0 4 1;
#X connect 1 0 9 0;
#X connect 2 0 3 0;
#X connect 3 0 4 0;
#X connect 4 0 5 0;
#X connect 5 0 6 0;
#X connect 5 1 6 1;
#X connect 5 1 9 1;
#X connect 6 0 11 0;
#X connect 7 0 3 0;
#X connect 8 0 13 0;
#X connect 9 0 8 0;
#X connect 10 0 12 0;
#X connect 11 0 7 0;
#X connect 11 0 1 0;
#X connect 12 0 18 0;
#X connect 12 1 11 1;
#X connect 14 0 15 0;
#X connect 15 0 17 0;
#X connect 16 0 15 0;
#X connect 17 0 8 0;
#X connect 17 1 11 1;
#X connect 18 0 19 0;
#X connect 18 1 3 0;
#X connect 19 0 9 0;
