#N canvas 700 412 450 300 10;
#X obj 123 267 s xbank_0\$1;
#X obj 212 33 r init_banks;
#X obj 167 131 i, f 5;
#X obj 167 153 + 1;
#X obj 102 153 - 1;
#X obj 102 131 i;
#X obj 167 216 moses 1;
#X obj 212 94 + 1;
#X obj 167 191 moses 13;
#X obj 123 32 r xbank_0\$1;
#X msg 123 63 set \$1;
#X obj 101 102 cnv 15 81 21 empty empty empty 20 12 0 14 -86277 -66577
0;
#X obj 102 105 bng 15 250 50 0 empty empty empty 17 7 0 10 -260097
-1 -1;
#X obj 167 105 bng 15 250 50 0 empty empty empty 17 7 0 10 -260097
-1 -1;
#X obj 123 105 nbx 3 14 -1e+37 1e+37 0 0 empty empty empty 0 -8 0 10
-258113 -1 -1 0 256;
#X connect 1 0 7 0;
#X connect 2 0 3 0;
#X connect 3 0 8 0;
#X connect 4 0 8 0;
#X connect 5 0 4 0;
#X connect 6 1 14 0;
#X connect 7 0 8 1;
#X connect 8 0 6 0;
#X connect 9 0 10 0;
#X connect 10 0 14 0;
#X connect 12 0 5 0;
#X connect 13 0 2 0;
#X connect 14 0 0 0;
#X connect 14 0 2 1;
#X connect 14 0 5 1;
#X coords 0 -1 1 1 85 25 2 100 100;
