#N canvas 700 412 450 300 10;
#X obj 123 267 s xbank_0\$1;
#X obj 102 104 bng 15 250 50 0 empty empty empty 17 7 0 10 -262144
-1 -1;
#X obj 167 104 bng 15 250 50 0 empty empty empty 17 7 0 10 -262144
-1 -1;
#X floatatom 123 104 5 0 0 0 - - -, f 5;
#X obj 212 33 r init_banks;
#X obj 167 131 i, f 5;
#X obj 167 153 + 1;
#X obj 102 153 - 1;
#X obj 102 131 i;
#X obj 167 216 moses 1;
#X obj 212 94 + 1;
#X obj 167 191 moses 13;
#X obj 123 32 r xbank_0\$1;
#X msg 123 63 set \$1;
#X connect 1 0 8 0;
#X connect 2 0 5 0;
#X connect 3 0 8 1;
#X connect 3 0 5 1;
#X connect 3 0 0 0;
#X connect 4 0 10 0;
#X connect 5 0 6 0;
#X connect 6 0 11 0;
#X connect 7 0 11 0;
#X connect 8 0 7 0;
#X connect 9 1 3 0;
#X connect 10 0 11 1;
#X connect 11 0 9 0;
#X connect 12 0 13 0;
#X connect 13 0 3 0;
#X coords 0 -1 1 1 85 25 2 100 100;
