#N canvas 739 167 942 521 10;
#X floatatom 157 158 5 0 0 0 - - - 0;
#X floatatom 223 158 5 0 0 0 - - - 0;
#X floatatom 289 158 5 0 0 0 - - - 0;
#X obj 157 128 autorotate;
#X obj 223 128 autorotate;
#X obj 289 128 autorotate;
#X floatatom 129 221 5 0 0 0 - - - 0;
#X obj 24 252 translateXYZ 0 0 0;
#X obj 123 23 cnv 15 114 74 empty empty empty 4 8 0 11 #0c4044 #fcfcfc
0;
#X obj 126 26 tgl 15 0 empty empty brain 17 7 0 10 #00f8fc #000000
#fcfcfc 0 1;
#X obj 126 58 tgl 15 0 empty empty autorotate 0 -8 0 10 #009090 #000000
#dcdcdc 0 1;
#X obj 145 58 tgl 15 0 empty empty empty 0 -8 0 10 #009490 #000000
#dcdcdc 0 1;
#X obj 164 58 tgl 15 0 empty empty empty 0 -8 0 10 #009490 #000000
#dcdcdc 0 1;
#X obj 24 335 color 1 0 0;
#X obj 126 78 tgl 15 0 empty empty flashlight 17 7 0 10 #b8b8b8 #fc8000
#dcdcdc 0 1;
#X obj 455 61 r volume;
#X obj 455 108 spigot;
#X obj 366 80 sel 0;
#X obj 366 53 t f f;
#X msg 366 107 1;
#X obj 455 160 s __world_light;
#X obj 455 132 / 128;
#X obj 24 87 gemhead 67;
#X obj 26 9 loadbang;
#X msg 26 32 0;
#X obj 24 62 t f f;
#X obj 51 128 s __lighting;
#X obj 24 359 model models/brain.obj;
#X obj 218 78 tgl 15 0 empty empty pulse -15 -9 0 10 #b8b8b8 #000000
#dcdcdc 0 1;
#X obj 24 290 scale 1;
#X msg 218 256 1;
#X obj 349 233 r duration;
#X obj 349 256 moses 1;
#X obj 388 280 t b f;
#X obj 388 322 /;
#X floatatom 388 344 5 0 0 0 - - - 0;
#X msg 388 300 250;
#X text 418 301 scale by 4;
#X obj 294 317 osc~;
#X msg 294 271 \$1 100;
#X obj 294 294 line~;
#X obj 294 340 snapshot~;
#X obj 230 317 metro 100;
#X obj 180 308 line;
#X msg 180 284 \$1 100;
#X obj 242 284 spigot;
#X obj 218 206 t f f f;
#X obj 294 386 * 0.5;
#X obj 24 222 rotateXYZ 0 0 0;
#X obj 24 172 rotateXYZ 90 0 0;
#X obj 294 363 + 2;
#X obj 218 233 select 0;
#X connect 0 0 48 1;
#X connect 1 0 48 2;
#X connect 2 0 48 3;
#X connect 3 0 0 0;
#X connect 4 0 1 0;
#X connect 5 0 2 0;
#X connect 6 0 7 3;
#X connect 7 0 29 0;
#X connect 9 0 25 0;
#X connect 10 0 3 0;
#X connect 11 0 4 0;
#X connect 12 0 5 0;
#X connect 13 0 27 0;
#X connect 14 0 18 0;
#X connect 15 0 16 0;
#X connect 16 0 21 0;
#X connect 17 0 19 0;
#X connect 18 0 17 0;
#X connect 18 1 16 1;
#X connect 19 0 20 0;
#X connect 21 0 20 0;
#X connect 22 0 49 0;
#X connect 23 0 24 0;
#X connect 24 0 9 0;
#X connect 25 0 22 0;
#X connect 25 1 26 0;
#X connect 28 0 46 0;
#X connect 29 0 13 0;
#X connect 30 0 44 0;
#X connect 31 0 32 0;
#X connect 32 1 33 0;
#X connect 33 0 36 0;
#X connect 33 1 34 1;
#X connect 34 0 35 0;
#X connect 35 0 39 0;
#X connect 36 0 34 0;
#X connect 38 0 41 0;
#X connect 39 0 40 0;
#X connect 40 0 38 0;
#X connect 41 0 50 0;
#X connect 42 0 41 0;
#X connect 43 0 29 1;
#X connect 44 0 43 0;
#X connect 45 0 44 0;
#X connect 46 0 51 0;
#X connect 46 1 42 0;
#X connect 46 2 45 1;
#X connect 47 0 45 0;
#X connect 48 0 7 0;
#X connect 49 0 48 0;
#X connect 50 0 47 0;
#X connect 51 0 30 0;
#X coords 0 -1 1 1 120 80 2 120 20;
