#N canvas 779 199 932 759 10;
#X obj 24 353 glsl_vertex;
#X obj 24 439 glsl_fragment;
#X obj 24 575 glsl_program;
#X obj 110 521 pack 0 0;
#X obj 128 498 t b f;
#X obj 128 455 change;
#X msg 110 547 link \$1 \$2;
#X floatatom 128 479 2 0 0 0 ID - -, f 2;
#X floatatom 110 393 2 0 0 0 ID - -, f 2;
#X obj 110 575 print linking;
#X obj 110 369 change;
#X obj 24 222 rotateXYZ;
#X obj 24 602 pix_texture;
#X floatatom 157 158 5 0 0 0 - - -, f 5;
#X floatatom 223 158 5 0 0 0 - - -, f 5;
#X floatatom 289 158 5 0 0 0 - - -, f 5;
#X obj 38 303 loadbang;
#X obj 157 128 autorotate;
#X obj 223 128 autorotate;
#X obj 289 128 autorotate;
#X floatatom 129 221 5 0 0 0 - - -, f 5;
#X obj 24 252 translateXYZ 0 0 0;
#X obj 123 23 cnv 15 94 74 empty empty empty 4 8 0 11 -13330 -262144
0;
#X obj 126 26 tgl 15 0 empty empty brainqube 17 7 0 10 -2368 -1 -262144
0 1;
#X obj 126 58 tgl 15 0 empty empty autorotate 0 -8 0 10 -2341 -1 -228856
1 1;
#X obj 145 58 tgl 15 0 empty empty empty 0 -8 0 10 -2405 -1 -228856
1 1;
#X obj 164 58 tgl 15 0 empty empty empty 0 -8 0 10 -2405 -1 -228856
1 1;
#X obj 161 268 color 1 0 0;
#X obj 24 280 separator;
#X obj 24 703 cube 1;
#X obj 24 679 scale 0.8;
#X obj 24 647 color 0 0 0;
#X obj 161 292 model models/quoobrain.obj;
#X obj 126 78 tgl 15 0 empty empty flashlight 17 7 0 10 -191407 -260097
-228856 0 1;
#X msg 38 331 open shaders/gliders.vert;
#X msg 38 416 open shaders/gliders.frag;
#X obj 455 61 r volume;
#X obj 455 108 spigot;
#X obj 366 80 sel 0;
#X obj 366 53 t f f;
#X msg 366 107 1;
#X obj 455 160 s __world_light;
#X obj 455 132 / 128;
#X obj 24 87 gemhead 67;
#X obj 26 9 loadbang;
#X msg 26 32 0;
#X obj 24 62 t f f;
#X obj 51 128 s __lighting;
#X connect 0 0 1 0;
#X connect 0 1 10 0;
#X connect 1 0 2 0;
#X connect 1 1 5 0;
#X connect 3 0 6 0;
#X connect 4 0 3 0;
#X connect 4 1 3 1;
#X connect 5 0 7 0;
#X connect 6 0 9 0;
#X connect 6 0 2 0;
#X connect 7 0 4 0;
#X connect 8 0 3 0;
#X connect 10 0 8 0;
#X connect 11 0 21 0;
#X connect 12 0 31 0;
#X connect 13 0 11 1;
#X connect 14 0 11 2;
#X connect 15 0 11 3;
#X connect 16 0 34 0;
#X connect 16 0 35 0;
#X connect 17 0 13 0;
#X connect 18 0 14 0;
#X connect 19 0 15 0;
#X connect 20 0 21 3;
#X connect 21 0 28 0;
#X connect 21 0 27 0;
#X connect 23 0 46 0;
#X connect 24 0 17 0;
#X connect 25 0 18 0;
#X connect 26 0 19 0;
#X connect 27 0 32 0;
#X connect 28 0 12 0;
#X connect 30 0 29 0;
#X connect 31 0 30 0;
#X connect 33 0 39 0;
#X connect 34 0 0 0;
#X connect 35 0 1 0;
#X connect 36 0 37 0;
#X connect 37 0 42 0;
#X connect 38 0 40 0;
#X connect 39 0 38 0;
#X connect 39 1 37 1;
#X connect 40 0 41 0;
#X connect 42 0 41 0;
#X connect 43 0 11 0;
#X connect 44 0 45 0;
#X connect 45 0 23 0;
#X connect 46 0 43 0;
#X connect 46 1 47 0;
#X coords 0 -1 1 1 100 80 2 120 20;
