#N canvas 501 449 622 614 10;
#X obj 173 153 int;
#X msg 188 67 -1;
#X msg 229 67 1;
#X obj 224 46 t b b;
#X obj 173 46 t b b;
#X floatatom 173 263 5 0 0 0 - - -, f 5;
#X obj 125 46 t b b;
#X obj 75 46 t b b;
#X obj 75 166 int;
#X msg 90 68 -1;
#X msg 138 67 1;
#X obj 75 215 * 4;
#X obj 173 191 t b f;
#X obj 173 214 +;
#X msg 19 161 1;
#X obj 19 143 bng 15 250 50 0 empty empty reset 0 -6 0 8 -262144 -1
-1;
#X obj 110 323 * 16;
#X obj 173 284 +;
#X obj 140 197 bng 15 250 50 0 empty empty re-trigger 0 -6 0 8 -262144
-1 -1;
#X obj 18 9 inlet;
#X obj 384 8 inlet;
#X text 29 26 bank;
#X obj 75 9 inlet;
#X obj 125 9 inlet;
#X obj 173 9 inlet;
#X obj 224 9 inlet;
#X obj 264 196 \$1;
#X obj 237 155 loadbang;
#X text 80 27 up;
#X text 134 27 dwn;
#X text 182 27 left;
#X text 232 27 rght;
#X obj 173 237 spigot;
#X msg 210 213 1;
#X obj 289 196 r blockcs1;
#X obj 368 196 r blockcs2;
#X text 329 221 block while bankswitching;
#X obj 264 219 switch 2;
#X obj 362 295 tgl 15 0 empty empty empty 17 7 0 10 -262144 -1 -1 0
1;
#X obj 237 175 t b b;
#X obj 173 446 outlet;
#X obj 19 109 loadbang;
#X obj 405 118 r grid_rows;
#X obj 416 45 r grid_cols;
#X obj 131 287 *;
#X obj 119 261 t b f;
#X obj 90 89 +;
#X obj 117 89 f;
#X obj 90 136 mod 4;
#X obj 188 91 +;
#X obj 215 91 f;
#X obj 188 129 mod 4;
#X obj 188 110 + 4;
#X obj 90 112 + 4;
#X obj 110 367 spigot;
#X obj 143 345 tgl 15 0 empty empty empty 17 7 0 10 -262144 -1 -1 0
1;
#X text 161 344 bank: continous clip numbers;
#X text 387 25 set;
#X connect 0 0 12 0;
#X connect 1 0 49 0;
#X connect 2 0 49 0;
#X connect 3 0 0 0;
#X connect 3 1 2 0;
#X connect 4 0 0 0;
#X connect 4 1 1 0;
#X connect 5 0 17 0;
#X connect 6 0 8 0;
#X connect 6 1 10 0;
#X connect 7 0 8 0;
#X connect 7 1 9 0;
#X connect 8 0 11 0;
#X connect 9 0 46 0;
#X connect 10 0 46 0;
#X connect 11 0 13 0;
#X connect 12 0 13 0;
#X connect 12 1 13 1;
#X connect 13 0 32 0;
#X connect 14 0 8 0;
#X connect 14 0 0 0;
#X connect 15 0 14 0;
#X connect 16 0 54 0;
#X connect 17 0 40 0;
#X connect 18 0 5 0;
#X connect 19 0 16 0;
#X connect 20 0 5 0;
#X connect 22 0 7 0;
#X connect 23 0 6 0;
#X connect 24 0 4 0;
#X connect 25 0 3 0;
#X connect 26 0 37 0;
#X connect 27 0 39 0;
#X connect 32 0 5 0;
#X connect 33 0 32 1;
#X connect 34 0 37 1;
#X connect 35 0 37 2;
#X connect 37 0 32 1;
#X connect 37 0 38 0;
#X connect 39 0 33 0;
#X connect 39 1 26 0;
#X connect 41 0 15 0;
#X connect 42 0 44 0;
#X connect 42 0 48 1;
#X connect 42 0 53 1;
#X connect 43 0 11 1;
#X connect 43 0 45 0;
#X connect 43 0 51 1;
#X connect 43 0 52 1;
#X connect 44 0 16 1;
#X connect 45 0 44 0;
#X connect 45 1 44 1;
#X connect 46 0 53 0;
#X connect 47 0 46 1;
#X connect 48 0 8 1;
#X connect 48 0 47 0;
#X connect 49 0 52 0;
#X connect 50 0 49 1;
#X connect 51 0 0 1;
#X connect 51 0 50 0;
#X connect 52 0 51 0;
#X connect 53 0 48 0;
#X connect 54 0 17 1;
#X connect 55 0 54 1;
