#N canvas 521 45 1282 207 12;
#X symbolatom 811 299 55 0 0 0 - - -, f 55;
#N canvas 949 898 367 134 joystick 0;
#X obj 1 1 tgl 15 1 joy_1 empty empty 20 8 0 8 -260293 -1 -1 1 1;
#X obj 18 1 tgl 15 1 joy_2 empty empty 20 8 0 8 -4037 -1 -1 1 1;
#N canvas 386 234 773 563 joystick1 0;
#X obj 463 348 bng 20 250 50 0 6_b empty empty 0 -6 0 8 -262144 -1
-1;
#X obj 215 315 bng 15 250 50 0 0_b empty empty 0 -6 0 8 -262144 -1
-1;
#X obj 91 250 bng 15 250 50 0 1_b empty empty 0 -6 0 8 -262144 -1 -1
;
#X obj 91 265 bng 15 250 50 0 2_b empty empty 0 -6 0 8 -262144 -1 -1
;
#X obj 394 245 bng 15 250 50 0 3_b empty empty 0 -6 0 8 -262144 -1
-1;
#X obj 168 15 tgl 15 0 empty empty empty 1 12 1 9 -262144 -1 -1 1 1
;
#X msg 231 34 open \$1;
#X obj 231 14 hradio 15 1 1 20 \$0-device-number empty choose_a_device
0 -6 1 8 -260097 -1 -1 19;
#X obj 194 14 nbx 2 14 -1e+37 1e+37 0 0 empty \$0-device-number empty
0 -6 0 14 -166441 -1 -1 18 256;
#X msg 117 15 print;
#X obj 134 88 route abs key ff;
#X obj 596 39 print abs:;
#X obj 596 60 print key:;
#X obj 596 83 print ff:;
#X obj 394 260 bng 15 250 50 0 4_b empty empty 0 -6 0 8 -262144 -1
-1;
#X obj 302 314 bng 15 250 50 0 5_b empty empty 0 -6 0 8 -262144 -1
-1;
#X obj 491 301 bng 20 250 50 0 7_b empty empty 0 -6 0 8 -262144 -1
-1;
#X obj 518 411 bng 20 250 50 0 8_b empty empty 0 -6 0 8 -262144 -1
-1;
#X obj 545 348 bng 20 250 50 0 9_b empty empty 0 -6 0 8 -262144 -1
-1;
#X obj 437 349 tgl 20 0 6_bt empty empty 0 -6 0 8 -262144 -1 -1 0 1
;
#X obj 516 301 tgl 20 0 7_bt empty empty 0 -6 0 8 -262144 -1 -1 0 1
;
#X obj 491 411 tgl 20 0 8_bt empty empty 0 -6 0 8 -262144 -1 -1 0 1
;
#X obj 571 348 tgl 20 0 9_bt empty empty 0 -6 0 8 -262144 -1 -1 0 1
;
#X obj 53 319 bng 20 250 50 0 up empty empty 0 -6 0 8 -262144 -1 -1
;
#X obj 13 350 bng 20 250 50 0 left empty empty 0 -6 0 8 -262144 -1
-1;
#X obj 52 385 bng 20 250 50 0 down empty empty 0 -6 0 8 -262144 -1
-1;
#X obj 92 351 bng 20 250 50 0 right empty empty 0 -6 0 8 -262144 -1
-1;
#X obj 127 353 hsl 128 15 0 255 0 0 left_x empty empty -2 -6 0 8 -262144
-1 -1 0 1;
#X obj 182 296 vsl 15 128 255 0 0 0 left_y empty empty 0 -8 0 8 -262144
-1 -1 0 1;
#X obj 282 353 hsl 128 15 0 255 0 0 right_x empty empty -2 -6 0 8 -262144
-1 -1 0 1;
#X obj 337 296 vsl 15 128 255 0 0 0 right_y empty empty 0 -8 0 8 -262144
-1 -1 0 1;
#X obj 549 39 spigot;
#X obj 549 60 spigot;
#X obj 549 83 spigot;
#X obj 549 17 tgl 15 0 empty empty debug 20 8 0 8 -262144 -1 -1 0 1
;
#X obj 374 244 tgl 15 0 3_t empty empty 0 -6 0 8 -262144 -1 -1 0 1
;
#X obj 110 251 tgl 15 0 1_t empty empty 0 -6 0 8 -262144 -1 -1 0 1
;
#X obj 20 -2 inlet;
#X obj 374 260 tgl 15 0 4_t empty empty 0 -6 0 8 -262144 -1 -1 0 1
;
#X obj 110 266 tgl 15 0 2_t empty empty 0 -6 0 8 -262144 -1 -1 0 1
;
#X obj 169 177 route btn_8 btn_6 btn_4 btn_7 btn_5 btn_9 btn_3 btn_0
btn_2 btn_1;
#X obj 134 108 route abs_x abs_y abs_hat0x abs_hat0y abs_z abs_rz;
#X obj 215 156 route -1 1;
#X obj 282 156 route -1 1;
#X obj 216 129 change;
#X obj 282 130 change;
#X obj 215 253 change;
#X obj 302 253 change;
#X obj 91 225 change;
#X obj 134 64 hid \$1;
#X obj 29 146 outlet;
#X connect 5 0 49 0;
#X connect 6 0 49 0;
#X connect 7 0 6 0;
#X connect 9 0 49 0;
#X connect 10 0 41 0;
#X connect 10 1 31 0;
#X connect 10 1 40 0;
#X connect 10 2 32 0;
#X connect 10 3 33 0;
#X connect 31 0 11 0;
#X connect 32 0 12 0;
#X connect 33 0 13 0;
#X connect 34 0 31 1;
#X connect 34 0 32 1;
#X connect 34 0 33 1;
#X connect 37 0 5 0;
#X connect 40 0 46 0;
#X connect 40 1 48 0;
#X connect 40 2 3 0;
#X connect 40 2 39 0;
#X connect 40 3 35 0;
#X connect 40 3 4 0;
#X connect 40 4 38 0;
#X connect 40 4 14 0;
#X connect 40 5 47 0;
#X connect 40 6 0 0;
#X connect 40 6 19 0;
#X connect 40 7 16 0;
#X connect 40 7 20 0;
#X connect 40 8 17 0;
#X connect 40 8 21 0;
#X connect 40 9 18 0;
#X connect 40 9 22 0;
#X connect 41 0 27 0;
#X connect 41 1 28 0;
#X connect 41 2 44 0;
#X connect 41 3 45 0;
#X connect 41 4 30 0;
#X connect 41 5 29 0;
#X connect 42 0 24 0;
#X connect 42 1 26 0;
#X connect 43 0 23 0;
#X connect 43 1 25 0;
#X connect 44 0 42 0;
#X connect 45 0 43 0;
#X connect 46 0 1 0;
#X connect 47 0 15 0;
#X connect 48 0 2 0;
#X connect 48 0 36 0;
#X connect 49 0 10 0;
#X connect 49 0 50 0;
#X restore 1 25 pd joystick1 5;
#N canvas 763 214 698 511 joystick2 0;
#X obj 463 348 bng 20 250 50 0 6_b_2 empty 6 0 -6 0 10 -262144 -1 -1
;
#X obj 215 315 bng 15 250 50 0 0_b_2 empty empty 0 -6 0 8 -262144 -1
-1;
#X obj 91 250 bng 15 250 50 0 1_b_2 empty empty 0 -6 0 8 -262144 -1
-1;
#X obj 91 265 bng 15 250 50 0 2_b_2 empty empty 0 -6 0 8 -262144 -1
-1;
#X obj 394 245 bng 15 250 50 0 3_b_2 empty empty 0 -6 0 8 -262144 -1
-1;
#X obj 168 15 tgl 15 0 empty empty empty 1 12 1 9 -262144 -1 -1 1 1
;
#X msg 231 34 open \$1;
#X obj 231 14 hradio 15 1 1 20 \$0-device-number empty choose_a_device
0 -6 1 9 -4034 -1 -1 18;
#X obj 195 14 nbx 2 14 -1e+37 1e+37 0 0 empty \$0-device-number empty
0 -6 0 14 -166441 -1 -1 18 256;
#X msg 117 15 print;
#X obj 134 83 route abs key ff;
#X obj 587 37 print abs:;
#X obj 587 58 print key:;
#X obj 587 81 print ff:;
#X obj 394 260 bng 15 250 50 0 4_b_2 empty empty 0 -6 0 8 -262144 -1
-1;
#X obj 302 314 bng 15 250 50 0 5_b_2 empty empty 0 -6 0 8 -262144 -1
-1;
#X obj 491 301 bng 20 250 50 0 7_b_2 empty 7 -12 0 0 10 -262144 -1
-1;
#X obj 518 411 bng 20 250 50 0 8_b_2 empty 8 0 -6 0 8 -262144 -1 -1
;
#X obj 545 348 bng 20 250 50 0 9_b_2 empty empty 10 0 0 1.65798e+07
-262144 -1 -262144;
#X obj 169 177 route btn_9 btn_6 btn_4 btn_7 btn_5 btn_8 btn_3 btn_0
btn_2 btn_1;
#X obj 437 349 tgl 20 0 6_bt_2 empty empty 0 -6 0 8 -262144 -1 -1 0
1;
#X obj 516 301 tgl 20 0 7_bt_2 empty empty 0 -6 0 8 -262144 -1 -1 0
1;
#X obj 491 411 tgl 20 0 8_bt_2 empty empty 0 -6 0 8 -262144 -1 -1 0
1;
#X obj 571 348 tgl 20 0 9_bt_2 empty 9 20 0 0 10 -262144 -1 -1 0 1
;
#X obj 53 319 bng 20 250 50 0 up_2 empty empty 0 -6 0 8 -262144 -1
-1;
#X obj 13 350 bng 20 250 50 0 left_2 empty empty 0 -6 0 8 -262144 -1
-1;
#X obj 52 385 bng 20 250 50 0 down_2 empty empty 0 -6 0 8 -262144 -1
-1;
#X obj 92 351 bng 20 250 50 0 right_2 empty empty 0 -6 0 8 -262144
-1 -1;
#X obj 127 353 hsl 128 15 0 255 0 0 left_x_2 empty empty -2 -6 0 8
-262144 -1 -1 0 1;
#X obj 182 296 vsl 15 128 255 0 0 0 left_y_2 empty empty 0 -8 0 8 -262144
-1 -1 0 1;
#X obj 282 353 hsl 128 15 0 255 0 0 right_x_2 empty empty -2 -6 0 8
-262144 -1 -1 0 1;
#X obj 337 296 vsl 15 128 255 0 0 0 right_y_2 empty empty 0 -8 0 8
-262144 -1 -1 0 1;
#X obj 540 37 spigot;
#X obj 540 58 spigot;
#X obj 540 81 spigot;
#X obj 540 15 tgl 15 0 empty empty debug 20 8 0 8 -262144 -1 -1 0 1
;
#X obj 374 244 tgl 15 0 3_t_2 empty empty 0 -6 0 8 -262144 -1 -1 0
1;
#X obj 110 251 tgl 15 0 1_t_2 empty empty 0 -6 0 8 -262144 -1 -1 0
1;
#X obj 8 -1 inlet;
#X obj 374 260 tgl 15 0 4_t_2 empty empty 0 -6 0 8 -262144 -1 -1 0
1;
#X obj 110 267 tgl 15 0 2_t_2 empty empty 0 -6 0 8 -262144 -1 -1 0
1;
#X obj 541 105 spigot;
#X obj 587 106 print;
#X obj 134 103 route abs_x abs_y abs_hat0x abs_hat0y abs_z abs_rz;
#X obj 233 155 route -1 1;
#X obj 303 155 route -1 1;
#X obj 233 129 change;
#X obj 303 130 change;
#X obj 215 255 change;
#X obj 302 255 change;
#X obj 91 222 change;
#X obj 134 64 hid \$1;
#X obj 53 126 outlet;
#X connect 5 0 51 0;
#X connect 6 0 51 0;
#X connect 7 0 6 0;
#X connect 9 0 51 0;
#X connect 10 0 41 0;
#X connect 10 0 43 0;
#X connect 10 1 19 0;
#X connect 10 1 32 0;
#X connect 10 2 33 0;
#X connect 10 3 34 0;
#X connect 19 0 48 0;
#X connect 19 1 50 0;
#X connect 19 2 3 0;
#X connect 19 2 40 0;
#X connect 19 3 4 0;
#X connect 19 3 36 0;
#X connect 19 4 14 0;
#X connect 19 4 39 0;
#X connect 19 5 49 0;
#X connect 19 6 0 0;
#X connect 19 6 20 0;
#X connect 19 7 16 0;
#X connect 19 7 21 0;
#X connect 19 8 17 0;
#X connect 19 8 22 0;
#X connect 19 9 18 0;
#X connect 19 9 23 0;
#X connect 32 0 11 0;
#X connect 33 0 12 0;
#X connect 34 0 13 0;
#X connect 35 0 32 1;
#X connect 35 0 33 1;
#X connect 35 0 34 1;
#X connect 35 0 41 1;
#X connect 38 0 5 0;
#X connect 41 0 42 0;
#X connect 43 0 28 0;
#X connect 43 1 29 0;
#X connect 43 2 46 0;
#X connect 43 3 47 0;
#X connect 43 4 31 0;
#X connect 43 5 30 0;
#X connect 44 0 25 0;
#X connect 44 1 27 0;
#X connect 45 0 24 0;
#X connect 45 1 26 0;
#X connect 46 0 44 0;
#X connect 47 0 45 0;
#X connect 48 0 1 0;
#X connect 49 0 15 0;
#X connect 50 0 2 0;
#X connect 50 0 37 0;
#X connect 51 0 10 0;
#X connect 51 0 52 0;
#X restore 179 25 pd joystick2 15;
#X obj 1 97 outlet;
#X obj 1 58 prepend send joystick_1;
#X obj 179 57 prepend send joystick_2;
#X connect 0 0 2 0;
#X connect 1 0 3 0;
#X connect 2 0 5 0;
#X connect 3 0 6 0;
#X connect 5 0 4 0;
#X connect 6 0 4 0;
#X coords 0 -1 1 1 40 16 1 0 0;
#X restore 189 118 pd joystick;
#N canvas 298 389 1383 585 Wii 0;
#X obj 10 10 tgl 15 1 empty empty empty 0 -6 0 8 -257985 -1 -1 0 1
;
#X obj 10 33 == 0;
#X obj 43 33 s w1;
#X obj 10 55 s w0;
#X obj 120 115 spigot;
#X obj 260 77 r w1;
#X obj 361 37 line;
#X obj 426 37 line;
#X obj 483 39 line;
#X obj 118 -85 r c1;
#X obj 167 -85 r c2;
#X obj 217 -85 r c3;
#X obj 102 27 switch;
#X obj 151 27 switch;
#X obj 201 26 switch;
#X msg 385 -43 1;
#X msg 425 -43 2;
#X text 463 -95 two modes of interpretation;
#X obj 505 -33 s effect5;
#X obj 385 -86 r c10;
#X obj 426 -86 r c11;
#X msg 503 -74 1;
#X msg 505 -53 0;
#X floatatom 566 46 5 0 0 0 - - -, f 5;
#X obj 566 112 s circ;
#X obj 599 -49 == 0;
#X obj 1127 94 r c5;
#X obj 723 141 spigot;
#X obj 833 116 r w1;
#X obj 723 163 abs;
#X obj 723 58 r c1;
#X obj 871 58 r c2;
#X obj 1020 58 r c3;
#X obj 424 215 s ms1;
#X obj 566 21 mapping/autoscale 0 1;
#X obj 720 -246 r c6;
#X obj 720 -97 s up;
#X obj 785 -246 r c7;
#X obj 785 -97 s down;
#X obj 848 -246 r c8;
#X obj 848 -97 s left;
#X obj 910 -247 r c9;
#X obj 910 -98 s right;
#X obj 720 -220 select 1;
#X obj 785 -220 select 1;
#X obj 848 -220 select 1;
#X obj 910 -220 select 1;
#X obj 566 -5 spigot;
#X obj 566 90 line;
#X obj 566 69 pack 1 200;
#X obj 44 55 s ms1;
#X text 564 135 move-scratch;
#X text 137 244 dimensions;
#X obj 1146 158 s 9_bt;
#X obj 768 17 r c4;
#X text 798 -56 clip switch;
#X obj 160 115 spigot;
#X obj 201 115 spigot;
#X obj 910 -133 gate 2;
#X obj 949 -183 r wii_channel;
#X obj 848 -133 gate 2;
#X obj 785 -133 gate 2;
#X obj 720 -133 gate 2;
#X obj 753 -77 s up_2;
#X obj 818 -77 s down_2;
#X obj 881 -77 s left_2;
#X obj 943 -78 s right_2;
#X obj 424 186 gate 2;
#X obj 424 158 r wii_channel;
#X obj 457 215 s ms2;
#X text 113 -268 for OSX see [wii_osx];
#X obj 116 -198 wii_linux;
#X obj 116 -172 tgl 15 0 empty empty empty 17 7 0 10 -258113 -1 -1
0 1;
#X msg 116 -235 discover;
#X msg 176 -235 connect;
#X obj 272 145 r wii_channel;
#X obj 121 192 s 3Dx_1;
#X obj 170 192 s 3Dy_1;
#X obj 219 192 s 3Dz_1;
#X obj 121 219 s 3Dx_2;
#X obj 170 219 s 3Dy_2;
#X obj 219 219 s 3Dz_2;
#X obj 742 226 s scalefactor_1;
#X obj 762 256 s scalefactor_2;
#X obj 723 194 shunt 3;
#X obj 723 90 expr sqrt(pow($f1 \, 2) + pow($f2 \, 2) + pow($f3 \,
2));
#X obj 774 193 r wii_channel;
#X obj 723 280 s scalefactor;
#X obj 12 186 &&;
#X obj 0 113 r wiichannel;
#X obj 0 137 == 0;
#X obj 0 158 t b f;
#X obj 12 218 s __XBlock3D;
#X obj 120 146 shunt 3;
#X obj 170 146 shunt 3;
#X obj 219 146 shunt 3;
#X obj 120 171 s 3Dx;
#X obj 170 171 s 3Dy;
#X obj 219 171 s 3Dz;
#X obj 37 186 sel 0;
#X msg 72 186 0;
#X text 799 20 A button => size by total motion;
#X obj 595 219 outlet;
#X obj 325 -65 loadbang;
#X obj 116 -128 outlet;
#X obj 1102 -179 r c13;
#X obj 1061 -179 r c14;
#X obj 1061 -116 select 1;
#X obj 1102 -145 select 1;
#N canvas 792 198 313 360 switchbanks 0;
#X msg -129 27 \; 3_t 1;
#X msg -168 28 \; 3_t 0;
#X msg -45 26 \; 3_t 1;
#X obj -65 67 s right;
#X msg -84 27 \; 3_t 0;
#X obj -149 68 s left;
#X obj -135 104 t b b b;
#X obj 3 104 t b b b;
#X obj 22 171 s right;
#X obj -116 171 s left;
#X msg -135 131 \; 3_t_2 0;
#X msg -80 131 \; 3_t_2 1;
#X msg 3 131 \; 3_t_2 0;
#X msg 58 131 \; 3_t_2 1;
#X obj -168 -4 t b b b;
#X obj -84 -5 t b b b;
#X obj -168 -40 gate 2;
#X obj -84 -41 gate 2;
#X obj -168 -89 inlet;
#X obj -106 -90 inlet;
#X obj -51 -89 inlet;
#X connect 6 0 10 0;
#X connect 6 1 9 0;
#X connect 6 2 11 0;
#X connect 7 0 12 0;
#X connect 7 1 8 0;
#X connect 7 2 13 0;
#X connect 14 0 1 0;
#X connect 14 1 5 0;
#X connect 14 2 0 0;
#X connect 15 0 4 0;
#X connect 15 1 3 0;
#X connect 15 2 2 0;
#X connect 16 0 14 0;
#X connect 16 1 6 0;
#X connect 17 0 15 0;
#X connect 17 1 7 0;
#X connect 18 0 16 0;
#X connect 18 0 17 0;
#X connect 19 0 16 1;
#X connect 20 0 17 1;
#X restore 1021 -78 pd switchbanks;
#X obj 385 -65 sel 1;
#X obj 426 -65 sel 1;
#X msg 229 -235 disconnect;
#X obj 52 -236 inlet;
#X obj 723 117 - 0.5;
#X obj 118 -58 lop 0.5 200;
#X obj 167 -33 lop 0.5 200;
#X obj 217 -59 lop 0.5 200;
#X obj 807 116 &&;
#X obj 833 136 t b f;
#X obj 768 116 t f f;
#X obj 768 141 sel 0;
#X msg 768 162 1;
#X obj 361 -1 pack 0 50;
#X obj 426 18 pack 0 50;
#X obj 483 -1 pack 0 50;
#X obj 1166 94 r wii_channel;
#X obj 1166 189 s 9_bt_2;
#X obj 1127 124 shunt 3;
#X obj 1127 225 s output_model;
#X obj 201 87 * 360;
#X obj 160 86 * 360;
#X obj 120 87 * 360;
#X connect 0 0 1 0;
#X connect 0 0 2 0;
#X connect 0 0 50 0;
#X connect 0 0 88 0;
#X connect 1 0 3 0;
#X connect 4 0 93 0;
#X connect 5 0 4 1;
#X connect 5 0 56 1;
#X connect 5 0 57 1;
#X connect 6 0 12 2;
#X connect 7 0 13 2;
#X connect 8 0 14 2;
#X connect 9 0 115 0;
#X connect 10 0 116 0;
#X connect 11 0 117 0;
#X connect 12 0 132 0;
#X connect 13 0 131 0;
#X connect 14 0 130 0;
#X connect 15 0 12 0;
#X connect 15 0 13 0;
#X connect 15 0 14 0;
#X connect 15 0 102 0;
#X connect 16 0 12 0;
#X connect 16 0 13 0;
#X connect 16 0 14 0;
#X connect 16 0 102 0;
#X connect 19 0 110 0;
#X connect 20 0 111 0;
#X connect 21 0 18 0;
#X connect 21 0 25 0;
#X connect 21 0 67 1;
#X connect 22 0 18 0;
#X connect 22 0 25 0;
#X connect 22 0 67 1;
#X connect 23 0 49 0;
#X connect 25 0 47 1;
#X connect 26 0 128 0;
#X connect 27 0 29 0;
#X connect 28 0 119 0;
#X connect 29 0 84 0;
#X connect 30 0 85 0;
#X connect 31 0 85 1;
#X connect 32 0 85 2;
#X connect 34 0 23 0;
#X connect 35 0 43 0;
#X connect 37 0 44 0;
#X connect 39 0 45 0;
#X connect 41 0 46 0;
#X connect 43 0 62 1;
#X connect 44 0 61 1;
#X connect 45 0 60 1;
#X connect 46 0 58 1;
#X connect 47 0 34 0;
#X connect 48 0 24 0;
#X connect 49 0 48 0;
#X connect 54 0 120 0;
#X connect 56 0 94 0;
#X connect 57 0 95 0;
#X connect 58 0 42 0;
#X connect 58 1 66 0;
#X connect 59 0 58 0;
#X connect 59 0 60 0;
#X connect 59 0 61 0;
#X connect 59 0 62 0;
#X connect 59 0 109 0;
#X connect 60 0 40 0;
#X connect 60 1 65 0;
#X connect 61 0 38 0;
#X connect 61 1 64 0;
#X connect 62 0 36 0;
#X connect 62 1 63 0;
#X connect 67 0 33 0;
#X connect 67 1 69 0;
#X connect 68 0 67 0;
#X connect 71 0 72 0;
#X connect 72 0 104 0;
#X connect 73 0 71 0;
#X connect 74 0 71 0;
#X connect 75 0 93 1;
#X connect 75 0 94 1;
#X connect 75 0 95 1;
#X connect 84 0 87 0;
#X connect 84 1 82 0;
#X connect 84 2 83 0;
#X connect 85 0 114 0;
#X connect 85 0 47 0;
#X connect 86 0 84 1;
#X connect 88 0 92 0;
#X connect 88 0 99 0;
#X connect 89 0 90 0;
#X connect 90 0 91 0;
#X connect 91 0 88 0;
#X connect 91 1 88 1;
#X connect 93 0 96 0;
#X connect 93 1 76 0;
#X connect 93 2 79 0;
#X connect 94 0 97 0;
#X connect 94 1 77 0;
#X connect 94 2 80 0;
#X connect 95 0 98 0;
#X connect 95 1 78 0;
#X connect 95 2 81 0;
#X connect 99 0 100 0;
#X connect 100 0 96 0;
#X connect 100 0 97 0;
#X connect 100 0 98 0;
#X connect 103 0 110 0;
#X connect 105 0 108 0;
#X connect 106 0 107 0;
#X connect 107 0 109 1;
#X connect 108 0 109 2;
#X connect 110 0 15 0;
#X connect 110 0 21 0;
#X connect 111 0 16 0;
#X connect 111 0 22 0;
#X connect 111 0 123 0;
#X connect 111 0 124 0;
#X connect 111 0 125 0;
#X connect 112 0 71 0;
#X connect 113 0 71 0;
#X connect 114 0 27 0;
#X connect 115 0 12 1;
#X connect 116 0 13 1;
#X connect 117 0 14 1;
#X connect 118 0 27 1;
#X connect 119 0 118 0;
#X connect 119 1 118 1;
#X connect 120 0 121 0;
#X connect 120 1 118 0;
#X connect 121 0 122 0;
#X connect 122 0 84 0;
#X connect 123 0 6 0;
#X connect 124 0 7 0;
#X connect 125 0 8 0;
#X connect 126 0 128 1;
#X connect 128 0 129 0;
#X connect 128 1 53 0;
#X connect 128 2 127 0;
#X connect 130 0 57 0;
#X connect 131 0 56 0;
#X connect 132 0 4 0;
#X coords 0 -1 1 1 15 15 1 10 10;
#X restore 272 117 pd Wii;
#N canvas 450 250 1423 529 joystick_ctrl 0;
#X obj 213 22 r left_x;
#X obj 272 22 r left_y;
#X obj 331 22 r right_x;
#X obj 396 22 r right_y;
#X obj 516 78 r 6_bt;
#X obj 575 78 r 7_bt;
#X obj 634 78 r 8_bt;
#X obj 131 9 loadbang;
#X msg 131 28 0;
#X obj 696 39 r w1;
#X obj 650 39 spigot;
#X obj 566 0 r c4;
#X msg 650 19 0;
#X obj 566 19 t b b;
#X msg 679 19 1;
#X obj 512 0 r flash;
#X obj 650 0 delay 20;
#X floatatom 878 319 5 0 0 0 - - -, f 5;
#X msg 878 353 1;
#X obj 878 335 t b f;
#X obj 1226 31 r 1_t;
#X obj 879 220 r triggernote;
#X obj 879 241 - 36;
#X obj 879 262 spigot;
#X text 912 245 kettle connection;
#X floatatom 825 336 3 1 2 2 layer layer -, f 3;
#X obj 878 301 bng 15 250 50 0 empty empty re-trigger 0 -6 0 8 -262144
-1 -262144;
#X obj 825 352 + 1;
#X text 213 6 knubbelachsen;
#X text 513 62 [ ];
#X text 579 62 ^;
#X text 699 62 O;
#X text 635 62 x;
#X obj 1226 96 s ms1;
#X obj 1294 94 s ms2;
#X obj 1226 75 tgl 15 0 empty empty empty 0 -6 0 8 -262144 -1 -1 0
1;
#X obj 1294 74 tgl 15 0 empty empty empty 0 -6 0 8 -262144 -1 -1 0
1;
#X obj 926 263 tgl 15 0 empty kettle kettle 20 3 0 8 -262144 -1 -262144
0 1;
#X floatatom 822 66 3 1 2 2 bank bank_01 -, f 3;
#X obj 822 89 - 1;
#X floatatom 905 68 3 1 2 2 bank bank_02 -, f 3;
#X obj 905 91 - 1;
#X obj 1294 30 r 1_t_2;
#X text 1225 8 moviescratch on/off;
#X text 515 295 [ ];
#X text 581 295 ^;
#X text 701 295 O;
#X text 637 295 x;
#X obj 518 311 r 6_bt_2;
#X obj 577 311 r 7_bt_2;
#X obj 636 311 r 8_bt_2;
#X obj 701 311 r 9_bt_2;
#X text 211 147 knubbelachsen2;
#X obj 985 35 r up;
#X obj 981 73 r down;
#X obj 947 54 r left;
#X obj 1011 54 r right;
#X text 1067 55 joyin;
#X obj 1071 104 r up_2;
#X obj 1065 150 r down_2;
#X obj 1018 127 r left_2;
#X obj 1107 128 r right_2;
#X text 1177 129 joy2;
#X obj 1137 219 r speed1;
#X obj 1077 306 spigot;
#X obj 1077 327 t b b;
#X obj 1077 384 + 1;
#X msg 1077 349 -1;
#X obj 1226 52 sel 1;
#X obj 1294 51 sel 1;
#X obj 1077 285 sel 1;
#X obj 1150 285 sel 1;
#X obj 1077 240 r 2_t;
#X obj 1150 241 r 4_t;
#X obj 1150 306 spigot;
#X obj 1150 326 t b b;
#X msg 1150 347 1;
#X obj 1077 418 s xspeed1;
#X obj 1114 348 int 1;
#X obj 1066 263 spigot;
#X obj 1142 262 spigot;
#X obj 1226 306 spigot;
#X obj 1226 327 t b b;
#X obj 1226 371 + 1;
#X msg 1226 349 -1;
#X obj 1226 285 sel 1;
#X obj 1299 285 sel 1;
#X obj 1299 306 spigot;
#X obj 1256 371 >= 0;
#X obj 1299 327 t b b;
#X msg 1299 347 1;
#X obj 1256 348 int 1;
#X obj 1215 263 spigot;
#X obj 1291 262 spigot;
#X text 1047 200 speed setting via joystick;
#X obj 1226 403 s xspeed2;
#X obj 1286 219 r speed2;
#X obj 1226 240 r 2_t_2;
#X obj 1299 241 r 4_t_2;
#X obj 213 335 r 3_t;
#X obj 283 357 tgl 15 0 empty empty empty 0 -6 0 8 -262144 -1 -1 0
1;
#X obj 213 356 tgl 15 0 empty empty empty 0 -6 0 8 -262144 -1 -1 0
1;
#X obj 427 329 tgl 15 0 empty empty empty 0 -6 0 8 -262144 -1 -1 0
1;
#X obj 427 346 sel 1;
#X obj 350 311 r 0_b;
#X obj 350 329 tgl 15 0 empty empty empty 0 -6 0 8 -262144 -1 -1 0
1;
#X obj 350 346 sel 1;
#X obj 350 364 s lonoff1;
#X obj 427 364 s lonoff2;
#N canvas 333 159 224 224 if_timer 0;
#X obj 41 12 inlet;
#X obj 99 19 sel 0;
#X msg 99 37 100;
#X obj 99 62 int 100;
#X obj 127 90 - 1;
#X obj 99 164 > 20;
#X obj 99 142 spigot;
#X obj 41 139 outlet;
#X obj 41 101 metro 100;
#X obj 41 78 spigot;
#X obj 41 34 t f f f;
#X obj 41 55 pipe 200;
#X msg 128 37 0;
#X floatatom 163 136 5 0 0 0 - - -, f 5;
#X obj 41 120 t b b;
#X connect 0 0 10 0;
#X connect 1 0 2 0;
#X connect 1 0 12 0;
#X connect 2 0 3 0;
#X connect 3 0 4 0;
#X connect 3 0 8 1;
#X connect 3 0 5 0;
#X connect 3 0 13 0;
#X connect 4 0 3 1;
#X connect 5 0 6 1;
#X connect 6 0 3 0;
#X connect 8 0 14 0;
#X connect 9 0 8 0;
#X connect 10 0 11 0;
#X connect 10 1 9 1;
#X connect 10 2 1 0;
#X connect 11 0 9 0;
#X connect 12 0 8 0;
#X connect 14 0 7 0;
#X connect 14 1 6 0;
#X restore 1042 219 pd if_timer 1;
#N canvas 333 159 224 224 if_timer 0;
#X obj 41 12 inlet;
#X obj 99 19 sel 0;
#X msg 99 37 100;
#X obj 99 62 int 100;
#X obj 127 90 - 1;
#X obj 99 164 > 20;
#X obj 99 142 spigot;
#X obj 41 139 outlet;
#X obj 41 101 metro 100;
#X obj 41 78 spigot;
#X obj 41 34 t f f f;
#X obj 41 55 pipe 200;
#X msg 128 37 0;
#X floatatom 163 136 5 0 0 0 - - -, f 5;
#X obj 41 120 t b b;
#X connect 0 0 10 0;
#X connect 1 0 2 0;
#X connect 1 0 12 0;
#X connect 2 0 3 0;
#X connect 3 0 4 0;
#X connect 3 0 8 1;
#X connect 3 0 5 0;
#X connect 3 0 13 0;
#X connect 4 0 3 1;
#X connect 5 0 6 1;
#X connect 6 0 3 0;
#X connect 8 0 14 0;
#X connect 9 0 8 0;
#X connect 10 0 11 0;
#X connect 10 1 9 1;
#X connect 10 2 1 0;
#X connect 11 0 9 0;
#X connect 12 0 8 0;
#X connect 14 0 7 0;
#X connect 14 1 6 0;
#X restore 1200 219 pd if_timer;
#N canvas 405 193 337 430 switchbank 0;
#X obj 17 9 inlet;
#X obj 53 33 r left;
#X obj 99 33 r right;
#X obj 17 116 spigot;
#X obj 17 33 == 0;
#X obj 17 74 s blockcs1;
#X text 91 74 block clip switching;
#X obj 65 116 spigot;
#X obj 45 240 int;
#X obj 17 154 spigot;
#X obj 65 155 spigot;
#X obj 17 193 t b b;
#X msg 47 217 -1;
#X msg 95 216 1;
#X obj 46 270 +;
#X obj 65 193 t b b;
#X obj 17 240 > 1;
#X obj 7 300 s xbank_01;
#X obj 114 155 r i;
#X floatatom 165 310 5 0 0 0 - - -, f 5;
#X obj 165 211 loadbang;
#X obj 78 241 < 10;
#X msg 165 234 13;
#X obj 170 159 r init_banks;
#X obj 174 34 r __bank_left_01;
#X obj 197 58 r __bank_right_01;
#X connect 0 0 4 0;
#X connect 0 0 3 1;
#X connect 0 0 7 1;
#X connect 1 0 3 0;
#X connect 2 0 7 0;
#X connect 3 0 9 0;
#X connect 4 0 5 0;
#X connect 7 0 10 0;
#X connect 8 0 14 1;
#X connect 8 0 16 0;
#X connect 8 0 17 0;
#X connect 8 0 19 0;
#X connect 8 0 21 0;
#X connect 9 0 11 0;
#X connect 10 0 15 0;
#X connect 11 0 8 0;
#X connect 11 1 12 0;
#X connect 12 0 14 0;
#X connect 13 0 14 0;
#X connect 14 0 8 1;
#X connect 15 0 8 0;
#X connect 15 1 13 0;
#X connect 16 0 9 1;
#X connect 18 0 10 1;
#X connect 18 0 9 1;
#X connect 20 0 22 0;
#X connect 21 0 10 1;
#X connect 22 0 21 1;
#X connect 23 0 21 1;
#X connect 24 0 9 0;
#X connect 25 0 10 0;
#X restore 213 378 pd switchbank 1;
#N canvas 464 50 263 292 switchbank 0;
#X obj 17 9 inlet;
#X obj 17 76 spigot;
#X obj 17 33 == 0;
#X text 91 54 block clip switching;
#X obj 65 76 spigot;
#X obj 45 160 int;
#X obj 17 94 spigot;
#X obj 65 95 spigot;
#X obj 17 113 t b b;
#X msg 47 137 -1;
#X msg 95 136 1;
#X obj 46 190 +;
#X obj 65 114 t b b;
#X obj 17 160 > 1;
#X obj 45 219 s xbank_02;
#X obj 53 33 r left_2;
#X obj 116 32 r right_2;
#X obj 17 54 s blockcs2;
#X obj 114 95 r i;
#X obj 175 141 loadbang;
#X obj 72 160 < 10;
#X msg 175 164 13;
#X obj 152 104 r init_banks;
#X connect 0 0 2 0;
#X connect 0 0 1 1;
#X connect 0 0 4 1;
#X connect 1 0 6 0;
#X connect 2 0 17 0;
#X connect 4 0 7 0;
#X connect 5 0 11 1;
#X connect 5 0 13 0;
#X connect 5 0 14 0;
#X connect 5 0 20 0;
#X connect 6 0 8 0;
#X connect 7 0 12 0;
#X connect 8 0 5 0;
#X connect 8 1 9 0;
#X connect 9 0 11 0;
#X connect 10 0 11 0;
#X connect 11 0 5 1;
#X connect 12 0 5 0;
#X connect 12 1 10 0;
#X connect 13 0 6 1;
#X connect 15 0 1 0;
#X connect 16 0 4 0;
#X connect 18 0 7 1;
#X connect 18 0 6 1;
#X connect 19 0 21 0;
#X connect 20 0 7 1;
#X connect 21 0 20 1;
#X connect 22 0 20 1;
#X restore 283 404 pd switchbank 2;
#X obj 1124 306 r i;
#X obj 1273 306 r i;
#X obj 516 119 sel 0;
#X obj 518 353 sel 0;
#X obj 518 337 s scale_env_2;
#X obj 283 336 r 3_t_2;
#X obj 427 311 r 5_b_2;
#X obj 213 87 spigot;
#X msg 131 55 1;
#X obj 46 34 tgl 15 0 empty empty empty 0 -6 0 8 -262144 -1 -1 0 1
;
#X obj 46 6 r midijoy;
#X obj 61 33 s mjoy;
#X obj 38 312 r 0_b_2;
#X obj 47 95 r 5_b;
#X obj 38 331 tgl 15 0 empty empty empty 0 -6 0 8 -262144 -1 -1 0 1
;
#X obj 47 113 tgl 15 0 empty empty empty 0 -6 0 8 -262144 -1 -1 0 1
;
#X obj 47 131 sel 1;
#X obj 38 349 sel 1;
#X obj 38 366 tgl 15 0 empty empty empty 0 -6 0 8 -262144 -1 -1 1 1
;
#X obj 47 148 tgl 15 0 empty empty empty 0 -6 0 8 -262144 -1 -1 1 1
;
#X obj 38 406 sel 0;
#X obj 47 189 sel 0;
#X obj 47 209 del 10;
#X obj 38 428 del 10;
#X msg 114 215 0;
#X msg 89 428 0;
#X obj 699 78 r 9_bt;
#X obj 1303 371 < 200;
#X obj 822 170 clipgrid2 1;
#X obj 822 192 s clip_1;
#X obj 905 191 s clip_2;
#X obj 272 86 spigot;
#X obj 365 87 spigot;
#X obj 825 414 s clip_1;
#X obj 890 414 s clip_2;
#X obj 825 382 gate 2 1;
#X msg 516 139 1;
#X msg 518 373 1;
#X msg 577 358 0;
#X msg 575 126 0;
#X obj 1106 384 > 1;
#X obj 1154 371 < 199;
#X obj 1147 418 t f;
#X obj 1299 403 t f;
#X obj 699 122 sel 1;
#X obj 699 99 change;
#X obj 636 333 change;
#X obj 213 44 expr $f1/255 * 360 - 180;
#X obj 365 44 expr $f1/255 * 360 - 180;
#X obj 272 63 expr $f1/255 * 360 - 180;
#X text 103 98 joystick map;
#X obj 213 234 spigot;
#X obj 281 233 spigot;
#X obj 396 232 spigot;
#X obj 213 191 expr $f1/255 * 360 - 180;
#X obj 365 191 expr $f1/255 * 360 - 180;
#X obj 282 210 expr $f1/255 * 360 - 180;
#X obj 213 169 r left_x_2;
#X obj 282 169 r left_y_2;
#X obj 351 169 r right_x_2;
#X obj 426 169 r right_y_2;
#X obj 213 256 s 3Dx_2;
#X obj 281 256 s 3Dy_2;
#X obj 396 254 s 3Dz_2;
#X obj 213 109 s 3Dx_1;
#X obj 272 109 s 3Dy_1;
#X obj 365 109 s 3Dz_1;
#X obj 38 385 s xblock3D_2;
#X obj 57 167 s xblock3D_1;
#X obj 518 397 s scalefactor_2;
#X obj 516 162 s scalefactor_1;
#X obj 699 171 s output_model_1;
#X obj 701 404 sel 1;
#X obj 701 381 change;
#X obj 701 456 s output_model_2;
#X obj 634 101 change;
#X obj 634 208 s coord_effect;
#X obj 515 99 s scale_env_1;
#X obj 636 357 s flash;
#X obj 699 146 counter 1 3;
#X obj 701 430 counter 1 3;
#X obj 896 8 r __set_clip_1;
#X obj 1003 8 r __set_clip_2;
#X obj 905 170 clipgrid2 2;
#X connect 0 0 160 0;
#X connect 1 0 162 0;
#X connect 3 0 161 0;
#X connect 4 0 115 0;
#X connect 4 0 190 0;
#X connect 5 0 152 0;
#X connect 6 0 188 0;
#X connect 7 0 8 0;
#X connect 7 0 121 0;
#X connect 8 0 122 0;
#X connect 9 0 10 1;
#X connect 11 0 13 0;
#X connect 12 0 10 0;
#X connect 13 0 16 0;
#X connect 13 1 14 0;
#X connect 14 0 10 0;
#X connect 15 0 13 0;
#X connect 16 0 12 0;
#X connect 17 0 19 0;
#X connect 18 0 148 1;
#X connect 19 0 18 0;
#X connect 20 0 68 0;
#X connect 21 0 22 0;
#X connect 22 0 23 0;
#X connect 23 0 17 0;
#X connect 25 0 27 0;
#X connect 26 0 17 0;
#X connect 27 0 148 0;
#X connect 35 0 33 0;
#X connect 36 0 34 0;
#X connect 37 0 23 1;
#X connect 38 0 39 0;
#X connect 39 0 141 0;
#X connect 40 0 41 0;
#X connect 41 0 196 0;
#X connect 42 0 69 0;
#X connect 48 0 116 0;
#X connect 48 0 117 0;
#X connect 49 0 151 0;
#X connect 50 0 159 0;
#X connect 51 0 186 0;
#X connect 53 0 141 1;
#X connect 54 0 141 2;
#X connect 55 0 141 3;
#X connect 56 0 141 4;
#X connect 58 0 196 1;
#X connect 59 0 196 2;
#X connect 60 0 196 3;
#X connect 61 0 196 4;
#X connect 63 0 78 1;
#X connect 64 0 65 0;
#X connect 65 0 67 0;
#X connect 65 1 78 0;
#X connect 66 0 77 0;
#X connect 66 0 155 0;
#X connect 67 0 66 0;
#X connect 68 0 35 0;
#X connect 69 0 36 0;
#X connect 70 0 64 0;
#X connect 71 0 74 0;
#X connect 72 0 109 0;
#X connect 72 0 79 1;
#X connect 72 0 70 0;
#X connect 73 0 80 1;
#X connect 73 0 109 0;
#X connect 73 0 71 0;
#X connect 74 0 75 0;
#X connect 75 0 76 0;
#X connect 75 1 78 0;
#X connect 76 0 66 0;
#X connect 78 0 66 1;
#X connect 78 0 153 0;
#X connect 78 0 154 0;
#X connect 79 0 64 0;
#X connect 80 0 74 0;
#X connect 81 0 82 0;
#X connect 82 0 84 0;
#X connect 82 1 91 0;
#X connect 83 0 95 0;
#X connect 83 0 156 0;
#X connect 84 0 83 0;
#X connect 85 0 81 0;
#X connect 86 0 87 0;
#X connect 87 0 89 0;
#X connect 88 0 81 1;
#X connect 89 0 90 0;
#X connect 89 1 91 0;
#X connect 90 0 83 0;
#X connect 91 0 83 1;
#X connect 91 0 88 0;
#X connect 91 0 140 0;
#X connect 92 0 81 0;
#X connect 93 0 87 0;
#X connect 96 0 91 1;
#X connect 97 0 110 0;
#X connect 97 0 92 1;
#X connect 97 0 85 0;
#X connect 98 0 93 1;
#X connect 98 0 110 0;
#X connect 98 0 86 0;
#X connect 99 0 101 0;
#X connect 100 0 112 0;
#X connect 101 0 111 0;
#X connect 102 0 103 0;
#X connect 103 0 108 0;
#X connect 104 0 105 0;
#X connect 105 0 106 0;
#X connect 106 0 107 0;
#X connect 109 0 79 0;
#X connect 109 0 80 0;
#X connect 110 0 92 0;
#X connect 110 0 93 0;
#X connect 113 0 64 1;
#X connect 113 0 74 1;
#X connect 114 0 81 1;
#X connect 114 0 87 1;
#X connect 115 0 149 0;
#X connect 116 0 150 0;
#X connect 118 0 100 0;
#X connect 119 0 102 0;
#X connect 120 0 177 0;
#X connect 121 0 132 0;
#X connect 121 0 131 0;
#X connect 122 0 124 0;
#X connect 123 0 122 0;
#X connect 125 0 127 0;
#X connect 126 0 128 0;
#X connect 127 0 130 0;
#X connect 128 0 129 0;
#X connect 129 0 132 0;
#X connect 130 0 131 0;
#X connect 131 0 133 0;
#X connect 131 0 164 1;
#X connect 131 0 165 1;
#X connect 131 0 166 1;
#X connect 131 0 180 0;
#X connect 132 0 120 1;
#X connect 132 0 134 0;
#X connect 132 0 144 1;
#X connect 132 0 145 1;
#X connect 132 0 181 0;
#X connect 133 0 136 0;
#X connect 134 0 135 0;
#X connect 135 0 137 0;
#X connect 136 0 138 0;
#X connect 137 0 177 0;
#X connect 137 0 178 0;
#X connect 137 0 179 0;
#X connect 139 0 158 0;
#X connect 140 0 87 1;
#X connect 141 0 142 0;
#X connect 144 0 178 0;
#X connect 145 0 179 0;
#X connect 148 0 146 0;
#X connect 148 1 147 0;
#X connect 149 0 183 0;
#X connect 150 0 182 0;
#X connect 151 0 174 0;
#X connect 151 0 175 0;
#X connect 151 0 176 0;
#X connect 152 0 177 0;
#X connect 152 0 178 0;
#X connect 152 0 179 0;
#X connect 153 0 64 1;
#X connect 154 0 74 1;
#X connect 155 0 78 1;
#X connect 156 0 91 1;
#X connect 157 0 192 0;
#X connect 158 0 157 0;
#X connect 159 0 191 0;
#X connect 160 0 120 0;
#X connect 161 0 145 0;
#X connect 162 0 144 0;
#X connect 164 0 174 0;
#X connect 165 0 175 0;
#X connect 166 0 176 0;
#X connect 167 0 164 0;
#X connect 168 0 166 0;
#X connect 169 0 165 0;
#X connect 170 0 167 0;
#X connect 171 0 169 0;
#X connect 173 0 168 0;
#X connect 185 0 193 0;
#X connect 186 0 185 0;
#X connect 188 0 189 0;
#X connect 192 0 184 0;
#X connect 193 0 187 0;
#X connect 194 0 141 5;
#X connect 195 0 196 5;
#X connect 196 0 143 0;
#X coords 0 -1 1 1 85 16 1 100 100;
#X restore 67 118 pd joystick_ctrl;
#X obj 315 120 nbx 1 14 0 2 0 1 wii_channel x_wii_channel channel 20
10 0 8 -257985 -1 -257985 1 256;
#X obj 369 147 vjtools/videogrid videogrid1 3 5 #F0F0F0 #0F0F0F #F1882B
mov:mpg:avi 60 40 /home/ub/visuals/loops/nature/roundup.mov|/home/ub/visuals/loops/nature/fruckel.mov|/home/ub/visuals/loops/nature/p0wer2.mov|/home/ub/visuals/loops/nature/serverroom.mov|/home/ub/visuals/loops/nature/laboratorio.mov|/home/ub/visuals/loops/nature/p0wer4.mov|/home/ub/visuals/loops/nature/bouncy.mov|/home/ub/visuals/loops/nature/ketchup.mov|/home/ub/visuals/loops/nature/bauhaus.mov|/home/ub/visuals/loops/nature/soldier.mov|/home/ub/visuals/loops/nature/datacaust.mov|/home/ub/visuals/loops/nature/utopia.mov|/home/ub/visuals/loops/nature/p0wer3.mov|/home/ub/visuals/loops/nature/movement.mov|
;
#X obj 811 146 vjtools/videogrid videogrid2 3 5 #F0F0F0 #0F0F0F #00fb14
mov:mpg:avi 60 40 ;
#X msg 642 130 clear;
#X obj 369 44 openpanel;
#X obj 369 15 bng 15 250 50 0 empty empty empty 17 7 0 10 -99865 -1
-1;
#X msg 369 67 putvideo \$1;
#N canvas 617 411 450 300 playlist 0;
#X msg 149 123 seek \$1;
#X floatatom 149 68 5 0 0 0 - - -, f 5;
#X obj 28 184 outlet;
#X obj 149 29 r clip_1;
#X obj 28 35 r xbank_01;
#X obj 136 183 outlet;
#X obj 28 70 videodir;
#X connect 0 0 2 0;
#X connect 1 0 0 0;
#X connect 3 0 1 0;
#X connect 4 0 6 0;
#X connect 6 0 2 0;
#X connect 6 1 5 0;
#X coords 0 -1 1 1 40 22 1 148 66;
#X restore 369 120 pd playlist;
#N canvas 230 134 450 300 playlist 0;
#X msg 149 123 seek \$1;
#X floatatom 149 68 5 0 0 0 - - -, f 5;
#X obj 28 184 outlet;
#X obj 28 35 r xbank_02;
#X obj 149 29 r clip_2;
#X obj 146 185 outlet;
#X obj 28 70 videodir;
#X connect 0 0 2 0;
#X connect 1 0 0 0;
#X connect 3 0 6 0;
#X connect 4 0 1 0;
#X connect 6 0 2 0;
#X connect 6 1 5 0;
#X coords 0 -1 1 1 40 22 1 148 66;
#X restore 811 114 pd playlist;
#X msg 1086 129 clear;
#X obj 811 45 openpanel;
#X obj 811 16 bng 15 250 50 0 empty empty empty 17 7 0 10 -99865 -1
-1;
#X msg 811 68 putvideo \$1;
#X symbolatom 454 122 10 0 0 0 - - -, f 10;
#X symbolatom 896 117 10 0 0 0 - - -, f 10;
#X symbolatom 369 299 55 0 0 0 - - -, f 55;
#X obj 440 44 dirpanel;
#X msg 369 89 putvideodir \$1;
#X obj 440 15 bng 15 250 50 0 empty empty empty 17 7 0 10 -99865 -1
-1;
#X obj 882 44 dirpanel;
#X obj 882 15 bng 15 250 50 0 empty empty empty 17 7 0 10 -99865 -1
-1;
#X msg 812 90 putvideodir \$1;
#X obj 272 139 tgl 15 0 empty empty connected 17 7 0 8 -257985 -1 -257985
0 1;
#X obj 311 156 nbx 1 14 1 2 0 1 empty empty mode 20 10 0 8 -257985
-1 -257985 1 256;
#X msg 272 64 connect;
#X msg 272 87 disconnect;
#X obj 811 442 netsend 1;
#X floatatom 811 478 5 0 0 0 - - -, f 5;
#X msg 369 370 send movie_1 \$1;
#X msg 811 360 send movie_2 \$1;
#X obj 189 444 netsend 1;
#X floatatom 189 480 5 0 0 0 - - -, f 5;
#X msg 264 444 connect localhost 3000;
#X msg 886 442 connect localhost 3001;
#X obj 64 371 metro 250;
#X obj 64 321 loadbang;
#X msg 64 346 1;
#X obj 722 401 metro 250;
#X obj 722 351 loadbang;
#X msg 722 376 1;
#X obj 20 351 == 0;
#X obj 678 381 == 0;
#X obj 1131 20 init-gui.018;
#N canvas 654 50 1060 706 midi_ctrl 0;
#X obj 57 63 notein;
#X obj 76 556 noteout;
#X obj 76 440 for 1 6;
#X obj 76 471 t f f f;
#X msg 99 523 1;
#X obj 136 521 loadbang;
#X obj 99 497 + 8;
#X obj 126 498 + 16;
#X msg 76 410 bang;
#N canvas 968 598 697 295 video_grid 0;
#X obj 32 125 & 7;
#X obj 69 99 >> 3;
#X obj 51 263 s __set_clip_1;
#X obj 69 151 * 5;
#X obj 51 233 +;
#X obj 32 150 - 1;
#X obj 32 203 moses 5;
#X obj 32 176 moses 0;
#X obj 69 123 moses 3;
#X obj 115 99 r grid_rows;
#X obj 98 151 r grid_cols;
#X obj 32 36 t f f;
#X obj 32 10 inlet midi-note;
#X obj 304 254 noteout;
#X obj 304 14 inlet pos[index \, val];
#X obj 304 49 unpack f f;
#X obj 508 124 r grid_cols;
#X obj 304 144 / 5;
#X obj 304 169 i;
#X obj 304 196 * 8;
#X obj 304 226 +;
#X obj 304 119 t f f;
#X obj 336 144 % 5;
#X obj 304 95 moses 15;
#X obj 508 190 *;
#X obj 508 154 t b f;
#X obj 487 98 r grid_rows;
#X obj 336 169 + 1;
#X obj 304 72 moses 0;
#X text 386 48 set led on movie grid;
#X obj 32 63 spigot;
#X obj 95 64 < 3;
#X obj 218 49 pack f 127;
#X connect 0 0 5 0;
#X connect 1 0 8 0;
#X connect 1 0 31 0;
#X connect 3 0 4 1;
#X connect 4 0 2 0;
#X connect 4 0 32 0;
#X connect 5 0 7 0;
#X connect 6 0 4 0;
#X connect 7 1 6 0;
#X connect 8 0 3 0;
#X connect 9 0 8 1;
#X connect 10 0 3 1;
#X connect 10 0 6 1;
#X connect 11 0 30 0;
#X connect 11 1 1 0;
#X connect 12 0 11 0;
#X connect 14 0 15 0;
#X connect 15 0 28 0;
#X connect 15 1 13 1;
#X connect 16 0 17 1;
#X connect 16 0 22 1;
#X connect 16 0 25 0;
#X connect 17 0 18 0;
#X connect 18 0 19 0;
#X connect 19 0 20 0;
#X connect 20 0 13 0;
#X connect 21 0 17 0;
#X connect 21 1 22 0;
#X connect 22 0 27 0;
#X connect 23 0 21 0;
#X connect 24 0 23 1;
#X connect 25 0 24 0;
#X connect 25 1 24 1;
#X connect 26 0 24 0;
#X connect 27 0 20 1;
#X connect 28 1 23 0;
#X connect 30 0 0 0;
#X connect 31 0 30 1;
#X connect 32 0 15 0;
#X restore 57 343 pd video_grid;
#X obj 145 116 r clip_1;
#N canvas 1138 442 450 300 set_videogrid_led 0;
#X obj 45 19 inlet clip_index;
#X obj 45 246 outlet [index \, led_value];
#X obj 142 134 f;
#X obj 142 183 pack 0 1;
#X obj 45 182 pack 0 0;
#X obj 45 74 t b f b;
#X obj 45 153 f;
#X obj 45 123 delay 100;
#X connect 0 0 5 0;
#X connect 2 0 3 0;
#X connect 3 0 1 0;
#X connect 4 0 1 0;
#X connect 5 0 7 0;
#X connect 5 1 2 1;
#X connect 5 1 6 1;
#X connect 5 2 2 0;
#X connect 6 0 4 0;
#X connect 7 0 6 0;
#X restore 145 145 pd set_videogrid_led;
#X obj 57 92 stripnote;
#X floatatom 57 120 5 0 0 0 - - -, f 5;
#X obj 118 410 loadbang;
#X obj 264 559 outlet;
#X obj 264 373 prepend send midi;
#X obj 11 211 s __bank_left_01;
#X obj 11 185 sel 0 6;
#X obj 34 247 s __bank_right_01;
#X obj 416 374 prepend send midi_onoff;
#X obj 416 338 pack 1 1;
#X obj 676 317 noteout;
#X msg 699 284 1;
#X obj 736 282 loadbang;
#X msg 676 61 bang;
#X obj 718 61 loadbang;
#X obj 676 91 for 0 8;
#X obj 708 171 for 0 8;
#X obj 676 131 t f b;
#X obj 676 172 * 8;
#X obj 676 252 +;
#X obj 708 224 t f b;
#X obj 696 484 noteout;
#X msg 701 430 6 1;
#X connect 0 0 12 0;
#X connect 0 0 21 0;
#X connect 0 1 12 1;
#X connect 0 1 21 1;
#X connect 2 0 3 0;
#X connect 3 0 1 0;
#X connect 3 1 6 0;
#X connect 3 2 7 0;
#X connect 4 0 1 1;
#X connect 5 0 4 0;
#X connect 6 0 1 0;
#X connect 7 0 1 0;
#X connect 8 0 2 0;
#X connect 10 0 11 0;
#X connect 11 0 9 1;
#X connect 12 0 13 0;
#X connect 12 0 16 0;
#X connect 13 0 18 0;
#X connect 14 0 2 0;
#X connect 16 0 15 0;
#X connect 18 0 17 0;
#X connect 18 1 19 0;
#X connect 18 2 9 0;
#X connect 20 0 15 0;
#X connect 21 0 20 0;
#X connect 23 0 22 1;
#X connect 24 0 23 0;
#X connect 25 0 27 0;
#X connect 26 0 27 0;
#X connect 27 0 29 0;
#X connect 28 0 31 0;
#X connect 29 0 30 0;
#X connect 29 1 28 0;
#X connect 30 0 31 1;
#X connect 31 0 22 0;
#X connect 34 0 33 0;
#X restore 67 146 pd midi_ctrl;
#X text 39 22 0.18 Test;
#X connect 0 0 33 0;
#X connect 1 0 34 0;
#X connect 2 0 26 0;
#X connect 2 1 27 0;
#X connect 5 0 19 0;
#X connect 6 0 0 0;
#X connect 7 0 5 0;
#X connect 8 0 10 0;
#X connect 9 0 8 0;
#X connect 10 0 5 0;
#X connect 11 0 5 0;
#X connect 11 1 17 0;
#X connect 12 0 6 0;
#X connect 12 1 18 0;
#X connect 13 0 6 0;
#X connect 14 0 16 0;
#X connect 15 0 14 0;
#X connect 16 0 6 0;
#X connect 19 0 32 0;
#X connect 20 0 21 0;
#X connect 21 0 5 0;
#X connect 22 0 20 0;
#X connect 23 0 25 0;
#X connect 24 0 23 0;
#X connect 25 0 6 0;
#X connect 28 0 2 0;
#X connect 29 0 2 0;
#X connect 30 0 31 0;
#X connect 31 0 45 0;
#X connect 32 0 30 0;
#X connect 33 0 30 0;
#X connect 34 0 35 0;
#X connect 35 0 44 0;
#X connect 36 0 34 0;
#X connect 37 0 30 0;
#X connect 38 0 36 0;
#X connect 39 0 40 0;
#X connect 40 0 38 0;
#X connect 41 0 37 0;
#X connect 42 0 43 0;
#X connect 43 0 41 0;
#X connect 44 0 38 0;
#X connect 45 0 41 0;
#X connect 47 0 34 0;
