#N canvas 416 180 339 295 10;
#X obj 32 26 inlet;
#X obj 32 249 outlet;
#X obj 32 63 t a b;
#X obj 32 184 spigot;
#X obj 153 113 + 1;
#X obj 164 164 t b b;
#X obj 125 164 t b;
#X msg 203 164 0;
#X msg 95 214 1;
#X msg 63 214 0;
#X obj 266 31 inlet;
#X obj 125 113 i 0;
#X obj 125 141 moses 4;
#X connect 0 0 2 0;
#X connect 2 0 3 0;
#X connect 2 1 11 0;
#X connect 3 0 1 0;
#X connect 4 0 11 1;
#X connect 5 0 8 0;
#X connect 5 1 7 0;
#X connect 6 0 9 0;
#X connect 7 0 11 0;
#X connect 8 0 3 1;
#X connect 9 0 3 1;
#X connect 10 0 12 1;
#X connect 11 0 4 0;
#X connect 11 0 12 0;
#X connect 12 0 6 0;
#X connect 12 1 5 0;
