#N canvas 208 199 613 430 10;
#X obj 30 20 inlet;
#X obj 160 360 outlet;
#X obj 160 330 glsl_program;
#X obj 160 167 glsl_fragment;
#X obj 160 21 loadbang;
#X obj 477 17 inlet;
#X msg 93 92 texture1 \$1;
#X obj 390 17 inlet;
#X msg 390 135 contrast \$1;
#X msg 477 135 saturation \$1;
#X msg 424 87 1;
#X msg 160 132 open shaders/contrast.frag;
#X msg 248 196 link \$1;
#X obj 241 360 t b;
#X obj 93 20 inlet;
#X obj 424 54 purepd/once;
#X connect 0 0 3 0;
#X connect 2 0 1 0;
#X connect 2 1 13 0;
#X connect 3 0 2 0;
#X connect 3 1 12 0;
#X connect 4 0 11 0;
#X connect 5 0 9 0;
#X connect 6 0 2 0;
#X connect 7 0 8 0;
#X connect 8 0 2 0;
#X connect 9 0 2 0;
#X connect 10 0 8 0;
#X connect 10 0 9 0;
#X connect 11 0 3 0;
#X connect 12 0 2 0;
#X connect 13 0 15 0;
#X connect 14 0 6 0;
#X connect 15 0 10 0;
