#N canvas 214 223 613 430 10;
#X obj 32 20 inlet;
#X obj 160 360 outlet;
#X obj 160 330 glsl_program;
#X obj 160 167 glsl_fragment;
#X obj 64 226 gemframebuffer;
#X obj 32 49 t a a;
#X obj 83 21 loadbang;
#X obj 467 18 inlet;
#X msg 83 132 texunit \$1;
#X obj 83 63 \$1;
#X msg 93 92 texture1 \$1;
#X obj 390 19 inlet;
#X msg 390 135 contrast \$1;
#X msg 467 136 saturation \$1;
#X msg 424 87 1;
#X msg 160 130 open shaders/contrast.frag;
#X msg 248 196 link \$1;
#X obj 64 276 square 4;
#X obj 64 252 translateXYZ 0 0 -4;
#X obj 83 42 t b b;
#X obj 424 54 once;
#X obj 262 368 t b;
#X msg 115 196 dimen 1280 1280;
#X connect 0 0 5 0;
#X connect 2 0 1 0;
#X connect 2 1 21 0;
#X connect 3 0 2 0;
#X connect 3 1 16 0;
#X connect 4 0 18 0;
#X connect 5 0 3 0;
#X connect 5 1 4 0;
#X connect 6 0 15 0;
#X connect 6 0 19 0;
#X connect 7 0 13 0;
#X connect 8 0 4 0;
#X connect 9 0 8 0;
#X connect 9 0 10 0;
#X connect 10 0 2 0;
#X connect 11 0 12 0;
#X connect 12 0 2 0;
#X connect 13 0 2 0;
#X connect 14 0 12 0;
#X connect 14 0 13 0;
#X connect 15 0 3 0;
#X connect 16 0 2 0;
#X connect 18 0 17 0;
#X connect 19 0 9 0;
#X connect 19 1 22 0;
#X connect 20 0 14 0;
#X connect 21 0 20 0;
#X connect 22 0 4 0;
