#N canvas 67 167 613 430 10;
#X obj 31 20 inlet;
#X obj 160 360 outlet;
#X obj 160 330 glsl_program;
#X obj 160 167 glsl_fragment;
#X obj 160 21 loadbang;
#X msg 93 212 texture1 \$1;
#X msg 390 135 contrast \$1;
#X msg 477 135 saturation \$1;
#X msg 424 87 1;
#X msg 160 132 open shaders/contrast.frag;
#X msg 248 196 link \$1;
#X obj 241 360 t b;
#X obj 93 20 inlet;
#X obj 424 54 purepd/once;
#X obj 202 53 cnv 15 146 48 empty empty contrast/color 4 6 0 10 #541010 #fcfcfc 0;
#X obj 208 82 hsl 128 12 0 2 0 1 empty contrast_02 empty -2 -8 0 9 #fc0400 #000000 #fc8000 6700 0;
#X obj 208 67 hsl 128 12 0 2 0 1 empty saturation_02 empty -2 -8 0 9 #fc0400 #000000 #fc8000 6800 0;
#X connect 0 0 3 0;
#X connect 2 0 1 0;
#X connect 2 1 11 0;
#X connect 3 0 2 0;
#X connect 3 1 10 0;
#X connect 4 0 9 0;
#X connect 5 0 2 0;
#X connect 6 0 2 0;
#X connect 7 0 2 0;
#X connect 8 0 6 0;
#X connect 8 0 7 0;
#X connect 9 0 3 0;
#X connect 10 0 2 0;
#X connect 11 0 13 0;
#X connect 11 0 16 0;
#X connect 11 0 15 0;
#X connect 12 0 5 0;
#X connect 13 0 8 0;
#X connect 15 0 7 0;
#X connect 16 0 6 0;
#X coords 0 -1 1 1 150 54 1 200 50;
