#N canvas 148 558 450 300 10;
#X obj 29 25 loadbang;
#X obj 29 68 s i;
#X obj 57 69 s o;
#X msg 29 49 1;
#X msg 57 49 0;
#X obj 86 70 s wii_channel;
#X msg 86 48 2;
#X obj 30 98 loadbang;
#X obj 32 193 loadbang;
#X obj 33 366 loadbang;
#X msg 33 392 \; init_banks 16 \; xspeed1 32 \; xspeed2 32 \; scale_factor
80 \; filter_symbols 8 \; filter_formulas 4 \; filter_diagrams 16 \;
;
#X obj 54 565 loadbang;
#X msg 35 622 \; neighbors 4;
#X msg 35 712 \; center 1;
#X msg 35 772 \; match 1;
#X msg 35 862 \; edgedist 1;
#X msg 35 892 \; speed 3;
#X obj 36 593 b;
#X obj 36 565 bng 15 250 50 0 empty empty empty 0 -6 0 8 -262144 -1
-1;
#X msg 35 802 \; avoid 2;
#X msg 35 832 \; repel 2;
#X msg 35 922 \; inertia 8;
#X msg 35 682 \; minspeed 1;
#X msg 35 652 \; maxspeed 3;
#X msg 35 742 \; attract 3;
#X msg 35 952 \; accel 2;
#X msg 35 982 \; prefdist 1.5;
#X obj 114 565 r boids_reset;
#X text 38 535 boids;
#X msg 30 125 \; video_dir /home/ub/visuals/loops \;;
#X msg 32 218 \; grid_rows 3 \; grid_cols 5 \; scalefactor 1 \; texture_dir
/home/ub/visuals/pd/cellular/tex \; font_dir /usr/share/fonts/truetype
\; lighting 0 \;;
#X connect 0 0 3 0;
#X connect 0 0 4 0;
#X connect 0 0 6 0;
#X connect 3 0 1 0;
#X connect 4 0 2 0;
#X connect 6 0 5 0;
#X connect 7 0 29 0;
#X connect 8 0 30 0;
#X connect 9 0 10 0;
#X connect 11 0 17 0;
#X connect 17 0 12 0;
#X connect 17 0 23 0;
#X connect 17 0 22 0;
#X connect 17 0 13 0;
#X connect 17 0 24 0;
#X connect 17 0 14 0;
#X connect 17 0 19 0;
#X connect 17 0 20 0;
#X connect 17 0 16 0;
#X connect 17 0 21 0;
#X connect 17 0 25 0;
#X connect 17 0 26 0;
#X connect 18 0 17 0;
#X connect 27 0 17 0;
