#N canvas 225 231 951 752 10;
#X obj 53 31 inlet on/off;
#X obj 268 32 inlet filename;
#X obj 487 32 inlet speed(fps);
#X obj 50 630 outlet gemlist;
#X obj 286 155 t f f;
#X msg 50 259 1;
#X msg 80 259 0;
#X obj 101 526 pix_set 1 1;
#X msg 184 526 0 0 0 0;
#X obj 305 474 == 0;
#X obj 50 492 shunt 2 1;
#X obj 286 241 t f f b;
#X obj 101 547 t a b;
#X obj 247 241 sel 1;
#X obj 268 103 symbol;
#X obj 53 73 cnv 15 144 60 empty empty player_\$1 4 8 0 10 -86277 -262144
0;
#X obj 56 123 hsl 139 10 0 1 0 0 empty \$0-position empty -2 -8 0 10
-119045 -86277 -1 0 1;
#X obj 53 89 tgl 15 1 xlonoff1 lonoff1 empty 0 -6 0 8 -258113 -1 -1
1 1;
#X obj 71 106 hsl 124 15 1 127 0 0 empty xspeed\$1 empty -2 -6 0 8
-258113 -1 -260097 3300 1;
#X obj 50 379 movieplayer_core;
#X obj 187 171 r hopto_\$1;
#X obj 96 438 s \$0-position;
#X floatatom 259 643 5 0 0 0 - - -, f 5;
#X obj 128 580 s \$0-stop-gemlist;
#X obj 80 228 r \$0-stop-gemlist;
#X obj 53 106 tgl 15 0 empty empty empty 17 7 0 10 -260097 -1 -1 0
1;
#X obj 15 171 r moviescratch_\$1;
#X obj 127 171 r volume;
#X obj 50 286 gemhead \$1;
#X connect 0 0 17 0;
#X connect 1 0 14 0;
#X connect 2 0 18 0;
#X connect 4 0 11 0;
#X connect 4 1 19 1;
#X connect 5 0 28 0;
#X connect 6 0 28 0;
#X connect 7 0 12 0;
#X connect 8 0 7 1;
#X connect 9 0 10 1;
#X connect 10 0 3 0;
#X connect 10 1 7 0;
#X connect 11 0 13 0;
#X connect 11 1 9 0;
#X connect 11 2 8 0;
#X connect 12 0 3 0;
#X connect 12 1 23 0;
#X connect 13 0 5 0;
#X connect 14 0 19 2;
#X connect 17 0 4 0;
#X connect 18 0 19 3;
#X connect 19 0 10 0;
#X connect 19 2 21 0;
#X connect 19 2 22 0;
#X connect 20 0 19 6;
#X connect 24 0 6 0;
#X connect 25 0 19 4;
#X connect 26 0 25 0;
#X connect 27 0 19 5;
#X connect 28 0 19 0;
#X coords 0 -1 1 1 150 66 2 50 70;
