#N canvas 225 231 951 752 10;
#X declare -lib hcs;
#X obj 53 31 inlet on/off;
#X obj 268 32 inlet filename;
#X obj 50 630 outlet gemlist;
#X obj 286 155 t f f;
#X msg 50 259 1;
#X msg 80 259 0;
#X obj 101 526 pix_set 1 1;
#X msg 184 526 0 0 0 0;
#X obj 305 474 == 0;
#X obj 50 492 shunt 2 1;
#X obj 286 241 t f f b;
#X obj 101 547 t a b;
#X obj 247 241 sel 1;
#X obj 268 78 symbol;
#X obj 53 73 cnv 15 144 60 empty empty player_\$1 4 8 0 10 #541010
#fcfcfc 0;
#X obj 56 123 hsl 139 10 0 1 0 0 empty \$0-position empty -2 -8 0 10
#741010 #541010 #000000 0 1;
#X obj 53 89 tgl 15 1 xlonoff1 lonoff1 empty 0 -6 0 8 #fc0400 #000000
#000000 1 1;
#X obj 71 89 hsl 124 15 1 127 0 0 empty xspeed\$1 empty -2 -6 0 8 #fc0400
#000000 #fc8000 0 1;
#X obj 50 379 movieplayer_core;
#X obj 187 171 r hopto_\$1;
#X obj 96 438 s \$0-position;
#X floatatom 259 643 5 0 0 0 - - - 0;
#X obj 128 580 s \$0-stop-gemlist;
#X obj 80 228 r \$0-stop-gemlist;
#X obj 53 106 tgl 15 0 empty empty empty 17 7 0 10 #fc8000 #000000
#000000 0 1;
#X obj 15 171 r moviescratch_\$1;
#X obj 127 171 r volume;
#X obj 50 286 gemhead \$1;
#X obj 487 32 inlet speed (fps);
#X obj 267 112 openpanel;
#X obj 182 73 bng 15 250 50 0 empty empty empty 17 7 0 10 #ff0400 #000000
#000000;
#X obj 179 105 bng 18 250 50 0 \$0-tap empty tap -24 9 0 10 #fc2828
#000000 #ff0400;
#X msg 457 189 color 13;
#X msg 438 211 color 20;
#X obj 438 281 tgl 18 0 empty empty empty 0 -9 0 10 #fcfcfc #000000
#000000 0 1;
#X obj 467 282 timer;
#X floatatom 467 324 15 0 0 0 - - - 0;
#X obj 438 162 sel 1 0;
#X obj 73 404 s \$0-frames;
#X obj 511 391 r \$0-frames;
#X obj 467 421 *;
#X floatatom 493 422 5 0 0 0 - - - 0;
#X obj 467 391 /;
#X obj 467 346 t b f;
#X msg 467 367 1000;
#X obj 571 117 r xspeed\$1;
#X obj 365 570 hcs/split_path;
#X obj 446 627 outlet filename;
#X obj 762 41 declare -lib hcs;
#X connect 0 0 16 0;
#X connect 1 0 13 0;
#X connect 1 0 46 0;
#X connect 3 0 10 0;
#X connect 3 1 18 1;
#X connect 4 0 27 0;
#X connect 5 0 27 0;
#X connect 6 0 11 0;
#X connect 7 0 6 1;
#X connect 8 0 9 1;
#X connect 9 0 2 0;
#X connect 9 1 6 0;
#X connect 10 0 12 0;
#X connect 10 1 8 0;
#X connect 10 2 7 0;
#X connect 11 0 2 0;
#X connect 11 1 22 0;
#X connect 12 0 4 0;
#X connect 13 0 18 2;
#X connect 16 0 3 0;
#X connect 17 0 18 3;
#X connect 18 0 9 0;
#X connect 18 1 38 0;
#X connect 18 2 20 0;
#X connect 18 2 21 0;
#X connect 19 0 18 6;
#X connect 23 0 5 0;
#X connect 24 0 18 4;
#X connect 25 0 24 0;
#X connect 26 0 18 5;
#X connect 27 0 18 0;
#X connect 28 0 17 0;
#X connect 29 0 18 2;
#X connect 30 0 29 0;
#X connect 31 0 34 0;
#X connect 32 0 31 0;
#X connect 33 0 31 0;
#X connect 34 0 37 0;
#X connect 35 0 36 0;
#X connect 36 0 43 0;
#X connect 37 0 33 0;
#X connect 37 0 35 0;
#X connect 37 1 32 0;
#X connect 37 1 35 1;
#X connect 39 0 40 1;
#X connect 40 0 17 0;
#X connect 40 0 41 0;
#X connect 42 0 40 0;
#X connect 43 0 44 0;
#X connect 43 1 42 1;
#X connect 44 0 42 0;
#X connect 45 0 17 0;
#X connect 46 1 47 0;
#X coords 0 -1 1 1 150 66 2 50 70;
