#N canvas 466 172 1407 809 10;
#X obj 3 5 cnv 15 1400 800 empty empty empty 20 12 0 14 -33289 -66577
0;
#N canvas 473 278 383 288 fps 0;
#X obj 22 62 realtime;
#X obj 22 41 t b b;
#X obj 22 19 gemhead;
#X msg 22 84 1000 \$1;
#X obj 22 105 /;
#X obj 22 126 + 0.5;
#X obj 22 174 i;
#X floatatom 225 20 5 0 0 0 - - -, f 5;
#X msg 225 74 \; fps_recv color \$1 -1 0;
#X obj 22 152 markex/average 3;
#X floatatom 137 154 5 0 0 0 - - -, f 5;
#X obj 103 23 cnv 15 44 114 empty empty empty 20 12 0 14 -86277 -66577
0;
#X obj 104 73 cnv 15 16 10 empty empty -25 20 12 0 10 -86277 -262144
0;
#X obj 108 40 vsl 10 90 0 50 0 0 empty fps_recv fps 0 -9 0 10 -258113
-1 -262144 5432 1;
#X obj 121 124 nbx 2 10 0 144 0 0 empty empty empty 0 -8 0 10 -258113
-262144 -1 30 256;
#X connect 0 0 3 0;
#X connect 1 0 0 0;
#X connect 1 1 0 1;
#X connect 2 0 1 0;
#X connect 3 0 4 0;
#X connect 4 0 5 0;
#X connect 5 0 9 0;
#X connect 6 0 14 0;
#X connect 7 0 8 0;
#X connect 9 0 6 0;
#X connect 9 0 13 0;
#X coords 0 -1 1 1 50 120 2 100 20;
#X restore 1333 20 pd fps;
#N canvas 67 484 876 306 gemwin 0;
#X msg 171 133 create \, 1;
#X msg 171 102 destroy;
#N canvas 194 672 317 295 Gem.init 0;
#X obj 59 46 loadbang;
#X obj 171 260 outlet;
#X msg 104 103 color 0 0 0;
#X msg 2 210 FSAA \$1;
#X msg 2 184 0;
#X msg 31 184 2;
#X msg 60 184 4;
#X obj 59 65 t b b b b b;
#X msg 213 220 reset;
#X msg 89 184 8;
#X msg 91 128 dimen 1280 720;
#X msg 171 190 frame 30;
#X connect 0 0 7 0;
#X connect 2 0 1 0;
#X connect 3 0 1 0;
#X connect 4 0 3 0;
#X connect 5 0 3 0;
#X connect 6 0 3 0;
#X connect 7 0 9 0;
#X connect 7 1 10 0;
#X connect 7 2 2 0;
#X connect 7 3 11 0;
#X connect 7 4 8 0;
#X connect 8 0 1 0;
#X connect 9 0 3 0;
#X connect 10 0 1 0;
#X connect 11 0 1 0;
#X restore 172 22 pd Gem.init;
#X obj 415 184 sel 1 0;
#X obj 396 157 t b f b;
#X msg 321 156 destroy;
#X obj 171 157 gemwin 25;
#X msg 434 276 border 1 \, offset 0 0 \, dimen 640 480 \, fullscreen
0;
#X msg 277 44 dimen 800 600;
#X msg 277 22 dimen 640 480;
#X msg 566 81 lighting \$1;
#X obj 566 59 tgl 15 0 empty empty empty 17 7 0 10 -262144 -1 -1 0
1;
#X obj 584 53 r lighting;
#X msg 277 66 dimen 1024 768;
#X obj 565 111 s __lighting;
#X msg 704 99 perspec \$1 \$2 \$3 \$4 \$5 \$6;
#N canvas 1296 505 544 500 perspec 0;
#X obj 90 428 outlet;
#X obj 268 273 t f f;
#X obj 268 298 * -1;
#X obj 90 268 t f f;
#X obj 90 293 * -1;
#X obj 90 367 pack -1 1 -1 1 1 20;
#X msg 90 389 set perspec \$1 \$2 \$3 \$4 \$5 \$6 \, bang;
#X msg 172 453 set perspec \, adddollar 1 \, adddollar 2 \, adddollar
3 \, adddollar 4 \, adddollar 5 \, adddollar 6;
#X floatatom 104 109 5 0.1 5 1 x_wideness - -, f 5;
#X floatatom 104 126 5 0.1 5 1 y_wideness - -, f 5;
#X floatatom 104 143 5 0 0 1 z_depth - -, f 5;
#X obj 360 196 select 1;
#X obj 405 219 t b f f;
#X obj 249 226 t b f f;
#X obj 204 203 select 0;
#X obj 360 218 f 20;
#X obj 204 224 f 1;
#X msg 204 246 set \$1;
#X msg 360 240 set \$1;
#X obj 134 216 t b f f;
#X obj 89 193 select 0;
#X obj 89 214 f 1;
#X msg 89 236 set \$1;
#X obj 328 97 loadbang;
#X obj 328 119 t b b;
#X obj 328 141 t b b b;
#X connect 1 0 2 0;
#X connect 1 1 5 3;
#X connect 2 0 5 2;
#X connect 3 0 4 0;
#X connect 3 1 5 1;
#X connect 4 0 5 0;
#X connect 5 0 6 0;
#X connect 6 0 0 0;
#X connect 7 0 0 0;
#X connect 8 0 20 0;
#X connect 9 0 14 0;
#X connect 10 0 11 0;
#X connect 11 0 15 0;
#X connect 11 1 12 0;
#X connect 12 0 5 0;
#X connect 12 1 5 5;
#X connect 12 2 15 1;
#X connect 13 0 5 0;
#X connect 13 1 1 0;
#X connect 13 2 16 1;
#X connect 14 0 16 0;
#X connect 14 1 13 0;
#X connect 15 0 18 0;
#X connect 16 0 17 0;
#X connect 17 0 9 0;
#X connect 18 0 10 0;
#X connect 19 1 3 0;
#X connect 19 2 21 1;
#X connect 20 0 21 0;
#X connect 20 1 19 0;
#X connect 21 0 22 0;
#X connect 22 0 8 0;
#X connect 23 0 24 0;
#X connect 24 0 25 0;
#X connect 24 1 7 0;
#X connect 25 0 21 0;
#X connect 25 1 16 0;
#X connect 25 2 15 0;
#X coords 0 -1 1 1 100 67 1 100 100;
#X restore 704 27 pd perspec;
#X msg 442 244 border 0 \, offset 1920 0 \, dimen 1280 720 \, fullscreen
0;
#X msg 277 88 dimen 1280 720;
#X obj 44 146 sel 0 1;
#X msg 63 179 create;
#X obj 12 12 cnv 15 85 55 empty empty empty 20 12 0 14 -86277 -262144
0;
#X obj 17 44 tgl 15 0 empty empty fullscreen 16 11 0 8 -258113 -1 -262144
1 1;
#X obj 17 21 tgl 15 0 empty empty render 16 11 0 8 -258113 -1 -262144
1 1;
#X obj 17 80 t f f;
#X obj 415 211 t b b;
#X connect 0 0 6 0;
#X connect 1 0 6 0;
#X connect 2 0 6 0;
#X connect 3 0 25 0;
#X connect 3 1 7 0;
#X connect 4 1 3 0;
#X connect 4 2 5 0;
#X connect 5 0 6 0;
#X connect 7 0 6 0;
#X connect 8 0 6 0;
#X connect 9 0 6 0;
#X connect 10 0 6 0;
#X connect 11 0 10 0;
#X connect 11 0 14 0;
#X connect 12 0 11 0;
#X connect 13 0 6 0;
#X connect 15 0 6 0;
#X connect 16 0 15 0;
#X connect 17 0 6 0;
#X connect 18 0 6 0;
#X connect 19 0 1 0;
#X connect 19 1 20 0;
#X connect 20 0 6 0;
#X connect 22 0 4 0;
#X connect 23 0 24 0;
#X connect 24 0 6 0;
#X connect 24 1 19 0;
#X connect 25 0 20 0;
#X connect 25 1 17 0;
#X coords 0 -1 1 1 90 60 2 10 10;
#X restore 1239 20 pd gemwin;
#X obj 21 20 analysis, f 12;
#N canvas 67 684 495 303 record 0;
#X obj 15 93 t a b;
#X msg 273 45 1;
#X msg 381 48 0;
#X obj 15 62 gemhead -1;
#X obj 71 93 bng 15 250 50 0 empty empty empty 17 7 0 10 -262144 -1
-1;
#X obj 273 22 r rec_start;
#X obj 381 21 r rec_stop;
#X obj 15 183 pix_write;
#X msg 244 136 file basefilename /tmp/record_;
#X obj 244 112 loadbang;
#X obj 12 12 cnv 15 62 26 empty empty empty 20 12 0 14 -86277 -66577
0;
#X obj 15 18 tgl 15 0 empty empty record 17 7 0 10 -258113 -1 -262144
0 1;
#X connect 0 0 7 0;
#X connect 1 0 11 0;
#X connect 2 0 11 0;
#X connect 3 0 0 0;
#X connect 4 0 7 0;
#X connect 5 0 1 0;
#X connect 6 0 2 0;
#X connect 8 0 7 0;
#X connect 9 0 8 0;
#X connect 9 0 2 0;
#X connect 11 0 3 0;
#X coords 0 -1 1 1 66 30 2 10 10;
#X restore 21 752 pd record;
#N canvas 67 89 450 300 output 1;
#N canvas 953 122 794 803 cubes 0;
#X obj 57 162 rotateXYZ 0 0 0;
#X obj 57 3 inlet;
#X obj 57 203 scale 1 1 1;
#X floatatom 16 103 5 0 0 0 - - -, f 5;
#X obj 134 41 * -1;
#X obj 16 24 loadbang;
#X msg 16 55 1.5;
#X obj 57 76 pix_texture;
#X obj 483 188 square 1;
#X obj 346 190 square 1;
#X obj 209 109 rotateXYZ 0 180 0;
#X obj 209 137 translateXYZ -2 0 0;
#X obj 346 108 rotateXYZ 0 0 180;
#X obj 346 136 translateXYZ -2 -2 0;
#X obj 483 112 rotateXYZ 0 180 0;
#X obj 483 140 translateXYZ -2 0 0;
#X obj 209 189 square 1;
#X obj 57 229 square 1;
#X obj 482 323 square 1;
#X obj 345 325 square 1;
#X obj 208 264 rotateXYZ 0 180 0;
#X obj 208 292 translateXYZ -2 0 0;
#X obj 345 263 rotateXYZ 0 0 180;
#X obj 345 291 translateXYZ -2 -2 0;
#X obj 482 267 rotateXYZ 0 180 0;
#X obj 482 295 translateXYZ -2 0 0;
#X obj 208 324 square 1;
#X obj 56 328 square 1;
#X obj 483 444 square 1;
#X obj 346 446 square 1;
#X obj 209 445 square 1;
#X obj 57 449 square 1;
#X obj 57 380 rotateXYZ 0 90 0;
#X obj 209 375 rotateXYZ 0 0 180;
#X obj 209 403 translateXYZ 0 -2 0;
#X obj 483 378 rotateXYZ 0 180 0;
#X obj 346 374 rotateXYZ 0 0 180;
#X obj 483 406 translateXYZ 0 2 0;
#X obj 346 402 translateXYZ 0 -2 -4;
#X obj 56 269 translateXYZ 0 0 2;
#X obj 483 576 square 1;
#X obj 346 578 square 1;
#X obj 209 577 square 1;
#X obj 57 581 square 1;
#X obj 209 517 rotateXYZ 0 0 180;
#X obj 209 545 translateXYZ 0 -2 0;
#X obj 483 520 rotateXYZ 0 180 0;
#X obj 346 516 rotateXYZ 0 0 180;
#X obj 483 548 translateXYZ 0 2 0;
#X obj 346 544 translateXYZ 0 -2 -4;
#X obj 57 522 rotateXYZ 90 0 0;
#X floatatom 214 38 5 0 0 0 - - -, f 5;
#X obj 57 553 translateXYZ 0 -3 3;
#X obj 282 4 loadbang;
#X obj 57 411 translateXYZ 1 0 3;
#X obj 57 135 translateXYZ -1.5 -1.5 -1;
#X obj 482 695 square 1;
#X obj 345 697 square 1;
#X obj 208 696 square 1;
#X obj 56 700 square 1;
#X obj 208 636 rotateXYZ 90 0 0;
#X obj 345 635 rotateXYZ 90 0 0;
#X obj 482 639 rotateXYZ 90 0 0;
#X obj 56 641 rotateXYZ 90 0 0;
#X obj 208 665 translateXYZ 0 -1 1;
#X obj 345 663 translateXYZ 0 1 -1;
#X obj 482 667 translateXYZ 0 -1 1;
#X obj 56 672 translateXYZ 0 -1 1;
#X obj 541 188 spigot 1;
#X obj 539 323 spigot 1;
#X obj 540 443 spigot 1;
#X obj 540 574 spigot 1;
#X obj 586 18 inlet;
#X obj 586 49 > 0;
#X obj 614 49 > 1;
#X obj 642 50 > 2;
#X obj 671 51 > 3;
#X obj 57 47 separator;
#X msg 136 4 rectangle 0 \, texunit 0;
#X connect 0 0 2 0;
#X connect 1 0 77 0;
#X connect 2 0 17 0;
#X connect 3 0 2 1;
#X connect 3 0 4 0;
#X connect 4 0 55 1;
#X connect 4 0 55 2;
#X connect 5 0 6 0;
#X connect 6 0 3 0;
#X connect 7 0 55 0;
#X connect 8 0 68 0;
#X connect 9 0 14 0;
#X connect 10 0 11 0;
#X connect 11 0 16 0;
#X connect 12 0 13 0;
#X connect 13 0 9 0;
#X connect 14 0 15 0;
#X connect 15 0 8 0;
#X connect 16 0 12 0;
#X connect 17 0 10 0;
#X connect 18 0 69 0;
#X connect 19 0 24 0;
#X connect 20 0 21 0;
#X connect 21 0 26 0;
#X connect 22 0 23 0;
#X connect 23 0 19 0;
#X connect 24 0 25 0;
#X connect 25 0 18 0;
#X connect 26 0 22 0;
#X connect 27 0 20 0;
#X connect 28 0 70 0;
#X connect 29 0 35 0;
#X connect 30 0 36 0;
#X connect 31 0 33 0;
#X connect 32 0 54 0;
#X connect 33 0 34 0;
#X connect 34 0 30 0;
#X connect 35 0 37 0;
#X connect 36 0 38 0;
#X connect 37 0 28 0;
#X connect 38 0 29 0;
#X connect 39 0 27 0;
#X connect 40 0 71 0;
#X connect 41 0 46 0;
#X connect 42 0 47 0;
#X connect 43 0 44 0;
#X connect 44 0 45 0;
#X connect 45 0 42 0;
#X connect 46 0 48 0;
#X connect 47 0 49 0;
#X connect 48 0 40 0;
#X connect 49 0 41 0;
#X connect 50 0 52 0;
#X connect 51 0 55 3;
#X connect 52 0 43 0;
#X connect 53 0 78 0;
#X connect 54 0 31 0;
#X connect 55 0 0 0;
#X connect 57 0 62 0;
#X connect 58 0 61 0;
#X connect 59 0 60 0;
#X connect 60 0 64 0;
#X connect 61 0 65 0;
#X connect 62 0 66 0;
#X connect 63 0 67 0;
#X connect 64 0 58 0;
#X connect 65 0 57 0;
#X connect 66 0 56 0;
#X connect 67 0 59 0;
#X connect 68 0 39 0;
#X connect 69 0 32 0;
#X connect 70 0 50 0;
#X connect 71 0 63 0;
#X connect 72 0 73 0;
#X connect 72 0 74 0;
#X connect 72 0 75 0;
#X connect 72 0 76 0;
#X connect 73 0 68 1;
#X connect 74 0 69 1;
#X connect 75 0 70 1;
#X connect 76 0 71 1;
#X connect 77 0 7 0;
#X restore 68 212 pd cubes;
#N canvas 743 457 569 318 plane 0;
#X obj 31 14 inlet;
#X obj 31 66 separator;
#X floatatom 136 200 5 0 0 0 - - -, f 5;
#X floatatom 83 140 5 0 0 0 - - -, f 5;
#X obj 136 155 * 9, f 5;
#X obj 136 178 / 16;
#X obj 31 106 translateXYZ 0 0 -1;
#X obj 31 236 rectangle 8.8 4.95;
#X obj 123 66 gemframebuffer;
#X obj 31 38 t a a;
#X obj 189 113 rectangle 8.8 4.95;
#X obj 123 44 separator;
#X msg 211 66 type FLOAT \, dimen 1280 1280 \, rectangle 0 \, texunit
0;
#X obj 189 94 translateXYZ 0 0 -1;
#X connect 0 0 9 0;
#X connect 1 0 6 0;
#X connect 2 0 7 2;
#X connect 3 0 4 0;
#X connect 3 0 7 1;
#X connect 4 0 5 0;
#X connect 5 0 2 0;
#X connect 6 0 7 0;
#X connect 8 0 13 0;
#X connect 9 0 1 0;
#X connect 11 0 8 0;
#X connect 12 0 8 0;
#X connect 13 0 10 0;
#X restore 16 167 pd plane;
#N canvas 811 257 450 300 sphere 0;
#X obj 21 16 inlet;
#X obj 21 158 rotateXYZ;
#X floatatom 111 127 5 0 0 0 - - -, f 5;
#X floatatom 38 229 5 0 0 0 - - -, f 5;
#X obj 21 125 pix_texture;
#X floatatom 157 126 5 0 0 0 - - -, f 5;
#X obj 21 92 pix_set 512 512;
#X msg 94 11 rectangle 0;
#X obj 21 270 sphere 2.5;
#X floatatom 78 247 5 0 0 0 - - -, f 5;
#X msg 78 228 32;
#X obj 78 210 loadbang;
#X obj 21 184 translateXYZ 0 0 -0.5;
#X obj 21 47 separator;
#X connect 0 0 13 0;
#X connect 1 0 12 0;
#X connect 2 0 1 2;
#X connect 3 0 8 1;
#X connect 4 0 1 0;
#X connect 5 0 1 1;
#X connect 6 0 4 0;
#X connect 7 0 4 0;
#X connect 9 0 8 2;
#X connect 10 0 9 0;
#X connect 11 0 10 0;
#X connect 12 0 8 0;
#X connect 13 0 6 0;
#X restore 121 251 pd sphere;
#X obj 16 113 cyclone/gate 3 1, f 18;
#X obj 12 13 cnv 15 96 74 empty empty output 4 8 0 10 -86277 -260097
0;
#X obj 16 46 hradio 15 1 0 4 empty output_model plane/cubes/sphere
0 -8 0 9 -260097 -1 -260097 1;
#X obj 16 68 hradio 15 1 1 5 empty empty empty 0 -8 0 10 -260097 -1
-1 1;
#X obj 121 12 inlet gemlist;
#X connect 3 0 1 0;
#X connect 3 1 0 0;
#X connect 3 2 2 0;
#X connect 5 0 3 0;
#X connect 6 0 0 1;
#X connect 7 0 3 1;
#X coords 0 -1 1 1 100 80 2 10 10;
#X restore 531 648 pd output;
#N canvas 498 337 1079 703 blending 0;
#X text 281 38 0 = off;
#X text 282 51 1 = alpha;
#X text 281 64 2 = add;
#X text 282 77 3 = multiply;
#X text 282 90 4 = hard light;
#X text 282 103 5 = overlay;
#X text 282 117 6 = substract;
#X obj 545 359 change;
#X floatatom 545 382 5 0 0 0 - - -, f 5;
#X msg 285 135 blendMode \$1;
#X msg 330 507 print;
#X obj 387 508 glsl_program;
#X obj 500 357 change;
#X floatatom 500 380 5 0 0 0 - - -, f 5;
#X obj 500 407 pack;
#X obj 545 407 t b f;
#X msg 450 424 link;
#X msg 345 345 print;
#X msg 347 312 print;
#X obj 387 195 gemhead 55;
#X obj 387 312 glsl_vertex;
#X obj 387 345 glsl_fragment;
#X msg 435 479 link \$1 \$2;
#X obj 474 223 loadbang;
#N canvas 239 251 450 300 onebang 0;
#X obj 120 71 inlet;
#X obj 120 151 outlet;
#X obj 120 120 t b;
#X obj 120 100 change;
#X msg 161 71 set -1;
#X obj 161 11 gemhead;
#X obj 161 51 route 0;
#X obj 161 31 route gem_state;
#X connect 0 0 3 0;
#X connect 2 0 1 0;
#X connect 3 0 2 0;
#X connect 4 0 3 0;
#X connect 5 0 7 0;
#X connect 6 0 4 0;
#X connect 7 0 6 0;
#X restore 540 547 pd onebang;
#X msg 540 492 tex0 0;
#X msg 671 113 effect \$1;
#X msg 249 467 push \$1;
#X floatatom 249 434 5 0 0 0 - - -, f 5;
#X obj 302 353 tgl 15 0 empty coord_effect empty 17 7 0 10 -258113
-1 -1 1 1;
#X obj 249 354 spigot;
#X obj 249 393 / 100;
#X floatatom 281 293 5 0 0 0 - - -, f 5;
#X floatatom 219 291 5 0 0 0 - - -, f 5;
#X text 759 57 effect;
#X text 782 74 0 = off;
#X text 782 88 1 = blip_vert;
#X obj 302 328 > 0;
#X text 782 103 2 = blip_horz;
#X msg 474 249 open shaders/QmultiBlend.vert;
#X msg 474 276 open shaders/QmultiBlendEffects.frag;
#X obj 387 586 outlet;
#X msg 25 295 alpha \$1;
#X msg 89 295 fade \$1;
#X obj 13 13 cnv 15 194 194 empty empty empty 20 12 0 14 -86277 -66577
0;
#X obj 46 152 hradio 15 1 1 7 empty shader-effect effects 110 8 0 10
-258113 -1 -262144 4;
#X obj 26 152 tgl 15 1 empty __blending_onoff empty 17 7 0 10 -258113
-1 -1 1 1;
#X obj 27 25 cnv 15 10 10 empty empty channel_one 20 12 0 10 -86277
-262144 0;
#X obj 27 41 cnv 15 10 10 empty empty alpha_blend 20 12 0 10 -86277
-262144 0;
#X obj 27 56 cnv 15 10 10 empty empty add 20 12 0 10 -86277 -262144
0;
#X obj 27 71 cnv 15 10 10 empty empty multiply 20 12 0 10 -86277 -262144
0;
#X obj 27 87 cnv 15 10 10 empty empty hard_light 20 12 0 10 -86277
-262144 0;
#X obj 27 102 cnv 15 10 10 empty empty overlay 20 12 0 10 -86277 -262144
0;
#X obj 27 117 cnv 15 10 10 empty empty difference 20 12 0 10 -86277
-262144 0;
#X obj 26 30 vradio 15 1 0 7 empty blend_mode empty 0 -8 0 10 -258113
-1 -1 1;
#X obj 28 173 hsl 140 12 0 1 0 0 empty fade_second_layer alpha 144
6 0 10 -258113 -1 -262144 0 1;
#X obj 28 188 hsl 140 12 0 1 0 0 empty fade_second_layer fade 144 8
0 10 -258113 -1 -262144 0 1;
#X obj 671 78 i;
#X obj 249 328 r volume;
#X msg 587 492 texture1 1;
#X msg 658 492 texture2 2;
#X connect 7 0 8 0;
#X connect 8 0 15 0;
#X connect 9 0 11 0;
#X connect 10 0 11 0;
#X connect 11 0 41 0;
#X connect 11 1 24 0;
#X connect 12 0 13 0;
#X connect 13 0 14 0;
#X connect 14 0 22 0;
#X connect 15 0 14 0;
#X connect 15 1 14 1;
#X connect 16 0 11 0;
#X connect 17 0 21 0;
#X connect 18 0 20 0;
#X connect 19 0 20 0;
#X connect 20 0 21 0;
#X connect 20 1 12 0;
#X connect 21 0 11 0;
#X connect 21 1 7 0;
#X connect 22 0 11 0;
#X connect 23 0 40 0;
#X connect 23 0 39 0;
#X connect 24 0 25 0;
#X connect 24 0 59 0;
#X connect 24 0 60 0;
#X connect 26 0 11 0;
#X connect 27 0 11 0;
#X connect 28 0 27 0;
#X connect 29 0 30 1;
#X connect 30 0 31 0;
#X connect 31 0 28 0;
#X connect 32 0 31 1;
#X connect 33 0 31 0;
#X connect 37 0 29 0;
#X connect 39 0 20 0;
#X connect 40 0 21 0;
#X connect 42 0 11 0;
#X connect 43 0 11 0;
#X connect 45 0 57 0;
#X connect 46 0 19 0;
#X connect 54 0 9 0;
#X connect 55 0 42 0;
#X connect 56 0 43 0;
#X connect 57 0 37 0;
#X connect 57 0 26 0;
#X connect 58 0 30 0;
#X connect 59 0 11 0;
#X connect 60 0 11 0;
#X coords 0 -1 1 1 200 200 2 10 10;
#X restore 531 342 pd blending;
#N canvas 689 444 789 404 verteiler 0;
#X obj 28 175 + 1;
#X obj 28 295 outlet;
#X obj 85 20 inlet;
#X obj 28 248 switch 4;
#X obj 381 31 r fx_blit_switch;
#X obj 381 63 tgl 15 0 empty empty empty 17 7 0 10 -262144 -1 -1 0
1;
#X obj 28 77 int;
#X obj 28 108 t f;
#X obj 381 125 sel 0;
#X obj 127 164 gemhead 60;
#X obj 127 201 pix_texture;
#X obj 190 164 r _spectex;
#X obj 127 127 == 2;
#X obj 194 264 pix_texture;
#X obj 194 236 pix_image /home/ub/grfx/whiteframe.png;
#X obj 284 191 gemhead 60;
#X obj 284 154 == 3;
#X msg 373 192 open /home/ub/grfx/whiteframe.png;
#X obj 341 155 sel 1;
#X text 390 155 weirdly this seems needed as image gets lost;
#X obj 202 23 cnv 15 80 54 empty empty verteiler 4 8 0 10 -86277 -262144
0;
#X obj 207 38 hradio 15 1 1 4 empty verteiler empty 0 -8 0 10 -258113
-1 -1 0;
#X obj 28 42 t f f f;
#N canvas 433 705 397 182 audiotexturer 0;
#X obj 30 12 inlet;
#X obj 30 50 tgl 15 0 empty empty empty 17 7 0 10 -4034 -1 -1 0 1;
#X obj 55 49 r~ filtered_mic;
#X obj 56 105 s _sigtex;
#X obj 30 135 outlet;
#X obj 83 135 outlet;
#X obj 83 13 inlet;
#X obj 30 77 sig2pix2;
#X connect 0 0 1 0;
#X connect 1 0 7 0;
#X connect 2 0 7 1;
#X connect 6 0 7 2;
#X connect 7 0 4 0;
#X connect 7 1 3 0;
#X connect 7 2 5 0;
#X coords 0 -1 1 1 200 22 1 30 50;
#X restore 207 87 pd audiotexturer;
#X obj 207 56 tgl 15 0 empty empty audiotex 17 7 0 10 -168197 -1 -228856
0 1;
#X connect 0 0 3 0;
#X connect 2 0 3 1;
#X connect 3 0 1 0;
#X connect 4 0 5 0;
#X connect 5 0 8 0;
#X connect 6 0 7 0;
#X connect 7 0 0 0;
#X connect 8 0 6 0;
#X connect 8 1 7 0;
#X connect 9 0 10 0;
#X connect 10 0 3 3;
#X connect 11 0 10 1;
#X connect 12 0 9 0;
#X connect 13 0 3 4;
#X connect 14 0 13 0;
#X connect 15 0 14 0;
#X connect 16 0 15 0;
#X connect 16 0 18 0;
#X connect 17 0 14 0;
#X connect 18 0 17 0;
#X connect 21 0 22 0;
#X connect 22 0 6 0;
#X connect 22 1 12 0;
#X connect 22 2 16 0;
#X connect 23 0 3 2;
#X connect 24 0 23 0;
#X coords 0 -1 1 1 85 60 1 200 20;
#X restore 845 342 pd verteiler;
#X obj 290 348 glsl_contrast;
#X obj 773 269 videoin 0;
#X symbolatom 845 252 50 0 0 0 - movie_2 -, f 50;
#X obj 995 270 r xspeed3;
#X symbolatom 290 252 50 0 0 0 - movie_2 -, f 50;
#X obj 440 270 r xspeed3;
#X obj 290 269 inline_movieplayer 1;
#X obj 845 411 glsl_contrast;
#X obj 290 411 qprojection 1;
#X obj 845 472 qprojection 2;
#X obj 845 269 inline_movieplayer 2;
#X connect 6 0 5 0;
#X connect 7 0 15 0;
#X connect 8 0 16 0;
#X connect 9 0 7 0;
#X connect 10 0 18 0;
#X connect 10 0 18 1;
#X connect 11 0 18 2;
#X connect 12 0 14 0;
#X connect 12 0 14 1;
#X connect 14 0 8 0;
#X connect 15 0 17 0;
#X connect 18 0 7 0;
