#N canvas 618 19 1292 236 10;
#X declare -lib mapping;
#X obj 4 3 cnv 15 1270 222 empty empty empty 20 12 0 14 #202020 #404040
0;
#X symbolatom 811 206 55 0 0 0 - - - 0;
#N canvas 315 432 353 135 joystick 0;
#N canvas 513 281 773 563 joystick1 0;
#X obj 463 348 bng 20 250 50 0 6_b empty empty 0 -6 0 8 #fcfcfc #000000
#000000;
#X obj 215 315 bng 15 250 50 0 0_b empty empty 0 -6 0 8 #fcfcfc #000000
#000000;
#X obj 91 250 bng 15 250 50 0 1_b empty empty 0 -6 0 8 #fcfcfc #000000
#000000;
#X obj 91 265 bng 15 250 50 0 2_b empty empty 0 -6 0 8 #fcfcfc #000000
#000000;
#X obj 394 245 bng 15 250 50 0 3_b empty empty 0 -6 0 8 #fcfcfc #000000
#000000;
#X obj 168 15 tgl 15 0 empty empty empty 1 12 1 9 #fcfcfc #000000 #000000
0 1;
#X msg 196 34 open \$1;
#X obj 231 13 hradio 15 1 1 30 \$0-device-number empty choose_a_device
0 -6 1 8 #fc8000 #000000 #000000 22;
#X obj 196 14 nbx 2 14 -1e+37 1e+37 0 0 empty \$0-device-number empty
0 -6 0 14 #a0a0a0 #000000 #000000 0 256;
#X msg 117 15 print;
#X obj 134 88 route abs key ff;
#X obj 613 63 print abs:;
#X obj 613 84 print key:;
#X obj 613 107 print ff:;
#X obj 394 260 bng 15 250 50 0 4_b empty empty 0 -6 0 8 #fcfcfc #000000
#000000;
#X obj 302 314 bng 15 250 50 0 5_b empty empty 0 -6 0 8 #fcfcfc #000000
#000000;
#X obj 491 301 bng 20 250 50 0 7_b empty empty 0 -6 0 8 #fcfcfc #000000
#000000;
#X obj 518 411 bng 20 250 50 0 8_b empty empty 0 -6 0 8 #fcfcfc #000000
#000000;
#X obj 545 348 bng 20 250 50 0 9_b empty empty 0 -6 0 8 #fcfcfc #000000
#000000;
#X obj 437 349 tgl 20 0 6_bt empty empty 0 -6 0 8 #fcfcfc #000000 #000000
0 1;
#X obj 516 301 tgl 20 0 7_bt empty empty 0 -6 0 8 #fcfcfc #000000 #000000
0 1;
#X obj 491 411 tgl 20 0 8_bt empty empty 0 -6 0 8 #fcfcfc #000000 #000000
0 1;
#X obj 571 348 tgl 20 0 9_bt empty empty 0 -6 0 8 #fcfcfc #000000 #000000
0 1;
#X obj 53 319 bng 20 250 50 0 up empty empty 0 -6 0 8 #fcfcfc #000000
#000000;
#X obj 13 350 bng 20 250 50 0 left empty empty 0 -6 0 8 #fcfcfc #000000
#000000;
#X obj 52 385 bng 20 250 50 0 down empty empty 0 -6 0 8 #fcfcfc #000000
#000000;
#X obj 92 351 bng 20 250 50 0 right empty empty 0 -6 0 8 #fcfcfc #000000
#000000;
#X obj 127 353 hsl 128 15 0 255 0 0 left_x empty empty -2 -6 0 8 #fcfcfc
#000000 #000000 0 1;
#X obj 182 296 vsl 15 128 255 0 0 0 left_y empty empty 0 -8 0 8 #fcfcfc
#000000 #000000 0 1;
#X obj 282 353 hsl 128 15 0 255 0 0 right_x empty empty -2 -6 0 8 #fcfcfc
#000000 #000000 0 1;
#X obj 337 296 vsl 15 128 255 0 0 0 right_y empty empty 0 -8 0 8 #fcfcfc
#000000 #000000 0 1;
#X obj 566 63 spigot;
#X obj 566 84 spigot;
#X obj 566 107 spigot;
#X obj 566 41 tgl 15 0 empty empty debug 20 8 0 8 #fcfcfc #000000 #000000
0 1;
#X obj 374 244 tgl 15 0 3_t empty empty 0 -6 0 8 #fcfcfc #000000 #000000
0 1;
#X obj 110 251 tgl 15 0 1_t empty empty 0 -6 0 8 #fcfcfc #000000 #000000
0 1;
#X obj 20 -2 inlet;
#X obj 374 260 tgl 15 0 4_t empty empty 0 -6 0 8 #fcfcfc #000000 #000000
0 1;
#X obj 110 266 tgl 15 0 2_t empty empty 0 -6 0 8 #fcfcfc #000000 #000000
0 1;
#X obj 169 177 route btn_8 btn_6 btn_4 btn_7 btn_5 btn_9 btn_3 btn_0
btn_2 btn_1;
#X obj 134 108 route abs_x abs_y abs_hat0x abs_hat0y abs_z abs_rz;
#X obj 215 156 route -1 1;
#X obj 282 156 route -1 1;
#X obj 216 129 change;
#X obj 282 130 change;
#X obj 215 253 change;
#X obj 302 253 change;
#X obj 91 225 change;
#X obj 134 64 hid \$1;
#X obj 29 146 outlet;
#X connect 5 0 49 0;
#X connect 6 0 49 0;
#X connect 7 0 6 0;
#X connect 9 0 49 0;
#X connect 10 0 41 0;
#X connect 10 1 31 0;
#X connect 10 1 40 0;
#X connect 10 2 32 0;
#X connect 10 3 33 0;
#X connect 31 0 11 0;
#X connect 32 0 12 0;
#X connect 33 0 13 0;
#X connect 34 0 31 1;
#X connect 34 0 32 1;
#X connect 34 0 33 1;
#X connect 37 0 5 0;
#X connect 40 0 46 0;
#X connect 40 1 48 0;
#X connect 40 2 3 0;
#X connect 40 2 39 0;
#X connect 40 3 35 0;
#X connect 40 3 4 0;
#X connect 40 4 38 0;
#X connect 40 4 14 0;
#X connect 40 5 47 0;
#X connect 40 6 0 0;
#X connect 40 6 19 0;
#X connect 40 7 16 0;
#X connect 40 7 20 0;
#X connect 40 8 17 0;
#X connect 40 8 21 0;
#X connect 40 9 18 0;
#X connect 40 9 22 0;
#X connect 41 0 27 0;
#X connect 41 1 28 0;
#X connect 41 2 44 0;
#X connect 41 3 45 0;
#X connect 41 4 30 0;
#X connect 41 5 29 0;
#X connect 42 0 24 0;
#X connect 42 1 26 0;
#X connect 43 0 23 0;
#X connect 43 1 25 0;
#X connect 44 0 42 0;
#X connect 45 0 43 0;
#X connect 46 0 1 0;
#X connect 47 0 15 0;
#X connect 48 0 2 0;
#X connect 48 0 36 0;
#X connect 49 0 10 0;
#X connect 49 0 50 0;
#X restore 1 25 pd joystick1 5;
#N canvas 759 198 698 511 joystick2 0;
#X obj 463 348 bng 20 250 50 0 6_b_2 empty 6 0 -6 0 10 #fcfcfc #000000
#000000;
#X obj 215 315 bng 15 250 50 0 0_b_2 empty empty 0 -6 0 8 #fcfcfc #000000
#000000;
#X obj 91 250 bng 15 250 50 0 1_b_2 empty empty 0 -6 0 8 #fcfcfc #000000
#000000;
#X obj 91 265 bng 15 250 50 0 2_b_2 empty empty 0 -6 0 8 #fcfcfc #000000
#000000;
#X obj 394 245 bng 15 250 50 0 3_b_2 empty empty 0 -6 0 8 #fcfcfc #000000
#000000;
#X obj 168 15 tgl 15 0 empty empty empty 1 12 1 9 #fcfcfc #000000 #000000
0 1;
#X msg 195 34 open \$1;
#X obj 231 13 hradio 15 1 1 20 \$0-device-number empty choose_a_device
0 -6 1 9 #00fc04 #000000 #000000 19;
#X obj 195 14 nbx 2 14 -1e+37 1e+37 0 0 empty \$0-device-number empty
0 -6 0 14 #a0a0a0 #000000 #000000 0 256;
#X msg 117 15 print;
#X obj 134 83 route abs key ff;
#X obj 587 37 print abs:;
#X obj 587 58 print key:;
#X obj 587 81 print ff:;
#X obj 394 260 bng 15 250 50 0 4_b_2 empty empty 0 -6 0 8 #fcfcfc #000000
#000000;
#X obj 302 314 bng 15 250 50 0 5_b_2 empty empty 0 -6 0 8 #fcfcfc #000000
#000000;
#X obj 491 301 bng 20 250 50 0 7_b_2 empty 7 -12 0 0 10 #fcfcfc #000000
#000000;
#X obj 518 411 bng 20 250 50 0 8_b_2 empty 8 0 -6 0 8 #fcfcfc #000000
#000000;
#X obj 545 348 bng 20 250 50 0 9_b_2 empty empty 10 0 0 1.65798e+07
#fcfcfc #000000 #fcfcfc;
#X obj 169 177 route btn_9 btn_6 btn_4 btn_7 btn_5 btn_8 btn_3 btn_0
btn_2 btn_1;
#X obj 437 349 tgl 20 0 6_bt_2 empty empty 0 -6 0 8 #fcfcfc #000000
#000000 0 1;
#X obj 516 301 tgl 20 0 7_bt_2 empty empty 0 -6 0 8 #fcfcfc #000000
#000000 0 1;
#X obj 491 411 tgl 20 0 8_bt_2 empty empty 0 -6 0 8 #fcfcfc #000000
#000000 0 1;
#X obj 571 348 tgl 20 0 9_bt_2 empty 9 20 0 0 10 #fcfcfc #000000 #000000
0 1;
#X obj 53 319 bng 20 250 50 0 up_2 empty empty 0 -6 0 8 #fcfcfc #000000
#000000;
#X obj 13 350 bng 20 250 50 0 left_2 empty empty 0 -6 0 8 #fcfcfc #000000
#000000;
#X obj 52 385 bng 20 250 50 0 down_2 empty empty 0 -6 0 8 #fcfcfc #000000
#000000;
#X obj 92 351 bng 20 250 50 0 right_2 empty empty 0 -6 0 8 #fcfcfc
#000000 #000000;
#X obj 127 353 hsl 128 15 0 255 0 0 left_x_2 empty empty -2 -6 0 8
#fcfcfc #000000 #000000 0 1;
#X obj 182 296 vsl 15 128 255 0 0 0 left_y_2 empty empty 0 -8 0 8 #fcfcfc
#000000 #000000 0 1;
#X obj 282 353 hsl 128 15 0 255 0 0 right_x_2 empty empty -2 -6 0 8
#fcfcfc #000000 #000000 0 1;
#X obj 337 296 vsl 15 128 255 0 0 0 right_y_2 empty empty 0 -8 0 8
#fcfcfc #000000 #000000 0 1;
#X obj 540 37 spigot;
#X obj 540 58 spigot;
#X obj 540 81 spigot;
#X obj 540 15 tgl 15 0 empty empty debug 20 8 0 8 #fcfcfc #000000 #000000
0 1;
#X obj 374 244 tgl 15 0 3_t_2 empty empty 0 -6 0 8 #fcfcfc #000000
#000000 0 1;
#X obj 110 251 tgl 15 0 1_t_2 empty empty 0 -6 0 8 #fcfcfc #000000
#000000 0 1;
#X obj 8 -1 inlet;
#X obj 374 260 tgl 15 0 4_t_2 empty empty 0 -6 0 8 #fcfcfc #000000
#000000 0 1;
#X obj 110 267 tgl 15 0 2_t_2 empty empty 0 -6 0 8 #fcfcfc #000000
#000000 0 1;
#X obj 541 105 spigot;
#X obj 587 106 print;
#X obj 134 103 route abs_x abs_y abs_hat0x abs_hat0y abs_z abs_rz;
#X obj 233 155 route -1 1;
#X obj 303 155 route -1 1;
#X obj 233 129 change;
#X obj 303 130 change;
#X obj 215 255 change;
#X obj 302 255 change;
#X obj 91 222 change;
#X obj 134 64 hid \$1;
#X obj 53 126 outlet;
#X msg 24 52 refresh;
#X connect 5 0 51 0;
#X connect 6 0 51 0;
#X connect 7 0 6 0;
#X connect 9 0 51 0;
#X connect 10 0 41 0;
#X connect 10 0 43 0;
#X connect 10 1 19 0;
#X connect 10 1 32 0;
#X connect 10 2 33 0;
#X connect 10 3 34 0;
#X connect 19 0 48 0;
#X connect 19 1 50 0;
#X connect 19 2 3 0;
#X connect 19 2 40 0;
#X connect 19 3 4 0;
#X connect 19 3 36 0;
#X connect 19 4 14 0;
#X connect 19 4 39 0;
#X connect 19 5 49 0;
#X connect 19 6 0 0;
#X connect 19 6 20 0;
#X connect 19 7 16 0;
#X connect 19 7 21 0;
#X connect 19 8 17 0;
#X connect 19 8 22 0;
#X connect 19 9 18 0;
#X connect 19 9 23 0;
#X connect 32 0 11 0;
#X connect 33 0 12 0;
#X connect 34 0 13 0;
#X connect 35 0 32 1;
#X connect 35 0 33 1;
#X connect 35 0 34 1;
#X connect 35 0 41 1;
#X connect 38 0 5 0;
#X connect 41 0 42 0;
#X connect 43 0 28 0;
#X connect 43 1 29 0;
#X connect 43 2 46 0;
#X connect 43 3 47 0;
#X connect 43 4 31 0;
#X connect 43 5 30 0;
#X connect 44 0 25 0;
#X connect 44 1 27 0;
#X connect 45 0 24 0;
#X connect 45 1 26 0;
#X connect 46 0 44 0;
#X connect 47 0 45 0;
#X connect 48 0 1 0;
#X connect 49 0 15 0;
#X connect 50 0 2 0;
#X connect 50 0 37 0;
#X connect 51 0 10 0;
#X connect 51 0 52 0;
#X connect 53 0 51 0;
#X restore 179 25 pd joystick2 15;
#X obj 1 97 outlet;
#X obj 1 58 prepend send joystick_1;
#X obj 179 57 prepend send joystick_2;
#X obj 2 2 cnv 15 92 16 empty empty empty 20 12 0 14 #541010 #404040
0;
#X obj 1 2 tgl 15 1 joy_1 empty empty 20 8 0 8 #fc8c10 #000000 #000000
1 1;
#X obj 18 2 tgl 15 1 joy_2 empty gamepads 20 8 0 10 #00fc10 #000000
#ffffff 1 1;
#X connect 0 0 3 0;
#X connect 1 0 4 0;
#X connect 3 0 2 0;
#X connect 4 0 2 0;
#X connect 6 0 0 0;
#X connect 7 0 1 0;
#X coords 0 -1 1 1 97 20 1 0 0;
#X restore 189 117 pd joystick;
#N canvas 412 218 1423 529 joystick_ctrl 0;
#X obj 213 22 r left_x;
#X obj 272 22 r left_y;
#X obj 331 22 r right_x;
#X obj 396 22 r right_y;
#X obj 516 78 r 6_bt;
#X obj 575 78 r 7_bt;
#X obj 634 78 r 8_bt;
#X obj 131 9 loadbang;
#X msg 131 28 0;
#X obj 696 39 r w1;
#X obj 650 39 spigot;
#X obj 566 0 r c4;
#X msg 650 19 0;
#X obj 566 19 t b b;
#X msg 679 19 1;
#X obj 512 0 r flash;
#X obj 650 0 delay 20;
#X floatatom 878 361 5 0 0 0 - - - 0;
#X msg 878 395 1;
#X obj 878 377 t b f;
#X obj 1226 31 r 1_t;
#X obj 879 262 r triggernote;
#X obj 879 283 - 36;
#X obj 879 304 spigot;
#X text 912 287 kettle connection;
#X floatatom 825 378 3 1 2 2 layer layer - 0;
#X obj 878 343 bng 15 250 50 0 empty empty re-trigger 0 -6 0 8 #fcfcfc
#000000 #fcfcfc;
#X obj 825 394 + 1;
#X text 213 6 knubbelachsen;
#X text 513 62 [ ];
#X text 579 62 ^;
#X text 699 62 O;
#X text 635 62 x;
#X obj 1226 96 s ms1;
#X obj 1294 94 s ms2;
#X obj 1226 75 tgl 15 0 empty empty empty 0 -6 0 8 #fcfcfc #000000
#000000 0 1;
#X obj 1294 74 tgl 15 0 empty empty empty 0 -6 0 8 #fcfcfc #000000
#000000 0 1;
#X obj 926 305 tgl 15 0 empty kettle kettle 20 3 0 8 #fcfcfc #000000
#fcfcfc 0 1;
#X floatatom 822 66 3 1 2 2 bank bank_01 - 0;
#X obj 822 89 - 1;
#X floatatom 1019 68 3 1 2 2 bank bank_02 - 0;
#X obj 1019 91 - 1;
#X obj 1294 30 r 1_t_2;
#X text 1225 8 moviescratch on/off;
#X text 515 295 [ ];
#X text 581 295 ^;
#X text 701 295 O;
#X text 637 295 x;
#X obj 518 311 r 6_bt_2;
#X obj 577 311 r 7_bt_2;
#X obj 636 311 r 8_bt_2;
#X obj 701 311 r 9_bt_2;
#X text 211 147 knubbelachsen2;
#X obj 894 95 r up;
#X obj 890 133 r down;
#X obj 856 114 r left;
#X obj 920 114 r right;
#X obj 1106 94 r up_2;
#X obj 1100 140 r down_2;
#X obj 1053 117 r left_2;
#X obj 1142 118 r right_2;
#X text 1204 119 joy2;
#X obj 1137 261 r speed1;
#X obj 1077 348 spigot;
#X obj 1077 369 t b b;
#X obj 1077 426 + 1;
#X msg 1077 391 -1;
#X obj 1226 52 sel 1;
#X obj 1294 51 sel 1;
#X obj 1077 327 sel 1;
#X obj 1150 327 sel 1;
#X obj 1077 282 r 2_t;
#X obj 1150 283 r 4_t;
#X obj 1150 348 spigot;
#X obj 1150 368 t b b;
#X msg 1150 389 1;
#X obj 1077 460 s xspeed1;
#X obj 1114 390 int 1;
#X obj 1066 305 spigot;
#X obj 1142 304 spigot;
#X obj 1226 348 spigot;
#X obj 1226 369 t b b;
#X obj 1226 413 + 1;
#X msg 1226 391 -1;
#X obj 1226 327 sel 1;
#X obj 1299 327 sel 1;
#X obj 1299 348 spigot;
#X obj 1256 413 >= 0;
#X obj 1299 369 t b b;
#X msg 1299 389 1;
#X obj 1256 390 int 1;
#X obj 1215 305 spigot;
#X obj 1291 304 spigot;
#X text 1047 242 speed setting via joystick;
#X obj 1226 445 s xspeed2;
#X obj 1286 261 r speed2;
#X obj 1226 282 r 2_t_2;
#X obj 1299 283 r 4_t_2;
#X obj 213 335 r 3_t;
#X obj 283 357 tgl 15 0 empty empty empty 0 -6 0 8 #fcfcfc #000000
#000000 0 1;
#X obj 213 356 tgl 15 0 empty empty empty 0 -6 0 8 #fcfcfc #000000
#000000 0 1;
#X obj 427 329 tgl 15 0 empty empty empty 0 -6 0 8 #fcfcfc #000000
#000000 0 1;
#X obj 427 346 sel 1;
#X obj 350 311 r 0_b;
#X obj 350 329 tgl 15 0 empty empty empty 0 -6 0 8 #fcfcfc #000000
#000000 0 1;
#X obj 350 346 sel 1;
#X obj 350 364 s lonoff1;
#X obj 427 364 s lonoff2;
#N canvas 333 159 224 224 if_timer 0;
#X obj 41 12 inlet;
#X obj 99 19 sel 0;
#X msg 99 37 100;
#X obj 99 62 int 100;
#X obj 127 90 - 1;
#X obj 99 164 > 20;
#X obj 99 142 spigot;
#X obj 41 139 outlet;
#X obj 41 101 metro 100;
#X obj 41 78 spigot;
#X obj 41 34 t f f f;
#X obj 41 55 pipe 200;
#X msg 128 37 0;
#X floatatom 163 136 5 0 0 0 - - - 0;
#X obj 41 120 t b b;
#X connect 0 0 10 0;
#X connect 1 0 2 0;
#X connect 1 0 12 0;
#X connect 2 0 3 0;
#X connect 3 0 4 0;
#X connect 3 0 8 1;
#X connect 3 0 5 0;
#X connect 3 0 13 0;
#X connect 4 0 3 1;
#X connect 5 0 6 1;
#X connect 6 0 3 0;
#X connect 8 0 14 0;
#X connect 9 0 8 0;
#X connect 10 0 11 0;
#X connect 10 1 9 1;
#X connect 10 2 1 0;
#X connect 11 0 9 0;
#X connect 12 0 8 0;
#X connect 14 0 7 0;
#X connect 14 1 6 0;
#X restore 1042 261 pd if_timer 1;
#N canvas 333 159 224 224 if_timer 0;
#X obj 41 12 inlet;
#X obj 99 19 sel 0;
#X msg 99 37 100;
#X obj 99 62 int 100;
#X obj 127 90 - 1;
#X obj 99 164 > 20;
#X obj 99 142 spigot;
#X obj 41 139 outlet;
#X obj 41 101 metro 100;
#X obj 41 78 spigot;
#X obj 41 34 t f f f;
#X obj 41 55 pipe 200;
#X msg 128 37 0;
#X floatatom 163 136 5 0 0 0 - - - 0;
#X obj 41 120 t b b;
#X connect 0 0 10 0;
#X connect 1 0 2 0;
#X connect 1 0 12 0;
#X connect 2 0 3 0;
#X connect 3 0 4 0;
#X connect 3 0 8 1;
#X connect 3 0 5 0;
#X connect 3 0 13 0;
#X connect 4 0 3 1;
#X connect 5 0 6 1;
#X connect 6 0 3 0;
#X connect 8 0 14 0;
#X connect 9 0 8 0;
#X connect 10 0 11 0;
#X connect 10 1 9 1;
#X connect 10 2 1 0;
#X connect 11 0 9 0;
#X connect 12 0 8 0;
#X connect 14 0 7 0;
#X connect 14 1 6 0;
#X restore 1200 261 pd if_timer;
#N canvas 405 193 337 430 switchbank 0;
#X obj 17 9 inlet;
#X obj 53 33 r left;
#X obj 99 33 r right;
#X obj 17 116 spigot;
#X obj 17 33 == 0;
#X obj 17 74 s blockcs1;
#X text 91 74 block clip switching;
#X obj 65 116 spigot;
#X obj 45 240 int;
#X obj 17 154 spigot;
#X obj 65 155 spigot;
#X obj 17 193 t b b;
#X msg 47 217 -1;
#X msg 95 216 1;
#X obj 46 270 +;
#X obj 65 193 t b b;
#X obj 17 240 > 1;
#X obj 7 300 s xbank_01;
#X obj 114 155 r i;
#X floatatom 165 310 5 0 0 0 - - - 0;
#X obj 165 211 loadbang;
#X obj 78 241 < 10;
#X msg 165 234 13;
#X obj 170 159 r init_banks;
#X obj 174 34 r __bank_left_01;
#X obj 197 58 r __bank_right_01;
#X connect 0 0 4 0;
#X connect 0 0 3 1;
#X connect 0 0 7 1;
#X connect 1 0 3 0;
#X connect 2 0 7 0;
#X connect 3 0 9 0;
#X connect 4 0 5 0;
#X connect 7 0 10 0;
#X connect 8 0 14 1;
#X connect 8 0 16 0;
#X connect 8 0 17 0;
#X connect 8 0 19 0;
#X connect 8 0 21 0;
#X connect 9 0 11 0;
#X connect 10 0 15 0;
#X connect 11 0 8 0;
#X connect 11 1 12 0;
#X connect 12 0 14 0;
#X connect 13 0 14 0;
#X connect 14 0 8 1;
#X connect 15 0 8 0;
#X connect 15 1 13 0;
#X connect 16 0 9 1;
#X connect 18 0 10 1;
#X connect 18 0 9 1;
#X connect 20 0 22 0;
#X connect 21 0 10 1;
#X connect 22 0 21 1;
#X connect 23 0 21 1;
#X connect 24 0 9 0;
#X connect 25 0 10 0;
#X restore 213 378 pd switchbank 1;
#N canvas 454 121 263 292 switchbank 0;
#X obj 17 9 inlet;
#X obj 17 76 spigot;
#X obj 17 33 == 0;
#X text 91 54 block clip switching;
#X obj 65 76 spigot;
#X obj 45 160 int;
#X obj 17 94 spigot;
#X obj 65 95 spigot;
#X obj 17 113 t b b;
#X msg 47 137 -1;
#X msg 95 136 1;
#X obj 46 190 +;
#X obj 65 114 t b b;
#X obj 17 160 > 1;
#X obj 45 219 s xbank_02;
#X obj 53 33 r left_2;
#X obj 116 32 r right_2;
#X obj 17 54 s blockcs2;
#X obj 114 95 r i;
#X obj 175 141 loadbang;
#X obj 72 160 < 10;
#X msg 175 164 13;
#X obj 152 104 r init_banks;
#X connect 0 0 2 0;
#X connect 0 0 1 1;
#X connect 0 0 4 1;
#X connect 1 0 6 0;
#X connect 2 0 17 0;
#X connect 4 0 7 0;
#X connect 5 0 11 1;
#X connect 5 0 13 0;
#X connect 5 0 14 0;
#X connect 5 0 20 0;
#X connect 6 0 8 0;
#X connect 7 0 12 0;
#X connect 8 0 5 0;
#X connect 8 1 9 0;
#X connect 9 0 11 0;
#X connect 10 0 11 0;
#X connect 11 0 5 1;
#X connect 12 0 5 0;
#X connect 12 1 10 0;
#X connect 13 0 6 1;
#X connect 15 0 1 0;
#X connect 16 0 4 0;
#X connect 18 0 7 1;
#X connect 18 0 6 1;
#X connect 19 0 21 0;
#X connect 20 0 7 1;
#X connect 21 0 20 1;
#X connect 22 0 20 1;
#X restore 283 404 pd switchbank 2;
#X obj 1124 348 r i;
#X obj 1273 348 r i;
#X obj 516 119 sel 0;
#X obj 518 353 sel 0;
#X obj 518 337 s scale_env_2;
#X obj 283 336 r 3_t_2;
#X obj 427 311 r 5_b_2;
#X obj 213 87 spigot;
#X msg 131 55 1;
#X obj 46 34 tgl 15 0 empty empty empty 0 -6 0 8 #fcfcfc #000000 #000000
0 1;
#X obj 46 6 r midijoy;
#X obj 61 33 s mjoy;
#X obj 38 312 r 0_b_2;
#X obj 47 95 r 5_b;
#X obj 38 331 tgl 15 0 empty empty empty 0 -6 0 8 #fcfcfc #000000 #000000
0 1;
#X obj 47 113 tgl 15 0 empty empty empty 0 -6 0 8 #fcfcfc #000000 #000000
0 1;
#X obj 47 131 sel 1;
#X obj 38 349 sel 1;
#X obj 38 366 tgl 15 0 empty empty empty 0 -6 0 8 #fcfcfc #000000 #000000
0 1;
#X obj 47 148 tgl 15 0 empty empty empty 0 -6 0 8 #fcfcfc #000000 #000000
0 1;
#X obj 38 406 sel 0;
#X obj 47 189 sel 0;
#X obj 47 209 del 10;
#X obj 38 428 del 10;
#X msg 114 215 0;
#X msg 89 428 0;
#X obj 699 78 r 9_bt;
#X obj 1303 413 < 200;
#X obj 822 192 s clip_1;
#X obj 1019 191 s clip_2;
#X obj 272 86 spigot;
#X obj 365 87 spigot;
#X obj 825 456 s clip_1;
#X obj 890 456 s clip_2;
#X obj 825 424 gate 2 1;
#X msg 516 139 1;
#X msg 518 373 1;
#X msg 577 358 0;
#X msg 575 126 0;
#X obj 1106 426 > 1;
#X obj 1154 413 < 199;
#X obj 1147 460 t f;
#X obj 1299 445 t f;
#X obj 699 122 sel 1;
#X obj 699 99 change;
#X obj 636 333 change;
#X obj 213 44 expr $f1/255 * 360 - 180;
#X obj 365 44 expr $f1/255 * 360 - 180;
#X obj 272 63 expr $f1/255 * 360 - 180;
#X text 103 98 joystick map;
#X obj 213 234 spigot;
#X obj 281 233 spigot;
#X obj 396 232 spigot;
#X obj 213 191 expr $f1/255 * 360 - 180;
#X obj 365 191 expr $f1/255 * 360 - 180;
#X obj 282 210 expr $f1/255 * 360 - 180;
#X obj 213 169 r left_x_2;
#X obj 282 169 r left_y_2;
#X obj 351 169 r right_x_2;
#X obj 426 169 r right_y_2;
#X obj 213 256 s 3Dx_2;
#X obj 281 256 s 3Dy_2;
#X obj 396 254 s 3Dz_2;
#X obj 213 109 s 3Dx_1;
#X obj 272 109 s 3Dy_1;
#X obj 365 109 s 3Dz_1;
#X obj 38 385 s xblock3D_2;
#X obj 57 167 s xblock3D_1;
#X obj 518 397 s scalefactor_2;
#X obj 516 162 s scalefactor_1;
#X obj 699 171 s output_model_1;
#X obj 701 404 sel 1;
#X obj 701 381 change;
#X obj 701 456 s output_model_2;
#X obj 634 101 change;
#X obj 634 208 s coord_effect;
#X obj 515 99 s scale_env_1;
#X obj 636 357 s flash;
#X obj 699 146 counter 1 3;
#X obj 701 430 counter 1 3;
#X obj 879 8 r __set_clip_1;
#X obj 1076 8 r __set_clip_2;
#X obj 822 170 clipgrid 1;
#X text 969 115 joy1;
#X obj 1019 170 clipgrid 2;
#X connect 0 0 158 0;
#X connect 1 0 160 0;
#X connect 3 0 159 0;
#X connect 4 0 114 0;
#X connect 4 0 188 0;
#X connect 5 0 150 0;
#X connect 6 0 186 0;
#X connect 7 0 8 0;
#X connect 7 0 120 0;
#X connect 8 0 121 0;
#X connect 9 0 10 1;
#X connect 11 0 13 0;
#X connect 12 0 10 0;
#X connect 13 0 16 0;
#X connect 13 1 14 0;
#X connect 14 0 10 0;
#X connect 15 0 13 0;
#X connect 16 0 12 0;
#X connect 17 0 19 0;
#X connect 18 0 146 1;
#X connect 19 0 18 0;
#X connect 20 0 67 0;
#X connect 21 0 22 0;
#X connect 22 0 23 0;
#X connect 23 0 17 0;
#X connect 25 0 27 0;
#X connect 26 0 17 0;
#X connect 27 0 146 0;
#X connect 35 0 33 0;
#X connect 36 0 34 0;
#X connect 37 0 23 1;
#X connect 38 0 39 0;
#X connect 39 0 194 0;
#X connect 40 0 41 0;
#X connect 41 0 196 0;
#X connect 42 0 68 0;
#X connect 48 0 115 0;
#X connect 48 0 116 0;
#X connect 49 0 149 0;
#X connect 50 0 157 0;
#X connect 51 0 184 0;
#X connect 53 0 194 1;
#X connect 54 0 194 2;
#X connect 55 0 194 3;
#X connect 56 0 194 4;
#X connect 57 0 196 1;
#X connect 58 0 196 2;
#X connect 59 0 196 3;
#X connect 60 0 196 4;
#X connect 62 0 77 1;
#X connect 63 0 64 0;
#X connect 64 0 66 0;
#X connect 64 1 77 0;
#X connect 65 0 76 0;
#X connect 65 0 153 0;
#X connect 66 0 65 0;
#X connect 67 0 35 0;
#X connect 68 0 36 0;
#X connect 69 0 63 0;
#X connect 70 0 73 0;
#X connect 71 0 108 0;
#X connect 71 0 78 1;
#X connect 71 0 69 0;
#X connect 72 0 79 1;
#X connect 72 0 108 0;
#X connect 72 0 70 0;
#X connect 73 0 74 0;
#X connect 74 0 75 0;
#X connect 74 1 77 0;
#X connect 75 0 65 0;
#X connect 77 0 65 1;
#X connect 77 0 151 0;
#X connect 77 0 152 0;
#X connect 78 0 63 0;
#X connect 79 0 73 0;
#X connect 80 0 81 0;
#X connect 81 0 83 0;
#X connect 81 1 90 0;
#X connect 82 0 94 0;
#X connect 82 0 154 0;
#X connect 83 0 82 0;
#X connect 84 0 80 0;
#X connect 85 0 86 0;
#X connect 86 0 88 0;
#X connect 87 0 80 1;
#X connect 88 0 89 0;
#X connect 88 1 90 0;
#X connect 89 0 82 0;
#X connect 90 0 82 1;
#X connect 90 0 87 0;
#X connect 90 0 139 0;
#X connect 91 0 80 0;
#X connect 92 0 86 0;
#X connect 95 0 90 1;
#X connect 96 0 109 0;
#X connect 96 0 91 1;
#X connect 96 0 84 0;
#X connect 97 0 92 1;
#X connect 97 0 109 0;
#X connect 97 0 85 0;
#X connect 98 0 100 0;
#X connect 99 0 111 0;
#X connect 100 0 110 0;
#X connect 101 0 102 0;
#X connect 102 0 107 0;
#X connect 103 0 104 0;
#X connect 104 0 105 0;
#X connect 105 0 106 0;
#X connect 108 0 78 0;
#X connect 108 0 79 0;
#X connect 109 0 91 0;
#X connect 109 0 92 0;
#X connect 112 0 63 1;
#X connect 112 0 73 1;
#X connect 113 0 80 1;
#X connect 113 0 86 1;
#X connect 114 0 147 0;
#X connect 115 0 148 0;
#X connect 117 0 99 0;
#X connect 118 0 101 0;
#X connect 119 0 175 0;
#X connect 120 0 131 0;
#X connect 120 0 130 0;
#X connect 121 0 123 0;
#X connect 122 0 121 0;
#X connect 124 0 126 0;
#X connect 125 0 127 0;
#X connect 126 0 129 0;
#X connect 127 0 128 0;
#X connect 128 0 131 0;
#X connect 129 0 130 0;
#X connect 130 0 132 0;
#X connect 130 0 162 1;
#X connect 130 0 163 1;
#X connect 130 0 164 1;
#X connect 130 0 178 0;
#X connect 131 0 119 1;
#X connect 131 0 133 0;
#X connect 131 0 142 1;
#X connect 131 0 143 1;
#X connect 131 0 179 0;
#X connect 132 0 135 0;
#X connect 133 0 134 0;
#X connect 134 0 136 0;
#X connect 135 0 137 0;
#X connect 136 0 175 0;
#X connect 136 0 176 0;
#X connect 136 0 177 0;
#X connect 138 0 156 0;
#X connect 139 0 86 1;
#X connect 142 0 176 0;
#X connect 143 0 177 0;
#X connect 146 0 144 0;
#X connect 147 0 181 0;
#X connect 148 0 180 0;
#X connect 149 0 172 0;
#X connect 149 0 173 0;
#X connect 149 0 174 0;
#X connect 150 0 175 0;
#X connect 150 0 176 0;
#X connect 150 0 177 0;
#X connect 151 0 63 1;
#X connect 152 0 73 1;
#X connect 153 0 77 1;
#X connect 154 0 90 1;
#X connect 155 0 190 0;
#X connect 156 0 155 0;
#X connect 157 0 189 0;
#X connect 158 0 119 0;
#X connect 159 0 143 0;
#X connect 160 0 142 0;
#X connect 162 0 172 0;
#X connect 163 0 173 0;
#X connect 164 0 174 0;
#X connect 165 0 162 0;
#X connect 166 0 164 0;
#X connect 167 0 163 0;
#X connect 168 0 165 0;
#X connect 169 0 167 0;
#X connect 171 0 166 0;
#X connect 183 0 191 0;
#X connect 184 0 183 0;
#X connect 186 0 187 0;
#X connect 190 0 182 0;
#X connect 191 0 185 0;
#X connect 192 0 194 5;
#X connect 193 0 196 5;
#X connect 194 0 140 0;
#X connect 196 0 141 0;
#X coords 0 -1 1 1 85 16 1 100 100;
#X restore 57 117 pd joystick_ctrl;
#X msg 642 19 clear;
#X obj 289 39 openpanel;
#X obj 289 10 bng 15 250 50 0 empty empty empty 17 7 0 10 #606060 #000000
#000000;
#X msg 289 62 putvideo \$1;
#N canvas 593 347 450 300 playlist 0;
#X msg 153 123 seek \$1;
#X obj 28 184 outlet;
#X obj 153 29 r clip_1;
#X obj 28 35 r xbank_01;
#X obj 214 187 print bank_1;
#X obj 28 70 videodir;
#X obj 73 184 outlet title;
#X obj 150 68 cnv 15 36 18 empty empty empty 20 12 0 14 #541010 #404040
0;
#X obj 153 70 nbx 2 14 0 100 0 0 empty empty empty 0 -8 0 10 #fc0400
#000000 #000000 0 256;
#X connect 0 0 1 0;
#X connect 2 0 8 0;
#X connect 3 0 5 0;
#X connect 5 0 1 0;
#X connect 5 1 4 0;
#X connect 5 1 6 0;
#X connect 8 0 0 0;
#X coords 0 -1 1 1 40 22 2 148 66;
#X restore 369 9 pd playlist;
#N canvas 552 341 450 300 playlist 0;
#X msg 153 123 seek \$1;
#X obj 28 184 outlet;
#X obj 28 35 r xbank_02;
#X obj 153 29 r clip_2;
#X obj 146 185 outlet;
#X obj 186 158 print bank_2;
#X obj 28 70 videodir;
#X obj 150 68 cnv 15 36 18 empty empty empty 20 12 0 14 #541010 #404040
0;
#X obj 153 70 nbx 2 14 0 100 0 0 empty empty empty 0 -8 0 10 #fc0400
#000000 #000000 0 256;
#X connect 0 0 1 0;
#X connect 2 0 6 0;
#X connect 3 0 8 0;
#X connect 6 0 1 0;
#X connect 6 1 4 0;
#X connect 6 1 5 0;
#X connect 8 0 0 0;
#X coords 0 -1 1 1 40 22 2 148 66;
#X restore 811 3 pd playlist;
#X msg 1086 18 clear;
#X obj 734 36 openpanel;
#X obj 734 7 bng 15 250 50 0 empty empty empty 17 7 0 10 #606060 #000000
#000000;
#X msg 734 59 putvideo \$1;
#X symbolatom 454 11 10 0 0 0 - - - 0;
#X symbolatom 896 6 10 0 0 0 - - - 0;
#X symbolatom 369 207 55 0 0 0 - - - 0;
#N canvas 70 94 837 566 midi_ctrl 0;
#N canvas 956 550 697 295 video_grid 0;
#X obj 32 125 & 7;
#X obj 69 99 >> 3;
#X obj 51 263 s __set_clip_1;
#X obj 69 151 * 5;
#X obj 51 233 +;
#X obj 32 150 - 1;
#X obj 32 203 moses 5;
#X obj 32 176 moses 0;
#X obj 69 123 moses 3;
#X obj 115 99 r grid_rows;
#X obj 98 151 r grid_cols;
#X obj 32 36 t f f;
#X obj 32 10 inlet midi-note;
#X obj 32 63 spigot;
#X obj 95 64 < 3;
#X connect 0 0 5 0;
#X connect 1 0 8 0;
#X connect 1 0 14 0;
#X connect 3 0 4 1;
#X connect 4 0 2 0;
#X connect 5 0 7 0;
#X connect 6 0 4 0;
#X connect 7 1 6 0;
#X connect 8 0 3 0;
#X connect 9 0 8 1;
#X connect 10 0 3 1;
#X connect 10 0 6 1;
#X connect 11 0 13 0;
#X connect 11 1 1 0;
#X connect 12 0 11 0;
#X connect 13 0 0 0;
#X connect 14 0 13 1;
#X restore 595 416 pd video_grid;
#X obj 22 30 ctlin 14;
#X obj 131 30 ctlin 15;
#X obj 22 94 prepend xspeed1;
#X obj 131 94 prepend xspeed2;
#X obj 22 459 outlet;
#X obj 22 406 prepend midi;
#X obj 22 428 prepend send;
#X obj 35 204 prepend waveshard_filter;
#X obj 207 204 prepend waveshard_amp;
#X obj 35 182 mapping/autoscale 1 20000;
#X obj 207 164 mapping/autoscale 0 30;
#X obj 35 140 ctlin 20;
#X obj 207 140 ctlin 21;
#X obj 365 204 prepend waveshard_amp;
#X obj 365 140 ctlin 22;
#X obj 365 164 mapping/autoscale 0 20;
#X obj 240 30 ctlin 16;
#X obj 391 30 ctlin 17;
#X obj 240 94 prepend saturation_01;
#X obj 391 94 prepend contrast_01;
#X obj 528 94 prepend saturation_02;
#X obj 679 94 prepend contrast_02;
#X obj 528 30 ctlin 18;
#X obj 679 30 ctlin 19;
#X obj 240 74 mapping/autoscale 0 2;
#X obj 391 74 mapping/autoscale 0 2;
#X obj 528 54 mapping/autoscale 0 2;
#X obj 679 54 mapping/autoscale 0 2;
#X connect 1 0 3 0;
#X connect 2 0 4 0;
#X connect 3 0 6 0;
#X connect 4 0 6 0;
#X connect 6 0 7 0;
#X connect 7 0 5 0;
#X connect 8 0 6 0;
#X connect 9 0 6 0;
#X connect 10 0 8 0;
#X connect 11 0 9 0;
#X connect 12 0 10 0;
#X connect 13 0 11 0;
#X connect 14 0 6 0;
#X connect 15 0 16 0;
#X connect 16 0 14 0;
#X connect 17 0 25 0;
#X connect 18 0 26 0;
#X connect 19 0 6 0;
#X connect 20 0 6 0;
#X connect 21 0 6 0;
#X connect 22 0 6 0;
#X connect 23 0 27 0;
#X connect 24 0 28 0;
#X connect 25 0 19 0;
#X connect 26 0 20 0;
#X connect 27 0 21 0;
#X connect 28 0 22 0;
#X restore 57 175 pd midi_ctrl korg;
#N canvas 638 91 1060 706 midi_ctrl 0;
#X obj 57 63 notein;
#X obj 76 556 noteout;
#X obj 76 440 for 1 6;
#X obj 76 471 t f f f;
#X msg 99 523 1;
#X obj 136 521 loadbang;
#X obj 99 497 + 8;
#X obj 126 498 + 16;
#X msg 76 410 bang;
#N canvas 960 566 697 295 video_grid 0;
#X obj 32 125 & 7;
#X obj 69 99 >> 3;
#X obj 51 263 s __set_clip_1;
#X obj 69 151 * 5;
#X obj 51 233 +;
#X obj 32 150 - 1;
#X obj 32 203 moses 5;
#X obj 32 176 moses 0;
#X obj 69 123 moses 3;
#X obj 115 99 r grid_rows;
#X obj 98 151 r grid_cols;
#X obj 32 36 t f f;
#X obj 32 10 inlet midi-note;
#X obj 304 254 noteout;
#X obj 304 14 inlet pos[index \, val];
#X obj 304 49 unpack f f;
#X obj 508 127 r grid_cols;
#X obj 304 144 / 5;
#X obj 304 169 i;
#X obj 304 196 * 8;
#X obj 304 226 +;
#X obj 304 119 t f f;
#X obj 336 144 % 5;
#X obj 304 95 moses 15;
#X obj 508 193 *;
#X obj 508 157 t b f;
#X obj 487 101 r grid_rows;
#X obj 336 169 + 1;
#X obj 304 72 moses 0;
#X text 386 48 set led on movie grid;
#X obj 32 63 spigot;
#X obj 95 64 < 3;
#X obj 218 49 pack f 127;
#X connect 0 0 5 0;
#X connect 1 0 8 0;
#X connect 1 0 31 0;
#X connect 3 0 4 1;
#X connect 4 0 2 0;
#X connect 4 0 32 0;
#X connect 5 0 7 0;
#X connect 6 0 4 0;
#X connect 7 1 6 0;
#X connect 8 0 3 0;
#X connect 9 0 8 1;
#X connect 10 0 3 1;
#X connect 10 0 6 1;
#X connect 11 0 30 0;
#X connect 11 1 1 0;
#X connect 12 0 11 0;
#X connect 14 0 15 0;
#X connect 15 0 28 0;
#X connect 15 1 13 1;
#X connect 16 0 17 1;
#X connect 16 0 22 1;
#X connect 16 0 25 0;
#X connect 17 0 18 0;
#X connect 18 0 19 0;
#X connect 19 0 20 0;
#X connect 20 0 13 0;
#X connect 21 0 17 0;
#X connect 21 1 22 0;
#X connect 22 0 27 0;
#X connect 23 0 21 0;
#X connect 24 0 23 1;
#X connect 25 0 24 0;
#X connect 25 1 24 1;
#X connect 26 0 24 0;
#X connect 27 0 20 1;
#X connect 28 1 23 0;
#X connect 30 0 0 0;
#X connect 31 0 30 1;
#X connect 32 0 15 0;
#X restore 52 343 pd video_grid;
#X obj 140 116 r clip_1;
#N canvas 1138 442 450 300 set_videogrid_led 0;
#X obj 45 19 inlet clip_index;
#X obj 45 246 outlet [index \, led_value];
#X obj 142 134 f;
#X obj 142 183 pack 0 1;
#X obj 45 182 pack 0 0;
#X obj 45 74 t b f b;
#X obj 45 153 f;
#X obj 45 123 delay 100;
#X connect 0 0 5 0;
#X connect 2 0 3 0;
#X connect 3 0 1 0;
#X connect 4 0 1 0;
#X connect 5 0 7 0;
#X connect 5 1 2 1;
#X connect 5 1 6 1;
#X connect 5 2 2 0;
#X connect 6 0 4 0;
#X connect 7 0 6 0;
#X restore 140 145 pd set_videogrid_led;
#X obj 57 92 stripnote;
#X floatatom 57 120 5 0 0 0 - - - 0;
#X obj 118 410 loadbang;
#X obj 264 559 outlet;
#X obj 264 373 prepend send midi;
#X obj 6 211 s __bank_left_01;
#X obj 6 185 sel 0 6;
#X obj 29 247 s __bank_right_01;
#X obj 416 374 prepend send midi_onoff;
#X obj 416 338 pack 1 1;
#X obj 676 317 noteout;
#X msg 699 284 1;
#X obj 736 282 loadbang;
#X msg 676 61 bang;
#X obj 718 61 loadbang;
#X obj 676 91 for 0 8;
#X obj 708 171 for 0 8;
#X obj 676 131 t f b;
#X obj 676 172 * 8;
#X obj 676 252 +;
#X obj 708 224 t f b;
#X obj 696 484 noteout;
#X msg 701 430 6 1;
#X text 130 60 for the Bhoreal;
#X connect 0 0 12 0;
#X connect 0 0 21 0;
#X connect 0 1 12 1;
#X connect 0 1 21 1;
#X connect 2 0 3 0;
#X connect 3 0 1 0;
#X connect 3 1 6 0;
#X connect 3 2 7 0;
#X connect 4 0 1 1;
#X connect 5 0 4 0;
#X connect 6 0 1 0;
#X connect 7 0 1 0;
#X connect 8 0 2 0;
#X connect 10 0 11 0;
#X connect 11 0 9 1;
#X connect 12 0 13 0;
#X connect 12 0 16 0;
#X connect 13 0 18 0;
#X connect 14 0 2 0;
#X connect 16 0 15 0;
#X connect 18 0 17 0;
#X connect 18 1 19 0;
#X connect 18 2 9 0;
#X connect 20 0 15 0;
#X connect 21 0 20 0;
#X connect 23 0 22 1;
#X connect 24 0 23 0;
#X connect 25 0 27 0;
#X connect 26 0 27 0;
#X connect 27 0 29 0;
#X connect 28 0 31 0;
#X connect 29 0 30 0;
#X connect 29 1 28 0;
#X connect 30 0 31 1;
#X connect 31 0 22 0;
#X connect 34 0 33 0;
#X restore 57 145 pd midi_ctrl bhoreal;
#X obj 369 36 videogrid videogrid1 3 5 #F0F0F0 #0F0F0F #F1882B mov:mpg:avi
60 40 ;
#X obj 811 35 videogrid videogrid2 4 5 #F0F0F0 #0F0F0F #F1882B mov:mpg:avi
60 40 ;
#N canvas 0 91 450 300 README 0;
#X text 23 17 requirements:;
#X text 23 37 - hcs (folder_list);
#X text 23 57 - list-abs (list-l2s);
#X text 25 97 - cyclone (counter);
#X text 25 77 - hid;
#X restore 97 30 pd README;
#X obj 540 11 bankswitch 1;
#N canvas 0 91 450 300 control.net 0;
#X floatatom 189 166 5 0 0 0 - - - 0;
#X msg 264 143 connect localhost 3000;
#X obj 64 100 metro 250;
#X obj 64 50 loadbang;
#X msg 64 75 1;
#X obj 20 83 == 0;
#X obj 189 143 netsend -u;
#X obj 189 25 inlet;
#X connect 0 0 5 0;
#X connect 1 0 6 0;
#X connect 2 0 1 0;
#X connect 3 0 4 0;
#X connect 4 0 2 0;
#X connect 5 0 2 0;
#X connect 6 0 0 0;
#X connect 7 0 6 0;
#X restore 189 206 pd control.net;
#N canvas 0 91 457 261 clip.net 0;
#X floatatom 151 178 5 0 0 0 - - - 0;
#X msg 118 49 send movie_1 \$1;
#X msg 221 49 send movie_2 \$1;
#X msg 226 161 connect localhost 3001;
#X obj 62 120 metro 250;
#X obj 62 70 loadbang;
#X msg 62 95 1;
#X obj 18 103 == 0;
#X obj 151 161 netsend -u;
#X obj 118 22 inlet;
#X obj 221 22 inlet;
#X connect 0 0 7 0;
#X connect 1 0 8 0;
#X connect 2 0 8 0;
#X connect 3 0 8 0;
#X connect 4 0 3 0;
#X connect 5 0 6 0;
#X connect 6 0 4 0;
#X connect 7 0 4 0;
#X connect 8 0 0 0;
#X connect 9 0 1 0;
#X connect 10 0 2 0;
#X restore 715 207 pd clip.net;
#X obj 981 10 bankswitch 2;
#N canvas 189 433 705 469 iphone-sensors 0;
#X obj 555 17 declare -lib mapping;
#X msg 304 122 1;
#X msg 333 122 4;
#X msg 363 122 1;
#X msg 304 79 bang;
#N canvas 219 254 450 300 3dlop 0;
#X obj 19 93 mapping/lop;
#X obj 59 144 mapping/lop;
#X obj 100 195 mapping/lop;
#X obj 262 24 inlet;
#X obj 324 25 inlet;
#X obj 388 24 inlet;
#X obj 19 19 inlet;
#X obj 19 44 unpack f f f;
#X obj 19 231 pack f f f;
#X obj 19 256 outlet;
#X connect 0 0 8 0;
#X connect 1 0 8 1;
#X connect 2 0 8 2;
#X connect 3 0 0 1;
#X connect 3 0 1 1;
#X connect 3 0 2 1;
#X connect 4 0 0 2;
#X connect 4 0 1 2;
#X connect 4 0 2 2;
#X connect 5 0 0 3;
#X connect 5 0 1 3;
#X connect 5 0 2 3;
#X connect 6 0 7 0;
#X connect 7 0 0 0;
#X connect 7 1 1 0;
#X connect 7 2 2 0;
#X connect 8 0 9 0;
#X restore 289 157 pd 3dlop;
#X obj 289 186 t l b l;
#N canvas 257 305 459 350 delta 0;
#X obj 46 31 inlet;
#X obj 190 34 inlet;
#X obj 46 56 unpack f f f;
#X obj 190 59 unpack f f f;
#X obj 46 116 -;
#X obj 86 115 -;
#X obj 127 115 -;
#X obj 46 141 pow 2;
#X obj 86 170 pow 2;
#X obj 127 140 pow 2;
#X obj 109 213 +;
#X obj 91 241 +;
#X obj 91 266 sqrt;
#X obj 91 291 outlet;
#X connect 0 0 2 0;
#X connect 1 0 3 0;
#X connect 2 0 4 0;
#X connect 2 1 5 0;
#X connect 2 2 6 0;
#X connect 3 0 4 1;
#X connect 3 1 5 1;
#X connect 3 2 6 1;
#X connect 4 0 7 0;
#X connect 5 0 8 0;
#X connect 6 0 9 0;
#X connect 7 0 11 0;
#X connect 8 0 10 0;
#X connect 9 0 10 1;
#X connect 10 0 11 1;
#X connect 11 0 12 0;
#X connect 12 0 13 0;
#X restore 312 269 pd delta;
#X floatatom 312 294 5 0 0 0 - - - 0;
#X obj 312 228 list;
#X obj 304 45 loadbang;
#N canvas 17 65 534 346 short_stop 0;
#X obj 173 10 inlet;
#X obj 173 72 < 0.1;
#X obj 173 100 sel 1;
#X obj 200 196 spigot;
#X obj 173 125 t b b;
#X msg 173 152 0;
#X obj 200 221 outlet;
#X obj 233 73 > \$2;
#X obj 254 30 inlet;
#X obj 233 170 tgl 15 0 empty empty empty 17 7 0 10 #fcfcfc #000000
#000000 0 1;
#X obj 173 33 t f f;
#X obj 233 96 sel 1;
#X msg 233 119 1;
#X connect 0 0 10 0;
#X connect 1 0 2 0;
#X connect 2 0 4 0;
#X connect 3 0 6 0;
#X connect 4 0 5 0;
#X connect 4 1 3 0;
#X connect 5 0 9 0;
#X connect 7 0 11 0;
#X connect 8 0 7 1;
#X connect 9 0 3 1;
#X connect 10 0 1 0;
#X connect 10 1 7 0;
#X connect 11 0 12 0;
#X connect 12 0 9 0;
#X restore 312 322 pd short_stop;
#X obj 312 351 bng 15 250 50 0 empty empty empty 17 7 0 10 #fcfcfc
#000000 #000000;
#X obj 312 371 random 19;
#X obj 312 394 + 1;
#X obj 312 417 s clip_2;
#X obj 32 165 outlet;
#X obj 82 75 route accelerate;
#X obj 102 102 cnv 15 80 16 empty empty iphone 20 8 0 12 #541010 #dcdcdc
0;
#X obj 103 103 tgl 15 0 empty empty empty 17 7 0 10 #00fc04 #000000
#000000 0 1;
#X obj 82 48 spigot;
#X obj 32 125 prepend send iphone;
#X obj 82 25 netreceive -u 8888;
#X msg 387 291 0.22;
#X obj 213 269 prepend delta;
#X connect 1 0 5 1;
#X connect 2 0 5 2;
#X connect 3 0 5 3;
#X connect 4 0 1 0;
#X connect 4 0 2 0;
#X connect 4 0 3 0;
#X connect 4 0 23 0;
#X connect 5 0 6 0;
#X connect 6 0 9 1;
#X connect 6 1 9 0;
#X connect 6 2 7 1;
#X connect 7 0 8 0;
#X connect 7 0 24 0;
#X connect 8 0 11 0;
#X connect 9 0 7 0;
#X connect 10 0 4 0;
#X connect 11 0 12 0;
#X connect 12 0 13 0;
#X connect 13 0 14 0;
#X connect 14 0 15 0;
#X connect 17 0 5 0;
#X connect 19 0 20 1;
#X connect 20 0 17 0;
#X connect 20 0 21 0;
#X connect 21 0 16 0;
#X connect 22 0 20 0;
#X connect 23 0 11 1;
#X connect 24 0 21 0;
#X coords 0 -1 1 1 85 20 1 100 100;
#X restore 57 86 pd iphone-sensors;
#X obj 1146 37 cnv 15 100 24 empty empty empty 20 12 0 14 #e0e0e0 #404040
0;
#N canvas 47 113 449 358 init-gui.023 0;
#X obj 29 25 loadbang;
#X obj 29 68 s i;
#X obj 57 69 s o;
#X msg 29 49 1;
#X msg 57 49 0;
#X obj 86 70 s wii_channel;
#X msg 86 48 2;
#X obj 30 98 loadbang;
#X obj 30 120 t b b;
#X msg 30 257 \; grid_rows 4 \; grid_cols 5 \; init_clipdir 1 \;;
#X msg 57 166 \; video_dir /home/ub/visuals/live/scrap/clips \;;
#X connect 0 0 3 0;
#X connect 0 0 4 0;
#X connect 0 0 6 0;
#X connect 3 0 1 0;
#X connect 4 0 2 0;
#X connect 6 0 5 0;
#X connect 7 0 8 0;
#X connect 8 0 9 0;
#X connect 8 1 10 0;
#X restore 1149 40 pd init-gui.023;
#X connect 1 0 24 1;
#X connect 2 0 23 0;
#X connect 4 0 19 0;
#X connect 5 0 7 0;
#X connect 6 0 5 0;
#X connect 7 0 19 0;
#X connect 8 0 19 0;
#X connect 8 1 14 0;
#X connect 9 0 20 0;
#X connect 9 1 15 0;
#X connect 10 0 20 0;
#X connect 11 0 13 0;
#X connect 12 0 11 0;
#X connect 13 0 20 0;
#X connect 16 0 24 0;
#X connect 19 0 16 0;
#X connect 20 0 1 0;
#X connect 26 0 23 0;
