#N canvas 447 262 1407 808 10;
#X obj 3 5 cnv 15 1400 800 empty empty empty 20 12 0 14 -33289 -66577
0;
#N canvas 473 278 383 288 fps 0;
#X obj 22 62 realtime;
#X obj 22 41 t b b;
#X obj 22 19 gemhead;
#X msg 22 84 1000 \$1;
#X obj 22 105 /;
#X obj 22 126 + 0.5;
#X obj 22 174 i;
#X floatatom 225 20 5 0 0 0 - - -, f 5;
#X msg 225 74 \; fps_recv color \$1 -1 0;
#X obj 22 152 markex/average 3;
#X floatatom 137 154 5 0 0 0 - - -, f 5;
#X obj 103 23 cnv 15 44 114 empty empty empty 20 12 0 14 -86277 -66577
0;
#X obj 104 73 cnv 15 16 10 empty empty -25 20 12 0 10 -86277 -262144
0;
#X obj 108 40 vsl 10 90 0 50 0 0 empty fps_recv fps 0 -9 0 10 -258113
-1 -262144 5517 1;
#X obj 121 124 nbx 2 10 0 144 0 0 empty empty empty 0 -8 0 10 -258113
-262144 -1 30 256;
#X connect 0 0 3 0;
#X connect 1 0 0 0;
#X connect 1 1 0 1;
#X connect 2 0 1 0;
#X connect 3 0 4 0;
#X connect 4 0 5 0;
#X connect 5 0 9 0;
#X connect 6 0 14 0;
#X connect 7 0 8 0;
#X connect 9 0 6 0;
#X connect 9 0 13 0;
#X coords 0 -1 1 1 50 120 2 100 20;
#X restore 1333 20 pd fps;
#N canvas 47 468 886 315 gemwin 0;
#X msg 44 184 destroy;
#N canvas 174 656 317 295 Gem.init 0;
#X obj 59 46 loadbang;
#X obj 171 260 outlet;
#X msg 104 103 color 0 0 0;
#X msg 2 210 FSAA \$1;
#X msg 2 184 0;
#X msg 31 184 2;
#X msg 60 184 4;
#X obj 59 65 t b b b b b;
#X msg 213 220 reset;
#X msg 89 184 8;
#X msg 91 128 dimen 1280 720;
#X msg 171 190 frame 60;
#X connect 0 0 7 0;
#X connect 2 0 1 0;
#X connect 3 0 1 0;
#X connect 4 0 3 0;
#X connect 5 0 3 0;
#X connect 6 0 3 0;
#X connect 7 0 9 0;
#X connect 7 1 10 0;
#X connect 7 2 2 0;
#X connect 7 3 11 0;
#X connect 7 4 8 0;
#X connect 8 0 1 0;
#X connect 9 0 3 0;
#X connect 10 0 1 0;
#X connect 11 0 1 0;
#X restore 201 22 pd Gem.init;
#X obj 395 184 sel 1 0;
#X msg 339 194 destroy;
#X msg 307 44 dimen 800 600;
#X msg 307 22 dimen 640 480;
#X msg 566 81 lighting \$1;
#X obj 566 59 tgl 15 0 empty empty empty 17 7 0 10 -262144 -1 -1 0
1;
#X obj 584 53 r lighting;
#X msg 307 66 dimen 1024 768;
#X obj 565 111 s __lighting;
#X msg 704 99 perspec \$1 \$2 \$3 \$4 \$5 \$6;
#N canvas 1296 505 544 500 perspec 0;
#X obj 90 428 outlet;
#X obj 268 273 t f f;
#X obj 268 298 * -1;
#X obj 90 268 t f f;
#X obj 90 293 * -1;
#X obj 90 367 pack -1 1 -1 1 1 20;
#X msg 90 389 set perspec \$1 \$2 \$3 \$4 \$5 \$6 \, bang;
#X msg 172 453 set perspec \, adddollar 1 \, adddollar 2 \, adddollar
3 \, adddollar 4 \, adddollar 5 \, adddollar 6;
#X floatatom 104 109 5 0.1 5 1 x_wideness - -, f 5;
#X floatatom 104 126 5 0.1 5 1 y_wideness - -, f 5;
#X floatatom 104 143 5 0 0 1 z_depth - -, f 5;
#X obj 360 196 select 1;
#X obj 405 219 t b f f;
#X obj 249 226 t b f f;
#X obj 204 203 select 0;
#X obj 360 218 f 20;
#X obj 204 224 f 1;
#X msg 204 246 set \$1;
#X msg 360 240 set \$1;
#X obj 134 216 t b f f;
#X obj 89 193 select 0;
#X obj 89 214 f 1;
#X msg 89 236 set \$1;
#X obj 328 97 loadbang;
#X obj 328 119 t b b;
#X obj 328 141 t b b b;
#X connect 1 0 2 0;
#X connect 1 1 5 3;
#X connect 2 0 5 2;
#X connect 3 0 4 0;
#X connect 3 1 5 1;
#X connect 4 0 5 0;
#X connect 5 0 6 0;
#X connect 6 0 0 0;
#X connect 7 0 0 0;
#X connect 8 0 20 0;
#X connect 9 0 14 0;
#X connect 10 0 11 0;
#X connect 11 0 15 0;
#X connect 11 1 12 0;
#X connect 12 0 5 0;
#X connect 12 1 5 5;
#X connect 12 2 15 1;
#X connect 13 0 5 0;
#X connect 13 1 1 0;
#X connect 13 2 16 1;
#X connect 14 0 16 0;
#X connect 14 1 13 0;
#X connect 15 0 18 0;
#X connect 16 0 17 0;
#X connect 17 0 9 0;
#X connect 18 0 10 0;
#X connect 19 1 3 0;
#X connect 19 2 21 1;
#X connect 20 0 21 0;
#X connect 20 1 19 0;
#X connect 21 0 22 0;
#X connect 22 0 8 0;
#X connect 23 0 24 0;
#X connect 24 0 25 0;
#X connect 24 1 7 0;
#X connect 25 0 21 0;
#X connect 25 1 16 0;
#X connect 25 2 15 0;
#X coords 0 -1 1 1 100 67 1 100 100;
#X restore 704 27 pd perspec;
#X msg 422 244 border 0 \, offset 1920 0 \, dimen 1280 720 \, fullscreen
0;
#X msg 307 88 dimen 1280 720;
#X obj 44 146 sel 0 1;
#X obj 12 12 cnv 15 85 55 empty empty empty 20 12 0 14 -86277 -262144
0;
#X obj 17 44 tgl 15 0 empty empty fullscreen 16 11 0 8 -258113 -1 -262144
1 1;
#X obj 17 21 tgl 15 0 empty empty render 16 11 0 8 -258113 -1 -262144
1 1;
#X obj 395 211 t b b;
#X obj 201 157 gemwin 50;
#X msg 414 276 border 1 \, offset 0 0 \, dimen 1280 720 \, fullscreen
0;
#X obj 376 152 t b f b;
#X obj 17 81 t f f;
#X msg 63 227 create;
#X obj 127 3 int;
#X connect 0 0 20 0;
#X connect 1 0 20 0;
#X connect 2 0 19 0;
#X connect 2 1 21 0;
#X connect 3 0 20 0;
#X connect 4 0 20 0;
#X connect 5 0 20 0;
#X connect 6 0 20 0;
#X connect 7 0 6 0;
#X connect 7 0 10 0;
#X connect 8 0 7 0;
#X connect 9 0 20 0;
#X connect 11 0 20 0;
#X connect 12 0 11 0;
#X connect 13 0 20 0;
#X connect 14 0 20 0;
#X connect 15 0 0 0;
#X connect 15 1 24 0;
#X connect 17 0 22 0;
#X connect 18 0 23 0;
#X connect 18 0 25 1;
#X connect 19 0 24 0;
#X connect 19 1 13 0;
#X connect 21 0 20 0;
#X connect 22 0 25 0;
#X connect 22 1 2 0;
#X connect 22 2 3 0;
#X connect 23 0 20 0;
#X connect 23 1 15 0;
#X connect 24 0 20 0;
#X connect 25 0 18 0;
#X coords 0 -1 1 1 90 60 2 10 10;
#X restore 1239 20 pd gemwin;
#X obj 21 20 analysis, f 12;
#N canvas 67 684 495 303 record 0;
#X obj 15 93 t a b;
#X msg 273 45 1;
#X msg 381 48 0;
#X obj 15 62 gemhead -1;
#X obj 71 93 bng 15 250 50 0 empty empty empty 17 7 0 10 -262144 -1
-1;
#X obj 273 22 r rec_start;
#X obj 381 21 r rec_stop;
#X obj 15 183 pix_write;
#X msg 244 136 file basefilename /tmp/record_;
#X obj 244 112 loadbang;
#X obj 12 12 cnv 15 62 26 empty empty empty 20 12 0 14 -86277 -66577
0;
#X obj 15 18 tgl 15 0 empty empty record 17 7 0 10 -258113 -1 -262144
0 1;
#X connect 0 0 7 0;
#X connect 1 0 11 0;
#X connect 2 0 11 0;
#X connect 3 0 0 0;
#X connect 4 0 7 0;
#X connect 5 0 1 0;
#X connect 6 0 2 0;
#X connect 8 0 7 0;
#X connect 9 0 8 0;
#X connect 9 0 2 0;
#X connect 11 0 3 0;
#X coords 0 -1 1 1 66 30 2 10 10;
#X restore 21 742 pd record;
#N canvas 233 291 455 399 output 0;
#N canvas 953 122 794 803 cubes 0;
#X obj 57 162 rotateXYZ 0 0 0;
#X obj 57 3 inlet;
#X obj 57 203 scale 1 1 1;
#X floatatom 16 103 5 0 0 0 - - -, f 5;
#X obj 134 41 * -1;
#X obj 16 24 loadbang;
#X msg 16 55 1.5;
#X obj 57 76 pix_texture;
#X obj 483 188 square 1;
#X obj 346 190 square 1;
#X obj 209 109 rotateXYZ 0 180 0;
#X obj 209 137 translateXYZ -2 0 0;
#X obj 346 108 rotateXYZ 0 0 180;
#X obj 346 136 translateXYZ -2 -2 0;
#X obj 483 112 rotateXYZ 0 180 0;
#X obj 483 140 translateXYZ -2 0 0;
#X obj 209 189 square 1;
#X obj 57 229 square 1;
#X obj 482 323 square 1;
#X obj 345 325 square 1;
#X obj 208 264 rotateXYZ 0 180 0;
#X obj 208 292 translateXYZ -2 0 0;
#X obj 345 263 rotateXYZ 0 0 180;
#X obj 345 291 translateXYZ -2 -2 0;
#X obj 482 267 rotateXYZ 0 180 0;
#X obj 482 295 translateXYZ -2 0 0;
#X obj 208 324 square 1;
#X obj 56 328 square 1;
#X obj 483 444 square 1;
#X obj 346 446 square 1;
#X obj 209 445 square 1;
#X obj 57 449 square 1;
#X obj 57 380 rotateXYZ 0 90 0;
#X obj 209 375 rotateXYZ 0 0 180;
#X obj 209 403 translateXYZ 0 -2 0;
#X obj 483 378 rotateXYZ 0 180 0;
#X obj 346 374 rotateXYZ 0 0 180;
#X obj 483 406 translateXYZ 0 2 0;
#X obj 346 402 translateXYZ 0 -2 -4;
#X obj 56 269 translateXYZ 0 0 2;
#X obj 483 576 square 1;
#X obj 346 578 square 1;
#X obj 209 577 square 1;
#X obj 57 581 square 1;
#X obj 209 517 rotateXYZ 0 0 180;
#X obj 209 545 translateXYZ 0 -2 0;
#X obj 483 520 rotateXYZ 0 180 0;
#X obj 346 516 rotateXYZ 0 0 180;
#X obj 483 548 translateXYZ 0 2 0;
#X obj 346 544 translateXYZ 0 -2 -4;
#X obj 57 522 rotateXYZ 90 0 0;
#X floatatom 214 38 5 0 0 0 - - -, f 5;
#X obj 57 553 translateXYZ 0 -3 3;
#X obj 282 4 loadbang;
#X obj 57 411 translateXYZ 1 0 3;
#X obj 57 135 translateXYZ -1.5 -1.5 -1;
#X obj 482 695 square 1;
#X obj 345 697 square 1;
#X obj 208 696 square 1;
#X obj 56 700 square 1;
#X obj 208 636 rotateXYZ 90 0 0;
#X obj 345 635 rotateXYZ 90 0 0;
#X obj 482 639 rotateXYZ 90 0 0;
#X obj 56 641 rotateXYZ 90 0 0;
#X obj 208 665 translateXYZ 0 -1 1;
#X obj 345 663 translateXYZ 0 1 -1;
#X obj 482 667 translateXYZ 0 -1 1;
#X obj 56 672 translateXYZ 0 -1 1;
#X obj 541 188 spigot 1;
#X obj 539 323 spigot 1;
#X obj 540 443 spigot 1;
#X obj 540 574 spigot 1;
#X obj 586 18 inlet;
#X obj 586 49 > 0;
#X obj 614 49 > 1;
#X obj 642 50 > 2;
#X obj 671 51 > 3;
#X obj 57 47 separator;
#X msg 136 4 rectangle 0 \, texunit 0;
#X connect 0 0 2 0;
#X connect 1 0 77 0;
#X connect 2 0 17 0;
#X connect 3 0 2 1;
#X connect 3 0 4 0;
#X connect 4 0 55 1;
#X connect 4 0 55 2;
#X connect 5 0 6 0;
#X connect 6 0 3 0;
#X connect 7 0 55 0;
#X connect 8 0 68 0;
#X connect 9 0 14 0;
#X connect 10 0 11 0;
#X connect 11 0 16 0;
#X connect 12 0 13 0;
#X connect 13 0 9 0;
#X connect 14 0 15 0;
#X connect 15 0 8 0;
#X connect 16 0 12 0;
#X connect 17 0 10 0;
#X connect 18 0 69 0;
#X connect 19 0 24 0;
#X connect 20 0 21 0;
#X connect 21 0 26 0;
#X connect 22 0 23 0;
#X connect 23 0 19 0;
#X connect 24 0 25 0;
#X connect 25 0 18 0;
#X connect 26 0 22 0;
#X connect 27 0 20 0;
#X connect 28 0 70 0;
#X connect 29 0 35 0;
#X connect 30 0 36 0;
#X connect 31 0 33 0;
#X connect 32 0 54 0;
#X connect 33 0 34 0;
#X connect 34 0 30 0;
#X connect 35 0 37 0;
#X connect 36 0 38 0;
#X connect 37 0 28 0;
#X connect 38 0 29 0;
#X connect 39 0 27 0;
#X connect 40 0 71 0;
#X connect 41 0 46 0;
#X connect 42 0 47 0;
#X connect 43 0 44 0;
#X connect 44 0 45 0;
#X connect 45 0 42 0;
#X connect 46 0 48 0;
#X connect 47 0 49 0;
#X connect 48 0 40 0;
#X connect 49 0 41 0;
#X connect 50 0 52 0;
#X connect 51 0 55 3;
#X connect 52 0 43 0;
#X connect 53 0 78 0;
#X connect 54 0 31 0;
#X connect 55 0 0 0;
#X connect 57 0 62 0;
#X connect 58 0 61 0;
#X connect 59 0 60 0;
#X connect 60 0 64 0;
#X connect 61 0 65 0;
#X connect 62 0 66 0;
#X connect 63 0 67 0;
#X connect 64 0 58 0;
#X connect 65 0 57 0;
#X connect 66 0 56 0;
#X connect 67 0 59 0;
#X connect 68 0 39 0;
#X connect 69 0 32 0;
#X connect 70 0 50 0;
#X connect 71 0 63 0;
#X connect 72 0 73 0;
#X connect 72 0 74 0;
#X connect 72 0 75 0;
#X connect 72 0 76 0;
#X connect 73 0 68 1;
#X connect 74 0 69 1;
#X connect 75 0 70 1;
#X connect 76 0 71 1;
#X connect 77 0 7 0;
#X restore 77 202 pd cubes;
#N canvas 743 457 569 318 plane 0;
#X obj 31 14 inlet;
#X obj 31 66 separator;
#X floatatom 136 200 5 0 0 0 - - -, f 5;
#X floatatom 83 140 5 0 0 0 - - -, f 5;
#X obj 136 155 * 9, f 5;
#X obj 136 178 / 16;
#X obj 31 106 translateXYZ 0 0 -1;
#X obj 31 236 rectangle 8.8 4.95;
#X obj 123 66 gemframebuffer;
#X obj 31 38 t a a;
#X obj 189 113 rectangle 8.8 4.95;
#X obj 123 44 separator;
#X msg 211 66 type FLOAT \, dimen 1280 1280 \, rectangle 0 \, texunit
0;
#X obj 189 94 translateXYZ 0 0 -1;
#X connect 0 0 9 0;
#X connect 1 0 6 0;
#X connect 2 0 7 2;
#X connect 3 0 4 0;
#X connect 3 0 7 1;
#X connect 4 0 5 0;
#X connect 5 0 2 0;
#X connect 6 0 7 0;
#X connect 8 0 13 0;
#X connect 9 0 1 0;
#X connect 11 0 8 0;
#X connect 12 0 8 0;
#X connect 13 0 10 0;
#X restore 16 157 pd plane;
#N canvas 801 249 450 300 sphere 0;
#X obj 21 16 inlet;
#X obj 21 158 rotateXYZ;
#X floatatom 111 127 5 0 0 0 - - -, f 5;
#X floatatom 38 229 5 0 0 0 - - -, f 5;
#X obj 21 125 pix_texture;
#X floatatom 157 126 5 0 0 0 - - -, f 5;
#X obj 21 92 pix_set 512 512;
#X msg 94 11 rectangle 0;
#X obj 21 270 sphere 2.5;
#X floatatom 78 247 5 0 0 0 - - -, f 5;
#X msg 78 228 32;
#X obj 78 210 loadbang;
#X obj 21 184 translateXYZ 0 0 -0.5;
#X obj 21 47 separator;
#X connect 0 0 13 0;
#X connect 1 0 12 0;
#X connect 2 0 1 2;
#X connect 3 0 8 1;
#X connect 4 0 1 0;
#X connect 5 0 1 1;
#X connect 6 0 4 0;
#X connect 7 0 4 0;
#X connect 9 0 8 2;
#X connect 10 0 9 0;
#X connect 11 0 10 0;
#X connect 12 0 8 0;
#X connect 13 0 6 0;
#X restore 138 241 pd sphere;
#X obj 12 13 cnv 15 156 74 empty empty output 4 8 0 10 -86277 -260097
0;
#X obj 16 46 hradio 15 1 1 5 empty output_model plane/cubes/sphere/grid
0 -8 0 9 -260097 -1 -260097 1;
#X obj 16 68 hradio 15 1 1 5 empty empty empty 0 -8 0 10 -260097 -1
-1 3;
#X obj 199 12 inlet gemlist;
#X obj 16 113 cyclone/gate 4 1, f 31;
#N canvas 835 213 852 604 grid 0;
#X text 468 25 rutt-etra like spatial line/grid distortion effect;
#X obj 95 28 inlet;
#X obj 253 260 change;
#X floatatom 253 283 5 0 0 0 - - -, f 5;
#X msg 38 405 print;
#X obj 95 406 glsl_program;
#X obj 208 260 change;
#X floatatom 208 283 5 0 0 0 - - -, f 5;
#X obj 208 310 pack;
#X obj 253 310 t b f;
#X msg 132 330 link;
#X msg 55 243 print;
#X msg 55 210 print;
#X obj 95 210 glsl_vertex;
#X obj 95 243 glsl_fragment;
#X msg 208 355 link \$1 \$2;
#X obj 220 43 gemhead;
#X obj 220 71 route gem_state;
#X obj 220 95 route 1;
#X msg 130 152 open shaders/displace.vert;
#X msg 130 179 open shaders/displace.frag;
#X obj 95 62 pix_texture;
#X obj 95 478 alpha;
#X msg 36 329 boost 0;
#X msg 52 297 boost 1;
#X obj 95 540 mesh_square 200;
#X obj 95 454 polygon_smooth, f 16;
#X obj 95 118 gemhead 99;
#X msg 15 272 push \$1;
#X floatatom 15 164 5 0 0 0 - - -, f 5;
#X msg 141 18 rectangle 0 \, texunit 10;
#X obj 95 87 rectangle;
#X obj 95 501 scaleXYZ 6 2 1;
#X msg 249 390 tex0 \$1;
#X obj 18 27 loadbang;
#X msg 18 51 0;
#X connect 1 0 21 0;
#X connect 2 0 3 0;
#X connect 3 0 9 0;
#X connect 4 0 5 0;
#X connect 5 0 26 0;
#X connect 6 0 7 0;
#X connect 7 0 8 0;
#X connect 8 0 15 0;
#X connect 9 0 8 0;
#X connect 9 1 8 1;
#X connect 10 0 5 0;
#X connect 11 0 14 0;
#X connect 12 0 13 0;
#X connect 13 0 14 0;
#X connect 13 1 6 0;
#X connect 14 0 5 0;
#X connect 14 1 2 0;
#X connect 15 0 5 0;
#X connect 16 0 17 0;
#X connect 17 0 18 0;
#X connect 18 0 19 0;
#X connect 18 0 20 0;
#X connect 19 0 13 0;
#X connect 20 0 14 0;
#X connect 21 0 31 0;
#X connect 21 1 33 0;
#X connect 22 0 32 0;
#X connect 23 0 5 0;
#X connect 24 0 5 0;
#X connect 26 0 22 0;
#X connect 27 0 13 0;
#X connect 28 0 5 0;
#X connect 29 0 28 0;
#X connect 30 0 21 0;
#X connect 32 0 25 0;
#X connect 33 0 5 0;
#X connect 34 0 35 0;
#X connect 35 0 27 0;
#X restore 199 294 pd grid;
#X obj 244 180 t b;
#X obj 244 217 print WARNING: not implemented;
#X connect 4 0 7 0;
#X connect 5 0 0 1;
#X connect 6 0 7 1;
#X connect 7 0 1 0;
#X connect 7 1 0 0;
#X connect 7 2 2 0;
#X connect 7 3 9 0;
#X connect 7 3 8 0;
#X connect 9 0 10 0;
#X coords 0 -1 1 1 160 80 2 10 10;
#X restore 460 654 pd output;
#N canvas 642 444 789 404 verteiler 0;
#X obj 28 175 + 1;
#X obj 28 295 outlet;
#X obj 85 20 inlet;
#X obj 28 248 switch 4;
#X obj 381 31 r fx_blit_switch;
#X obj 381 63 tgl 15 0 empty empty empty 17 7 0 10 -262144 -1 -1 0
1;
#X obj 28 77 int;
#X obj 28 108 t f;
#X obj 381 125 sel 0;
#X obj 127 164 gemhead 60;
#X obj 127 201 pix_texture;
#X obj 190 164 r _spectex;
#X obj 127 127 == 2;
#X obj 194 264 pix_texture;
#X obj 284 191 gemhead 60;
#X obj 284 154 == 3;
#X obj 341 155 sel 1;
#X text 390 155 weirdly this seems needed as image gets lost;
#X obj 202 23 cnv 15 80 54 empty empty verteiler 4 8 0 10 -86277 -262144
0;
#X obj 207 38 hradio 15 1 1 4 empty verteiler empty 0 -8 0 10 -258113
-1 -1 1;
#X obj 28 42 t f f f;
#N canvas 433 705 397 182 audiotexturer 0;
#X obj 30 12 inlet;
#X obj 30 50 tgl 15 0 empty empty empty 17 7 0 10 -4034 -1 -1 0 1;
#X obj 55 49 r~ filtered_mic;
#X obj 56 105 s _sigtex;
#X obj 30 135 outlet;
#X obj 83 135 outlet;
#X obj 83 13 inlet;
#X obj 30 77 sig2pix2;
#X connect 0 0 1 0;
#X connect 1 0 7 0;
#X connect 2 0 7 1;
#X connect 6 0 7 2;
#X connect 7 0 4 0;
#X connect 7 1 3 0;
#X connect 7 2 5 0;
#X coords 0 -1 1 1 200 22 1 30 50;
#X restore 207 87 pd audiotexturer;
#X obj 207 56 tgl 15 0 empty empty audiotex 17 7 0 10 -168197 -1 -228856
0 1;
#X msg 373 192 open whiteframe.png;
#X obj 194 236 pix_image whiteframe.png;
#X msg 420 87 red;
#X connect 0 0 3 0;
#X connect 2 0 3 1;
#X connect 3 0 1 0;
#X connect 4 0 5 0;
#X connect 5 0 8 0;
#X connect 6 0 7 0;
#X connect 7 0 0 0;
#X connect 8 0 6 0;
#X connect 8 1 7 0;
#X connect 9 0 10 0;
#X connect 10 0 3 3;
#X connect 11 0 10 1;
#X connect 12 0 9 0;
#X connect 13 0 3 4;
#X connect 14 0 24 0;
#X connect 15 0 14 0;
#X connect 15 0 16 0;
#X connect 16 0 23 0;
#X connect 19 0 20 0;
#X connect 20 0 6 0;
#X connect 20 1 12 0;
#X connect 20 2 15 0;
#X connect 21 0 3 2;
#X connect 21 1 25 0;
#X connect 22 0 21 0;
#X connect 23 0 24 0;
#X connect 24 0 13 0;
#X connect 25 0 21 1;
#X coords 0 -1 1 1 85 60 1 200 20;
#X restore 705 348 pd verteiler;
#X obj 290 348 glsl_contrast;
#X symbolatom 705 252 50 0 0 0 - movie_2 -, f 50;
#X symbolatom 290 252 50 0 0 0 - movie_1 -, f 50;
#X obj 290 269 inline_movieplayer 1;
#X obj 705 417 glsl_contrast;
#X obj 290 488 qprojection 1;
#X obj 223 270 videoin 0;
#X obj 634 271 videoin 1;
#N canvas 344 260 450 300 config 0;
#X obj 39 10 loadbang;
#X obj 102 12 cnv 15 80 16 empty empty config 20 8 0 10 -83269 -262144
0;
#X obj 104 13 bng 14 250 50 0 empty empty empty 17 7 0 10 -86853 -257985
-1;
#X msg 104 45 \; texture_dir /home/ub/visuals/live/darkmatter/tex;
#X connect 0 0 2 0;
#X connect 2 0 3 0;
#X coords 0 -1 1 1 85 20 1 100 10;
#X restore 1239 83 pd config;
#X obj 1233 554 cnv 15 150 200 empty empty empty 20 12 0 14 -66577
-66577 0;
#X obj 1239 560 cnv 15 138 190 empty empty empty 20 12 0 14 -33289
-66577 0;
#X obj 1249 599 cellular/epic;
#X obj 1249 651 cellular/sprites;
#X obj 1250 719 cellular/chemoflock;
#N canvas 172 248 587 183 autorotate 0;
#X obj 90 105 hsl 128 12 0 360 0 0 empty empty empty -2 -8 0 10 -262144
-1 -1 0 1;
#X obj 230 105 hsl 128 12 0 360 0 0 empty empty empty -2 -8 0 10 -262144
-1 -1 0 1;
#X obj 370 105 hsl 128 12 0 360 0 0 empty empty empty -2 -8 0 10 -262144
-1 -1 0 1;
#X obj 367 77 autorotate;
#X obj 227 77 autorotate;
#X obj 102 12 cnv 15 81 40 empty empty autorotate 4 8 0 10 -86277 -262144
0;
#X obj 106 30 tgl 15 0 empty empty X 17 7 0 10 -258113 -1 -228856 0
1;
#X obj 131 30 tgl 15 0 empty empty Y 17 7 0 10 -258113 -1 -228856 0
1;
#X obj 157 30 tgl 15 0 empty empty Z 17 7 0 10 -258113 -1 -228856 0
1;
#X obj 87 77 autorotate;
#X obj 87 134 s 3Dx_1;
#X obj 227 134 s 3Dy_1;
#X obj 367 133 s 3Dz_1;
#X connect 0 0 10 0;
#X connect 1 0 11 0;
#X connect 2 0 12 0;
#X connect 3 0 2 0;
#X connect 4 0 1 0;
#X connect 6 0 9 0;
#X connect 7 0 4 0;
#X connect 8 0 3 0;
#X connect 9 0 0 0;
#X coords 0 -1 1 1 85 44 2 100 10;
#X restore 290 595 pd autorotate 1;
#N canvas 264 429 265 300 autohop 0;
#X obj 25 40 r bonkbonk;
#X obj 25 140 random 256;
#X obj 25 66 spigot;
#X obj 25 173 / 256;
#X obj 25 113 countfilter;
#X obj 102 22 cnv 15 81 40 empty empty empty 20 12 0 14 -86277 -66577
0;
#X obj 106 43 nbx 3 14 -1e+37 1e+37 0 0 empty empty empty 0 -8 0 10
-258113 -1 -1 0 256;
#X obj 106 24 tgl 15 0 empty empty autohop 17 7 0 10 -258113 -1 -262144
0 1;
#X obj 25 252 s hop_1;
#X connect 0 0 2 0;
#X connect 1 0 3 0;
#X connect 2 0 4 0;
#X connect 3 0 8 0;
#X connect 4 0 1 0;
#X connect 6 0 4 1;
#X connect 7 0 2 1;
#X coords 0 -1 1 1 85 44 2 100 20;
#X restore 290 642 pd autohop 1;
#N canvas 279 397 265 300 autojump 0;
#X obj 25 33 r bonkbonk;
#X obj 25 59 spigot;
#X obj 25 211 line;
#X obj 25 136 t b b;
#X msg 25 184 0 \$1;
#X obj 71 137 r duration;
#X obj 25 163 f 100;
#X obj 155 145 r volume;
#X obj 155 168 / 100;
#X obj 65 163 f 1;
#X obj 25 237 *;
#X obj 25 100 countfilter;
#X obj 102 42 cnv 15 81 40 empty empty empty 20 12 0 14 -86277 -66577
0;
#X obj 106 63 nbx 3 14 -1e+37 1e+37 0 0 empty empty empty 0 -8 0 10
-258113 -1 -1 0 256;
#X obj 106 44 tgl 15 0 empty empty autojump 17 7 0 10 -258113 -1 -262144
0 1;
#X obj 25 261 s yshift_1;
#X connect 0 0 1 0;
#X connect 1 0 11 0;
#X connect 2 0 10 0;
#X connect 2 0 10 1;
#X connect 3 0 6 0;
#X connect 3 1 9 0;
#X connect 4 0 2 0;
#X connect 5 0 6 1;
#X connect 6 0 4 0;
#X connect 7 0 8 0;
#X connect 8 0 9 1;
#X connect 9 0 2 0;
#X connect 10 0 15 0;
#X connect 11 0 3 0;
#X connect 13 0 11 1;
#X connect 14 0 1 1;
#X coords 0 -1 1 1 85 44 2 100 40;
#X restore 290 689 pd autojump 1;
#X obj 705 269 inline_movieplayer 2;
#X obj 460 348 mixer 1 2;
#X obj 705 488 qprojection 2;
#N canvas 317 330 523 295 autoscale_1 0;
#X obj 78 131 spigot;
#X obj 276 56 r scale_factor;
#X obj 276 78 t b f;
#X obj 78 153 * 0.0125;
#X obj 276 125 /;
#X msg 276 101 1;
#X obj 82 53 cnv 15 80 18 empty empty empty 20 12 0 14 -86277 -66577
0;
#X obj 84 55 tgl 15 0 empty autoscale_1 autoscale 17 7 0 10 -258113
-1 -262144 0 1;
#X text 275 35 this might not be connected;
#X obj 78 106 r volume;
#X obj 78 210 line;
#X msg 78 180 \$1 40;
#X obj 40 106 sel 0;
#X msg 40 162 1;
#X obj 84 76 t f f;
#X obj 78 237 s scalefactor_1;
#X connect 0 0 3 0;
#X connect 1 0 2 0;
#X connect 2 0 5 0;
#X connect 2 1 4 1;
#X connect 3 0 11 0;
#X connect 4 0 3 1;
#X connect 5 0 4 0;
#X connect 7 0 14 0;
#X connect 9 0 0 0;
#X connect 10 0 15 0;
#X connect 11 0 10 0;
#X connect 12 0 13 0;
#X connect 13 0 11 0;
#X connect 14 0 12 0;
#X connect 14 1 0 1;
#X coords 0 -1 1 1 85 24 2 80 50;
#X restore 290 568 pd autoscale_1;
#N canvas 172 248 587 183 autorotate 0;
#X obj 90 105 hsl 128 12 0 360 0 0 empty empty empty -2 -8 0 10 -262144
-1 -1 0 1;
#X obj 230 105 hsl 128 12 0 360 0 0 empty empty empty -2 -8 0 10 -262144
-1 -1 0 1;
#X obj 370 105 hsl 128 12 0 360 0 0 empty empty empty -2 -8 0 10 -262144
-1 -1 0 1;
#X obj 367 77 autorotate;
#X obj 227 77 autorotate;
#X obj 102 12 cnv 15 81 40 empty empty autorotate 4 8 0 10 -86277 -262144
0;
#X obj 106 30 tgl 15 0 empty empty X 17 7 0 10 -258113 -1 -228856 0
1;
#X obj 131 30 tgl 15 0 empty empty Y 17 7 0 10 -258113 -1 -228856 0
1;
#X obj 157 30 tgl 15 0 empty empty Z 17 7 0 10 -258113 -1 -228856 0
1;
#X obj 87 77 autorotate;
#X obj 87 134 s 3Dx_2;
#X obj 227 134 s 3Dy_2;
#X obj 367 133 s 3Dz_2;
#X connect 0 0 10 0;
#X connect 1 0 11 0;
#X connect 2 0 12 0;
#X connect 3 0 2 0;
#X connect 4 0 1 0;
#X connect 6 0 9 0;
#X connect 7 0 4 0;
#X connect 8 0 3 0;
#X connect 9 0 0 0;
#X coords 0 -1 1 1 85 44 2 100 10;
#X restore 706 594 pd autorotate 1;
#N canvas 264 459 265 300 autohop 0;
#X obj 25 40 r bonkbonk;
#X obj 25 140 random 256;
#X obj 25 66 spigot;
#X obj 25 173 / 256;
#X obj 25 113 countfilter;
#X obj 102 22 cnv 15 81 40 empty empty empty 20 12 0 14 -86277 -66577
0;
#X obj 106 43 nbx 3 14 -1e+37 1e+37 0 0 empty empty empty 0 -8 0 10
-258113 -1 -1 0 256;
#X obj 106 24 tgl 15 0 empty empty autohop 17 7 0 10 -258113 -1 -262144
0 1;
#X obj 25 252 s hop_2;
#X connect 0 0 2 0;
#X connect 1 0 3 0;
#X connect 2 0 4 0;
#X connect 3 0 8 0;
#X connect 4 0 1 0;
#X connect 6 0 4 1;
#X connect 7 0 2 1;
#X coords 0 -1 1 1 85 44 2 100 20;
#X restore 705 642 pd autohop 1;
#N canvas 279 427 265 300 autojump 0;
#X obj 25 33 r bonkbonk;
#X obj 25 59 spigot;
#X obj 25 211 line;
#X obj 25 136 t b b;
#X msg 25 184 0 \$1;
#X obj 71 137 r duration;
#X obj 25 163 f 100;
#X obj 155 145 r volume;
#X obj 155 168 / 100;
#X obj 65 163 f 1;
#X obj 25 237 *;
#X obj 25 100 countfilter;
#X obj 102 42 cnv 15 81 40 empty empty empty 20 12 0 14 -86277 -66577
0;
#X obj 106 63 nbx 3 14 -1e+37 1e+37 0 0 empty empty empty 0 -8 0 10
-258113 -1 -1 0 256;
#X obj 106 44 tgl 15 0 empty empty autojump 17 7 0 10 -258113 -1 -262144
0 1;
#X obj 25 261 s yshift_2;
#X connect 0 0 1 0;
#X connect 1 0 11 0;
#X connect 2 0 10 0;
#X connect 2 0 10 1;
#X connect 3 0 6 0;
#X connect 3 1 9 0;
#X connect 4 0 2 0;
#X connect 5 0 6 1;
#X connect 6 0 4 0;
#X connect 7 0 8 0;
#X connect 8 0 9 1;
#X connect 9 0 2 0;
#X connect 10 0 15 0;
#X connect 11 0 3 0;
#X connect 13 0 11 1;
#X connect 14 0 1 1;
#X coords 0 -1 1 1 85 44 2 100 40;
#X restore 705 689 pd autojump 1;
#N canvas 317 330 523 295 autoscale_1 0;
#X obj 78 131 spigot;
#X obj 276 56 r scale_factor;
#X obj 276 78 t b f;
#X obj 78 153 * 0.0125;
#X obj 276 125 /;
#X msg 276 101 1;
#X obj 82 53 cnv 15 80 18 empty empty empty 20 12 0 14 -86277 -66577
0;
#X obj 84 55 tgl 15 0 empty autoscale_2 autoscale 17 7 0 10 -258113
-1 -262144 0 1;
#X text 275 35 this might not be connected;
#X obj 78 106 r volume;
#X obj 78 210 line;
#X msg 78 180 \$1 40;
#X obj 40 106 sel 0;
#X msg 40 162 1;
#X obj 84 76 t f f;
#X obj 78 237 s scalefactor_2;
#X connect 0 0 3 0;
#X connect 1 0 2 0;
#X connect 2 0 5 0;
#X connect 2 1 4 1;
#X connect 3 0 11 0;
#X connect 4 0 3 1;
#X connect 5 0 4 0;
#X connect 7 0 14 0;
#X connect 9 0 0 0;
#X connect 10 0 15 0;
#X connect 11 0 10 0;
#X connect 12 0 13 0;
#X connect 13 0 11 0;
#X connect 14 0 12 0;
#X connect 14 1 0 1;
#X coords 0 -1 1 1 85 24 2 80 50;
#X restore 705 568 pd autoscale_1;
#N canvas 382 208 1423 529 joystick_ctrl 0;
#X obj 213 22 r left_x;
#X obj 272 22 r left_y;
#X obj 331 22 r right_x;
#X obj 396 22 r right_y;
#X obj 516 78 r 6_bt;
#X obj 575 78 r 7_bt;
#X obj 634 78 r 8_bt;
#X obj 131 9 loadbang;
#X msg 131 28 0;
#X obj 696 39 r w1;
#X obj 650 39 spigot;
#X obj 566 0 r c4;
#X msg 650 19 0;
#X obj 566 19 t b b;
#X msg 679 19 1;
#X obj 512 0 r flash;
#X obj 650 0 delay 20;
#X floatatom 878 319 5 0 0 0 - - -, f 5;
#X msg 878 353 1;
#X obj 878 335 t b f;
#X obj 1226 31 r 1_t;
#X obj 879 220 r triggernote;
#X obj 879 241 - 36;
#X obj 879 262 spigot;
#X text 912 245 kettle connection;
#X floatatom 833 336 3 1 2 2 layer layer -, f 3;
#X obj 878 301 bng 15 250 50 0 empty empty re-trigger 0 -6 0 8 -262144
-1 -262144;
#X obj 833 352 + 1;
#X text 213 6 knubbelachsen;
#X text 513 62 [ ];
#X text 579 62 ^;
#X text 699 62 O;
#X text 635 62 x;
#X obj 1226 96 s ms1;
#X obj 1294 94 s ms2;
#X obj 1226 75 tgl 15 0 empty empty empty 0 -6 0 8 -262144 -1 -1 0
1;
#X obj 1294 74 tgl 15 0 empty empty empty 0 -6 0 8 -262144 -1 -1 0
1;
#X obj 926 263 tgl 15 0 empty kettle kettle 20 3 0 8 -262144 -1 -262144
0 1;
#X floatatom 822 66 3 1 2 2 bank bank_01 -, f 3;
#X obj 822 89 - 1;
#X floatatom 905 68 3 1 2 2 bank bank_02 -, f 3;
#X obj 905 91 - 1;
#X obj 1294 30 r 1_t_2;
#X text 1225 8 moviescratch on/off;
#X text 515 295 [ ];
#X text 581 295 ^;
#X text 701 295 O;
#X text 637 295 x;
#X obj 518 311 r 6_bt_2;
#X obj 577 311 r 7_bt_2;
#X obj 636 311 r 8_bt_2;
#X obj 701 311 r 9_bt_2;
#X text 211 147 knubbelachsen2;
#X obj 985 35 r up;
#X obj 981 73 r down;
#X obj 947 54 r left;
#X obj 1011 54 r right;
#X text 1067 55 joyin;
#X obj 1065 108 r up_2;
#X obj 1059 154 r down_2;
#X obj 1012 131 r left_2;
#X obj 1101 132 r right_2;
#X text 1171 133 joy2;
#X obj 1137 219 r speed1;
#X obj 1077 327 t b b;
#X obj 1077 384 + 1;
#X msg 1077 349 -1;
#X obj 1226 52 sel 1;
#X obj 1294 51 sel 1;
#X obj 1077 285 sel 1;
#X obj 1150 285 sel 1;
#X obj 1077 240 r 2_t;
#X obj 1150 241 r 4_t;
#X obj 1150 326 t b b;
#X msg 1150 347 1;
#X obj 1077 428 s xspeed1;
#X obj 1114 348 int 1;
#X obj 1066 263 spigot;
#X obj 1142 262 spigot;
#X obj 1226 327 t b b;
#X obj 1226 371 + 1;
#X msg 1226 349 -1;
#X obj 1226 285 sel 1;
#X obj 1299 285 sel 1;
#X obj 1256 371 >= 0;
#X obj 1299 327 t b b;
#X msg 1299 347 1;
#X obj 1256 348 int 1;
#X obj 1215 263 spigot;
#X obj 1291 262 spigot;
#X text 1047 200 speed setting via joystick;
#X obj 1226 423 s xspeed2;
#X obj 1286 219 r speed2;
#X obj 1226 240 r 2_t_2;
#X obj 1299 241 r 4_t_2;
#X obj 213 335 r 3_t;
#X obj 283 357 tgl 15 0 empty empty empty 0 -6 0 8 -262144 -1 -1 0
1;
#X obj 213 356 tgl 15 0 empty empty empty 0 -6 0 8 -262144 -1 -1 0
1;
#X obj 427 329 tgl 15 0 empty empty empty 0 -6 0 8 -262144 -1 -1 0
1;
#X obj 427 346 sel 1;
#X obj 350 311 r 0_b;
#X obj 350 329 tgl 15 0 empty empty empty 0 -6 0 8 -262144 -1 -1 0
1;
#X obj 350 346 sel 1;
#X obj 350 364 s lonoff1;
#X obj 427 364 s lonoff2;
#N canvas 323 181 224 224 if_timer 0;
#X obj 41 12 inlet;
#X obj 99 19 sel 0;
#X msg 99 37 100;
#X obj 99 62 int 100;
#X obj 127 90 - 1;
#X obj 99 164 > 20;
#X obj 99 142 spigot;
#X obj 41 139 outlet;
#X obj 41 101 metro 100;
#X obj 41 78 spigot;
#X obj 41 34 t f f f;
#X obj 41 55 pipe 200;
#X msg 128 37 0;
#X floatatom 163 136 5 0 0 0 - - -, f 5;
#X obj 41 120 t b b;
#X connect 0 0 10 0;
#X connect 1 0 2 0;
#X connect 1 0 12 0;
#X connect 2 0 3 0;
#X connect 3 0 4 0;
#X connect 3 0 8 1;
#X connect 3 0 5 0;
#X connect 3 0 13 0;
#X connect 4 0 3 1;
#X connect 5 0 6 1;
#X connect 6 0 3 0;
#X connect 8 0 14 0;
#X connect 9 0 8 0;
#X connect 10 0 11 0;
#X connect 10 1 9 1;
#X connect 10 2 1 0;
#X connect 11 0 9 0;
#X connect 12 0 8 0;
#X connect 14 0 7 0;
#X connect 14 1 6 0;
#X restore 1042 219 pd if_timer 1;
#N canvas 333 159 224 224 if_timer 0;
#X obj 41 12 inlet;
#X obj 99 19 sel 0;
#X msg 99 37 100;
#X obj 99 62 int 100;
#X obj 127 90 - 1;
#X obj 99 164 > 20;
#X obj 99 142 spigot;
#X obj 41 139 outlet;
#X obj 41 101 metro 100;
#X obj 41 78 spigot;
#X obj 41 34 t f f f;
#X obj 41 55 pipe 200;
#X msg 128 37 0;
#X floatatom 163 136 5 0 0 0 - - -, f 5;
#X obj 41 120 t b b;
#X connect 0 0 10 0;
#X connect 1 0 2 0;
#X connect 1 0 12 0;
#X connect 2 0 3 0;
#X connect 3 0 4 0;
#X connect 3 0 8 1;
#X connect 3 0 5 0;
#X connect 3 0 13 0;
#X connect 4 0 3 1;
#X connect 5 0 6 1;
#X connect 6 0 3 0;
#X connect 8 0 14 0;
#X connect 9 0 8 0;
#X connect 10 0 11 0;
#X connect 10 1 9 1;
#X connect 10 2 1 0;
#X connect 11 0 9 0;
#X connect 12 0 8 0;
#X connect 14 0 7 0;
#X connect 14 1 6 0;
#X restore 1200 219 pd if_timer;
#N canvas 410 157 278 300 switchbank 0;
#X obj 17 9 inlet;
#X obj 53 33 r left;
#X obj 99 33 r right;
#X obj 17 76 spigot;
#X obj 17 33 == 0;
#X obj 17 54 s blockcs1;
#X text 91 54 block clip switching;
#X obj 65 76 spigot;
#X obj 45 160 int;
#X obj 17 94 spigot;
#X obj 65 95 spigot;
#X obj 17 113 t b b;
#X msg 47 137 -1;
#X msg 95 136 1;
#X obj 46 190 +;
#X obj 65 114 t b b;
#X obj 17 160 > 1;
#X obj 7 220 s xbank_01;
#X obj 114 95 r i;
#X floatatom 165 230 5 0 0 0 - - -, f 5;
#X obj 165 131 loadbang;
#X obj 78 161 < 10;
#X msg 165 154 13;
#X obj 170 99 r init_banks;
#X connect 0 0 4 0;
#X connect 0 0 3 1;
#X connect 0 0 7 1;
#X connect 1 0 3 0;
#X connect 2 0 7 0;
#X connect 3 0 9 0;
#X connect 4 0 5 0;
#X connect 7 0 10 0;
#X connect 8 0 14 1;
#X connect 8 0 16 0;
#X connect 8 0 17 0;
#X connect 8 0 19 0;
#X connect 8 0 21 0;
#X connect 9 0 11 0;
#X connect 10 0 15 0;
#X connect 11 0 8 0;
#X connect 11 1 12 0;
#X connect 12 0 14 0;
#X connect 13 0 14 0;
#X connect 14 0 8 1;
#X connect 15 0 8 0;
#X connect 15 1 13 0;
#X connect 16 0 9 1;
#X connect 18 0 10 1;
#X connect 18 0 9 1;
#X connect 20 0 22 0;
#X connect 21 0 10 1;
#X connect 22 0 21 1;
#X connect 23 0 21 1;
#X restore 213 378 pd switchbank 1;
#N canvas 464 50 263 292 switchbank 0;
#X obj 17 9 inlet;
#X obj 17 76 spigot;
#X obj 17 33 == 0;
#X text 91 54 block clip switching;
#X obj 65 76 spigot;
#X obj 45 160 int;
#X obj 17 94 spigot;
#X obj 65 95 spigot;
#X obj 17 113 t b b;
#X msg 47 137 -1;
#X msg 95 136 1;
#X obj 46 190 +;
#X obj 65 114 t b b;
#X obj 17 160 > 1;
#X obj 45 219 s xbank_02;
#X obj 53 33 r left_2;
#X obj 116 32 r right_2;
#X obj 17 54 s blockcs2;
#X obj 114 95 r i;
#X obj 175 141 loadbang;
#X obj 72 160 < 10;
#X msg 175 164 13;
#X obj 152 104 r init_banks;
#X connect 0 0 2 0;
#X connect 0 0 1 1;
#X connect 0 0 4 1;
#X connect 1 0 6 0;
#X connect 2 0 17 0;
#X connect 4 0 7 0;
#X connect 5 0 11 1;
#X connect 5 0 13 0;
#X connect 5 0 14 0;
#X connect 5 0 20 0;
#X connect 6 0 8 0;
#X connect 7 0 12 0;
#X connect 8 0 5 0;
#X connect 8 1 9 0;
#X connect 9 0 11 0;
#X connect 10 0 11 0;
#X connect 11 0 5 1;
#X connect 12 0 5 0;
#X connect 12 1 10 0;
#X connect 13 0 6 1;
#X connect 15 0 1 0;
#X connect 16 0 4 0;
#X connect 18 0 7 1;
#X connect 18 0 6 1;
#X connect 19 0 21 0;
#X connect 20 0 7 1;
#X connect 21 0 20 1;
#X connect 22 0 20 1;
#X restore 283 404 pd switchbank 2;
#X obj 516 119 sel 0;
#X obj 518 353 sel 0;
#X obj 283 336 r 3_t_2;
#X obj 427 311 r 5_b_2;
#X obj 213 87 spigot;
#X msg 131 55 1;
#X obj 46 34 tgl 15 0 empty empty empty 0 -6 0 8 -262144 -1 -1 0 1
;
#X obj 46 6 r midijoy;
#X obj 61 33 s mjoy;
#X obj 38 312 r 0_b_2;
#X obj 47 95 r 5_b;
#X obj 38 331 tgl 15 0 empty empty empty 0 -6 0 8 -262144 -1 -1 0 1
;
#X obj 47 113 tgl 15 0 empty empty empty 0 -6 0 8 -262144 -1 -1 0 1
;
#X obj 47 131 sel 1;
#X obj 38 349 sel 1;
#X obj 38 366 tgl 15 0 empty empty empty 0 -6 0 8 -262144 -1 -1 1 1
;
#X obj 47 148 tgl 15 0 empty empty empty 0 -6 0 8 -262144 -1 -1 1 1
;
#X obj 38 406 sel 0;
#X obj 47 189 sel 0;
#X obj 47 209 del 10;
#X obj 38 428 del 10;
#X msg 114 215 0;
#X msg 89 428 0;
#X obj 699 78 r 9_bt;
#X obj 1303 371 < 200;
#X obj 822 192 s clip_1;
#X obj 905 191 s clip_2;
#X obj 272 86 spigot;
#X obj 365 87 spigot;
#X obj 833 414 s clip_1;
#X obj 878 439 s clip_2;
#X obj 833 382 gate 2 1;
#X msg 516 139 1;
#X msg 518 373 1;
#X msg 577 358 0;
#X msg 575 126 0;
#X obj 1106 384 > 1;
#X obj 1154 371 < 199;
#X obj 1137 406 t f;
#X obj 1290 400 t f;
#X obj 699 122 sel 1;
#X obj 699 99 change;
#X obj 636 333 change;
#X obj 213 44 expr $f1/255 * 360 - 180;
#X obj 365 44 expr $f1/255 * 360 - 180;
#X obj 272 63 expr $f1/255 * 360 - 180;
#X obj 213 234 spigot;
#X obj 281 233 spigot;
#X obj 396 232 spigot;
#X obj 213 191 expr $f1/255 * 360 - 180;
#X obj 365 191 expr $f1/255 * 360 - 180;
#X obj 282 210 expr $f1/255 * 360 - 180;
#X obj 213 169 r left_x_2;
#X obj 282 169 r left_y_2;
#X obj 351 169 r right_x_2;
#X obj 426 169 r right_y_2;
#X obj 213 256 s 3Dx_2;
#X obj 281 256 s 3Dy_2;
#X obj 396 254 s 3Dz_2;
#X obj 213 109 s 3Dx_1;
#X obj 272 109 s 3Dy_1;
#X obj 365 109 s 3Dz_1;
#X obj 38 385 s xblock3D_2;
#X obj 57 167 s xblock3D_1;
#X obj 699 171 s output_model_1;
#X obj 701 404 sel 1;
#X obj 701 381 change;
#X obj 701 456 s output_model_2;
#X obj 634 101 change;
#X obj 634 208 s coord_effect;
#X obj 636 357 s flash;
#X obj 699 146 counter 1 3;
#X obj 701 430 counter 1 3;
#X obj 822 170 clipgrid 1;
#X obj 905 170 clipgrid 2;
#X obj 102 102 cnv 15 81 25 empty empty joystick 20 12 0 11 -99865
-228856 0;
#X obj 1077 306 spigot 1;
#X obj 1150 306 spigot 1;
#X obj 1226 306 spigot 1;
#X obj 1299 306 spigot 1;
#X obj 524 99 s autoscale_1;
#X obj 526 333 s autoscale_2;
#X obj 518 397 s scalefactor_2;
#X obj 516 162 s scalefactor_1;
#X connect 0 0 152 0;
#X connect 1 0 154 0;
#X connect 3 0 153 0;
#X connect 4 0 109 0;
#X connect 4 0 189 0;
#X connect 5 0 144 0;
#X connect 6 0 177 0;
#X connect 7 0 8 0;
#X connect 7 0 114 0;
#X connect 8 0 115 0;
#X connect 9 0 10 1;
#X connect 11 0 13 0;
#X connect 12 0 10 0;
#X connect 13 0 16 0;
#X connect 13 1 14 0;
#X connect 14 0 10 0;
#X connect 15 0 13 0;
#X connect 16 0 12 0;
#X connect 17 0 19 0;
#X connect 18 0 140 1;
#X connect 19 0 18 0;
#X connect 20 0 67 0;
#X connect 21 0 22 0;
#X connect 22 0 23 0;
#X connect 23 0 17 0;
#X connect 25 0 27 0;
#X connect 26 0 17 0;
#X connect 27 0 140 0;
#X connect 35 0 33 0;
#X connect 36 0 34 0;
#X connect 37 0 23 1;
#X connect 38 0 39 0;
#X connect 39 0 182 0;
#X connect 40 0 41 0;
#X connect 41 0 183 0;
#X connect 42 0 68 0;
#X connect 48 0 110 0;
#X connect 48 0 190 0;
#X connect 49 0 143 0;
#X connect 50 0 151 0;
#X connect 51 0 175 0;
#X connect 53 0 182 1;
#X connect 54 0 182 2;
#X connect 55 0 182 3;
#X connect 56 0 182 4;
#X connect 58 0 183 1;
#X connect 59 0 183 2;
#X connect 60 0 183 3;
#X connect 61 0 183 4;
#X connect 63 0 76 1;
#X connect 64 0 66 0;
#X connect 64 1 76 0;
#X connect 65 0 75 0;
#X connect 65 0 147 0;
#X connect 66 0 65 0;
#X connect 67 0 35 0;
#X connect 68 0 36 0;
#X connect 69 0 185 0;
#X connect 70 0 186 0;
#X connect 71 0 105 0;
#X connect 71 0 77 1;
#X connect 71 0 69 0;
#X connect 72 0 78 1;
#X connect 72 0 105 0;
#X connect 72 0 70 0;
#X connect 73 0 74 0;
#X connect 73 1 76 0;
#X connect 74 0 65 0;
#X connect 76 0 65 1;
#X connect 76 0 145 0;
#X connect 76 0 146 0;
#X connect 77 0 185 0;
#X connect 78 0 186 0;
#X connect 79 0 81 0;
#X connect 79 1 87 0;
#X connect 80 0 91 0;
#X connect 80 0 148 0;
#X connect 81 0 80 0;
#X connect 82 0 187 0;
#X connect 83 0 188 0;
#X connect 84 0 187 1;
#X connect 85 0 86 0;
#X connect 85 1 87 0;
#X connect 86 0 80 0;
#X connect 87 0 80 1;
#X connect 87 0 84 0;
#X connect 87 0 133 0;
#X connect 88 0 187 0;
#X connect 89 0 188 0;
#X connect 92 0 87 1;
#X connect 93 0 106 0;
#X connect 93 0 88 1;
#X connect 93 0 82 0;
#X connect 94 0 89 1;
#X connect 94 0 106 0;
#X connect 94 0 83 0;
#X connect 95 0 97 0;
#X connect 96 0 108 0;
#X connect 97 0 107 0;
#X connect 98 0 99 0;
#X connect 99 0 104 0;
#X connect 100 0 101 0;
#X connect 101 0 102 0;
#X connect 102 0 103 0;
#X connect 105 0 77 0;
#X connect 105 0 78 0;
#X connect 106 0 88 0;
#X connect 106 0 89 0;
#X connect 109 0 141 0;
#X connect 110 0 142 0;
#X connect 111 0 96 0;
#X connect 112 0 98 0;
#X connect 113 0 168 0;
#X connect 114 0 125 0;
#X connect 114 0 124 0;
#X connect 115 0 117 0;
#X connect 116 0 115 0;
#X connect 118 0 120 0;
#X connect 119 0 121 0;
#X connect 120 0 123 0;
#X connect 121 0 122 0;
#X connect 122 0 125 0;
#X connect 123 0 124 0;
#X connect 124 0 126 0;
#X connect 124 0 155 1;
#X connect 124 0 156 1;
#X connect 124 0 157 1;
#X connect 124 0 171 0;
#X connect 125 0 113 1;
#X connect 125 0 127 0;
#X connect 125 0 136 1;
#X connect 125 0 137 1;
#X connect 125 0 172 0;
#X connect 126 0 129 0;
#X connect 127 0 128 0;
#X connect 128 0 130 0;
#X connect 129 0 131 0;
#X connect 130 0 168 0;
#X connect 130 0 169 0;
#X connect 130 0 170 0;
#X connect 132 0 150 0;
#X connect 133 0 188 1;
#X connect 136 0 169 0;
#X connect 137 0 170 0;
#X connect 140 0 138 0;
#X connect 141 0 192 0;
#X connect 142 0 191 0;
#X connect 143 0 165 0;
#X connect 143 0 166 0;
#X connect 143 0 167 0;
#X connect 144 0 168 0;
#X connect 144 0 169 0;
#X connect 144 0 170 0;
#X connect 145 0 185 1;
#X connect 146 0 186 1;
#X connect 147 0 76 1;
#X connect 148 0 87 1;
#X connect 149 0 180 0;
#X connect 150 0 149 0;
#X connect 151 0 179 0;
#X connect 152 0 113 0;
#X connect 153 0 137 0;
#X connect 154 0 136 0;
#X connect 155 0 165 0;
#X connect 156 0 166 0;
#X connect 157 0 167 0;
#X connect 158 0 155 0;
#X connect 159 0 157 0;
#X connect 160 0 156 0;
#X connect 161 0 158 0;
#X connect 162 0 160 0;
#X connect 164 0 159 0;
#X connect 174 0 181 0;
#X connect 175 0 174 0;
#X connect 177 0 178 0;
#X connect 180 0 173 0;
#X connect 181 0 176 0;
#X connect 182 0 134 0;
#X connect 183 0 135 0;
#X connect 185 0 64 0;
#X connect 186 0 73 0;
#X connect 187 0 79 0;
#X connect 188 0 85 0;
#X coords 0 -1 1 1 85 30 2 100 100;
#X restore 142 20 pd joystick_ctrl;
#N canvas 634 388 695 446 keyboard 0;
#X obj 294 37 key;
#X obj 294 77 == 32;
#X floatatom 342 79 5 0 0 0 - - -, f 5;
#X obj 205 58 keyname;
#X msg 244 147 0;
#X msg 264 147 1;
#X msg 284 147 2;
#X msg 304 147 3;
#X msg 324 147 4;
#X msg 344 147 5;
#X msg 364 147 6;
#X msg 385 147 7;
#X msg 244 183 \; blend_mode \$1;
#X obj 244 120 sel F1 F2 F3 F4 F5 F6 F7 F8;
#X msg 245 294 0;
#X msg 265 294 1;
#X msg 285 294 2;
#X msg 305 294 3;
#X msg 325 294 4;
#X msg 345 294 5;
#X msg 365 294 6;
#X msg 245 330 \; shader-effect \$1;
#X obj 248 243 sel q w e r t z u;
#X obj 468 136 timer;
#X obj 468 80 sel 60;
#X obj 468 199 s __minterval;
#X obj 439 239 sel + -;
#X obj 439 276 s __plus;
#X obj 458 309 s __minus;
#X obj 169 183 s flash;
#X obj 169 97 &;
#X obj 169 120 sel 1;
#X obj 71 116 spigot;
#X obj 71 222 s __space;
#X obj 383 239 spigot;
#X obj 468 108 markex/alternate;
#X text 525 80 < key;
#X obj 76 63 nbx 3 14 -1e+37 1e+37 0 0 empty empty empty 0 -8 0 10
-262144 -1 -1 0 256;
#X obj 12 12 cnv 15 81 25 empty empty keyboard 20 12 0 11 -99865 -228856
0;
#X connect 0 0 1 0;
#X connect 0 0 2 0;
#X connect 0 0 24 0;
#X connect 1 0 30 1;
#X connect 1 0 32 1;
#X connect 3 0 30 0;
#X connect 3 0 32 0;
#X connect 3 0 34 1;
#X connect 3 1 13 0;
#X connect 4 0 12 0;
#X connect 5 0 12 0;
#X connect 6 0 12 0;
#X connect 7 0 12 0;
#X connect 8 0 12 0;
#X connect 9 0 12 0;
#X connect 10 0 12 0;
#X connect 11 0 12 0;
#X connect 13 0 4 0;
#X connect 13 1 5 0;
#X connect 13 2 6 0;
#X connect 13 3 7 0;
#X connect 13 4 8 0;
#X connect 13 5 9 0;
#X connect 13 6 10 0;
#X connect 13 7 11 0;
#X connect 13 8 22 0;
#X connect 14 0 21 0;
#X connect 15 0 21 0;
#X connect 16 0 21 0;
#X connect 17 0 21 0;
#X connect 18 0 21 0;
#X connect 19 0 21 0;
#X connect 20 0 21 0;
#X connect 22 0 14 0;
#X connect 22 1 15 0;
#X connect 22 2 16 0;
#X connect 22 3 17 0;
#X connect 22 4 18 0;
#X connect 22 5 19 0;
#X connect 22 6 20 0;
#X connect 22 7 34 0;
#X connect 23 0 25 0;
#X connect 24 0 35 0;
#X connect 26 0 27 0;
#X connect 26 1 28 0;
#X connect 30 0 31 0;
#X connect 31 0 29 0;
#X connect 32 0 33 0;
#X connect 34 0 26 0;
#X connect 35 0 23 0;
#X connect 35 1 23 1;
#X coords 0 -1 1 1 85 30 2 10 10;
#X restore 235 20 pd keyboard;
#N canvas 1013 230 613 312 receiver 0;
#X obj 336 74 route movie_1 movie_2;
#X obj 336 135 s movie_1 \$1;
#X obj 426 135 s movie_2 \$1;
#X obj 336 109 symbol;
#X obj 426 109 symbol;
#N canvas 760 211 698 511 joystick2 0;
#X obj 463 348 bng 20 250 50 0 6_b_2 empty 6 0 -6 0 10 -262144 -1 -1
;
#X obj 215 315 bng 15 250 50 0 0_b_2 empty empty 0 -6 0 8 -262144 -1
-1;
#X obj 91 250 bng 15 250 50 0 1_b_2 empty empty 0 -6 0 8 -262144 -1
-1;
#X obj 91 265 bng 15 250 50 0 2_b_2 empty empty 0 -6 0 8 -262144 -1
-1;
#X obj 394 245 bng 15 250 50 0 3_b_2 empty empty 0 -6 0 8 -262144 -1
-1;
#X obj 134 61 route abs key ff;
#X obj 587 37 print abs:;
#X obj 587 58 print key:;
#X obj 587 81 print ff:;
#X obj 394 260 bng 15 250 50 0 4_b_2 empty empty 0 -6 0 8 -262144 -1
-1;
#X obj 302 314 bng 15 250 50 0 5_b_2 empty empty 0 -6 0 8 -262144 -1
-1;
#X obj 491 301 bng 20 250 50 0 7_b_2 empty 7 -12 0 0 10 -262144 -1
-1;
#X obj 518 411 bng 20 250 50 0 8_b_2 empty 8 0 -6 0 8 -262144 -1 -1
;
#X obj 545 348 bng 20 250 50 0 9_b_2 empty empty 10 0 0 1.65798e+07
-262144 -1 -262144;
#X obj 169 177 route btn_9 btn_6 btn_4 btn_7 btn_5 btn_8 btn_3 btn_0
btn_2 btn_1;
#X obj 437 349 tgl 20 0 6_bt_2 empty empty 0 -6 0 8 -262144 -1 -1 0
1;
#X obj 516 301 tgl 20 0 7_bt_2 empty empty 0 -6 0 8 -262144 -1 -1 0
1;
#X obj 491 411 tgl 20 0 8_bt_2 empty empty 0 -6 0 8 -262144 -1 -1 0
1;
#X obj 571 348 tgl 20 0 9_bt_2 empty 9 20 0 0 10 -262144 -1 -1 0 1
;
#X obj 53 319 bng 20 250 50 0 up_2 empty empty 0 -6 0 8 -262144 -1
-1;
#X obj 13 350 bng 20 250 50 0 left_2 empty empty 0 -6 0 8 -262144 -1
-1;
#X obj 52 385 bng 20 250 50 0 down_2 empty empty 0 -6 0 8 -262144 -1
-1;
#X obj 92 351 bng 20 250 50 0 right_2 empty empty 0 -6 0 8 -262144
-1 -1;
#X obj 127 353 hsl 128 15 0 255 0 0 left_x_2 empty empty -2 -6 0 8
-262144 -1 -1 0 1;
#X obj 182 296 vsl 15 128 255 0 0 0 left_y_2 empty empty 0 -8 0 8 -262144
-1 -1 0 1;
#X obj 282 353 hsl 128 15 0 255 0 0 right_x_2 empty empty -2 -6 0 8
-262144 -1 -1 0 1;
#X obj 337 296 vsl 15 128 255 0 0 0 right_y_2 empty empty 0 -8 0 8
-262144 -1 -1 0 1;
#X obj 540 37 spigot;
#X obj 540 58 spigot;
#X obj 540 81 spigot;
#X obj 540 15 tgl 15 0 empty empty debug 20 8 0 8 -262144 -1 -1 0 1
;
#X obj 374 244 tgl 15 0 3_t_2 empty empty 0 -6 0 8 -262144 -1 -1 0
1;
#X obj 110 251 tgl 15 0 1_t_2 empty empty 0 -6 0 8 -262144 -1 -1 0
1;
#X obj 134 12 inlet;
#X obj 374 260 tgl 15 0 4_t_2 empty empty 0 -6 0 8 -262144 -1 -1 0
1;
#X obj 110 267 tgl 15 0 2_t_2 empty empty 0 -6 0 8 -262144 -1 -1 0
1;
#X obj 541 105 spigot;
#X obj 587 106 print;
#X obj 134 103 route abs_x abs_y abs_hat0x abs_hat0y abs_z abs_rz;
#X obj 233 155 route -1 1;
#X obj 303 155 route -1 1;
#X obj 233 129 change;
#X obj 303 130 change;
#X obj 215 255 change;
#X obj 302 255 change;
#X obj 91 222 change;
#X connect 5 0 36 0;
#X connect 5 0 38 0;
#X connect 5 1 14 0;
#X connect 5 1 27 0;
#X connect 5 2 28 0;
#X connect 5 3 29 0;
#X connect 14 0 43 0;
#X connect 14 1 45 0;
#X connect 14 2 3 0;
#X connect 14 2 35 0;
#X connect 14 3 4 0;
#X connect 14 3 31 0;
#X connect 14 4 9 0;
#X connect 14 4 34 0;
#X connect 14 5 44 0;
#X connect 14 6 0 0;
#X connect 14 6 15 0;
#X connect 14 7 11 0;
#X connect 14 7 16 0;
#X connect 14 8 12 0;
#X connect 14 8 17 0;
#X connect 14 9 13 0;
#X connect 14 9 18 0;
#X connect 27 0 6 0;
#X connect 28 0 7 0;
#X connect 29 0 8 0;
#X connect 30 0 27 1;
#X connect 30 0 28 1;
#X connect 30 0 29 1;
#X connect 30 0 36 1;
#X connect 33 0 5 0;
#X connect 36 0 37 0;
#X connect 38 0 23 0;
#X connect 38 1 24 0;
#X connect 38 2 41 0;
#X connect 38 3 42 0;
#X connect 38 4 26 0;
#X connect 38 5 25 0;
#X connect 39 0 20 0;
#X connect 39 1 22 0;
#X connect 40 0 19 0;
#X connect 40 1 21 0;
#X connect 41 0 39 0;
#X connect 42 0 40 0;
#X connect 43 0 1 0;
#X connect 44 0 10 0;
#X connect 45 0 2 0;
#X connect 45 0 32 0;
#X restore 106 100 pd joystick2;
#N canvas 377 254 773 563 joystick1 0;
#X obj 463 348 bng 20 250 50 0 6_b empty empty 0 -6 0 8 -262144 -1
-1;
#X obj 215 315 bng 15 250 50 0 0_b empty empty 0 -6 0 8 -262144 -1
-1;
#X obj 91 250 bng 15 250 50 0 1_b empty empty 0 -6 0 8 -262144 -1 -1
;
#X obj 91 265 bng 15 250 50 0 2_b empty empty 0 -6 0 8 -262144 -1 -1
;
#X obj 394 245 bng 15 250 50 0 3_b empty empty 0 -6 0 8 -262144 -1
-1;
#X obj 134 62 route abs key ff;
#X obj 596 39 print abs:;
#X obj 596 60 print key:;
#X obj 596 83 print ff:;
#X obj 394 260 bng 15 250 50 0 4_b empty empty 0 -6 0 8 -262144 -1
-1;
#X obj 302 314 bng 15 250 50 0 5_b empty empty 0 -6 0 8 -262144 -1
-1;
#X obj 491 301 bng 20 250 50 0 7_b empty empty 0 -6 0 8 -262144 -1
-1;
#X obj 518 411 bng 20 250 50 0 8_b empty empty 0 -6 0 8 -262144 -1
-1;
#X obj 545 348 bng 20 250 50 0 9_b empty empty 0 -6 0 8 -262144 -1
-1;
#X obj 437 349 tgl 20 0 6_bt empty empty 0 -6 0 8 -262144 -1 -1 0 1
;
#X obj 516 301 tgl 20 0 7_bt empty empty 0 -6 0 8 -262144 -1 -1 0 1
;
#X obj 491 411 tgl 20 0 8_bt empty empty 0 -6 0 8 -262144 -1 -1 0 1
;
#X obj 571 348 tgl 20 0 9_bt empty empty 0 -6 0 8 -262144 -1 -1 0 1
;
#X obj 53 319 bng 20 250 50 0 up empty empty 0 -6 0 8 -262144 -1 -1
;
#X obj 13 350 bng 20 250 50 0 left empty empty 0 -6 0 8 -262144 -1
-1;
#X obj 52 385 bng 20 250 50 0 down empty empty 0 -6 0 8 -262144 -1
-1;
#X obj 92 351 bng 20 250 50 0 right empty empty 0 -6 0 8 -262144 -1
-1;
#X obj 127 353 hsl 128 15 0 255 0 0 left_x empty empty -2 -6 0 8 -262144
-1 -1 0 1;
#X obj 182 296 vsl 15 128 255 0 0 0 left_y empty empty 0 -8 0 8 -262144
-1 -1 0 1;
#X obj 282 353 hsl 128 15 0 255 0 0 right_x empty empty -2 -6 0 8 -262144
-1 -1 0 1;
#X obj 337 296 vsl 15 128 255 0 0 0 right_y empty empty 0 -8 0 8 -262144
-1 -1 0 1;
#X obj 549 39 spigot;
#X obj 549 60 spigot;
#X obj 549 83 spigot;
#X obj 549 17 tgl 15 0 empty empty debug 20 8 0 8 -262144 -1 -1 0 1
;
#X obj 374 244 tgl 15 0 3_t empty empty 0 -6 0 8 -262144 -1 -1 0 1
;
#X obj 110 251 tgl 15 0 1_t empty empty 0 -6 0 8 -262144 -1 -1 0 1
;
#X obj 134 13 inlet;
#X obj 374 260 tgl 15 0 4_t empty empty 0 -6 0 8 -262144 -1 -1 0 1
;
#X obj 110 266 tgl 15 0 2_t empty empty 0 -6 0 8 -262144 -1 -1 0 1
;
#X obj 169 177 route btn_8 btn_6 btn_4 btn_7 btn_5 btn_9 btn_3 btn_0
btn_2 btn_1;
#X obj 134 108 route abs_x abs_y abs_hat0x abs_hat0y abs_z abs_rz;
#X obj 215 156 route -1 1;
#X obj 282 156 route -1 1;
#X obj 216 129 change;
#X obj 282 130 change;
#X obj 215 253 change;
#X obj 302 253 change;
#X obj 91 225 change;
#X connect 5 0 36 0;
#X connect 5 1 26 0;
#X connect 5 1 35 0;
#X connect 5 2 27 0;
#X connect 5 3 28 0;
#X connect 26 0 6 0;
#X connect 27 0 7 0;
#X connect 28 0 8 0;
#X connect 29 0 26 1;
#X connect 29 0 27 1;
#X connect 29 0 28 1;
#X connect 32 0 5 0;
#X connect 35 0 41 0;
#X connect 35 1 43 0;
#X connect 35 2 3 0;
#X connect 35 2 34 0;
#X connect 35 3 30 0;
#X connect 35 3 4 0;
#X connect 35 4 33 0;
#X connect 35 4 9 0;
#X connect 35 5 42 0;
#X connect 35 6 0 0;
#X connect 35 6 14 0;
#X connect 35 7 11 0;
#X connect 35 7 15 0;
#X connect 35 8 12 0;
#X connect 35 8 16 0;
#X connect 35 9 13 0;
#X connect 35 9 17 0;
#X connect 36 0 22 0;
#X connect 36 1 23 0;
#X connect 36 2 39 0;
#X connect 36 3 40 0;
#X connect 36 4 25 0;
#X connect 36 5 24 0;
#X connect 37 0 19 0;
#X connect 37 1 21 0;
#X connect 38 0 18 0;
#X connect 38 1 20 0;
#X connect 39 0 37 0;
#X connect 40 0 38 0;
#X connect 41 0 1 0;
#X connect 42 0 10 0;
#X connect 43 0 2 0;
#X connect 43 0 31 0;
#X restore 13 100 pd joystick1;
#N canvas 513 114 1008 882 bhoreal 0;
#X obj 85 30 inlet;
#X msg 170 314 \; shader-effect \$1;
#X floatatom 170 276 5 0 0 0 - - -, f 5;
#X obj 85 66 moses 24;
#X obj 138 107 moses 32;
#X obj 138 141 & 7;
#X obj 138 202 s __blending_onoff;
#X obj 138 173 sel 0;
#X obj 170 248 - 1;
#X obj 191 382 moses 40;
#X obj 517 177 & 7;
#X obj 570 320 sel 0 1 2 3 4 5 6 7;
#X obj 570 427 s __autoblend_01;
#X obj 586 458 s __autohop_01;
#X obj 602 492 s __autojump_01;
#X floatatom 486 322 5 0 0 0 - - -, f 5;
#X obj 245 655 moses 48;
#X obj 245 698 & 7;
#X obj 245 769 s __strobe_mode;
#X obj 245 729 moses 4;
#X obj 689 426 s ms1;
#X obj 517 35 inlet;
#X obj 570 395 i;
#X obj 605 395 i;
#X obj 638 395 i;
#X obj 672 395 i;
#X obj 517 70 unpack f f;
#X obj 517 140 moses 40;
#X obj 708 395 i;
#X obj 743 395 i;
#X obj 776 395 i;
#X obj 810 395 i;
#X obj 708 580 s __wavesphere;
#X obj 743 612 s __waveshards;
#X obj 477 516 moses 48;
#X obj 477 579 & 7;
#X obj 477 614 sel 0 1 2 3 4 5 6 7;
#X obj 477 689 i;
#X obj 512 689 i;
#X obj 545 689 i;
#X obj 579 689 i;
#X obj 615 689 i;
#X obj 650 689 i;
#X obj 683 689 i;
#X obj 717 689 i;
#X obj 477 739 s __lissajous;
#X obj 512 773 s __polyfig;
#X obj 545 808 s __cell_epic;
#X obj 579 739 s __cell_symbols;
#X obj 615 772 s __cell_formulae;
#X obj 650 808 s __cell_diagrams;
#X obj 703 739 s __chemoflock;
#X obj 517 106 moses 32;
#X connect 0 0 3 0;
#X connect 2 0 1 0;
#X connect 3 1 4 0;
#X connect 4 0 5 0;
#X connect 4 1 9 0;
#X connect 5 0 7 0;
#X connect 7 0 6 0;
#X connect 7 1 8 0;
#X connect 8 0 2 0;
#X connect 9 1 16 0;
#X connect 10 0 11 0;
#X connect 10 0 15 0;
#X connect 11 0 22 0;
#X connect 11 1 23 0;
#X connect 11 2 24 0;
#X connect 11 3 25 0;
#X connect 11 4 28 0;
#X connect 11 5 29 0;
#X connect 11 6 30 0;
#X connect 11 7 31 0;
#X connect 16 0 17 0;
#X connect 17 0 19 0;
#X connect 19 0 18 0;
#X connect 21 0 26 0;
#X connect 22 0 12 0;
#X connect 23 0 13 0;
#X connect 24 0 14 0;
#X connect 25 0 20 0;
#X connect 26 0 52 0;
#X connect 26 1 22 1;
#X connect 26 1 23 1;
#X connect 26 1 24 1;
#X connect 26 1 25 1;
#X connect 26 1 28 1;
#X connect 26 1 29 1;
#X connect 26 1 30 1;
#X connect 26 1 31 1;
#X connect 26 1 37 1;
#X connect 26 1 38 1;
#X connect 26 1 39 1;
#X connect 26 1 40 1;
#X connect 26 1 41 1;
#X connect 26 1 42 1;
#X connect 26 1 43 1;
#X connect 26 1 44 1;
#X connect 27 0 10 0;
#X connect 27 1 34 0;
#X connect 28 0 32 0;
#X connect 29 0 33 0;
#X connect 34 0 35 0;
#X connect 35 0 36 0;
#X connect 36 0 37 0;
#X connect 36 1 38 0;
#X connect 36 2 39 0;
#X connect 36 3 40 0;
#X connect 36 4 41 0;
#X connect 36 5 42 0;
#X connect 36 6 43 0;
#X connect 36 7 44 0;
#X connect 37 0 45 0;
#X connect 38 0 46 0;
#X connect 39 0 47 0;
#X connect 40 0 48 0;
#X connect 41 0 49 0;
#X connect 42 0 50 0;
#X connect 43 0 51 0;
#X connect 52 1 27 0;
#X restore 161 158 pd bhoreal;
#N canvas 495 91 1195 884 midicontrol 0;
#X obj 332 32 inlet;
#X msg 170 314 \; shader-effect \$1;
#X floatatom 170 276 5 0 0 0 - - -, f 5;
#X obj 85 66 moses 24;
#X obj 138 107 moses 32;
#X obj 138 141 & 7;
#X obj 138 202 s __blending_onoff;
#X obj 138 173 sel 0;
#X obj 170 248 - 1;
#X obj 191 382 moses 40;
#X obj 860 285 & 7;
#X obj 860 320 sel 0 1 2 3 4 5 6 7;
#X obj 860 427 s __autoblend_01;
#X obj 876 458 s __autohop_01;
#X obj 892 492 s __autojump_01;
#X obj 245 655 moses 48;
#X obj 245 698 & 7;
#X obj 245 769 s __strobe_mode;
#X obj 245 729 moses 4;
#X obj 979 426 s ms1;
#X obj 807 35 inlet;
#X obj 860 395 i;
#X obj 895 395 i;
#X obj 928 395 i;
#X obj 962 395 i;
#X obj 807 70 unpack f f;
#X obj 807 140 moses 40;
#X obj 998 395 i;
#X obj 1033 395 i;
#X obj 1066 395 i;
#X obj 1100 395 i;
#X obj 998 580 s __wavesphere;
#X obj 1033 612 s __waveshards;
#X obj 567 356 moses 48;
#X obj 567 419 & 7;
#X obj 567 454 sel 0 1 2 3 4 5 6 7;
#X obj 567 529 i;
#X obj 602 529 i;
#X obj 635 529 i;
#X obj 669 529 i;
#X obj 705 529 i;
#X obj 740 529 i;
#X obj 773 529 i;
#X obj 807 529 i;
#X obj 567 579 s __lissajous;
#X obj 602 613 s __polyfig;
#X obj 635 648 s __cell_epic;
#X obj 669 579 s __cell_symbols;
#X obj 705 612 s __cell_formulae;
#X obj 740 648 s __cell_diagrams;
#X obj 793 579 s __chemoflock;
#X obj 807 106 moses 32;
#X obj 420 216 send;
#X obj 413 132 unpack s 0;
#X obj 413 159 t b s;
#X obj 420 191 f;
#X obj 332 104 route pad;
#X obj 332 157 route 37;
#X obj 332 258 s trigger_wavesphere;
#X connect 0 0 56 0;
#X connect 2 0 1 0;
#X connect 3 1 4 0;
#X connect 4 0 5 0;
#X connect 4 1 9 0;
#X connect 5 0 7 0;
#X connect 7 0 6 0;
#X connect 7 1 8 0;
#X connect 8 0 2 0;
#X connect 9 1 15 0;
#X connect 10 0 11 0;
#X connect 11 0 21 0;
#X connect 11 1 22 0;
#X connect 11 2 23 0;
#X connect 11 3 24 0;
#X connect 11 4 27 0;
#X connect 11 5 28 0;
#X connect 11 6 29 0;
#X connect 11 7 30 0;
#X connect 15 0 16 0;
#X connect 16 0 18 0;
#X connect 18 0 17 0;
#X connect 20 0 25 0;
#X connect 21 0 12 0;
#X connect 22 0 13 0;
#X connect 23 0 14 0;
#X connect 24 0 19 0;
#X connect 25 0 51 0;
#X connect 25 1 21 1;
#X connect 25 1 22 1;
#X connect 25 1 23 1;
#X connect 25 1 24 1;
#X connect 25 1 27 1;
#X connect 25 1 28 1;
#X connect 25 1 29 1;
#X connect 25 1 30 1;
#X connect 25 1 36 1;
#X connect 25 1 37 1;
#X connect 25 1 38 1;
#X connect 25 1 39 1;
#X connect 25 1 40 1;
#X connect 25 1 41 1;
#X connect 25 1 42 1;
#X connect 25 1 43 1;
#X connect 26 0 10 0;
#X connect 26 1 33 0;
#X connect 27 0 31 0;
#X connect 28 0 32 0;
#X connect 33 0 34 0;
#X connect 34 0 35 0;
#X connect 35 0 36 0;
#X connect 35 1 37 0;
#X connect 35 2 38 0;
#X connect 35 3 39 0;
#X connect 35 4 40 0;
#X connect 35 5 41 0;
#X connect 35 6 42 0;
#X connect 35 7 43 0;
#X connect 36 0 44 0;
#X connect 37 0 45 0;
#X connect 38 0 46 0;
#X connect 39 0 47 0;
#X connect 40 0 48 0;
#X connect 41 0 49 0;
#X connect 42 0 50 0;
#X connect 51 1 26 0;
#X connect 53 0 54 0;
#X connect 53 1 55 1;
#X connect 54 0 55 0;
#X connect 54 1 52 1;
#X connect 55 0 52 0;
#X connect 56 0 57 0;
#X connect 56 1 53 0;
#X connect 57 0 58 0;
#X restore 161 138 pd midicontrol;
#X obj 13 70 route joystick_1 joystick_2 midi;
#X obj 202 22 cnv 15 81 25 empty empty receiver 20 12 0 11 -99865 -228856
0;
#X obj 336 41 netreceive -u 3001;
#X obj 13 40 netreceive -u 3000;
#X connect 0 0 3 0;
#X connect 0 1 4 0;
#X connect 3 0 1 0;
#X connect 4 0 2 0;
#X connect 9 0 6 0;
#X connect 9 1 5 0;
#X connect 9 2 8 0;
#X connect 11 0 0 0;
#X connect 12 0 9 0;
#X coords 0 -1 1 1 85 30 1 200 20;
#X restore 328 20 pd receiver;
#N canvas 353 403 450 300 README 0;
#X text 38 32 dependencies;
#X text 38 52 - markex (average);
#X text 38 71 - mapping (autoscale);
#X restore 1324 779 pd README;
#N canvas 557 150 450 300 flash 0;
#X obj 151 16 inlet;
#X obj 112 115 spigot;
#X obj 158 115 spigot;
#X obj 204 115 spigot;
#X obj 98 47 r flash;
#X obj 151 73 == 1;
#X obj 197 74 == 2;
#X obj 243 74 == 3;
#X obj 49 226 outlet;
#X obj 31 47 r __space;
#X obj 158 187 s __lissajous;
#N canvas 745 338 884 511 flashsynth 0;
#X obj 148 19 inlet;
#X obj 8 232 pix_texture;
#X obj 8 29 loadbang;
#X msg 8 54 0;
#X obj 8 288 rectangle 9 5;
#X obj 8 143 gemhead 94;
#X obj 8 182 pix_sig2pix;
#X floatatom 168 79 5 0 0 0 - - -, f 5;
#X obj 168 98 osc~;
#X obj 343 84 block~ 4096 8;
#X floatatom 48 259 5 0 0 0 - - -, f 5;
#X floatatom 107 247 5 0 0 0 - - -, f 5;
#X obj 212 18 inlet;
#X connect 0 0 5 0;
#X connect 1 0 4 0;
#X connect 2 0 3 0;
#X connect 3 0 5 0;
#X connect 5 0 6 0;
#X connect 6 0 1 0;
#X connect 7 0 8 0;
#X connect 8 0 6 0;
#X connect 10 0 4 1;
#X connect 11 0 4 2;
#X connect 12 0 7 0;
#X restore 204 158 pd flashsynth;
#X obj 353 14 inlet;
#N canvas 745 338 884 511 flashimages 0;
#X obj 148 19 inlet;
#X obj 380 290 pix_buffer flashimages;
#X obj 8 183 pix_buffer_read flashimages;
#X obj 201 108 + 1;
#X obj 171 108 i 0;
#X obj 231 108 mod;
#X obj 194 141 i 0;
#X msg 380 220 bang;
#X floatatom 380 341 5 0 0 0 - - -, f 5;
#X obj 352 318 - 1;
#X obj 8 222 pix_texture;
#X obj 8 143 gemhead 93;
#X obj 127 223 pix_draw;
#X text 124 244 then must fill the screen;
#X obj 148 68 t f b b;
#X obj 148 44 sel 1;
#X obj 194 160 + 1;
#X obj 8 49 loadbang;
#X msg 8 74 0;
#X obj 8 288 rectangle 9 5;
#X obj 380 261 cellular/load_textures images 55;
#X connect 0 0 11 0;
#X connect 0 0 15 0;
#X connect 1 0 8 0;
#X connect 1 0 9 0;
#X connect 2 0 10 0;
#X connect 3 0 5 0;
#X connect 4 0 3 0;
#X connect 4 0 6 1;
#X connect 5 0 4 1;
#X connect 6 0 16 0;
#X connect 7 0 20 0;
#X connect 9 0 5 1;
#X connect 10 0 19 0;
#X connect 11 0 2 0;
#X connect 14 1 4 0;
#X connect 14 2 6 0;
#X connect 15 0 14 0;
#X connect 16 0 2 1;
#X connect 17 0 18 0;
#X connect 18 0 11 0;
#X connect 20 0 1 0;
#X restore 112 225 pd flashimages 64;
#X connect 0 0 5 0;
#X connect 0 0 6 0;
#X connect 0 0 7 0;
#X connect 1 0 13 0;
#X connect 1 0 8 0;
#X connect 2 0 8 0;
#X connect 2 0 10 0;
#X connect 3 0 8 0;
#X connect 3 0 11 0;
#X connect 5 0 1 1;
#X connect 6 0 2 1;
#X connect 7 0 3 1;
#X connect 9 0 1 0;
#X connect 9 0 2 0;
#X connect 9 0 3 0;
#X connect 12 0 11 1;
#X restore 895 623 pd flash;
#X obj 895 608 hradio 15 1 1 4 empty empty empty 0 -8 0 8 -4034 -1
-4034 1;
#X obj 895 640 bng 15 250 50 0 empty empty empty 17 7 0 10 -4034 -1
-4034;
#X obj 940 580 nbx 5 12 0 20000 0 1 empty empty empty 0 -8 0 8 -4034
-1 -1 89 256;
#N canvas 535 353 627 296 lissajous 0;
#X msg 124 104 draw fill;
#X msg 124 81 draw point;
#X msg 124 124 draw tri;
#X msg 124 146 draw tristrip;
#X msg 123 169 draw trifan;
#X msg 123 190 draw quad;
#X obj 123 248 scopeXYZ~ 1024;
#X obj 276 129 *~ 10;
#X obj 299 151 *~ 10;
#X obj 124 54 select 1 2 3 4 5;
#X obj 124 15 inlet;
#X obj 278 15 inlet;
#X obj 31 144 rotateXYZ;
#X msg 82 116 135;
#X obj 61 81 loadbang;
#X obj 197 14 inlet;
#X obj 31 14 inlet;
#X obj 31 193 color 1 1 1 1;
#X obj 31 56 gemhead 77;
#X msg 53 116 0;
#X obj 290 237 rotateXYZ;
#X obj 339 184 r 3Dx_2;
#X obj 408 175 r 3Dy_2;
#X obj 415 209 r 3Dz_2;
#X msg 200 114 draw lines;
#X obj 289 193 *~ 10;
#X obj 347 16 r sincomp_1;
#X obj 430 16 r sincomp_2;
#X obj 513 16 r sincomp_3;
#X obj 347 63 osc~;
#X obj 430 62 osc~;
#X obj 513 62 osc~;
#X obj 347 40 / 4;
#X obj 430 40 / 4;
#X obj 513 38 / 4;
#X connect 0 0 6 0;
#X connect 1 0 6 0;
#X connect 2 0 6 0;
#X connect 3 0 6 0;
#X connect 4 0 6 0;
#X connect 5 0 6 0;
#X connect 6 0 20 0;
#X connect 7 0 6 1;
#X connect 8 0 6 2;
#X connect 9 0 1 0;
#X connect 9 1 0 0;
#X connect 9 2 2 0;
#X connect 9 3 3 0;
#X connect 9 4 4 0;
#X connect 9 5 5 0;
#X connect 10 0 9 0;
#X connect 11 0 7 1;
#X connect 11 0 8 1;
#X connect 11 0 25 1;
#X connect 12 0 17 0;
#X connect 13 0 12 3;
#X connect 14 0 13 0;
#X connect 14 0 19 0;
#X connect 15 0 12 3;
#X connect 16 0 18 0;
#X connect 17 0 6 0;
#X connect 18 0 12 0;
#X connect 19 0 18 0;
#X connect 21 0 20 1;
#X connect 22 0 20 2;
#X connect 23 0 20 3;
#X connect 24 0 6 0;
#X connect 25 0 6 3;
#X connect 26 0 32 0;
#X connect 27 0 33 0;
#X connect 28 0 34 0;
#X connect 29 0 7 0;
#X connect 30 0 8 0;
#X connect 31 0 25 0;
#X connect 32 0 29 0;
#X connect 33 0 30 0;
#X connect 34 0 31 0;
#X restore 896 718 pd lissajous;
#X obj 896 685 tgl 15 0 empty __lissajous empty 17 7 0 10 -4034 -1
-1 0 64;
#X obj 923 685 hradio 15 1 1 5 empty empty empty 0 -8 0 10 -4034 -1
-1 4;
#X obj 990 718 hsl 80 10 0 20 0 0 empty lissajous_preamp preamp 84
6 0 7 -4034 -1 -4034 0 1;
#X obj 953 703 hsl 80 10 0 360 0 0 empty empty rotation 84 6 0 7 -4034
-1 -4034 0 1;
#X msg 1000 682 90;
#N canvas 742 413 450 300 the_end 0;
#X obj 61 155 pix_draw;
#X obj 61 25 inlet;
#X msg 132 72 0;
#X obj 132 50 loadbang;
#X obj 61 89 gemhead 99;
#X obj 61 123 pix_image ende.png;
#X connect 1 0 4 0;
#X connect 2 0 4 0;
#X connect 3 0 2 0;
#X connect 4 0 5 0;
#X connect 5 0 0 0;
#X restore 1133 732 pd the_end;
#X obj 1133 709 tgl 15 0 empty empty empty 17 7 0 10 -4034 -1 -1 0
1;
#X obj 460 595 strobe;
#X obj 38 578 wavesphere;
#X msg 117 578 red;
#X obj 38 554 tgl 15 1 empty __wavesphere empty 17 7 0 10 -260097 -1
-1 0 64;
#X obj 60 554 tgl 15 0 empty empty empty 17 7 0 10 -260097 -1 -1 0
1;
#X obj 38 678 tgl 15 1 empty __waveshards empty 17 7 0 10 -260097 -1
-1 64 64;
#X obj 90 643 tgl 15 0 empty empty autorotate 17 7 0 10 -260097 -1
-260097 0 1;
#X obj 82 554 tgl 15 0 empty empty autorotate 17 7 0 10 -260097 -1
-260097 1 1;
#X obj 38 659 hradio 15 1 0 3 empty empty texture 0 -8 0 10 -260097
-1 -260097 0;
#X obj 90 658 tgl 15 0 empty empty XY/Z 17 7 0 10 -260097 -1 -260097
0 1;
#X obj 135 658 tgl 15 0 empty empty object 17 7 0 10 -260097 -1 -260097
0 1;
#X obj 40 633 hsl 200 10 1 20000 0 1 empty waveshard_filter filter
-30 4 0 7 -260097 -1 -260097 3100 1;
#X obj 174 646 hsl 66 10 0 30 0 1 empty waveshard_amp empty -2 -8 0
10 -260097 -1 -1 2600 1;
#X obj 38 693 waveshards;
#X msg 116 693 red;
#X obj 54 678 tgl 15 0 empty empty audiosource 17 7 0 10 -260097 -1
-260097 0 1;
#X connect 6 0 11 0;
#X connect 7 0 12 0;
#X connect 8 0 24 1;
#X connect 9 0 10 1;
#X connect 10 0 7 0;
#X connect 11 0 26 0;
#X connect 13 0 7 0;
#X connect 14 0 6 0;
#X connect 24 0 6 0;
#X connect 25 0 48 0;
#X connect 36 0 38 0;
#X connect 37 0 36 0;
#X connect 39 0 36 1;
#X connect 41 0 40 0;
#X connect 42 0 40 1;
#X connect 43 0 40 3;
#X connect 44 0 40 2;
#X connect 45 0 44 0;
#X connect 47 0 46 0;
#X connect 48 0 5 0;
#X connect 49 0 50 0;
#X connect 50 0 49 4;
#X connect 51 0 49 0;
#X connect 52 0 49 2;
#X connect 53 0 61 0;
#X connect 54 0 61 2;
#X connect 55 0 49 3;
#X connect 56 0 61 1;
#X connect 57 0 61 3;
#X connect 58 0 61 4;
#X connect 59 0 61 5;
#X connect 60 0 61 6;
#X connect 61 0 62 0;
#X connect 62 0 61 8;
#X connect 63 0 61 7;
