#N canvas 369 114 1354 973 10;
#X obj 68 25 inlet;
#X obj 703 24 inlet;
#X obj 68 229 translateXYZ 0 0 -2;
#X obj 68 201 gemframebuffer;
#X obj 88 110 t b;
#X obj 98 90 bng 15 250 50 0 empty empty empty 17 7 0 10 -262144 -1
-1;
#X obj 88 69 loadbang;
#X obj 88 137 int \$1;
#X obj 68 258 rectangle 2 2;
#X msg 88 163 type FLOAT \, dimen 1280 1280 \, rectangle 0 \, texunit
\$1;
#X obj 703 229 translateXYZ 0 0 -2;
#X obj 703 201 gemframebuffer;
#X obj 723 110 t b;
#X obj 733 90 bng 15 250 50 0 empty empty empty 17 7 0 10 -262144 -1
-1;
#X obj 723 69 loadbang;
#X obj 703 259 rectangle 2 2;
#X msg 723 163 type FLOAT \, dimen 1280 1280 \, rectangle 0 \, texunit
\$1;
#X obj 723 137 int \$2;
#X text 140 136 <- first channel;
#X text 775 137 <- second channel;
#X obj 514 559 change;
#X floatatom 514 582 5 0 0 0 - - -, f 5;
#X msg 267 422 blendMode \$1;
#X msg 299 707 print;
#X obj 356 708 glsl_program;
#X obj 469 557 change;
#X floatatom 469 580 5 0 0 0 - - -, f 5;
#X obj 469 607 pack;
#X obj 514 607 t b f;
#X msg 419 624 link;
#X msg 314 545 print;
#X msg 316 512 print;
#X obj 356 512 glsl_vertex;
#X obj 356 545 glsl_fragment;
#X msg 404 679 link \$1 \$2;
#X obj 443 423 loadbang;
#N canvas 239 251 450 300 onebang 0;
#X obj 120 71 inlet;
#X obj 120 151 outlet;
#X obj 120 120 t b;
#X obj 120 100 change;
#X msg 161 71 set -1;
#X obj 161 11 gemhead;
#X obj 161 51 route 0;
#X obj 161 31 route gem_state;
#X connect 0 0 3 0;
#X connect 2 0 1 0;
#X connect 3 0 2 0;
#X connect 4 0 3 0;
#X connect 5 0 7 0;
#X connect 6 0 4 0;
#X connect 7 0 6 0;
#X restore 528 783 pd onebang;
#X msg 509 692 tex0 0;
#X msg 540 376 effect \$1;
#X msg 218 667 push \$1;
#X floatatom 218 634 5 0 0 0 - - -, f 5;
#X obj 218 554 spigot;
#X obj 218 593 / 100;
#X floatatom 245 493 5 0 0 0 - - -, f 5;
#X obj 273 528 > 0;
#X msg 443 449 open shaders/QmultiBlend.vert;
#X msg 443 476 open shaders/QmultiBlendEffects.frag;
#X obj 356 785 outlet;
#X msg 34 491 alpha \$1;
#X msg 98 491 fade \$1;
#X obj 540 341 i;
#X obj 218 528 r volume;
#X text 554 640 channels from creation argument;
#X obj 262 200 cnv 15 200 200 empty empty mixer_\$1_\$2 6 12 0 12 -128992
-33289 0;
#X obj 291 346 hradio 15 1 1 8 empty empty FX 122 8 0 10 -191407 -1
-262144 0;
#X obj 267 346 tgl 15 1 empty __blending_onoff empty 17 7 0 10 -191407
-1 -1 1 1;
#X obj 267 221 cnv 15 10 10 empty empty channel_one 20 12 0 10 -128992
-262144 0;
#X obj 268 235 cnv 15 10 10 empty empty alpha_blend 20 12 0 10 -86277
-262144 0;
#X obj 268 250 cnv 15 10 10 empty empty add 20 12 0 10 -86277 -262144
0;
#X obj 268 265 cnv 15 10 10 empty blend_mode multiply 20 12 0 10 -86277
-262144 0;
#X obj 268 281 cnv 15 10 10 empty empty hard_light 20 12 0 10 -128992
-262144 0;
#X obj 268 297 cnv 15 10 10 empty empty overlay 20 12 0 10 -86277 -262144
0;
#X obj 268 311 cnv 15 10 10 empty empty difference 20 12 0 10 -86277
-262144 0;
#X obj 267 224 vradio 15 1 0 7 empty empty empty 0 -8 0 10 -191407
-1 -1 0;
#X obj 269 367 hsl 140 12 0 1 0 0 empty fade_second_layer alpha 144
6 0 10 -128992 -1 -262144 6300 1;
#X obj 269 382 hsl 140 12 0 1 0 0 empty fade_second_layer fade 144
8 0 10 -128992 -1 -262144 6800 1;
#N canvas 966 551 248 400 autoblend 0;
#X msg 66 233 2;
#X msg 98 233 4;
#X msg 161 233 3;
#X msg 129 233 5;
#X obj 66 11 r bonkbonk;
#X obj 98 168 del 40;
#X obj 129 187 del 80;
#X obj 161 209 del 80;
#X obj 66 95 spigot;
#X obj 66 132 countfilter;
#X obj 10 92 sel 0;
#X msg 10 136 0;
#X obj 10 59 t f f;
#X obj 102 42 cnv 15 81 40 empty empty empty 20 12 0 14 -99865 -66577
0;
#X obj 106 63 nbx 3 14 1 256 0 0 empty empty div 40 8 0 10 -228856
-33289 -228856 1 256;
#X obj 106 44 tgl 15 0 empty empty autoblend 17 7 0 10 -228856 -1 -228856
0 1;
#X obj 66 289 outlet;
#X connect 0 0 16 0;
#X connect 1 0 16 0;
#X connect 2 0 16 0;
#X connect 3 0 16 0;
#X connect 4 0 8 0;
#X connect 5 0 1 0;
#X connect 5 0 6 0;
#X connect 6 0 3 0;
#X connect 6 0 7 0;
#X connect 7 0 2 0;
#X connect 8 0 9 0;
#X connect 9 0 0 0;
#X connect 9 0 5 0;
#X connect 10 0 11 0;
#X connect 11 0 16 0;
#X connect 12 0 10 0;
#X connect 12 1 8 1;
#X connect 14 0 9 1;
#X connect 15 0 12 0;
#X coords 0 -1 1 1 85 44 2 100 40;
#X restore 359 285 pd autoblend;
#X obj 356 423 gemhead 56;
#X obj 556 662 int \$1;
#X obj 633 663 int \$2;
#X msg 556 692 texture1 \$1;
#X msg 633 692 texture2 \$1;
#X connect 0 0 3 0;
#X connect 1 0 11 0;
#X connect 2 0 8 0;
#X connect 3 0 2 0;
#X connect 4 0 7 0;
#X connect 5 0 4 0;
#X connect 6 0 4 0;
#X connect 7 0 9 0;
#X connect 9 0 3 0;
#X connect 10 0 15 0;
#X connect 11 0 10 0;
#X connect 12 0 17 0;
#X connect 13 0 12 0;
#X connect 14 0 12 0;
#X connect 16 0 11 0;
#X connect 17 0 16 0;
#X connect 20 0 21 0;
#X connect 21 0 28 0;
#X connect 22 0 24 0;
#X connect 23 0 24 0;
#X connect 24 0 47 0;
#X connect 24 1 36 0;
#X connect 25 0 26 0;
#X connect 26 0 27 0;
#X connect 27 0 34 0;
#X connect 28 0 27 0;
#X connect 28 1 27 1;
#X connect 29 0 24 0;
#X connect 30 0 33 0;
#X connect 31 0 32 0;
#X connect 32 0 33 0;
#X connect 32 1 25 0;
#X connect 33 0 24 0;
#X connect 33 1 20 0;
#X connect 34 0 24 0;
#X connect 35 0 46 0;
#X connect 35 0 45 0;
#X connect 36 0 37 0;
#X connect 36 0 68 0;
#X connect 36 0 69 0;
#X connect 38 0 24 0;
#X connect 39 0 24 0;
#X connect 40 0 39 0;
#X connect 41 0 42 0;
#X connect 42 0 40 0;
#X connect 43 0 42 1;
#X connect 44 0 41 1;
#X connect 45 0 32 0;
#X connect 46 0 33 0;
#X connect 48 0 24 0;
#X connect 49 0 24 0;
#X connect 50 0 44 0;
#X connect 50 0 38 0;
#X connect 51 0 41 0;
#X connect 54 0 50 0;
#X connect 55 0 67 0;
#X connect 63 0 22 0;
#X connect 64 0 48 0;
#X connect 65 0 49 0;
#X connect 66 0 63 0;
#X connect 67 0 32 0;
#X connect 68 0 70 0;
#X connect 69 0 71 0;
#X connect 70 0 24 0;
#X connect 71 0 24 0;
#X coords 0 -1 1 1 204 204 1 260 198;
