#N canvas 253 371 1333 683 10;
#X obj 50 46 cnv 15 252 56 empty empty marsfire 7 8 0 11 -99865 -228856
0;
#X obj 56 61 tgl 15 0 empty empty empty 17 7 0 10 -191407 -1 -1 1 1
;
#X obj 77 61 marsfiles;
#X obj 189 60 marsfiles;
#X obj 48 644 outlet gemlist;
#X obj 36 141 t f f;
#X msg 48 273 1;
#X msg 78 273 0;
#X obj 99 540 pix_set 1 1;
#X msg 182 540 0 0 0 0;
#X obj 303 488 == 0;
#X obj 48 506 shunt 2 1;
#X obj 284 255 t f f b;
#X obj 99 561 t a b;
#X obj 245 255 sel 1;
#X obj 48 393 movieplayer_core;
#X obj 185 185 r hopto_\$1;
#X obj 126 594 s \$0-stop-gemlist;
#X obj 78 242 r \$0-stop-gemlist;
#X obj 125 185 r volume;
#X obj 48 300 gemhead \$1;
#X obj 358 644 outlet gemlist;
#X msg 358 273 1;
#X msg 388 273 0;
#X obj 409 540 pix_set 1 1;
#X msg 492 540 0 0 0 0;
#X obj 613 488 == 0;
#X obj 358 506 shunt 2 1;
#X obj 594 255 t f f b;
#X obj 409 561 t a b;
#X obj 555 255 sel 1;
#X obj 358 393 movieplayer_core;
#X obj 495 185 r hopto_\$1;
#X obj 436 594 s \$0-stop-gemlist;
#X obj 388 242 r \$0-stop-gemlist;
#X obj 435 185 r volume;
#X obj 358 300 gemhead \$1;
#X obj 77 76 tgl 15 0 empty empty empty 17 7 0 10 -128992 -1 -1 0 1
;
#X obj 189 75 tgl 15 0 empty empty empty 17 7 0 10 -128992 -1 -1 0
1;
#X obj 96 76 hsl 84 15 0 127 0 0 empty empty empty -2 -8 0 10 -162280
-1 -1 0 1;
#X obj 208 75 hsl 84 15 0 127 0 0 empty empty empty -2 -8 0 10 -162280
-1 -1 0 1;
#X obj 80 91 hsl 100 10 0 1 0 0 empty \$0-position-1 empty -2 -8 0
10 -66577 -162280 -1 6534 1;
#X obj 192 91 hsl 100 10 0 1 0 0 empty \$0-position-2 empty -2 -8 0
10 -66577 -162280 -1 5105 1;
#X obj 94 452 s \$0-position-1;
#X obj 404 452 s \$0-position-2;
#X connect 1 0 5 0;
#X connect 2 0 15 2;
#X connect 3 0 31 2;
#X connect 5 0 12 0;
#X connect 5 0 28 0;
#X connect 5 1 15 1;
#X connect 5 1 31 1;
#X connect 6 0 20 0;
#X connect 7 0 20 0;
#X connect 8 0 13 0;
#X connect 9 0 8 1;
#X connect 10 0 11 1;
#X connect 11 0 4 0;
#X connect 11 1 8 0;
#X connect 12 0 14 0;
#X connect 12 1 10 0;
#X connect 12 2 9 0;
#X connect 13 0 4 0;
#X connect 13 1 17 0;
#X connect 14 0 6 0;
#X connect 15 0 11 0;
#X connect 15 2 43 0;
#X connect 16 0 15 6;
#X connect 18 0 7 0;
#X connect 19 0 15 5;
#X connect 20 0 15 0;
#X connect 22 0 36 0;
#X connect 23 0 36 0;
#X connect 24 0 29 0;
#X connect 25 0 24 1;
#X connect 26 0 27 1;
#X connect 27 0 21 0;
#X connect 27 1 24 0;
#X connect 28 0 30 0;
#X connect 28 1 26 0;
#X connect 28 2 25 0;
#X connect 29 0 21 0;
#X connect 29 1 33 0;
#X connect 30 0 22 0;
#X connect 31 0 27 0;
#X connect 31 2 44 0;
#X connect 32 0 31 6;
#X connect 34 0 23 0;
#X connect 35 0 31 5;
#X connect 36 0 31 0;
#X connect 37 0 15 4;
#X connect 38 0 31 4;
#X connect 39 0 15 3;
#X connect 40 0 31 3;
#X coords 0 -1 1 1 256 60 1 48 44;
