#N canvas 593 285 450 300 10;
#X msg 40 81 mars;
#X obj 175 143 loadbang;
#X msg 40 97 mars01;
#X msg 40 112 mars02;
#X msg 175 162 symbol /srv/visuals/cinder/marsfire;
#X obj 40 230 pack s s;
#X obj 40 210 symbol;
#X msg 40 250 symbol \$2/\$1.mov;
#X obj 40 20 hradio 15 1 0 7 empty empty empty 0 -8 0 10 -128992 -191407
-228856 0;
#X obj 40 280 outlet;
#N canvas 81 333 450 300 gem_bang 0;
#X obj 46 44 gemhead;
#X obj 46 68 route gem_state;
#X obj 46 140 change;
#X obj 46 193 outlet;
#X obj 46 90 route 0;
#X obj 46 161 sel 1;
#X msg 46 111 set 0;
#X obj 95 90 t b;
#X msg 95 111 1;
#X connect 0 0 1 0;
#X connect 1 0 4 0;
#X connect 2 0 5 0;
#X connect 4 0 6 0;
#X connect 4 1 7 0;
#X connect 5 0 3 0;
#X connect 6 0 2 0;
#X connect 7 0 8 0;
#X connect 8 0 2 0;
#X restore 246 20 pd gem_bang;
#X obj 246 45 r start_player;
#X msg 40 128 marsmorph;
#X msg 40 144 marsmorph2;
#X msg 40 160 pomelo;
#X obj 40 45 route 0 1 2 3 4 5 6;
#X msg 40 179 elephotato;
#X connect 0 0 6 0;
#X connect 1 0 4 0;
#X connect 2 0 6 0;
#X connect 3 0 6 0;
#X connect 4 0 5 1;
#X connect 5 0 7 0;
#X connect 6 0 5 0;
#X connect 7 0 9 0;
#X connect 8 0 15 0;
#X connect 10 0 8 0;
#X connect 11 0 8 0;
#X connect 12 0 6 0;
#X connect 13 0 6 0;
#X connect 14 0 6 0;
#X connect 15 0 0 0;
#X connect 15 1 2 0;
#X connect 15 2 3 0;
#X connect 15 3 12 0;
#X connect 15 4 13 0;
#X connect 15 5 14 0;
#X connect 15 6 16 0;
#X connect 16 0 6 0;
#X coords 0 -1 1 1 105 15 2 40 20;
