#N canvas 615 185 924 653 10;
#X text 281 38 0 = off;
#X text 282 51 1 = alpha;
#X text 281 64 2 = add;
#X text 282 77 3 = multiply;
#X text 282 90 4 = hard light;
#X text 282 103 5 = overlay;
#X text 282 117 6 = substract;
#X obj 545 359 change;
#X floatatom 545 382 5 0 0 0 - - -, f 5;
#X msg 285 135 blendMode \$1;
#X msg 330 507 print;
#X obj 387 508 glsl_program;
#X obj 500 357 change;
#X floatatom 500 380 5 0 0 0 - - -, f 5;
#X obj 500 407 pack;
#X obj 545 407 t b f;
#X msg 450 424 link;
#X msg 345 345 print;
#X msg 347 312 print;
#X obj 387 195 gemhead 55;
#X obj 387 312 glsl_vertex;
#X obj 387 345 glsl_fragment;
#X msg 435 479 link \$1 \$2;
#X obj 474 223 loadbang;
#N canvas 239 251 450 300 onebang 0;
#X obj 120 71 inlet;
#X obj 120 151 outlet;
#X obj 120 120 t b;
#X obj 120 100 change;
#X msg 161 71 set -1;
#X obj 161 11 gemhead;
#X obj 161 51 route 0;
#X obj 161 31 route gem_state;
#X connect 0 0 3 0;
#X connect 2 0 1 0;
#X connect 3 0 2 0;
#X connect 4 0 3 0;
#X connect 5 0 7 0;
#X connect 6 0 4 0;
#X connect 7 0 6 0;
#X restore 540 547 pd onebang;
#X msg 540 492 tex0 0;
#X msg 671 113 effect \$1;
#X msg 249 467 push \$1;
#X floatatom 249 434 5 0 0 0 - - -, f 5;
#X obj 302 353 tgl 15 0 empty coord_effect empty 17 7 0 10 -258113
-1 -1 1 1;
#X obj 249 354 spigot;
#X obj 249 393 / 100;
#X floatatom 281 293 5 0 0 0 - - -, f 5;
#X floatatom 219 291 5 0 0 0 - - -, f 5;
#X text 759 57 effect;
#X text 782 74 0 = off;
#X text 782 88 1 = blip_vert;
#X obj 302 328 > 0;
#X text 782 103 2 = blip_horz;
#X msg 474 249 open shaders/QmultiBlend.vert;
#X msg 474 276 open shaders/QmultiBlendEffects.frag;
#X obj 387 586 outlet;
#X msg 25 295 alpha \$1;
#X msg 89 295 fade \$1;
#X obj 13 13 cnv 15 194 194 empty empty mixer_\$1_\$2 4 8 0 10 -86277
-262144 0;
#X obj 46 152 hradio 15 1 1 7 empty shader-effect effects 110 8 0 10
-258113 -1 -262144 4;
#X obj 26 152 tgl 15 1 empty __blending_onoff empty 17 7 0 10 -258113
-1 -1 1 1;
#X obj 27 25 cnv 15 10 10 empty empty channel_one 20 12 0 10 -86277
-262144 0;
#X obj 27 41 cnv 15 10 10 empty empty alpha_blend 20 12 0 10 -86277
-262144 0;
#X obj 27 56 cnv 15 10 10 empty empty add 20 12 0 10 -86277 -262144
0;
#X obj 27 71 cnv 15 10 10 empty blend_mode multiply 20 12 0 10 -86277
-262144 0;
#X obj 27 87 cnv 15 10 10 empty empty hard_light 20 12 0 10 -86277
-262144 0;
#X obj 27 102 cnv 15 10 10 empty empty overlay 20 12 0 10 -86277 -262144
0;
#X obj 27 117 cnv 15 10 10 empty empty difference 20 12 0 10 -86277
-262144 0;
#X obj 26 30 vradio 15 1 0 7 empty empty empty 0 -8 0 10 -258113 -1
-1 3;
#X obj 28 173 hsl 140 12 0 1 0 0 empty fade_second_layer alpha 144
6 0 10 -258113 -1 -262144 0 1;
#X obj 28 188 hsl 140 12 0 1 0 0 empty fade_second_layer fade 144 8
0 10 -258113 -1 -262144 0 1;
#X obj 671 78 i;
#X obj 249 328 r volume;
#X msg 587 492 texture1 1;
#X msg 658 492 texture2 2;
#X obj 587 462 \$1;
#X obj 658 463 \$2;
#N canvas 515 732 266 348 autoblend 0;
#X msg 66 233 2;
#X msg 98 233 4;
#X msg 161 233 3;
#X msg 129 233 5;
#X obj 66 11 r bonkbonk;
#X obj 98 168 del 40;
#X obj 129 187 del 80;
#X obj 161 209 del 80;
#X obj 66 95 spigot;
#X obj 66 132 countfilter;
#X obj 10 92 sel 0;
#X msg 10 136 0;
#X obj 10 59 t f f;
#X obj 102 42 cnv 15 81 40 empty empty empty 20 12 0 14 -131333 -66577
0;
#X obj 106 63 nbx 3 14 1 256 0 0 empty empty div 40 8 0 10 -258113
-262144 -228856 1 256;
#X obj 106 44 tgl 15 0 empty empty autoblend 17 7 0 10 -258113 -1 -228856
0 1;
#X obj 66 289 outlet;
#X connect 0 0 16 0;
#X connect 1 0 16 0;
#X connect 2 0 16 0;
#X connect 3 0 16 0;
#X connect 4 0 8 0;
#X connect 5 0 1 0;
#X connect 5 0 6 0;
#X connect 6 0 3 0;
#X connect 6 0 7 0;
#X connect 7 0 2 0;
#X connect 8 0 9 0;
#X connect 9 0 0 0;
#X connect 9 0 5 0;
#X connect 10 0 11 0;
#X connect 11 0 16 0;
#X connect 12 0 10 0;
#X connect 12 1 8 1;
#X connect 14 0 9 1;
#X connect 15 0 12 0;
#X coords 0 -1 1 1 85 44 2 100 40;
#X restore 118 91 pd autoblend;
#X text 585 440 channels from creation argument;
#X connect 7 0 8 0;
#X connect 8 0 15 0;
#X connect 9 0 11 0;
#X connect 10 0 11 0;
#X connect 11 0 41 0;
#X connect 11 1 24 0;
#X connect 12 0 13 0;
#X connect 13 0 14 0;
#X connect 14 0 22 0;
#X connect 15 0 14 0;
#X connect 15 1 14 1;
#X connect 16 0 11 0;
#X connect 17 0 21 0;
#X connect 18 0 20 0;
#X connect 19 0 20 0;
#X connect 20 0 21 0;
#X connect 20 1 12 0;
#X connect 21 0 11 0;
#X connect 21 1 7 0;
#X connect 22 0 11 0;
#X connect 23 0 40 0;
#X connect 23 0 39 0;
#X connect 24 0 25 0;
#X connect 24 0 61 0;
#X connect 24 0 62 0;
#X connect 26 0 11 0;
#X connect 27 0 11 0;
#X connect 28 0 27 0;
#X connect 29 0 30 1;
#X connect 30 0 31 0;
#X connect 31 0 28 0;
#X connect 32 0 31 1;
#X connect 33 0 31 0;
#X connect 37 0 29 0;
#X connect 39 0 20 0;
#X connect 40 0 21 0;
#X connect 42 0 11 0;
#X connect 43 0 11 0;
#X connect 45 0 57 0;
#X connect 46 0 19 0;
#X connect 54 0 9 0;
#X connect 55 0 42 0;
#X connect 56 0 43 0;
#X connect 57 0 37 0;
#X connect 57 0 26 0;
#X connect 58 0 30 0;
#X connect 59 0 11 0;
#X connect 60 0 11 0;
#X connect 61 0 59 0;
#X connect 62 0 60 0;
#X connect 63 0 54 0;
#X coords 0 -1 1 1 200 200 1 10 10;
