#N canvas 403 408 787 430 10;
#X obj 61 238 unpack;
#X floatatom 61 266 5 0 0 0 - - - 0;
#X obj 133 91 metro 40;
#X obj 316 151 /;
#X msg 316 103 1000;
#X obj 316 79 t b f;
#X obj 133 153 counter;
#X obj 207 91 t b s;
#X msg 207 118 0;
#X obj 159 315 /;
#X obj 234 150 prepend open;
#X obj 13 373 outlet;
#X obj 117 223 switch;
#X obj 289 268 *;
#X obj 433 83 + 1;
#X obj 249 177 loadbang;
#X msg 249 200 1;
#X obj 289 242 / 128;
#X obj 181 255 - 1;
#X obj 93 61 == 0;
#X obj 35 62 loadbang;
#X msg 35 83 1;
#X obj 45 312 pix_set 1 1;
#X msg 125 289 0 0 0 0;
#X obj 125 61 t b f f;
#X obj 103 92 tgl 15 0 empty empty empty 17 7 0 10 #fc0400 #000000 #000000 0 1;
#X obj 358 243 *;
#X msg 358 277 jam \$1;
#X obj 556 17 inlet cpos;
#X obj 634 17 inlet hop;
#X obj 61 373 outlet frames;
#X obj 159 373 outlet position;
#X obj 433 17 inlet moviescratch;
#X obj 13 205 pix_movie;
#X obj 45 338 pix_texture;
#X obj 356 373 outlet texture_id;
#X obj 271 373 outlet loop;
#X obj 13 164 shunt 2 1;
#X obj 125 17 inlet on/off;
#X obj 207 17 inlet moviefile;
#X obj 316 17 inlet speed(fps);
#X obj 13 17 inlet gemlist;
#X connect 0 0 1 0;
#X connect 0 0 18 0;
#X connect 1 0 9 1;
#X connect 1 0 30 0;
#X connect 2 0 6 0;
#X connect 3 0 2 1;
#X connect 4 0 3 0;
#X connect 5 0 4 0;
#X connect 5 1 3 1;
#X connect 6 0 12 1;
#X connect 7 0 8 0;
#X connect 7 1 10 0;
#X connect 8 0 6 0;
#X connect 9 0 31 0;
#X connect 10 0 33 0;
#X connect 12 0 9 0;
#X connect 12 0 33 1;
#X connect 13 0 12 2;
#X connect 14 0 12 0;
#X connect 15 0 16 0;
#X connect 16 0 12 0;
#X connect 17 0 13 0;
#X connect 18 0 13 1;
#X connect 18 0 6 4;
#X connect 18 0 26 1;
#X connect 19 0 37 1;
#X connect 20 0 21 0;
#X connect 21 0 37 1;
#X connect 22 0 34 0;
#X connect 23 0 22 1;
#X connect 24 0 23 0;
#X connect 24 1 19 0;
#X connect 24 2 2 0;
#X connect 25 0 2 0;
#X connect 26 0 27 0;
#X connect 27 0 6 0;
#X connect 28 0 17 0;
#X connect 29 0 26 0;
#X connect 32 0 14 0;
#X connect 33 0 11 0;
#X connect 33 1 0 0;
#X connect 33 2 36 0;
#X connect 33 3 35 0;
#X connect 34 0 11 0;
#X connect 37 0 33 0;
#X connect 37 1 22 0;
#X connect 38 0 24 0;
#X connect 39 0 7 0;
#X connect 40 0 5 0;
#X connect 41 0 37 0;
