#N canvas 700 586 409 377 10;
#X obj 51 19 inlet;
#X obj 242 19 inlet;
#X text 6 19 on/off;
#X text 277 17 speed (fps);
#X obj 133 20 inlet;
#X text 174 19 moviefile;
#X obj 4 310 outlet;
#X obj 4 97 gemhead \$1;
#X obj 4 148 movieplayer_core \$1;
#X obj 184 101 bng 15 100 10 0 empty empty empty 17 7 0 10 -258113
-1 -1;
#X obj 259 84 r cpos_\$1;
#X obj 259 107 r hop\$1;
#X obj 259 131 r moviescratch;
#X obj 181 309 outlet texture_id;
#X obj 69 309 outlet position;
#X obj 36 237 s _mov_01_frames;
#X connect 0 0 8 1;
#X connect 1 0 8 3;
#X connect 4 0 8 2;
#X connect 7 0 8 0;
#X connect 8 0 6 0;
#X connect 8 1 15 0;
#X connect 8 2 14 0;
#X connect 8 3 9 0;
#X connect 8 4 13 0;
#X connect 10 0 8 4;
#X connect 11 0 8 5;
#X connect 12 0 8 6;
#X coords 0 -1 1 1 100 15 1 100 100;
