#N canvas 14 510 787 430 10;
#X obj 61 238 unpack;
#X floatatom 61 266 5 0 0 0 - - -, f 5;
#X obj 136 91 metro 40;
#X obj 125 30 inlet;
#X obj 316 30 inlet;
#X obj 316 151 /;
#X msg 316 103 1000;
#X obj 316 79 t b f;
#X text 56 30 on/off;
#X text 351 28 speed (fps);
#X obj 136 142 counter;
#X obj 207 31 inlet;
#X text 248 30 moviefile;
#X obj 207 91 t b s;
#X msg 207 118 0;
#X obj 159 315 /;
#X obj 239 126 prepend open;
#X obj 13 373 outlet;
#X obj 117 223 switch;
#X obj 289 268 *;
#X obj 93 163 + 1;
#X obj 185 184 loadbang;
#X msg 185 207 1;
#X obj 289 242 / 128;
#X obj 181 255 - 1;
#X obj 93 61 == 0;
#X obj 23 59 loadbang;
#X obj 13 177 shunt;
#X msg 23 80 1;
#X obj 45 312 pix_set 1 1;
#X msg 125 289 0 0 0 0;
#X obj 125 61 t b f f;
#X obj 13 30 inlet;
#X obj 93 142 r ms\$1;
#X obj 289 219 r cpos_\$1;
#X obj 103 92 tgl 15 0 empty empty empty 17 7 0 10 -258113 -1 -1 0
1;
#X obj 358 220 r hop\$1;
#X obj 358 243 *;
#X msg 358 277 jam \$1;
#X floatatom 357 322 5 0 0 0 - - -, f 5;
#X obj 566 28 inlet cpos;
#X obj 644 28 inlet hop;
#X obj 61 373 outlet frames;
#X obj 159 373 outlet position;
#X obj 433 28 inlet moviescratch;
#X obj 13 205 pix_movie;
#X obj 45 338 pix_texture;
#X obj 356 373 outlet texture_id;
#X obj 271 373 outlet loop;
#X connect 0 0 1 0;
#X connect 0 0 24 0;
#X connect 1 0 15 1;
#X connect 1 0 42 0;
#X connect 2 0 10 0;
#X connect 3 0 31 0;
#X connect 4 0 7 0;
#X connect 5 0 2 1;
#X connect 6 0 5 0;
#X connect 7 0 6 0;
#X connect 7 1 5 1;
#X connect 10 0 18 1;
#X connect 11 0 13 0;
#X connect 13 0 14 0;
#X connect 13 1 16 0;
#X connect 14 0 10 0;
#X connect 15 0 43 0;
#X connect 16 0 45 0;
#X connect 18 0 15 0;
#X connect 18 0 45 1;
#X connect 19 0 18 2;
#X connect 20 0 18 0;
#X connect 21 0 22 0;
#X connect 22 0 18 0;
#X connect 23 0 19 0;
#X connect 24 0 19 1;
#X connect 24 0 10 4;
#X connect 24 0 37 1;
#X connect 25 0 27 1;
#X connect 26 0 28 0;
#X connect 27 0 45 0;
#X connect 27 1 29 0;
#X connect 28 0 27 1;
#X connect 29 0 46 0;
#X connect 30 0 29 1;
#X connect 31 0 30 0;
#X connect 31 1 25 0;
#X connect 31 2 2 0;
#X connect 32 0 27 0;
#X connect 33 0 20 0;
#X connect 34 0 23 0;
#X connect 35 0 2 0;
#X connect 36 0 37 0;
#X connect 37 0 38 0;
#X connect 37 0 39 0;
#X connect 38 0 10 0;
#X connect 40 0 23 0;
#X connect 41 0 37 0;
#X connect 44 0 20 0;
#X connect 45 0 17 0;
#X connect 45 1 0 0;
#X connect 45 2 48 0;
#X connect 45 3 47 0;
#X connect 46 0 17 0;
