#N canvas 103 278 836 558 10;
#X obj 25 18 inlet;
#X obj 76 175 translateXYZ 0 0 -2;
#X obj 76 147 gemframebuffer;
#X obj 25 519 pix_texture;
#X obj 41 421 loadbang;
#X msg 93 464 quality 1;
#X obj 41 462 int \$1;
#X obj 122 306 rotateXYZ;
#X obj 122 253 tgl 15 1 empty empty empty 0 -6 0 8 -258113 -1 -1 1
1;
#X floatatom 139 286 5 0 0 0 - - -, f 5;
#X floatatom 195 286 5 0 0 0 - - -, f 5;
#X floatatom 251 286 5 0 0 0 - - -, f 5;
#X obj 139 253 r 3Dx_\$1;
#X obj 195 253 r 3Dy_\$1;
#X obj 251 253 r 3Dz_\$1;
#X obj 122 221 r xblock3D_\$1;
#X obj 76 198 scale;
#X obj 113 203 hsl 128 12 0 2 0 0 empty empty scale -2 -8 0 9 -258113
-1 -258113 6350 1;
#X obj 76 280 shunt 2;
#X obj 452 351 t a;
#X obj 452 259 t b;
#X obj 462 239 bng 15 250 50 0 empty empty empty 17 7 0 10 -262144
-1 -1;
#X obj 452 218 loadbang;
#X obj 452 286 int \$1;
#N canvas 937 82 794 803 cubes 0;
#X obj 57 12 rotateXYZ 0 0 0;
#X obj 57 -167 inlet;
#X obj 57 53 scale 1 1 1;
#X floatatom 16 -47 5 0 0 0 - - -, f 5;
#X obj 134 -109 * -1;
#X obj 16 -126 loadbang;
#X msg 16 -95 1.5;
#X obj 483 34 square 1;
#X obj 346 36 square 1;
#X obj 209 -45 rotateXYZ 0 180 0;
#X obj 209 -17 translateXYZ -2 0 0;
#X obj 346 -46 rotateXYZ 0 0 180;
#X obj 346 -18 translateXYZ -2 -2 0;
#X obj 483 -42 rotateXYZ 0 180 0;
#X obj 483 -14 translateXYZ -2 0 0;
#X obj 209 35 square 1;
#X obj 57 79 square 1;
#X obj 482 173 square 1;
#X obj 345 175 square 1;
#X obj 208 114 rotateXYZ 0 180 0;
#X obj 208 142 translateXYZ -2 0 0;
#X obj 345 113 rotateXYZ 0 0 180;
#X obj 345 141 translateXYZ -2 -2 0;
#X obj 482 117 rotateXYZ 0 180 0;
#X obj 482 145 translateXYZ -2 0 0;
#X obj 208 174 square 1;
#X obj 56 178 square 1;
#X obj 483 294 square 1;
#X obj 346 296 square 1;
#X obj 209 295 square 1;
#X obj 57 299 square 1;
#X obj 57 230 rotateXYZ 0 90 0;
#X obj 209 225 rotateXYZ 0 0 180;
#X obj 209 253 translateXYZ 0 -2 0;
#X obj 483 228 rotateXYZ 0 180 0;
#X obj 346 224 rotateXYZ 0 0 180;
#X obj 483 256 translateXYZ 0 2 0;
#X obj 346 252 translateXYZ 0 -2 -4;
#X obj 56 119 translateXYZ 0 0 2;
#X obj 483 426 square 1;
#X obj 346 428 square 1;
#X obj 209 427 square 1;
#X obj 57 431 square 1;
#X obj 209 367 rotateXYZ 0 0 180;
#X obj 209 395 translateXYZ 0 -2 0;
#X obj 483 370 rotateXYZ 0 180 0;
#X obj 346 366 rotateXYZ 0 0 180;
#X obj 483 398 translateXYZ 0 2 0;
#X obj 346 394 translateXYZ 0 -2 -4;
#X obj 57 372 rotateXYZ 90 0 0;
#X floatatom 214 -112 5 0 0 0 - - -, f 5;
#X obj 57 403 translateXYZ 0 -3 3;
#X obj 57 261 translateXYZ 1 0 3;
#X obj 57 -15 translateXYZ -1.5 -1.5 -1;
#X obj 482 545 square 1;
#X obj 345 547 square 1;
#X obj 208 546 square 1;
#X obj 56 550 square 1;
#X obj 208 486 rotateXYZ 90 0 0;
#X obj 345 485 rotateXYZ 90 0 0;
#X obj 482 489 rotateXYZ 90 0 0;
#X obj 56 491 rotateXYZ 90 0 0;
#X obj 208 515 translateXYZ 0 -1 1;
#X obj 345 513 translateXYZ 0 1 -1;
#X obj 483 517 translateXYZ 0 -1 1;
#X obj 56 522 translateXYZ 0 -1 1;
#X obj 541 34 spigot 1;
#X obj 539 173 spigot 1;
#X obj 540 293 spigot 1;
#X obj 540 424 spigot 1;
#X obj 586 -132 inlet;
#X obj 586 -101 > 0;
#X obj 614 -101 > 1;
#X obj 642 -100 > 2;
#X obj 671 -99 > 3;
#X connect 0 0 2 0;
#X connect 1 0 53 0;
#X connect 2 0 16 0;
#X connect 3 0 2 1;
#X connect 3 0 4 0;
#X connect 4 0 53 1;
#X connect 4 0 53 2;
#X connect 5 0 6 0;
#X connect 6 0 3 0;
#X connect 7 0 66 0;
#X connect 8 0 13 0;
#X connect 9 0 10 0;
#X connect 10 0 15 0;
#X connect 11 0 12 0;
#X connect 12 0 8 0;
#X connect 13 0 14 0;
#X connect 14 0 7 0;
#X connect 15 0 11 0;
#X connect 16 0 9 0;
#X connect 17 0 67 0;
#X connect 18 0 23 0;
#X connect 19 0 20 0;
#X connect 20 0 25 0;
#X connect 21 0 22 0;
#X connect 22 0 18 0;
#X connect 23 0 24 0;
#X connect 24 0 17 0;
#X connect 25 0 21 0;
#X connect 26 0 19 0;
#X connect 27 0 68 0;
#X connect 28 0 34 0;
#X connect 29 0 35 0;
#X connect 30 0 32 0;
#X connect 31 0 52 0;
#X connect 32 0 33 0;
#X connect 33 0 29 0;
#X connect 34 0 36 0;
#X connect 35 0 37 0;
#X connect 36 0 27 0;
#X connect 37 0 28 0;
#X connect 38 0 26 0;
#X connect 39 0 69 0;
#X connect 40 0 45 0;
#X connect 41 0 46 0;
#X connect 42 0 43 0;
#X connect 43 0 44 0;
#X connect 44 0 41 0;
#X connect 45 0 47 0;
#X connect 46 0 48 0;
#X connect 47 0 39 0;
#X connect 48 0 40 0;
#X connect 49 0 51 0;
#X connect 50 0 53 3;
#X connect 51 0 42 0;
#X connect 52 0 30 0;
#X connect 53 0 0 0;
#X connect 55 0 60 0;
#X connect 56 0 59 0;
#X connect 57 0 58 0;
#X connect 58 0 62 0;
#X connect 59 0 63 0;
#X connect 60 0 64 0;
#X connect 61 0 65 0;
#X connect 62 0 56 0;
#X connect 63 0 55 0;
#X connect 64 0 54 0;
#X connect 65 0 57 0;
#X connect 66 0 38 0;
#X connect 67 0 31 0;
#X connect 68 0 49 0;
#X connect 69 0 61 0;
#X connect 70 0 71 0;
#X connect 70 0 72 0;
#X connect 70 0 73 0;
#X connect 70 0 74 0;
#X connect 71 0 66 1;
#X connect 72 0 67 1;
#X connect 73 0 68 1;
#X connect 74 0 69 1;
#X restore 240 432 pd cubes;
#X text 245 198 todo: segregate left/right scale balance scale;
#X obj 76 40 > 0;
#X obj 25 60 shunt 2 0;
#X obj 122 380 shunt 2 0;
#X obj 122 428 rectangle 2 2;
#X obj 201 176 r scalefactor_\$1;
#X msg 41 490 rectangle 0 \, texunit \$1;
#X obj 197 121 loadbang;
#X msg 197 142 1;
#X obj 150 97 r yshift\$1;
#N canvas 809 301 450 300 sphere 0;
#X obj 21 16 inlet;
#X obj 21 118 rotateXYZ;
#X floatatom 111 87 5 0 0 0 - - -, f 5;
#X floatatom 38 189 5 0 0 0 - - -, f 5;
#X floatatom 157 86 5 0 0 0 - - -, f 5;
#X msg 94 11 rectangle 0;
#X obj 21 230 sphere 2.5;
#X floatatom 78 207 5 0 0 0 - - -, f 5;
#X msg 78 188 32;
#X obj 78 170 loadbang;
#X obj 21 144 translateXYZ 0 0 -0.5;
#X floatatom 169 123 5 0 0 0 - - -, f 5;
#X floatatom 170 56 5 0 0 0 - - -, f 5;
#X msg 207 56 90;
#X obj 241 56 loadbang;
#X connect 0 0 1 0;
#X connect 1 0 10 0;
#X connect 2 0 1 2;
#X connect 3 0 6 1;
#X connect 4 0 1 1;
#X connect 7 0 6 2;
#X connect 8 0 7 0;
#X connect 9 0 8 0;
#X connect 10 0 6 0;
#X connect 11 0 10 3;
#X connect 12 0 1 3;
#X connect 13 0 12 0;
#X connect 14 0 13 0;
#X restore 335 435 pd sphere;
#X obj 167 64 == 2;
#X obj 205 64 == 3;
#X obj 122 358 shunt 2 0;
#X obj 243 64 == 4;
#N canvas 1119 519 504 354 ripple 0;
#X obj 50 29 inlet;
#X obj 50 233 ripple 32 18;
#X obj 193 181 vsl 15 128 -1 1 0 0 empty empty empty 0 -9 0 10 -262144
-1 -1 0 1;
#X obj 140 233 hsl 128 15 -1 1 0 0 empty empty empty -2 -8 0 10 -262144
-1 -1 0 1;
#X obj 88 99 bng 15 250 50 0 empty empty empty 17 7 0 10 -262144 -1
-1;
#X floatatom 67 205 5 0 0 0 - - -, f 5;
#X floatatom 101 205 5 0 0 0 - - -, f 5;
#X msg 67 183 2.5;
#X obj 101 155 loadbang;
#X msg 101 183 9;
#X obj 88 70 r aubio_tempo;
#X connect 0 0 1 0;
#X connect 2 0 1 4;
#X connect 3 0 1 3;
#X connect 4 0 1 0;
#X connect 5 0 1 1;
#X connect 6 0 1 2;
#X connect 7 0 5 0;
#X connect 8 0 7 0;
#X connect 8 0 9 0;
#X connect 9 0 6 0;
#X connect 10 0 4 0;
#X restore 431 435 pd ripple;
#X obj 122 403 shunt 2 0;
#X msg 452 312 type FLOAT \, dimen 1280 1280 \, rectangle 0 \, texunit
\$1;
#X obj 403 23 cnv 15 80 54 empty empty projection_\$1 4 8 0 10 -86277
-228856 0;
#X obj 405 39 hradio 15 1 1 5 empty output_model_\$1 empty 0 -8 0 8
-258113 -1 -228856 1;
#X obj 405 57 hradio 15 1 1 5 empty empty empty 0 -8 0 10 -147717 -1
-1 2;
#X obj 76 19 t f f f f;
#X connect 0 0 27 0;
#X connect 1 0 16 0;
#X connect 2 0 1 0;
#X connect 4 0 6 0;
#X connect 4 0 5 0;
#X connect 5 0 3 0;
#X connect 6 0 31 0;
#X connect 7 0 38 0;
#X connect 8 0 18 1;
#X connect 9 0 7 1;
#X connect 10 0 7 2;
#X connect 11 0 7 3;
#X connect 12 0 9 0;
#X connect 13 0 10 0;
#X connect 14 0 11 0;
#X connect 15 0 8 0;
#X connect 16 0 18 0;
#X connect 17 0 16 1;
#X connect 18 0 38 0;
#X connect 18 1 7 0;
#X connect 19 0 2 0;
#X connect 20 0 23 0;
#X connect 21 0 20 0;
#X connect 22 0 20 0;
#X connect 23 0 42 0;
#X connect 26 0 27 1;
#X connect 27 0 3 0;
#X connect 27 1 2 0;
#X connect 28 0 41 0;
#X connect 28 1 24 0;
#X connect 30 0 17 0;
#X connect 31 0 3 0;
#X connect 32 0 33 0;
#X connect 33 0 17 0;
#X connect 34 0 1 2;
#X connect 36 0 28 1;
#X connect 37 0 38 1;
#X connect 38 0 28 0;
#X connect 38 1 35 0;
#X connect 39 0 41 1;
#X connect 41 0 29 0;
#X connect 41 1 40 0;
#X connect 42 0 19 0;
#X connect 44 0 46 0;
#X connect 45 0 24 1;
#X connect 46 0 26 0;
#X connect 46 1 36 0;
#X connect 46 2 37 0;
#X connect 46 3 39 0;
#X coords 0 -1 1 1 85 60 1 400 20;
