#N canvas 514 281 1282 743 12;
#N canvas 726 313 745 631 blending 0;
#X obj 187 593 outlet;
#X obj 85 12 inlet;
#X text 170 71 blend mode;
#X text 184 86 0 = off;
#X text 185 99 1 = alpha;
#X text 184 112 2 = add;
#X text 185 125 3 = multiply;
#X text 185 138 4 = hard light;
#X text 185 151 5 = overlay;
#X text 185 165 6 = substract;
#X obj 345 359 change;
#X floatatom 345 382 5 0 0 0 - - -, f 5;
#X msg 85 151 blendMode \$1;
#X msg 130 509 print;
#X obj 85 124 i;
#X floatatom 154 24 5 0 0 0 - - -, f 5;
#X obj 187 508 glsl_program;
#X obj 300 357 change;
#X floatatom 300 380 5 0 0 0 - - -, f 5;
#X obj 300 407 pack;
#X obj 345 407 t b f;
#X msg 250 424 link;
#X msg 145 345 print;
#X msg 147 312 print;
#X obj 187 195 gemhead 55;
#X obj 187 312 glsl_vertex;
#X obj 187 345 glsl_fragment;
#X msg 235 479 link \$1 \$2;
#X obj 85 194 loadbang;
#N canvas 241 259 450 300 onebang 0;
#X obj 120 71 inlet;
#X obj 120 151 outlet;
#X obj 120 120 t b;
#X obj 120 100 change;
#X msg 161 71 set -1;
#X obj 161 11 gemhead;
#X obj 161 51 route 0;
#X obj 161 31 route gem_state;
#X connect 0 0 3 0;
#X connect 2 0 1 0;
#X connect 3 0 2 0;
#X connect 4 0 3 0;
#X connect 5 0 7 0;
#X connect 6 0 4 0;
#X connect 7 0 6 0;
#X restore 340 547 pd onebang;
#X msg 340 488 tex0 0;
#X msg 387 488 texture1 1;
#X msg 458 488 texture2 2;
#X floatatom 480 402 4 0 0 1 width - -, f 4;
#X floatatom 490 384 4 0 0 1 height - -, f 4;
#X floatatom 500 366 4 0 0 1 bytes/pixel - -, f 4;
#X floatatom 510 349 5 0 0 1 coulorspace - -, f 5;
#X obj 470 328 pix_info . . . .;
#X msg 493 210 open ../shaders/caleidoscope.vert;
#X msg 493 237 open ../shaders/caleidoscope.frag;
#X msg 475 112 effect \$1;
#X msg 49 467 push \$1;
#X floatatom 49 434 5 0 0 0 - - -, f 5;
#X obj 97 353 tgl 15 0 empty coord_effect empty 17 7 0 10 -258113 -1
-1 1 1;
#X msg 174 249 open ../shaders/QmultiBlend.vert;
#X obj 49 328 r level;
#X obj 49 354 spigot;
#X obj 49 393 / 100;
#X floatatom 81 293 5 0 0 0 - - -, f 5;
#X msg 174 276 open ../shaders/QmultiBlendEffects.frag;
#X floatatom 19 291 5 0 0 0 - - -, f 5;
#X obj 475 19 inlet;
#X text 559 57 effect;
#X text 582 74 0 = off;
#X text 582 88 1 = blip_vert;
#X obj 97 328 > 0;
#X text 582 103 2 = blip_horz;
#X obj 380 16 inlet;
#X obj 277 15 r coord_effect;
#X obj 429 60 *;
#X obj 277 74 *;
#X obj 475 60 spigot;
#X obj 518 60 == 0;
#X obj 24 12 inlet;
#X connect 1 0 14 0;
#X connect 10 0 11 0;
#X connect 11 0 20 0;
#X connect 12 0 16 0;
#X connect 13 0 16 0;
#X connect 14 0 12 0;
#X connect 15 0 14 0;
#X connect 16 0 0 0;
#X connect 16 1 29 0;
#X connect 17 0 18 0;
#X connect 18 0 19 0;
#X connect 19 0 27 0;
#X connect 20 0 19 0;
#X connect 20 1 19 1;
#X connect 21 0 16 0;
#X connect 22 0 26 0;
#X connect 23 0 25 0;
#X connect 24 0 25 0;
#X connect 25 0 26 0;
#X connect 25 1 17 0;
#X connect 26 0 16 0;
#X connect 26 1 10 0;
#X connect 27 0 16 0;
#X connect 28 0 49 0;
#X connect 28 0 44 0;
#X connect 29 0 30 0;
#X connect 29 0 31 0;
#X connect 29 0 32 0;
#X connect 31 0 16 0;
#X connect 32 0 16 0;
#X connect 37 1 33 0;
#X connect 37 2 34 0;
#X connect 37 3 35 0;
#X connect 37 4 36 0;
#X connect 38 0 25 0;
#X connect 39 0 26 0;
#X connect 40 0 16 0;
#X connect 41 0 16 0;
#X connect 42 0 41 0;
#X connect 43 0 46 1;
#X connect 44 0 25 0;
#X connect 45 0 46 0;
#X connect 46 0 47 0;
#X connect 47 0 42 0;
#X connect 48 0 47 1;
#X connect 49 0 26 0;
#X connect 50 0 47 0;
#X connect 51 0 59 1;
#X connect 51 0 61 0;
#X connect 55 0 43 0;
#X connect 57 0 60 1;
#X connect 57 0 62 0;
#X connect 58 0 60 0;
#X connect 59 0 40 0;
#X connect 59 0 55 0;
#X connect 60 0 59 0;
#X connect 61 0 40 0;
#X connect 61 0 55 0;
#X connect 62 0 61 1;
#X connect 63 0 24 0;
#X restore 565 394 pd blending;
#X obj 331 267 hsl 95 10 0 1 0 0 empty empty empty -2 -8 0 10 -162280
-1 -1 8952 1;
#X symbolatom 814 190 55 0 0 0 - movie_2 -, f 55;
#X obj 770 267 hsl 96 10 0 1 0 0 empty empty empty -2 -8 0 10 -162280
-1 -1 0 1;
#X obj 597 529 rotateXYZ;
#X obj 622 11 tgl 15 0 empty empty fullscreen -64 7 0 8 -143491 -1
-258113 0 1;
#X obj 622 34 s fullscreen;
#X obj 25 164 vsl 15 130 0 127 0 0 level empty empty 0 -8 0 8 -128992
-1 -1 0 1;
#X obj 42 164 vsl 15 130 0 128 0 1 envsen envcorr empty 0 -8 0 8 -258113
-1 -1 3700 1;
#X floatatom 155 164 5 1 32 1 bars - multiblubb, f 5;
#X floatatom 26 301 1 0 0 0 - ftype -, f 1;
#X floatatom 155 182 5 0 3 1 filter - ftype, f 5;
#X obj 346 228 nbx 2 14 1 6 0 0 bank_01 xbank_01 bank_01 0 -6 1 10
-260097 -1 -260097 1 256;
#X obj 785 228 nbx 2 14 1 6 0 1 bank_02 xbank_02 bank_02 0 -6 1 10
-4034 -1 -4034 4 256;
#N canvas 286 288 251 167 scratch 0;
#X obj 23 23 inlet;
#X obj 19 2 tgl 15 0 mscratch ms2 empty 0 -6 0 8 -28609 -1 -1 0 1;
#X obj 2 2 tgl 15 0 mscratch ms1 empty 0 -6 0 8 -260546 -1 -1 0 64
;
#X obj 23 60 moviescratch2;
#X obj 10 131 s scalefactor;
#X obj 10 109 / 64;
#X obj 10 88 spigot;
#X obj 58 87 r scale_env;
#X connect 0 0 3 0;
#X connect 0 0 6 0;
#X connect 1 0 3 2;
#X connect 2 0 3 1;
#X connect 5 0 4 0;
#X connect 6 0 5 0;
#X connect 7 0 6 1;
#X coords 0 -1 1 1 40 20 1 0 0;
#X restore 25 138 pd scratch;
#X obj 406 226 hsl 128 15 1 127 0 0 speed1 xspeed1 speed_01 -2 -6 0
8 -260419 -1 -260097 6500 1;
#X obj 846 227 hsl 128 15 1 200 0 0 speed2 xspeed2 speed_02 -2 -6 0
8 -4038 -1 -4034 1978 1;
#X obj 328 228 tgl 15 1 xlonoff1 lonoff1 empty 0 -6 0 8 -260353 -1
-1 1 1;
#X obj 768 227 tgl 15 1 xlonoff2 lonoff2 empty 0 -6 0 8 -12225 -1 -1
0 1;
#X obj 339 383 tgl 15 1 empty xblock3D_1 3D_rotation 16 8 0 8 -260097
-1 -260097 1 1;
#X obj 781 383 tgl 15 1 empty xblock3D_2 3D_rotation 16 8 0 8 -12225
-1 -4034 1 1;
#N canvas 302 398 1383 585 Wii 0;
#X obj 10 10 tgl 15 1 empty empty empty 0 -6 0 8 -257985 -1 -1 0 1
;
#X obj 10 33 == 0;
#X obj 43 33 s w1;
#X obj 10 55 s w0;
#X obj 120 115 spigot;
#X obj 260 77 r w1;
#X obj 361 37 line;
#X obj 426 37 line;
#X obj 483 39 line;
#X obj 118 -85 r c1;
#X obj 167 -85 r c2;
#X obj 217 -85 r c3;
#X obj 102 27 switch;
#X obj 151 27 switch;
#X obj 201 26 switch;
#X msg 385 -43 1;
#X msg 425 -43 2;
#X text 463 -95 two modes of interpretation;
#X obj 505 -33 s effect5;
#X obj 385 -86 r c10;
#X obj 426 -86 r c11;
#X msg 503 -74 1;
#X msg 505 -53 0;
#X floatatom 566 46 5 0 0 0 - - -, f 5;
#X obj 566 112 s circ;
#X obj 599 -49 == 0;
#X obj 1127 94 r c5;
#X obj 723 141 spigot;
#X obj 833 116 r w1;
#X obj 723 163 abs;
#X obj 723 58 r c1;
#X obj 871 58 r c2;
#X obj 1020 58 r c3;
#X obj 424 215 s ms1;
#X obj 566 21 mapping/autoscale 0 1;
#X obj 720 -246 r c6;
#X obj 720 -97 s up;
#X obj 785 -246 r c7;
#X obj 785 -97 s down;
#X obj 848 -246 r c8;
#X obj 848 -97 s left;
#X obj 910 -247 r c9;
#X obj 910 -98 s right;
#X obj 720 -220 select 1;
#X obj 785 -220 select 1;
#X obj 848 -220 select 1;
#X obj 910 -220 select 1;
#X obj 566 -5 spigot;
#X obj 566 90 line;
#X obj 566 69 pack 1 200;
#X obj 44 55 s ms1;
#X text 564 135 move-scratch;
#X text 137 244 dimensions;
#X obj 1146 158 s 9_bt;
#X obj 768 17 r c4;
#X text 798 -56 clip switch;
#X obj 160 115 spigot;
#X obj 201 115 spigot;
#X obj 910 -133 gate 2;
#X obj 949 -183 r wii_channel;
#X obj 848 -133 gate 2;
#X obj 785 -133 gate 2;
#X obj 720 -133 gate 2;
#X obj 753 -77 s up_2;
#X obj 818 -77 s down_2;
#X obj 881 -77 s left_2;
#X obj 943 -78 s right_2;
#X obj 424 186 gate 2;
#X obj 424 158 r wii_channel;
#X obj 457 215 s ms2;
#X text 113 -268 for OSX see [wii_osx];
#X obj 116 -198 wii_linux;
#X obj 116 -172 tgl 15 0 empty empty empty 17 7 0 10 -258113 -1 -1
0 1;
#X msg 116 -235 discover;
#X msg 176 -235 connect;
#X obj 272 145 r wii_channel;
#X obj 121 192 s 3Dx_1;
#X obj 170 192 s 3Dy_1;
#X obj 219 192 s 3Dz_1;
#X obj 121 219 s 3Dx_2;
#X obj 170 219 s 3Dy_2;
#X obj 219 219 s 3Dz_2;
#X obj 742 226 s scalefactor_1;
#X obj 762 256 s scalefactor_2;
#X obj 723 194 shunt 3;
#X obj 723 90 expr sqrt(pow($f1 \, 2) + pow($f2 \, 2) + pow($f3 \,
2));
#X obj 774 193 r wii_channel;
#X obj 723 280 s scalefactor;
#X obj 12 186 &&;
#X obj 0 113 r wiichannel;
#X obj 0 137 == 0;
#X obj 0 158 t b f;
#X obj 12 218 s __XBlock3D;
#X obj 120 146 shunt 3;
#X obj 170 146 shunt 3;
#X obj 219 146 shunt 3;
#X obj 120 171 s 3Dx;
#X obj 170 171 s 3Dy;
#X obj 219 171 s 3Dz;
#X obj 37 186 sel 0;
#X msg 72 186 0;
#X text 799 20 A button => size by total motion;
#X obj 595 219 outlet;
#X obj 325 -65 loadbang;
#X obj 116 -128 outlet;
#X obj 1102 -179 r c13;
#X obj 1061 -179 r c14;
#X obj 1061 -116 select 1;
#X obj 1102 -145 select 1;
#N canvas 792 198 313 360 switchbanks 0;
#X msg -129 27 \; 3_t 1;
#X msg -168 28 \; 3_t 0;
#X msg -45 26 \; 3_t 1;
#X obj -65 67 s right;
#X msg -84 27 \; 3_t 0;
#X obj -149 68 s left;
#X obj -135 104 t b b b;
#X obj 3 104 t b b b;
#X obj 22 171 s right;
#X obj -116 171 s left;
#X msg -135 131 \; 3_t_2 0;
#X msg -80 131 \; 3_t_2 1;
#X msg 3 131 \; 3_t_2 0;
#X msg 58 131 \; 3_t_2 1;
#X obj -168 -4 t b b b;
#X obj -84 -5 t b b b;
#X obj -168 -40 gate 2;
#X obj -84 -41 gate 2;
#X obj -168 -89 inlet;
#X obj -106 -90 inlet;
#X obj -51 -89 inlet;
#X connect 6 0 10 0;
#X connect 6 1 9 0;
#X connect 6 2 11 0;
#X connect 7 0 12 0;
#X connect 7 1 8 0;
#X connect 7 2 13 0;
#X connect 14 0 1 0;
#X connect 14 1 5 0;
#X connect 14 2 0 0;
#X connect 15 0 4 0;
#X connect 15 1 3 0;
#X connect 15 2 2 0;
#X connect 16 0 14 0;
#X connect 16 1 6 0;
#X connect 17 0 15 0;
#X connect 17 1 7 0;
#X connect 18 0 16 0;
#X connect 18 0 17 0;
#X connect 19 0 16 1;
#X connect 20 0 17 1;
#X restore 1021 -78 pd switchbanks;
#X obj 385 -65 sel 1;
#X obj 426 -65 sel 1;
#X msg 229 -235 disconnect;
#X obj 52 -236 inlet;
#X obj 723 117 - 0.5;
#X obj 118 -58 lop 0.5 200;
#X obj 167 -33 lop 0.5 200;
#X obj 217 -59 lop 0.5 200;
#X obj 807 116 &&;
#X obj 833 136 t b f;
#X obj 768 116 t f f;
#X obj 768 141 sel 0;
#X msg 768 162 1;
#X obj 361 -1 pack 0 50;
#X obj 426 18 pack 0 50;
#X obj 483 -1 pack 0 50;
#X obj 1166 94 r wii_channel;
#X obj 1166 189 s 9_bt_2;
#X obj 1127 124 shunt 3;
#X obj 1127 225 s output_model;
#X obj 201 87 * 360;
#X obj 160 86 * 360;
#X obj 120 87 * 360;
#X connect 0 0 1 0;
#X connect 0 0 2 0;
#X connect 0 0 50 0;
#X connect 0 0 88 0;
#X connect 1 0 3 0;
#X connect 4 0 93 0;
#X connect 5 0 4 1;
#X connect 5 0 56 1;
#X connect 5 0 57 1;
#X connect 6 0 12 2;
#X connect 7 0 13 2;
#X connect 8 0 14 2;
#X connect 9 0 115 0;
#X connect 10 0 116 0;
#X connect 11 0 117 0;
#X connect 12 0 132 0;
#X connect 13 0 131 0;
#X connect 14 0 130 0;
#X connect 15 0 12 0;
#X connect 15 0 13 0;
#X connect 15 0 14 0;
#X connect 15 0 102 0;
#X connect 16 0 12 0;
#X connect 16 0 13 0;
#X connect 16 0 14 0;
#X connect 16 0 102 0;
#X connect 19 0 110 0;
#X connect 20 0 111 0;
#X connect 21 0 18 0;
#X connect 21 0 25 0;
#X connect 21 0 67 1;
#X connect 22 0 18 0;
#X connect 22 0 25 0;
#X connect 22 0 67 1;
#X connect 23 0 49 0;
#X connect 25 0 47 1;
#X connect 26 0 128 0;
#X connect 27 0 29 0;
#X connect 28 0 119 0;
#X connect 29 0 84 0;
#X connect 30 0 85 0;
#X connect 31 0 85 1;
#X connect 32 0 85 2;
#X connect 34 0 23 0;
#X connect 35 0 43 0;
#X connect 37 0 44 0;
#X connect 39 0 45 0;
#X connect 41 0 46 0;
#X connect 43 0 62 1;
#X connect 44 0 61 1;
#X connect 45 0 60 1;
#X connect 46 0 58 1;
#X connect 47 0 34 0;
#X connect 48 0 24 0;
#X connect 49 0 48 0;
#X connect 54 0 120 0;
#X connect 56 0 94 0;
#X connect 57 0 95 0;
#X connect 58 0 42 0;
#X connect 58 1 66 0;
#X connect 59 0 58 0;
#X connect 59 0 60 0;
#X connect 59 0 61 0;
#X connect 59 0 62 0;
#X connect 59 0 109 0;
#X connect 60 0 40 0;
#X connect 60 1 65 0;
#X connect 61 0 38 0;
#X connect 61 1 64 0;
#X connect 62 0 36 0;
#X connect 62 1 63 0;
#X connect 67 0 33 0;
#X connect 67 1 69 0;
#X connect 68 0 67 0;
#X connect 71 0 72 0;
#X connect 72 0 104 0;
#X connect 73 0 71 0;
#X connect 74 0 71 0;
#X connect 75 0 93 1;
#X connect 75 0 94 1;
#X connect 75 0 95 1;
#X connect 84 0 87 0;
#X connect 84 1 82 0;
#X connect 84 2 83 0;
#X connect 85 0 114 0;
#X connect 85 0 47 0;
#X connect 86 0 84 1;
#X connect 88 0 92 0;
#X connect 88 0 99 0;
#X connect 89 0 90 0;
#X connect 90 0 91 0;
#X connect 91 0 88 0;
#X connect 91 1 88 1;
#X connect 93 0 96 0;
#X connect 93 1 76 0;
#X connect 93 2 79 0;
#X connect 94 0 97 0;
#X connect 94 1 77 0;
#X connect 94 2 80 0;
#X connect 95 0 98 0;
#X connect 95 1 78 0;
#X connect 95 2 81 0;
#X connect 99 0 100 0;
#X connect 100 0 96 0;
#X connect 100 0 97 0;
#X connect 100 0 98 0;
#X connect 103 0 110 0;
#X connect 105 0 108 0;
#X connect 106 0 107 0;
#X connect 107 0 109 1;
#X connect 108 0 109 2;
#X connect 110 0 15 0;
#X connect 110 0 21 0;
#X connect 111 0 16 0;
#X connect 111 0 22 0;
#X connect 111 0 123 0;
#X connect 111 0 124 0;
#X connect 111 0 125 0;
#X connect 112 0 71 0;
#X connect 113 0 71 0;
#X connect 114 0 27 0;
#X connect 115 0 12 1;
#X connect 116 0 13 1;
#X connect 117 0 14 1;
#X connect 118 0 27 1;
#X connect 119 0 118 0;
#X connect 119 1 118 1;
#X connect 120 0 121 0;
#X connect 120 1 118 0;
#X connect 121 0 122 0;
#X connect 122 0 84 0;
#X connect 123 0 6 0;
#X connect 124 0 7 0;
#X connect 125 0 8 0;
#X connect 126 0 128 1;
#X connect 128 0 129 0;
#X connect 128 1 53 0;
#X connect 128 2 127 0;
#X connect 130 0 57 0;
#X connect 131 0 56 0;
#X connect 132 0 4 0;
#X coords 0 -1 1 1 15 15 1 10 10;
#X restore 290 117 pd Wii;
#N canvas 455 280 1423 529 joystick_ctrl 0;
#X obj 213 22 r left_x;
#X obj 272 22 r left_y;
#X obj 331 22 r right_x;
#X obj 396 22 r right_y;
#X obj 516 78 r 6_bt;
#X obj 575 78 r 7_bt;
#X obj 634 78 r 8_bt;
#X obj 131 9 loadbang;
#X msg 131 28 0;
#X obj 696 39 r w1;
#X obj 650 39 spigot;
#X obj 566 0 r c4;
#X msg 650 19 0;
#X obj 566 19 t b b;
#X msg 679 19 1;
#X obj 512 0 r flash;
#X obj 650 0 delay 20;
#X floatatom 878 319 5 0 0 0 - - -, f 5;
#X msg 878 353 1;
#X obj 878 335 t b f;
#X obj 1226 31 r 1_t;
#X obj 879 220 r triggernote;
#X obj 879 241 - 36;
#X obj 879 262 spigot;
#X text 912 245 kettle connection;
#X floatatom 833 336 3 1 2 2 layer layer -, f 3;
#X obj 878 301 bng 15 250 50 0 empty empty re-trigger 0 -6 0 8 -262144
-1 -262144;
#X obj 833 352 + 1;
#X text 213 6 knubbelachsen;
#X text 513 62 [ ];
#X text 579 62 ^;
#X text 699 62 O;
#X text 635 62 x;
#X obj 1226 96 s ms1;
#X obj 1294 94 s ms2;
#X obj 1226 75 tgl 15 0 empty empty empty 0 -6 0 8 -262144 -1 -1 0
1;
#X obj 1294 74 tgl 15 0 empty empty empty 0 -6 0 8 -262144 -1 -1 0
1;
#X obj 926 263 tgl 15 0 empty kettle kettle 20 3 0 8 -262144 -1 -262144
0 1;
#X floatatom 822 66 3 1 2 2 bank bank_01 -, f 3;
#X obj 822 89 - 1;
#X floatatom 905 68 3 1 2 2 bank bank_02 -, f 3;
#X obj 905 91 - 1;
#X obj 1294 30 r 1_t_2;
#X text 1225 8 moviescratch on/off;
#X text 515 295 [ ];
#X text 581 295 ^;
#X text 701 295 O;
#X text 637 295 x;
#X obj 518 311 r 6_bt_2;
#X obj 577 311 r 7_bt_2;
#X obj 636 311 r 8_bt_2;
#X obj 701 311 r 9_bt_2;
#X text 211 147 knubbelachsen2;
#X obj 985 35 r up;
#X obj 981 73 r down;
#X obj 947 54 r left;
#X obj 1011 54 r right;
#X text 1067 55 joyin;
#X obj 1065 108 r up_2;
#X obj 1059 154 r down_2;
#X obj 1012 131 r left_2;
#X obj 1101 132 r right_2;
#X text 1171 133 joy2;
#X obj 1137 219 r speed1;
#X obj 1077 306 spigot;
#X obj 1077 327 t b b;
#X obj 1077 384 + 1;
#X msg 1077 349 -1;
#X obj 1226 52 sel 1;
#X obj 1294 51 sel 1;
#X obj 1077 285 sel 1;
#X obj 1150 285 sel 1;
#X obj 1077 240 r 2_t;
#X obj 1150 241 r 4_t;
#X obj 1150 306 spigot;
#X obj 1150 326 t b b;
#X msg 1150 347 1;
#X obj 1077 418 s xspeed1;
#X obj 1114 348 int 1;
#X obj 1066 263 spigot;
#X obj 1142 262 spigot;
#X obj 1226 306 spigot;
#X obj 1226 327 t b b;
#X obj 1226 371 + 1;
#X msg 1226 349 -1;
#X obj 1226 285 sel 1;
#X obj 1299 285 sel 1;
#X obj 1299 306 spigot;
#X obj 1256 371 >= 0;
#X obj 1299 327 t b b;
#X msg 1299 347 1;
#X obj 1256 348 int 1;
#X obj 1215 263 spigot;
#X obj 1291 262 spigot;
#X text 1047 200 speed setting via joystick;
#X obj 1226 403 s xspeed2;
#X obj 1286 219 r speed2;
#X obj 1226 240 r 2_t_2;
#X obj 1299 241 r 4_t_2;
#X obj 213 335 r 3_t;
#X obj 283 357 tgl 15 0 empty empty empty 0 -6 0 8 -262144 -1 -1 0
1;
#X obj 213 356 tgl 15 0 empty empty empty 0 -6 0 8 -262144 -1 -1 0
1;
#X obj 427 329 tgl 15 0 empty empty empty 0 -6 0 8 -262144 -1 -1 0
1;
#X obj 427 346 sel 1;
#X obj 350 311 r 0_b;
#X obj 350 329 tgl 15 0 empty empty empty 0 -6 0 8 -262144 -1 -1 0
1;
#X obj 350 346 sel 1;
#X obj 350 364 s lonoff1;
#X obj 427 364 s lonoff2;
#N canvas 333 159 224 224 if_timer 0;
#X obj 41 12 inlet;
#X obj 99 19 sel 0;
#X msg 99 37 100;
#X obj 99 62 int 100;
#X obj 127 90 - 1;
#X obj 99 164 > 20;
#X obj 99 142 spigot;
#X obj 41 139 outlet;
#X obj 41 101 metro 100;
#X obj 41 78 spigot;
#X obj 41 34 t f f f;
#X obj 41 55 pipe 200;
#X msg 128 37 0;
#X floatatom 163 136 5 0 0 0 - - -, f 5;
#X obj 41 120 t b b;
#X connect 0 0 10 0;
#X connect 1 0 2 0;
#X connect 1 0 12 0;
#X connect 2 0 3 0;
#X connect 3 0 4 0;
#X connect 3 0 8 1;
#X connect 3 0 5 0;
#X connect 3 0 13 0;
#X connect 4 0 3 1;
#X connect 5 0 6 1;
#X connect 6 0 3 0;
#X connect 8 0 14 0;
#X connect 9 0 8 0;
#X connect 10 0 11 0;
#X connect 10 1 9 1;
#X connect 10 2 1 0;
#X connect 11 0 9 0;
#X connect 12 0 8 0;
#X connect 14 0 7 0;
#X connect 14 1 6 0;
#X restore 1042 219 pd if_timer 1;
#N canvas 333 159 224 224 if_timer 0;
#X obj 41 12 inlet;
#X obj 99 19 sel 0;
#X msg 99 37 100;
#X obj 99 62 int 100;
#X obj 127 90 - 1;
#X obj 99 164 > 20;
#X obj 99 142 spigot;
#X obj 41 139 outlet;
#X obj 41 101 metro 100;
#X obj 41 78 spigot;
#X obj 41 34 t f f f;
#X obj 41 55 pipe 200;
#X msg 128 37 0;
#X floatatom 163 136 5 0 0 0 - - -, f 5;
#X obj 41 120 t b b;
#X connect 0 0 10 0;
#X connect 1 0 2 0;
#X connect 1 0 12 0;
#X connect 2 0 3 0;
#X connect 3 0 4 0;
#X connect 3 0 8 1;
#X connect 3 0 5 0;
#X connect 3 0 13 0;
#X connect 4 0 3 1;
#X connect 5 0 6 1;
#X connect 6 0 3 0;
#X connect 8 0 14 0;
#X connect 9 0 8 0;
#X connect 10 0 11 0;
#X connect 10 1 9 1;
#X connect 10 2 1 0;
#X connect 11 0 9 0;
#X connect 12 0 8 0;
#X connect 14 0 7 0;
#X connect 14 1 6 0;
#X restore 1200 219 pd if_timer;
#N canvas 410 157 278 300 switchbank 0;
#X obj 17 9 inlet;
#X obj 53 33 r left;
#X obj 99 33 r right;
#X obj 17 76 spigot;
#X obj 17 33 == 0;
#X obj 17 54 s blockcs1;
#X text 91 54 block clip switching;
#X obj 65 76 spigot;
#X obj 45 160 int;
#X obj 17 94 spigot;
#X obj 65 95 spigot;
#X obj 17 113 t b b;
#X msg 47 137 -1;
#X msg 95 136 1;
#X obj 46 190 +;
#X obj 65 114 t b b;
#X obj 17 160 > 1;
#X obj 7 220 s xbank_01;
#X obj 114 95 r i;
#X floatatom 165 230 5 0 0 0 - - -, f 5;
#X obj 165 131 loadbang;
#X obj 78 161 < 10;
#X msg 165 154 13;
#X obj 170 99 r init_banks;
#X connect 0 0 4 0;
#X connect 0 0 3 1;
#X connect 0 0 7 1;
#X connect 1 0 3 0;
#X connect 2 0 7 0;
#X connect 3 0 9 0;
#X connect 4 0 5 0;
#X connect 7 0 10 0;
#X connect 8 0 14 1;
#X connect 8 0 16 0;
#X connect 8 0 17 0;
#X connect 8 0 19 0;
#X connect 8 0 21 0;
#X connect 9 0 11 0;
#X connect 10 0 15 0;
#X connect 11 0 8 0;
#X connect 11 1 12 0;
#X connect 12 0 14 0;
#X connect 13 0 14 0;
#X connect 14 0 8 1;
#X connect 15 0 8 0;
#X connect 15 1 13 0;
#X connect 16 0 9 1;
#X connect 18 0 10 1;
#X connect 18 0 9 1;
#X connect 20 0 22 0;
#X connect 21 0 10 1;
#X connect 22 0 21 1;
#X connect 23 0 21 1;
#X restore 213 378 pd switchbank 1;
#N canvas 464 50 263 292 switchbank 0;
#X obj 17 9 inlet;
#X obj 17 76 spigot;
#X obj 17 33 == 0;
#X text 91 54 block clip switching;
#X obj 65 76 spigot;
#X obj 45 160 int;
#X obj 17 94 spigot;
#X obj 65 95 spigot;
#X obj 17 113 t b b;
#X msg 47 137 -1;
#X msg 95 136 1;
#X obj 46 190 +;
#X obj 65 114 t b b;
#X obj 17 160 > 1;
#X obj 45 219 s xbank_02;
#X obj 53 33 r left_2;
#X obj 116 32 r right_2;
#X obj 17 54 s blockcs2;
#X obj 114 95 r i;
#X obj 175 141 loadbang;
#X obj 72 160 < 10;
#X msg 175 164 13;
#X obj 152 104 r init_banks;
#X connect 0 0 2 0;
#X connect 0 0 1 1;
#X connect 0 0 4 1;
#X connect 1 0 6 0;
#X connect 2 0 17 0;
#X connect 4 0 7 0;
#X connect 5 0 11 1;
#X connect 5 0 13 0;
#X connect 5 0 14 0;
#X connect 5 0 20 0;
#X connect 6 0 8 0;
#X connect 7 0 12 0;
#X connect 8 0 5 0;
#X connect 8 1 9 0;
#X connect 9 0 11 0;
#X connect 10 0 11 0;
#X connect 11 0 5 1;
#X connect 12 0 5 0;
#X connect 12 1 10 0;
#X connect 13 0 6 1;
#X connect 15 0 1 0;
#X connect 16 0 4 0;
#X connect 18 0 7 1;
#X connect 18 0 6 1;
#X connect 19 0 21 0;
#X connect 20 0 7 1;
#X connect 21 0 20 1;
#X connect 22 0 20 1;
#X restore 283 404 pd switchbank 2;
#X obj 1124 306 r i;
#X obj 1273 306 r i;
#X obj 516 119 sel 0;
#X obj 518 353 sel 0;
#X obj 518 337 s scale_env_2;
#X obj 283 336 r 3_t_2;
#X obj 427 311 r 5_b_2;
#X obj 213 87 spigot;
#X msg 131 55 1;
#X obj 46 34 tgl 15 0 empty empty empty 0 -6 0 8 -262144 -1 -1 0 1
;
#X obj 46 6 r midijoy;
#X obj 61 33 s mjoy;
#X obj 38 312 r 0_b_2;
#X obj 47 95 r 5_b;
#X obj 38 331 tgl 15 0 empty empty empty 0 -6 0 8 -262144 -1 -1 0 1
;
#X obj 47 113 tgl 15 0 empty empty empty 0 -6 0 8 -262144 -1 -1 0 1
;
#X obj 47 131 sel 1;
#X obj 38 349 sel 1;
#X obj 38 366 tgl 15 0 empty empty empty 0 -6 0 8 -262144 -1 -1 1 1
;
#X obj 47 148 tgl 15 0 empty empty empty 0 -6 0 8 -262144 -1 -1 1 1
;
#X obj 38 406 sel 0;
#X obj 47 189 sel 0;
#X obj 47 209 del 10;
#X obj 38 428 del 10;
#X msg 114 215 0;
#X msg 89 428 0;
#X obj 699 78 r 9_bt;
#X obj 1303 371 < 200;
#X obj 822 170 clipgrid2 1;
#X obj 822 192 s clip_1;
#X obj 905 191 s clip_2;
#X obj 272 86 spigot;
#X obj 365 87 spigot;
#X obj 833 414 s clip_1;
#X obj 878 439 s clip_2;
#X obj 833 382 gate 2 1;
#X msg 516 139 1;
#X msg 518 373 1;
#X msg 577 358 0;
#X msg 575 126 0;
#X obj 1106 384 > 1;
#X obj 1154 371 < 199;
#X obj 1137 406 t f;
#X obj 1290 400 t f;
#X obj 699 122 sel 1;
#X obj 699 99 change;
#X obj 636 333 change;
#X obj 213 44 expr $f1/255 * 360 - 180;
#X obj 365 44 expr $f1/255 * 360 - 180;
#X obj 272 63 expr $f1/255 * 360 - 180;
#X obj 905 170 clipgrid2 2;
#X text 103 98 joystick map;
#X obj 213 234 spigot;
#X obj 281 233 spigot;
#X obj 396 232 spigot;
#X obj 213 191 expr $f1/255 * 360 - 180;
#X obj 365 191 expr $f1/255 * 360 - 180;
#X obj 282 210 expr $f1/255 * 360 - 180;
#X obj 213 169 r left_x_2;
#X obj 282 169 r left_y_2;
#X obj 351 169 r right_x_2;
#X obj 426 169 r right_y_2;
#X obj 213 256 s 3Dx_2;
#X obj 281 256 s 3Dy_2;
#X obj 396 254 s 3Dz_2;
#X obj 213 109 s 3Dx_1;
#X obj 272 109 s 3Dy_1;
#X obj 365 109 s 3Dz_1;
#X obj 38 385 s xblock3D_2;
#X obj 57 167 s xblock3D_1;
#X obj 518 397 s scalefactor_2;
#X obj 516 162 s scalefactor_1;
#X obj 699 171 s output_model_1;
#X obj 701 404 sel 1;
#X obj 701 381 change;
#X obj 701 456 s output_model_2;
#X obj 634 101 change;
#X obj 634 208 s coord_effect;
#X obj 515 99 s scale_env_1;
#X obj 636 357 s flash;
#X obj 699 146 counter 1 3;
#X obj 701 430 counter 1 3;
#X connect 0 0 160 0;
#X connect 1 0 162 0;
#X connect 3 0 161 0;
#X connect 4 0 115 0;
#X connect 4 0 191 0;
#X connect 5 0 152 0;
#X connect 6 0 189 0;
#X connect 7 0 8 0;
#X connect 7 0 121 0;
#X connect 8 0 122 0;
#X connect 9 0 10 1;
#X connect 11 0 13 0;
#X connect 12 0 10 0;
#X connect 13 0 16 0;
#X connect 13 1 14 0;
#X connect 14 0 10 0;
#X connect 15 0 13 0;
#X connect 16 0 12 0;
#X connect 17 0 19 0;
#X connect 18 0 148 1;
#X connect 19 0 18 0;
#X connect 20 0 68 0;
#X connect 21 0 22 0;
#X connect 22 0 23 0;
#X connect 23 0 17 0;
#X connect 25 0 27 0;
#X connect 26 0 17 0;
#X connect 27 0 148 0;
#X connect 35 0 33 0;
#X connect 36 0 34 0;
#X connect 37 0 23 1;
#X connect 38 0 39 0;
#X connect 39 0 141 0;
#X connect 40 0 41 0;
#X connect 41 0 163 0;
#X connect 42 0 69 0;
#X connect 48 0 116 0;
#X connect 48 0 117 0;
#X connect 49 0 151 0;
#X connect 50 0 159 0;
#X connect 51 0 187 0;
#X connect 53 0 141 1;
#X connect 54 0 141 2;
#X connect 55 0 141 3;
#X connect 56 0 141 4;
#X connect 58 0 163 1;
#X connect 59 0 163 2;
#X connect 60 0 163 3;
#X connect 61 0 163 4;
#X connect 63 0 78 1;
#X connect 64 0 65 0;
#X connect 65 0 67 0;
#X connect 65 1 78 0;
#X connect 66 0 77 0;
#X connect 66 0 155 0;
#X connect 67 0 66 0;
#X connect 68 0 35 0;
#X connect 69 0 36 0;
#X connect 70 0 64 0;
#X connect 71 0 74 0;
#X connect 72 0 109 0;
#X connect 72 0 79 1;
#X connect 72 0 70 0;
#X connect 73 0 80 1;
#X connect 73 0 109 0;
#X connect 73 0 71 0;
#X connect 74 0 75 0;
#X connect 75 0 76 0;
#X connect 75 1 78 0;
#X connect 76 0 66 0;
#X connect 78 0 66 1;
#X connect 78 0 153 0;
#X connect 78 0 154 0;
#X connect 79 0 64 0;
#X connect 80 0 74 0;
#X connect 81 0 82 0;
#X connect 82 0 84 0;
#X connect 82 1 91 0;
#X connect 83 0 95 0;
#X connect 83 0 156 0;
#X connect 84 0 83 0;
#X connect 85 0 81 0;
#X connect 86 0 87 0;
#X connect 87 0 89 0;
#X connect 88 0 81 1;
#X connect 89 0 90 0;
#X connect 89 1 91 0;
#X connect 90 0 83 0;
#X connect 91 0 83 1;
#X connect 91 0 88 0;
#X connect 91 0 140 0;
#X connect 92 0 81 0;
#X connect 93 0 87 0;
#X connect 96 0 91 1;
#X connect 97 0 110 0;
#X connect 97 0 92 1;
#X connect 97 0 85 0;
#X connect 98 0 93 1;
#X connect 98 0 110 0;
#X connect 98 0 86 0;
#X connect 99 0 101 0;
#X connect 100 0 112 0;
#X connect 101 0 111 0;
#X connect 102 0 103 0;
#X connect 103 0 108 0;
#X connect 104 0 105 0;
#X connect 105 0 106 0;
#X connect 106 0 107 0;
#X connect 109 0 79 0;
#X connect 109 0 80 0;
#X connect 110 0 92 0;
#X connect 110 0 93 0;
#X connect 113 0 64 1;
#X connect 113 0 74 1;
#X connect 114 0 81 1;
#X connect 114 0 87 1;
#X connect 115 0 149 0;
#X connect 116 0 150 0;
#X connect 118 0 100 0;
#X connect 119 0 102 0;
#X connect 120 0 178 0;
#X connect 121 0 132 0;
#X connect 121 0 131 0;
#X connect 122 0 124 0;
#X connect 123 0 122 0;
#X connect 125 0 127 0;
#X connect 126 0 128 0;
#X connect 127 0 130 0;
#X connect 128 0 129 0;
#X connect 129 0 132 0;
#X connect 130 0 131 0;
#X connect 131 0 133 0;
#X connect 131 0 165 1;
#X connect 131 0 166 1;
#X connect 131 0 167 1;
#X connect 131 0 181 0;
#X connect 132 0 120 1;
#X connect 132 0 134 0;
#X connect 132 0 144 1;
#X connect 132 0 145 1;
#X connect 132 0 182 0;
#X connect 133 0 136 0;
#X connect 134 0 135 0;
#X connect 135 0 137 0;
#X connect 136 0 138 0;
#X connect 137 0 178 0;
#X connect 137 0 179 0;
#X connect 137 0 180 0;
#X connect 139 0 158 0;
#X connect 140 0 87 1;
#X connect 141 0 142 0;
#X connect 144 0 179 0;
#X connect 145 0 180 0;
#X connect 148 0 146 0;
#X connect 148 1 147 0;
#X connect 149 0 184 0;
#X connect 150 0 183 0;
#X connect 151 0 175 0;
#X connect 151 0 176 0;
#X connect 151 0 177 0;
#X connect 152 0 178 0;
#X connect 152 0 179 0;
#X connect 152 0 180 0;
#X connect 153 0 64 1;
#X connect 154 0 74 1;
#X connect 155 0 78 1;
#X connect 156 0 91 1;
#X connect 157 0 193 0;
#X connect 158 0 157 0;
#X connect 159 0 192 0;
#X connect 160 0 120 0;
#X connect 161 0 145 0;
#X connect 162 0 144 0;
#X connect 163 0 143 0;
#X connect 165 0 175 0;
#X connect 166 0 176 0;
#X connect 167 0 177 0;
#X connect 168 0 165 0;
#X connect 169 0 167 0;
#X connect 170 0 166 0;
#X connect 171 0 168 0;
#X connect 172 0 170 0;
#X connect 174 0 169 0;
#X connect 186 0 194 0;
#X connect 187 0 186 0;
#X connect 189 0 190 0;
#X connect 193 0 185 0;
#X connect 194 0 188 0;
#X coords 0 -1 1 1 85 16 1 100 100;
#X restore 92 118 pd joystick_ctrl;
#X obj 565 256 vradio 15 1 0 7 empty blend_mode empty 0 -8 0 10 -258113
-1 -1 4;
#X obj 333 120 nbx 1 14 0 2 0 1 wii_channel x_wii_channel channel 20
10 0 8 -257985 -1 -257985 1 256;
#X msg 25 92 0;
#X msg 25 72 1;
#X msg 25 52 2;
#X msg 25 34 3;
#X obj 617 508 nbx 4 12 -360 360 0 0 empty 3Dx empty 0 -8 0 8 -260097
-1 -1 0 256;
#X obj 654 508 nbx 4 12 -360 360 0 0 empty 3Dy empty 0 -8 0 8 -260097
-1 -1 0 256;
#X obj 691 508 nbx 4 12 -360 360 0 0 empty 3Dz empty 0 -8 0 8 -260097
-1 -1 0 256;
#N canvas 957 138 794 803 cubes 0;
#X obj 57 12 rotateXYZ 0 0 0;
#X obj 57 -167 inlet;
#X obj 57 53 scale 1 1 1;
#X floatatom 16 -47 5 0 0 0 - - -, f 5;
#X obj 134 -109 * -1;
#X obj 16 -126 loadbang;
#X msg 16 -95 1.5;
#X obj 57 -74 pix_texture;
#X obj 483 38 square 1;
#X obj 346 40 square 1;
#X obj 209 -41 rotateXYZ 0 180 0;
#X obj 209 -13 translateXYZ -2 0 0;
#X obj 346 -42 rotateXYZ 0 0 180;
#X obj 346 -14 translateXYZ -2 -2 0;
#X obj 483 -38 rotateXYZ 0 180 0;
#X obj 483 -10 translateXYZ -2 0 0;
#X obj 209 39 square 1;
#X obj 57 79 square 1;
#X obj 482 173 square 1;
#X obj 345 175 square 1;
#X obj 208 114 rotateXYZ 0 180 0;
#X obj 208 142 translateXYZ -2 0 0;
#X obj 345 113 rotateXYZ 0 0 180;
#X obj 345 141 translateXYZ -2 -2 0;
#X obj 482 117 rotateXYZ 0 180 0;
#X obj 482 145 translateXYZ -2 0 0;
#X obj 208 174 square 1;
#X obj 56 178 square 1;
#X obj 483 294 square 1;
#X obj 346 296 square 1;
#X obj 209 295 square 1;
#X obj 57 299 square 1;
#X obj 57 230 rotateXYZ 0 90 0;
#X obj 209 225 rotateXYZ 0 0 180;
#X obj 209 253 translateXYZ 0 -2 0;
#X obj 483 228 rotateXYZ 0 180 0;
#X obj 346 224 rotateXYZ 0 0 180;
#X obj 483 256 translateXYZ 0 2 0;
#X obj 346 252 translateXYZ 0 -2 -4;
#X obj 56 119 translateXYZ 0 0 2;
#X obj 483 426 square 1;
#X obj 346 428 square 1;
#X obj 209 427 square 1;
#X obj 57 431 square 1;
#X obj 209 367 rotateXYZ 0 0 180;
#X obj 209 395 translateXYZ 0 -2 0;
#X obj 483 370 rotateXYZ 0 180 0;
#X obj 346 366 rotateXYZ 0 0 180;
#X obj 483 398 translateXYZ 0 2 0;
#X obj 346 394 translateXYZ 0 -2 -4;
#X obj 57 372 rotateXYZ 90 0 0;
#X floatatom 214 -112 5 0 0 0 - - -, f 5;
#X obj 57 403 translateXYZ 0 -3 3;
#X obj 282 -146 loadbang;
#X obj 57 261 translateXYZ 1 0 3;
#X obj 57 -15 translateXYZ -1.5 -1.5 -1;
#X obj 482 545 square 1;
#X obj 345 547 square 1;
#X obj 208 546 square 1;
#X obj 56 550 square 1;
#X obj 208 486 rotateXYZ 90 0 0;
#X obj 345 485 rotateXYZ 90 0 0;
#X obj 482 489 rotateXYZ 90 0 0;
#X obj 56 491 rotateXYZ 90 0 0;
#X obj 208 515 translateXYZ 0 -1 1;
#X obj 345 513 translateXYZ 0 1 -1;
#X obj 482 517 translateXYZ 0 -1 1;
#X obj 56 522 translateXYZ 0 -1 1;
#X obj 541 38 spigot 1;
#X obj 539 173 spigot 1;
#X obj 540 293 spigot 1;
#X obj 540 424 spigot 1;
#X obj 586 -132 inlet;
#X obj 586 -101 > 0;
#X obj 614 -101 > 1;
#X obj 642 -100 > 2;
#X obj 671 -99 > 3;
#X msg 136 -146 rectangle 0 \, texunit 0;
#X connect 0 0 2 0;
#X connect 1 0 7 0;
#X connect 2 0 17 0;
#X connect 3 0 2 1;
#X connect 3 0 4 0;
#X connect 4 0 55 1;
#X connect 4 0 55 2;
#X connect 5 0 6 0;
#X connect 6 0 3 0;
#X connect 7 0 55 0;
#X connect 8 0 68 0;
#X connect 9 0 14 0;
#X connect 10 0 11 0;
#X connect 11 0 16 0;
#X connect 12 0 13 0;
#X connect 13 0 9 0;
#X connect 14 0 15 0;
#X connect 15 0 8 0;
#X connect 16 0 12 0;
#X connect 17 0 10 0;
#X connect 18 0 69 0;
#X connect 19 0 24 0;
#X connect 20 0 21 0;
#X connect 21 0 26 0;
#X connect 22 0 23 0;
#X connect 23 0 19 0;
#X connect 24 0 25 0;
#X connect 25 0 18 0;
#X connect 26 0 22 0;
#X connect 27 0 20 0;
#X connect 28 0 70 0;
#X connect 29 0 35 0;
#X connect 30 0 36 0;
#X connect 31 0 33 0;
#X connect 32 0 54 0;
#X connect 33 0 34 0;
#X connect 34 0 30 0;
#X connect 35 0 37 0;
#X connect 36 0 38 0;
#X connect 37 0 28 0;
#X connect 38 0 29 0;
#X connect 39 0 27 0;
#X connect 40 0 71 0;
#X connect 41 0 46 0;
#X connect 42 0 47 0;
#X connect 43 0 44 0;
#X connect 44 0 45 0;
#X connect 45 0 42 0;
#X connect 46 0 48 0;
#X connect 47 0 49 0;
#X connect 48 0 40 0;
#X connect 49 0 41 0;
#X connect 50 0 52 0;
#X connect 51 0 55 3;
#X connect 52 0 43 0;
#X connect 53 0 77 0;
#X connect 54 0 31 0;
#X connect 55 0 0 0;
#X connect 57 0 62 0;
#X connect 58 0 61 0;
#X connect 59 0 60 0;
#X connect 60 0 64 0;
#X connect 61 0 65 0;
#X connect 62 0 66 0;
#X connect 63 0 67 0;
#X connect 64 0 58 0;
#X connect 65 0 57 0;
#X connect 66 0 56 0;
#X connect 67 0 59 0;
#X connect 68 0 39 0;
#X connect 69 0 32 0;
#X connect 70 0 50 0;
#X connect 71 0 63 0;
#X connect 72 0 73 0;
#X connect 72 0 74 0;
#X connect 72 0 75 0;
#X connect 72 0 76 0;
#X connect 73 0 68 1;
#X connect 74 0 69 1;
#X connect 75 0 70 1;
#X connect 76 0 71 1;
#X connect 77 0 7 0;
#X restore 588 686 pd cubes;
#X obj 608 579 hsl 128 12 0 2 0 1 empty scalefactor scale -2 -8 0 9
-260097 -1 -260097 6350 1;
#X obj 565 580 scale;
#X obj 29 444 tgl 15 0 empty empty empty 17 7 0 10 -260097 -1 -1 0
1;
#X obj 80 444 tgl 15 0 empty empty empty 17 7 0 10 -260097 -1 -1 0
1;
#X obj 131 444 tgl 15 0 empty empty empty 17 7 0 10 -260097 -1 -1 0
1;
#X obj 617 636 hradio 15 1 0 3 empty output_model plane/cubes 0 -8
0 9 -260097 -1 -260097 0;
#N canvas 812 513 569 318 plane 0;
#X obj 31 14 inlet;
#X obj 31 238 rectangle 6.4 4.8;
#X obj 31 56 translateXYZ 0 0 0;
#X connect 0 0 2 0;
#X connect 2 0 1 0;
#X restore 565 661 pd plane;
#N canvas 535 353 627 296 lissajous 0;
#X msg 124 104 draw fill;
#X msg 124 81 draw point;
#X msg 124 124 draw tri;
#X msg 124 146 draw tristrip;
#X msg 123 169 draw trifan;
#X msg 123 190 draw quad;
#X obj 123 248 scopeXYZ~ 1024;
#X obj 276 129 *~ 10;
#X obj 299 151 *~ 10;
#X obj 124 54 select 1 2 3 4 5;
#X obj 124 15 inlet;
#X obj 278 15 inlet;
#X obj 31 144 rotateXYZ;
#X msg 82 116 135;
#X obj 61 81 loadbang;
#X obj 197 14 inlet;
#X obj 31 14 inlet;
#X obj 31 193 color 1 1 1 1;
#X obj 31 56 gemhead 77;
#X msg 53 116 0;
#X obj 290 237 rotateXYZ;
#X obj 339 184 r 3Dx_2;
#X obj 408 175 r 3Dy_2;
#X obj 415 209 r 3Dz_2;
#X msg 200 114 draw lines;
#X obj 289 193 *~ 10;
#X obj 346 16 r sincomp_1;
#X obj 431 16 r sincomp_2;
#X obj 516 17 r sincomp_3;
#X obj 347 63 osc~;
#X obj 430 62 osc~;
#X obj 517 63 osc~;
#X obj 348 40 / 4;
#X obj 427 40 / 4;
#X obj 518 39 / 4;
#X connect 0 0 6 0;
#X connect 1 0 6 0;
#X connect 2 0 6 0;
#X connect 3 0 6 0;
#X connect 4 0 6 0;
#X connect 5 0 6 0;
#X connect 6 0 20 0;
#X connect 7 0 6 1;
#X connect 8 0 6 2;
#X connect 9 0 1 0;
#X connect 9 1 0 0;
#X connect 9 2 2 0;
#X connect 9 3 3 0;
#X connect 9 4 4 0;
#X connect 9 5 5 0;
#X connect 10 0 9 0;
#X connect 11 0 7 1;
#X connect 11 0 8 1;
#X connect 11 0 25 1;
#X connect 12 0 17 0;
#X connect 13 0 12 3;
#X connect 14 0 13 0;
#X connect 14 0 19 0;
#X connect 15 0 12 3;
#X connect 16 0 18 0;
#X connect 17 0 6 0;
#X connect 18 0 12 0;
#X connect 19 0 18 0;
#X connect 21 0 20 1;
#X connect 22 0 20 2;
#X connect 23 0 20 3;
#X connect 24 0 6 0;
#X connect 25 0 6 3;
#X connect 26 0 32 0;
#X connect 27 0 33 0;
#X connect 28 0 34 0;
#X connect 29 0 7 0;
#X connect 30 0 8 0;
#X connect 31 0 25 0;
#X connect 32 0 29 0;
#X connect 33 0 30 0;
#X connect 34 0 31 0;
#X restore 873 583 pd lissajous;
#X obj 873 550 tgl 15 0 empty __lissajous empty 17 7 0 10 -4034 -1
-1 0 64;
#X obj 900 550 hradio 15 1 1 5 empty empty empty 0 -8 0 10 -4034 -1
-1 0;
#X obj 967 583 hsl 80 10 0 20 0 0 empty empty preamp 84 6 0 7 -4034
-1 -4034 0 1;
#X obj 930 568 hsl 80 10 0 360 0 0 empty empty rotation 84 6 0 7 -4034
-1 -4034 0 1;
#N canvas 1189 460 446 396 ringe 0;
#X obj 140 220 line;
#X obj 140 187 pack 0 0;
#X obj 155 92 delay 0;
#X obj 76 201 scale 1;
#X msg 155 121 0;
#X obj 140 33 spigot;
#X obj 37 10 inlet;
#X obj 76 160 spigot;
#X obj -1 117 loadbang;
#X msg 140 161 0;
#X obj 140 57 t b b b b b;
#X msg 243 53 1;
#X msg 243 74 0;
#X obj 311 86 r duration;
#X obj 292 15 inlet;
#X obj 199 188 f;
#X obj 211 92 f;
#X obj 76 300 color 1 1 1 1;
#X obj 76 274 translateXYZ 0 0 0.5;
#X obj 140 9 r retakt;
#X msg 180 121 1;
#X msg -1 159 draw line;
#X msg 153 350 9;
#X floatatom 225 283 5 0 0 0 - - -, f 5;
#X obj 37 54 gemhead 66;
#X obj 76 336 circle 5;
#X connect 0 0 3 1;
#X connect 1 0 0 0;
#X connect 2 0 4 0;
#X connect 2 0 11 0;
#X connect 3 0 18 0;
#X connect 4 0 7 1;
#X connect 5 0 10 0;
#X connect 6 0 5 1;
#X connect 6 0 24 0;
#X connect 7 0 3 0;
#X connect 8 0 21 0;
#X connect 8 0 22 0;
#X connect 9 0 1 0;
#X connect 10 0 9 0;
#X connect 10 1 2 0;
#X connect 10 2 20 0;
#X connect 10 3 15 0;
#X connect 10 4 12 0;
#X connect 10 4 16 0;
#X connect 11 0 5 1;
#X connect 12 0 5 1;
#X connect 13 0 16 1;
#X connect 14 0 15 1;
#X connect 15 0 0 0;
#X connect 16 0 1 1;
#X connect 16 0 2 1;
#X connect 17 0 25 0;
#X connect 18 0 17 0;
#X connect 19 0 5 0;
#X connect 20 0 7 1;
#X connect 21 0 25 0;
#X connect 23 0 25 1;
#X connect 24 0 7 0;
#X restore 770 582 pd ringe;
#X obj 770 554 tgl 15 0 empty __rings empty 17 7 0 10 -4034 -1 -1 0
1;
#X obj 823 555 nbx 2 14 -1e+37 1e+37 0 1 empty empty empty 0 -8 0 10
-4034 -1 -1 1 256;
#X obj 861 298 hradio 15 1 1 4 empty verteiler empty 0 -8 0 10 -4034
-1 -1 1;
#N canvas 461 564 876 306 gemwin 0;
#X obj 67 178 outlet;
#X obj 67 10 inlet;
#X obj 67 41 route create;
#X msg 67 70 set destroy;
#X msg 182 68 set create;
#X msg 131 133 create \, 1;
#X msg 183 101 destroy;
#N canvas 241 780 317 295 Gem.init 0;
#X obj 59 46 loadbang;
#X obj 171 260 outlet;
#X msg 104 103 color 0 0 0;
#X msg 2 210 FSAA \$1;
#X msg 2 184 0;
#X msg 31 184 2;
#X msg 60 184 4;
#X obj 59 65 t b b b b b;
#X msg 171 190 frame 30;
#X msg 213 220 reset;
#X msg 89 184 8;
#X msg 91 128 dimen 640 480;
#X connect 0 0 7 0;
#X connect 2 0 1 0;
#X connect 3 0 1 0;
#X connect 4 0 3 0;
#X connect 5 0 3 0;
#X connect 6 0 3 0;
#X connect 7 0 10 0;
#X connect 7 1 11 0;
#X connect 7 2 2 0;
#X connect 7 3 8 0;
#X connect 7 4 9 0;
#X connect 8 0 1 0;
#X connect 9 0 1 0;
#X connect 10 0 3 0;
#X connect 11 0 1 0;
#X restore 175 23 pd Gem.init;
#X obj 356 108 r fullscreen;
#X obj 130 194 gemhead;
#X obj 130 221 s gemhead;
#X obj 375 164 sel 1 0;
#X obj 356 137 t b f b;
#X msg 426 164 destroy;
#X obj 131 157 gemwin 25;
#X msg 375 194 border 0 \, offset 1920 0 \, dimen 1280 960 \, fullscreen
0;
#X msg 398 226 border 1 \, offset 0 0 \, dimen 640 480 \, fullscreen
0;
#X msg 277 48 dimen 800 600;
#X msg 277 24 dimen 640 480;
#X msg 526 81 lighting \$1;
#X obj 526 59 tgl 15 0 empty empty empty 17 7 0 10 -262144 -1 -1 0
1;
#X obj 544 53 r lighting;
#X msg 416 5 dimen 1024 768;
#X obj 525 111 s __lighting;
#X msg 276 72 dimen 1280 960;
#X msg 664 99 perspec \$1 \$2 \$3 \$4 \$5 \$6;
#N canvas 1296 505 544 500 perspec 0;
#X obj 90 428 outlet;
#X obj 268 273 t f f;
#X obj 268 298 * -1;
#X obj 90 268 t f f;
#X obj 90 293 * -1;
#X obj 90 367 pack -1 1 -1 1 1 20;
#X msg 90 389 set perspec \$1 \$2 \$3 \$4 \$5 \$6 \, bang;
#X msg 172 453 set perspec \, adddollar 1 \, adddollar 2 \, adddollar
3 \, adddollar 4 \, adddollar 5 \, adddollar 6;
#X floatatom 104 109 5 0.1 5 1 x_wideness - -, f 5;
#X floatatom 104 126 5 0.1 5 1 y_wideness - -, f 5;
#X floatatom 104 143 5 0 0 1 z_depth - -, f 5;
#X obj 360 196 select 1;
#X obj 405 219 t b f f;
#X obj 249 226 t b f f;
#X obj 204 203 select 0;
#X obj 360 218 f 20;
#X obj 204 224 f 1;
#X msg 204 246 set \$1;
#X msg 360 240 set \$1;
#X obj 134 216 t b f f;
#X obj 89 193 select 0;
#X obj 89 214 f 1;
#X msg 89 236 set \$1;
#X obj 328 97 loadbang;
#X obj 328 119 t b b;
#X obj 328 141 t b b b;
#X connect 1 0 2 0;
#X connect 1 1 5 3;
#X connect 2 0 5 2;
#X connect 3 0 4 0;
#X connect 3 1 5 1;
#X connect 4 0 5 0;
#X connect 5 0 6 0;
#X connect 6 0 0 0;
#X connect 7 0 0 0;
#X connect 8 0 20 0;
#X connect 9 0 14 0;
#X connect 10 0 11 0;
#X connect 11 0 15 0;
#X connect 11 1 12 0;
#X connect 12 0 5 0;
#X connect 12 1 5 5;
#X connect 12 2 15 1;
#X connect 13 0 5 0;
#X connect 13 1 1 0;
#X connect 13 2 16 1;
#X connect 14 0 16 0;
#X connect 14 1 13 0;
#X connect 15 0 18 0;
#X connect 16 0 17 0;
#X connect 17 0 9 0;
#X connect 18 0 10 0;
#X connect 19 1 3 0;
#X connect 19 2 21 1;
#X connect 20 0 21 0;
#X connect 20 1 19 0;
#X connect 21 0 22 0;
#X connect 22 0 8 0;
#X connect 23 0 24 0;
#X connect 24 0 25 0;
#X connect 24 1 7 0;
#X connect 25 0 21 0;
#X connect 25 1 16 0;
#X connect 25 2 15 0;
#X coords 0 -1 1 1 100 67 1 100 100;
#X restore 664 27 pd perspec;
#X connect 1 0 2 0;
#X connect 2 0 3 0;
#X connect 2 0 5 0;
#X connect 2 1 4 0;
#X connect 2 1 6 0;
#X connect 3 0 0 0;
#X connect 4 0 0 0;
#X connect 5 0 14 0;
#X connect 6 0 14 0;
#X connect 7 0 14 0;
#X connect 8 0 12 0;
#X connect 9 0 10 0;
#X connect 11 0 15 0;
#X connect 11 1 16 0;
#X connect 12 1 11 0;
#X connect 12 2 13 0;
#X connect 12 2 4 0;
#X connect 13 0 14 0;
#X connect 15 0 14 0;
#X connect 16 0 14 0;
#X connect 17 0 14 0;
#X connect 18 0 14 0;
#X connect 19 0 14 0;
#X connect 20 0 19 0;
#X connect 20 0 23 0;
#X connect 21 0 20 0;
#X connect 22 0 14 0;
#X connect 24 0 14 0;
#X connect 25 0 14 0;
#X connect 26 0 25 0;
#X restore 717 34 pd gemwin;
#X obj 1125 553 cellular/epic;
#X obj 1125 529 tgl 15 0 empty __cell_epic empty 17 7 0 10 -4034 -1
-1 0 64;
#X obj 1213 529 tgl 15 0 empty empty empty 17 7 0 10 -4034 -1 -1 0
1;
#X obj 1125 580 tgl 15 0 empty __cell_symbols empty 17 7 0 10 -4034
-1 -1 0 64;
#X obj 1179 580 tgl 15 0 empty __cell_formulae empty 17 7 0 10 -4034
-1 -1 0 64;
#X obj 1234 579 tgl 15 0 empty __cell_diagrams empty 17 7 0 10 -4034
-1 -1 0 64;
#X obj 605 491 tgl 15 1 xlonoff __xblock3D empty 0 -6 0 8 -260353 -1
-1 0 1;
#X obj 565 492 shunt;
#X obj 565 438 strobe;
#X obj 612 423 hradio 15 1 1 4 empty __strobe_mode mode 64 8 0 9 -4034
-1 -4034 0;
#X obj 613 438 nbx 3 14 -1e+37 1e+37 0 1 empty empty falloff_time 36
8 0 8 -4034 -1 -4034 71 256;
#X obj 769 639 tgl 15 1 empty __polyfig empty 0 -6 0 8 -4034 -1 -1
0 64;
#X msg 832 666 black;
#X msg 717 5 create;
#X symbolatom 375 189 55 0 0 0 - movie_1 -, f 55;
#X msg 580 270 alpha blend;
#X msg 580 285 add;
#X msg 580 300 multiply;
#X msg 580 316 hard light;
#X msg 580 330 overlay;
#X msg 580 346 diff;
#X msg 580 255 layer 1 only;
#N canvas 644 428 695 446 keyboard 0;
#X obj 294 37 key;
#X obj 294 77 == 32;
#X floatatom 342 79 5 0 0 0 - - -, f 5;
#X obj 198 58 keyname;
#X msg 244 147 0;
#X msg 264 147 1;
#X msg 284 147 2;
#X msg 304 147 3;
#X msg 324 147 4;
#X msg 344 147 5;
#X msg 364 147 6;
#X msg 385 147 7;
#X msg 244 183 \; blend_mode \$1;
#X obj 244 120 sel F1 F2 F3 F4 F5 F6 F7 F8;
#X msg 245 294 0;
#X msg 265 294 1;
#X msg 285 294 2;
#X msg 305 294 3;
#X msg 325 294 4;
#X msg 345 294 5;
#X msg 365 294 6;
#X msg 245 330 \; shader-effect \$1;
#X obj 248 243 sel q w e r t z u;
#X obj 468 136 timer;
#X obj 468 80 sel 60;
#X floatatom 468 166 5 0 0 0 - - -, f 5;
#X obj 468 108 alternate;
#X obj 468 199 s __minterval;
#X obj 439 239 sel + -;
#X obj 439 276 s __plus;
#X obj 462 309 s __minus;
#X obj 169 183 s flash;
#X obj 169 97 &;
#X obj 169 120 sel 1;
#X obj 71 116 spigot;
#X obj 71 222 s __space;
#X obj 383 239 spigot;
#X connect 0 0 1 0;
#X connect 0 0 2 0;
#X connect 0 0 24 0;
#X connect 1 0 32 1;
#X connect 1 0 34 1;
#X connect 3 0 32 0;
#X connect 3 0 34 0;
#X connect 3 0 36 1;
#X connect 3 1 13 0;
#X connect 4 0 12 0;
#X connect 5 0 12 0;
#X connect 6 0 12 0;
#X connect 7 0 12 0;
#X connect 8 0 12 0;
#X connect 9 0 12 0;
#X connect 10 0 12 0;
#X connect 11 0 12 0;
#X connect 13 0 4 0;
#X connect 13 1 5 0;
#X connect 13 2 6 0;
#X connect 13 3 7 0;
#X connect 13 4 8 0;
#X connect 13 5 9 0;
#X connect 13 6 10 0;
#X connect 13 7 11 0;
#X connect 13 8 22 0;
#X connect 14 0 21 0;
#X connect 15 0 21 0;
#X connect 16 0 21 0;
#X connect 17 0 21 0;
#X connect 18 0 21 0;
#X connect 19 0 21 0;
#X connect 20 0 21 0;
#X connect 22 0 14 0;
#X connect 22 1 15 0;
#X connect 22 2 16 0;
#X connect 22 3 17 0;
#X connect 22 4 18 0;
#X connect 22 5 19 0;
#X connect 22 6 20 0;
#X connect 22 7 36 0;
#X connect 23 0 25 0;
#X connect 24 0 26 0;
#X connect 25 0 27 0;
#X connect 26 0 23 0;
#X connect 26 1 23 1;
#X connect 28 0 29 0;
#X connect 28 1 30 0;
#X connect 32 0 33 0;
#X connect 33 0 31 0;
#X connect 34 0 35 0;
#X connect 36 0 28 0;
#X restore 208 118 pd keyboard;
#X obj 649 684 hradio 15 1 1 5 empty empty empty 0 -8 0 10 -260097
-1 -1 1;
#X obj 328 248 movieplayer 1;
#N canvas 609 165 913 797 effects 0;
#X obj 101 101 bng 15 250 50 0 bumm empty empty 0 -6 0 8 -258113 -1
-1;
#X obj 117 101 bng 15 250 50 0 zack empty empty 0 -6 0 8 -258113 -1
-1;
#X floatatom 101 145 5 0 0 0 - special_channel -, f 5;
#X floatatom 421 162 5 0 0 0 - - -, f 5;
#X obj 218 155 line 1;
#X obj 22 191 pack;
#X obj 22 210 s ctlist;
#X obj 22 118 r effect1;
#X obj 22 140 spigot;
#X obj 217 194 spigot;
#X obj 217 175 r effect2;
#X obj 333 198 spigot;
#X obj 333 152 r effect3;
#X obj 421 180 r effect4;
#X obj 421 200 spigot;
#X obj 101 128 tgl 15 0 empty empty empty 0 -6 0 8 -258113 -1 -1 0
1;
#X obj 118 128 tgl 15 0 empty empty empty 0 -6 0 8 -258113 -1 -1 0
1;
#X obj 136 128 tgl 15 0 empty empty empty 0 -6 0 8 -258113 -1 -1 0
1;
#X obj 154 128 tgl 15 0 empty empty empty 0 -6 0 8 -258113 -1 -1 0
1;
#X obj 81 16 inlet;
#X obj 118 16 inlet;
#X floatatom 232 275 5 0 0 0 - - -, f 5;
#X floatatom 287 276 5 0 0 0 - - -, f 5;
#X floatatom 150 146 5 0 0 0 - - -, f 5;
#X obj 216 117 pack \$1 250;
#X obj 333 176 r level;
#X obj 592 103 spigot;
#X obj 591 128 r takt;
#X obj 591 146 / 128;
#X obj 590 185 metro;
#X obj 521 143 loadbang;
#X obj 572 185 tgl 15 0 empty empty empty 0 -6 0 8 -262144 -1 -1 1
1;
#X obj 173 128 tgl 15 0 empty empty empty 0 -6 0 8 -258113 -1 -1 0
1;
#X obj 641 103 r effect5;
#X obj 101 171 select 1;
#X msg 101 188 0;
#X obj 118 214 select 1;
#X msg 118 231 0;
#X obj 135 256 select 1;
#X msg 135 273 0;
#X obj 154 295 select 1;
#X msg 154 312 0;
#X obj 173 332 select 1;
#X msg 173 349 0;
#X obj 591 165 * 4;
#X obj 216 79 t b b;
#X obj 619 165 r multiblubb;
#X obj 241 333 r pos_rand;
#X obj 241 371 r pos_ramp;
#X obj 241 408 r pos_env;
#X obj 241 447 r pos_count;
#X obj 241 484 r pos_sync;
#X obj 241 353 spigot;
#X obj 241 389 spigot;
#X obj 241 427 spigot;
#X obj 241 465 spigot;
#X obj 241 503 spigot;
#X obj 320 351 spigot;
#X obj 320 390 spigot;
#X obj 355 427 spigot;
#X obj 320 465 spigot;
#X obj 320 503 spigot;
#X obj 415 351 spigot;
#X obj 415 389 spigot;
#X obj 415 427 spigot;
#X obj 415 465 spigot;
#X obj 415 503 spigot;
#X obj 505 351 spigot;
#X obj 505 389 spigot;
#X obj 505 427 spigot;
#X obj 505 465 spigot;
#X obj 505 503 spigot;
#X obj 320 333 r scale_rand;
#X obj 320 370 r scale_ramp;
#X obj 321 410 r scale_env;
#X obj 320 447 r scale_count;
#X obj 320 484 r scale_sync;
#X obj 415 333 r rotz_rand;
#X obj 415 371 r rotz_ramp;
#X obj 415 408 r rotz_env;
#X obj 415 447 r rotz_count;
#X obj 415 484 r rotz_sync;
#X obj 505 333 r rot_rand;
#X obj 505 371 r rot_ramp;
#X obj 505 408 r rot_env;
#X obj 505 447 r rot_count;
#X obj 505 484 r rot_sync;
#X obj 22 59 spigot;
#X obj 69 59 spigot;
#X obj 117 59 == 0;
#X obj 22 40 select 1;
#X obj 22 19 r 8_bt;
#X msg 216 98 0;
#X obj 369 29 loadbang;
#X msg 369 50 64;
#X obj 369 72 s rampstart;
#X floatatom 152 102 5 0 100 0 - - -, f 5;
#X obj 149 59 r joy;
#X obj 624 334 r layer;
#X msg 632 426 2;
#X msg 662 425 5;
#X msg 694 425 9;
#X obj 624 354 - 1;
#X obj 624 372 * 16;
#X obj 665 392 t b f;
#X obj 632 444 +;
#X obj 663 444 +;
#X obj 694 444 +;
#X obj 723 443 +;
#X msg 723 424 13;
#X obj 341 611 spigot;
#X obj 741 548 spigot;
#X obj 774 522 r scale_env_2;
#X obj 741 500 r level;
#X obj 434 624 spigot;
#X obj 434 606 r rotz_sync_2;
#X obj 530 623 spigot;
#X obj 530 605 r rot_sync_2;
#X obj 241 626 spigot;
#X obj 241 606 r pos_sync_2;
#X obj 590 207 counter 1 128;
#X obj 421 139 counter 1 128;
#X floatatom 318 679 5 0 0 0 - - -, f 5;
#X obj 318 655 / 50;
#X obj 416 706 s 3Dz;
#X obj 416 676 - 360;
#X obj 416 651 * 6;
#X obj 741 603 s scalefactor_2;
#X obj 633 553 spigot;
#X obj 633 505 r level;
#X obj 318 756 s scalefactor;
#X obj 633 603 s scalefactor_1;
#X obj 396 619 tgl 15 0 empty empty empty 17 7 0 10 -262144 -1 -1 0
1;
#X obj 666 527 r scale_env_1;
#X obj 22 94 random 256;
#X obj 633 576 / 80;
#X obj 741 577 / 80;
#X obj 763 439 r scale_factor;
#X obj 358 679 &&;
#X obj 358 649 t b f;
#X obj 321 428 t f f;
#X obj 358 702 sel 0;
#X msg 358 725 1;
#X obj 451 760 tgl 15 0 empty empty empty 17 7 0 10 -262144 -1 -1 0
1;
#X obj 396 585 r scale_ramp;
#X obj 279 25 r duration;
#X obj 217 135 int 4;
#X obj 307 47 r volume;
#X obj 279 46 * 8;
#X obj 307 73 / 2;
#X connect 0 0 45 0;
#X connect 2 0 5 1;
#X connect 3 0 14 0;
#X connect 3 0 55 0;
#X connect 3 0 60 0;
#X connect 3 0 65 0;
#X connect 3 0 70 0;
#X connect 4 0 9 0;
#X connect 4 0 53 0;
#X connect 4 0 58 0;
#X connect 4 0 63 0;
#X connect 4 0 68 0;
#X connect 4 0 110 0;
#X connect 5 0 6 0;
#X connect 7 0 15 0;
#X connect 8 0 5 0;
#X connect 9 0 5 0;
#X connect 10 0 16 0;
#X connect 11 0 5 0;
#X connect 12 0 17 0;
#X connect 13 0 18 0;
#X connect 14 0 5 0;
#X connect 15 0 8 1;
#X connect 15 0 34 0;
#X connect 16 0 9 1;
#X connect 16 0 36 0;
#X connect 17 0 11 1;
#X connect 17 0 38 0;
#X connect 18 0 14 1;
#X connect 18 0 40 0;
#X connect 19 0 0 0;
#X connect 19 0 88 0;
#X connect 20 0 1 0;
#X connect 20 0 88 0;
#X connect 24 0 4 0;
#X connect 25 0 11 0;
#X connect 25 0 54 0;
#X connect 25 0 59 0;
#X connect 25 0 64 0;
#X connect 25 0 69 0;
#X connect 26 0 5 0;
#X connect 27 0 28 0;
#X connect 27 0 23 0;
#X connect 28 0 44 0;
#X connect 29 0 120 0;
#X connect 30 0 31 0;
#X connect 31 0 29 0;
#X connect 32 0 26 1;
#X connect 32 0 42 0;
#X connect 33 0 32 0;
#X connect 34 0 35 0;
#X connect 35 0 16 0;
#X connect 35 0 17 0;
#X connect 35 0 18 0;
#X connect 35 0 32 0;
#X connect 36 0 37 0;
#X connect 37 0 15 0;
#X connect 37 0 17 0;
#X connect 37 0 18 0;
#X connect 37 0 32 0;
#X connect 38 0 39 0;
#X connect 39 0 18 0;
#X connect 39 0 32 0;
#X connect 39 0 16 0;
#X connect 39 0 15 0;
#X connect 40 0 41 0;
#X connect 41 0 32 0;
#X connect 41 0 17 0;
#X connect 41 0 16 0;
#X connect 41 0 15 0;
#X connect 42 0 43 0;
#X connect 43 0 15 0;
#X connect 43 0 16 0;
#X connect 43 0 17 0;
#X connect 43 0 18 0;
#X connect 44 0 29 1;
#X connect 45 0 92 0;
#X connect 45 1 146 0;
#X connect 46 0 44 1;
#X connect 47 0 52 1;
#X connect 48 0 53 1;
#X connect 49 0 54 1;
#X connect 50 0 55 1;
#X connect 51 0 56 1;
#X connect 57 0 123 0;
#X connect 58 0 123 0;
#X connect 59 0 123 0;
#X connect 60 0 123 0;
#X connect 61 0 123 0;
#X connect 62 0 126 0;
#X connect 63 0 126 0;
#X connect 64 0 126 0;
#X connect 65 0 126 0;
#X connect 66 0 126 0;
#X connect 72 0 57 1;
#X connect 73 0 58 1;
#X connect 74 0 140 0;
#X connect 75 0 60 1;
#X connect 76 0 61 1;
#X connect 77 0 62 1;
#X connect 78 0 63 1;
#X connect 79 0 64 1;
#X connect 80 0 65 1;
#X connect 81 0 66 1;
#X connect 82 0 67 1;
#X connect 83 0 68 1;
#X connect 84 0 69 1;
#X connect 85 0 70 1;
#X connect 86 0 71 1;
#X connect 87 0 45 0;
#X connect 87 0 121 0;
#X connect 87 0 134 0;
#X connect 88 0 45 0;
#X connect 88 0 121 0;
#X connect 88 0 134 0;
#X connect 89 0 88 1;
#X connect 90 0 87 0;
#X connect 91 0 90 0;
#X connect 92 0 24 0;
#X connect 93 0 94 0;
#X connect 94 0 95 0;
#X connect 97 0 89 0;
#X connect 97 0 87 1;
#X connect 98 0 102 0;
#X connect 99 0 105 0;
#X connect 100 0 106 0;
#X connect 101 0 107 0;
#X connect 102 0 103 0;
#X connect 103 0 104 0;
#X connect 104 0 99 0;
#X connect 104 0 100 0;
#X connect 104 0 101 0;
#X connect 104 0 109 0;
#X connect 104 1 105 1;
#X connect 104 1 106 1;
#X connect 104 1 107 1;
#X connect 104 1 108 1;
#X connect 109 0 108 0;
#X connect 110 0 123 0;
#X connect 111 0 136 0;
#X connect 112 0 111 1;
#X connect 113 0 111 0;
#X connect 114 0 126 0;
#X connect 115 0 114 1;
#X connect 117 0 116 1;
#X connect 119 0 118 1;
#X connect 120 0 26 0;
#X connect 120 0 56 0;
#X connect 120 0 61 0;
#X connect 120 0 66 0;
#X connect 120 0 71 0;
#X connect 120 0 114 0;
#X connect 120 0 116 0;
#X connect 120 0 118 0;
#X connect 121 0 3 0;
#X connect 122 0 130 0;
#X connect 123 0 122 0;
#X connect 125 0 124 0;
#X connect 126 0 125 0;
#X connect 128 0 135 0;
#X connect 129 0 128 0;
#X connect 132 0 138 0;
#X connect 133 0 128 1;
#X connect 134 0 8 0;
#X connect 134 0 57 0;
#X connect 134 0 62 0;
#X connect 134 0 67 0;
#X connect 135 0 131 0;
#X connect 136 0 127 0;
#X connect 137 0 135 1;
#X connect 137 0 136 1;
#X connect 138 0 141 0;
#X connect 139 0 138 0;
#X connect 139 1 138 1;
#X connect 139 1 143 0;
#X connect 140 0 139 0;
#X connect 140 1 59 1;
#X connect 141 0 142 0;
#X connect 142 0 130 0;
#X connect 144 0 110 1;
#X connect 144 0 132 0;
#X connect 145 0 148 0;
#X connect 146 0 4 0;
#X connect 147 0 149 0;
#X connect 148 0 24 1;
#X connect 149 0 146 1;
#X connect 149 0 21 0;
#X coords 0 -1 1 1 90 60 1 100 100;
#X restore 61 163 pd effects;
#X obj 62 228 tgl 15 0 pos_rand empty empty 0 -6 0 8 -162280 -1 -1
0 1;
#X obj 80 228 tgl 15 0 pos_ramp empty empty 0 -6 0 8 -162280 -1 -1
0 1;
#X obj 98 228 tgl 15 0 pos_env empty empty 0 -6 0 8 -162280 -1 -1 0
1;
#X obj 116 228 tgl 15 0 pos_count empty empty 0 -6 0 8 -162280 -1 -1
0 1;
#X obj 134 228 tgl 15 0 pos_sync empty empty 0 -6 0 8 -162280 -1 -1
0 1;
#X obj 62 246 tgl 15 0 scale_rand empty empty 0 -6 0 8 -162280 -1 -1
0 1;
#X obj 80 246 tgl 15 0 scale_ramp empty empty 0 -6 0 8 -258113 -1 -1
0 1;
#X obj 98 246 tgl 15 0 scale_env autoscale empty 0 -6 0 8 -258113 -1
-1 0 1;
#X obj 116 246 tgl 15 0 scale_count empty empty 0 -6 0 8 -162280 -1
-1 0 1;
#X obj 134 246 tgl 15 0 scale_sync empty empty 0 -6 0 8 -258113 -1
-1 0 1;
#X text 155 226 pos;
#X text 154 265 rotz;
#X text 154 246 scale;
#X text 155 283 rot;
#X obj 62 264 tgl 15 0 rotz_rand empty empty 0 -6 0 8 -162280 -1 -1
0 1;
#X obj 80 264 tgl 15 0 rotz_ramp empty empty 0 -6 0 8 -258113 -1 -1
0 1;
#X obj 98 264 tgl 15 0 rotz_env empty empty 0 -6 0 8 -258113 -1 -1
0 1;
#X obj 116 264 tgl 15 0 rotz_count empty empty 0 -6 0 8 -162280 -1
-1 0 1;
#X obj 134 264 tgl 15 0 rotz_sync empty empty 0 -6 0 8 -258113 -1 -1
0 1;
#X obj 62 282 tgl 15 0 rot_rand empty empty 0 -6 0 8 -162280 -1 -1
0 1;
#X obj 80 282 tgl 15 0 rot_ramp empty empty 0 -6 0 8 -162280 -1 -1
0 1;
#X obj 98 282 tgl 15 0 rot_env empty empty 0 -6 0 8 -162280 -1 -1 0
1;
#X obj 116 282 tgl 15 0 rot_count empty empty 0 -6 0 8 -162280 -1 -1
0 1;
#X obj 134 282 tgl 15 0 rot_sync empty empty 0 -6 0 8 -162280 -1 -1
0 1;
#X text 64 300 random;
#X text 80 315 ramp;
#X text 97 330 level;
#X text 116 300 count;
#X text 136 315 loop;
#X text 60 92 bass;
#X text 59 70 low;
#X text 59 52 middle;
#X text 58 32 high;
#N canvas 261 175 789 404 verteiler 0;
#X obj 28 20 inlet;
#X obj 28 175 + 1;
#X obj 28 295 outlet;
#X obj 85 20 inlet;
#X obj 142 20 inlet;
#X obj 28 248 switch 4;
#X obj 381 31 r fx_blit_switch;
#X obj 381 63 tgl 15 0 empty empty empty 17 7 0 10 -262144 -1 -1 0
1;
#X obj 10 58 int;
#X obj 28 108 t f;
#X obj 381 88 sel 0;
#X obj 127 164 gemhead 60;
#X obj 127 201 pix_texture;
#X obj 201 164 r _spectex;
#X obj 127 127 == 2;
#X obj 194 264 pix_texture;
#X obj 194 236 pix_image /home/ub/grfx/whiteframe.png;
#X obj 284 191 gemhead 60;
#X obj 284 154 == 3;
#X msg 373 192 open /home/ub/grfx/whiteframe.png;
#X obj 341 155 sel 1;
#X text 390 155 weirdly this seems needed as image gets lost;
#X connect 0 0 8 1;
#X connect 0 0 9 0;
#X connect 0 0 14 0;
#X connect 0 0 18 0;
#X connect 1 0 5 0;
#X connect 3 0 5 1;
#X connect 4 0 5 2;
#X connect 5 0 2 0;
#X connect 6 0 7 0;
#X connect 7 0 10 0;
#X connect 8 0 9 0;
#X connect 9 0 1 0;
#X connect 10 0 8 0;
#X connect 10 1 9 0;
#X connect 11 0 12 0;
#X connect 12 0 5 3;
#X connect 13 0 12 1;
#X connect 14 0 11 0;
#X connect 15 0 5 4;
#X connect 16 0 15 0;
#X connect 17 0 16 0;
#X connect 18 0 17 0;
#X connect 18 0 20 0;
#X connect 19 0 16 0;
#X connect 20 0 19 0;
#X restore 768 295 pd verteiler;
#X obj 424 403 hradio 15 1 1 5 empty output_model_1 empty 0 -8 0 8
-260097 -1 -260097 1;
#X obj 867 404 hradio 15 1 1 5 empty output_model_2 empty 0 -8 0 8
-4034 -1 -4034 1;
#X obj 327 425 hradio 15 1 1 5 empty empty empty 0 -8 0 10 -260097
-1 -1 3;
#X obj 767 425 hradio 15 1 1 5 empty empty empty 0 -8 0 10 -4034 -1
-1 2;
#X obj 1125 346 tgl 15 0 empty empty empty 17 7 0 10 -4034 -1 -1 0
1;
#X obj 1176 346 tgl 15 0 empty empty empty 17 7 0 10 -4034 -1 -1 0
1;
#X obj 1227 346 tgl 15 0 empty empty empty 17 7 0 10 -4034 -1 -1 0
1;
#N canvas 170 251 587 183 autorotate 0;
#X obj 90 85 hsl 128 12 0 360 0 0 empty empty empty -2 -8 0 10 -262144
-1 -1 0 1;
#X obj 230 85 hsl 128 12 0 360 0 0 empty empty empty -2 -8 0 10 -262144
-1 -1 0 1;
#X obj 370 85 hsl 128 12 0 360 0 0 empty empty empty -2 -8 0 10 -262144
-1 -1 0 1;
#X obj 87 28 inlet;
#X obj 227 28 inlet;
#X obj 367 28 inlet;
#X obj 87 109 s 3Dx_2;
#X obj 227 109 s 3Dy_2;
#X obj 367 109 s 3Dz_2;
#X obj 87 57 autorotate;
#X obj 227 57 autorotate;
#X obj 367 57 autorotate;
#X connect 0 0 6 0;
#X connect 1 0 7 0;
#X connect 2 0 8 0;
#X connect 3 0 9 0;
#X connect 4 0 10 0;
#X connect 5 0 11 0;
#X connect 9 0 0 0;
#X connect 10 0 1 0;
#X connect 11 0 2 0;
#X restore 1125 369 pd autorotate 2;
#N canvas 173 256 587 183 autorotate 0;
#X obj 90 85 hsl 128 12 0 360 0 0 empty empty empty -2 -8 0 10 -262144
-1 -1 0 1;
#X obj 230 85 hsl 128 12 0 360 0 0 empty empty empty -2 -8 0 10 -262144
-1 -1 0 1;
#X obj 370 85 hsl 128 12 0 360 0 0 empty empty empty -2 -8 0 10 -262144
-1 -1 0 1;
#X obj 87 28 inlet;
#X obj 227 28 inlet;
#X obj 367 28 inlet;
#X obj 87 114 s 3Dx_1;
#X obj 227 114 s 3Dy_1;
#X obj 367 113 s 3Dz_1;
#X obj 87 57 autorotate;
#X obj 227 57 autorotate;
#X obj 367 57 autorotate;
#X connect 0 0 6 0;
#X connect 1 0 7 0;
#X connect 2 0 8 0;
#X connect 3 0 9 0;
#X connect 4 0 10 0;
#X connect 5 0 11 0;
#X connect 9 0 0 0;
#X connect 10 0 1 0;
#X connect 11 0 2 0;
#X restore 29 459 pd autorotate 1;
#N canvas 515 659 266 348 autoblend 0;
#X obj 149 31 inlet;
#X msg 66 233 2;
#X msg 98 233 4;
#X msg 161 233 3;
#X msg 129 233 5;
#X obj 66 30 r bonkbonk;
#X obj 98 168 del 40;
#X obj 129 187 del 80;
#X obj 161 209 del 80;
#X obj 66 289 s blend_mode;
#X obj 66 95 spigot;
#X obj 10 29 inlet;
#X obj 66 132 countfilter;
#X obj 10 92 sel 0;
#X msg 10 136 0;
#X obj 10 55 t f f;
#X connect 0 0 12 1;
#X connect 1 0 9 0;
#X connect 2 0 9 0;
#X connect 3 0 9 0;
#X connect 4 0 9 0;
#X connect 5 0 10 0;
#X connect 6 0 2 0;
#X connect 6 0 7 0;
#X connect 7 0 4 0;
#X connect 7 0 8 0;
#X connect 8 0 3 0;
#X connect 10 0 12 0;
#X connect 11 0 15 0;
#X connect 12 0 1 0;
#X connect 12 0 6 0;
#X connect 13 0 14 0;
#X connect 14 0 9 0;
#X connect 15 0 13 0;
#X connect 15 1 10 1;
#X restore 29 390 pd autoblend;
#X obj 29 375 tgl 15 0 empty __autoblend_01 empty 0 -6 0 8 -260097
-1 -1 0 64;
#X obj 110 378 nbx 4 12 -360 360 0 0 empty empty empty 0 -8 0 8 -260097
-1 -1 0 256;
#X obj 565 637 shunt 3;
#N canvas 817 281 450 300 sphere 0;
#X obj 21 16 inlet;
#X obj 21 118 rotateXYZ;
#X floatatom 111 87 5 0 0 0 - - -, f 5;
#X floatatom 38 189 5 0 0 0 - - -, f 5;
#X obj 21 85 pix_texture;
#X floatatom 157 86 5 0 0 0 - - -, f 5;
#X obj 21 52 pix_set 512 512;
#X msg 94 11 rectangle 0;
#X obj 21 230 sphere 2.5;
#X floatatom 78 207 5 0 0 0 - - -, f 5;
#X msg 78 188 32;
#X obj 78 170 loadbang;
#X obj 21 144 translateXYZ 0 0 -0.5;
#X connect 0 0 6 0;
#X connect 1 0 12 0;
#X connect 2 0 1 2;
#X connect 3 0 8 1;
#X connect 4 0 1 0;
#X connect 5 0 1 1;
#X connect 6 0 4 0;
#X connect 7 0 4 0;
#X connect 9 0 8 2;
#X connect 10 0 9 0;
#X connect 11 0 10 0;
#X connect 12 0 8 0;
#X restore 611 709 pd sphere;
#X obj 565 379 hradio 15 1 1 7 empty shader-effect empty 0 -8 0 10
-258113 -1 -1 2;
#X obj 614 362 tgl 15 1 empty empty empty 17 7 0 10 -258113 -1 -1 0
1;
#X obj 29 496 tgl 15 0 empty __autohop_01 empty 0 -6 0 8 -260097 -1
-1 0 64;
#X obj 1125 398 tgl 15 0 empty empty empty 0 -6 0 8 -4034 -1 -1 0 1
;
#X obj 110 497 nbx 4 12 -360 360 0 0 empty empty empty 0 -8 0 8 -260097
-1 -1 0 256;
#X obj 1206 398 nbx 4 12 -360 360 0 0 empty empty empty 0 -8 0 8 -4034
-1 -1 0 256;
#N canvas 587 270 450 300 flash 0;
#X obj 151 16 inlet;
#X obj 112 115 spigot;
#X obj 158 115 spigot;
#X obj 204 115 spigot;
#X obj 88 73 r flash;
#X obj 158 187 s lissajous;
#X obj 151 73 == 1;
#X obj 197 74 == 2;
#X obj 243 74 == 3;
#X text 234 227 number of images;
#X obj 49 226 outlet;
#X obj 74 40 r __space;
#N canvas 773 450 884 511 flashimages 0;
#X obj 148 19 inlet;
#X obj 380 290 pix_buffer flashimages;
#X obj 8 183 pix_buffer_read flashimages;
#X obj 201 98 + 1;
#X obj 171 98 i 0;
#X obj 231 98 mod;
#X obj 194 141 i 0;
#X obj 104 96 del 250;
#X msg 8 100 1;
#X msg 104 123 0;
#X obj 106 32 bng 15 250 50 0 empty empty empty 17 7 0 10 -262144 -1
-1;
#X msg 380 220 bang;
#X floatatom 380 341 5 0 0 0 - - -, f 5;
#X obj 352 318 - 1;
#X obj 8 222 pix_texture;
#X obj 8 143 gemhead 93;
#X obj 127 223 pix_draw;
#X text 124 244 then must fill the screen;
#X obj 148 58 t f b b;
#X obj 209 39 sel 1;
#X obj 194 160 + 1;
#X obj 8 289 rectangle 6 4;
#X obj 18 29 loadbang;
#X msg 18 54 0;
#X obj 380 261 cellular/load_textures images 55;
#X connect 0 0 10 0;
#X connect 0 0 15 0;
#X connect 0 0 19 0;
#X connect 1 0 12 0;
#X connect 1 0 13 0;
#X connect 2 0 14 0;
#X connect 3 0 5 0;
#X connect 4 0 3 0;
#X connect 4 0 6 1;
#X connect 5 0 4 1;
#X connect 6 0 20 0;
#X connect 7 0 9 0;
#X connect 11 0 24 0;
#X connect 13 0 5 1;
#X connect 14 0 21 0;
#X connect 15 0 2 0;
#X connect 18 1 4 0;
#X connect 18 2 6 0;
#X connect 19 0 18 0;
#X connect 20 0 2 1;
#X connect 22 0 23 0;
#X connect 23 0 15 0;
#X connect 24 0 1 0;
#X restore 112 225 pd flashimages 55;
#X connect 0 0 6 0;
#X connect 0 0 7 0;
#X connect 0 0 8 0;
#X connect 1 0 12 0;
#X connect 1 0 10 0;
#X connect 2 0 5 0;
#X connect 2 0 10 0;
#X connect 3 0 10 0;
#X connect 4 0 2 0;
#X connect 4 0 3 0;
#X connect 6 0 1 1;
#X connect 7 0 2 1;
#X connect 8 0 3 1;
#X connect 11 0 1 0;
#X restore 1012 429 pd flash;
#X obj 1012 414 hradio 15 1 0 4 empty empty empty 0 -8 0 8 -4034 -1
-4034 0;
#N canvas 266 290 265 300 autohop 0;
#X obj 25 40 r bonkbonk;
#X obj 25 140 random 256;
#X obj 25 66 spigot;
#X obj 58 12 inlet;
#X obj 25 252 s hop1;
#X obj 147 13 inlet;
#X obj 25 173 / 256;
#X obj 25 113 countfilter;
#X connect 0 0 2 0;
#X connect 1 0 6 0;
#X connect 2 0 7 0;
#X connect 3 0 2 1;
#X connect 5 0 7 1;
#X connect 6 0 4 0;
#X connect 7 0 1 0;
#X restore 29 511 pd autohop 1;
#N canvas 59 289 265 300 autohop 0;
#X obj 25 40 r bonkbonk;
#X obj 25 161 random 256;
#X obj 25 66 spigot;
#X obj 58 12 inlet;
#X obj 147 13 inlet;
#X obj 25 195 / 256;
#X obj 25 252 s hop2;
#X obj 25 113 countfilter;
#X connect 0 0 2 0;
#X connect 1 0 5 0;
#X connect 2 0 7 0;
#X connect 3 0 2 1;
#X connect 4 0 7 1;
#X connect 5 0 6 0;
#X connect 7 0 1 0;
#X restore 1125 421 pd autohop 1;
#X obj 29 546 tgl 15 0 empty __autojump_01 empty 0 -6 0 8 -260097 -1
-1 0 64;
#X obj 117 546 nbx 4 12 -360 360 0 0 empty empty empty 0 -8 0 8 -260097
-1 -1 0 256;
#N canvas 281 288 265 300 autojump 0;
#X obj 25 40 r bonkbonk;
#X obj 25 66 spigot;
#X obj 58 12 inlet;
#X obj 147 13 inlet;
#X obj 25 211 line;
#X obj 25 136 t b b;
#X obj 25 261 s yshift1;
#X msg 25 184 0 \$1;
#X obj 71 137 r duration;
#X obj 25 163 f 100;
#X obj 155 145 r volume;
#X obj 155 168 / 100;
#X obj 65 163 f 1;
#X obj 25 237 *;
#X obj 25 100 countfilter;
#X connect 0 0 1 0;
#X connect 1 0 14 0;
#X connect 2 0 1 1;
#X connect 3 0 14 1;
#X connect 4 0 13 0;
#X connect 4 0 13 1;
#X connect 5 0 9 0;
#X connect 5 1 12 0;
#X connect 7 0 4 0;
#X connect 8 0 9 1;
#X connect 9 0 7 0;
#X connect 10 0 11 0;
#X connect 11 0 12 1;
#X connect 12 0 4 0;
#X connect 13 0 6 0;
#X connect 14 0 5 0;
#X restore 29 561 pd autojump 1;
#X obj 1124 446 tgl 15 0 empty empty empty 0 -6 0 8 -4034 -1 -1 0 1
;
#X obj 1212 447 nbx 4 12 -360 360 0 0 empty empty empty 0 -8 0 8 -4034
-1 -1 0 256;
#N canvas 292 361 265 300 autojump 0;
#X obj 25 40 r bonkbonk;
#X obj 25 66 spigot;
#X obj 58 12 inlet;
#X obj 147 13 inlet;
#X obj 25 211 line;
#X obj 25 136 t b b;
#X msg 25 184 0 \$1;
#X obj 71 137 r duration;
#X obj 25 163 f 100;
#X obj 155 145 r volume;
#X obj 155 168 / 100;
#X obj 65 163 f 1;
#X obj 25 237 *;
#X obj 25 261 s yshift2;
#X obj 25 100 countfilter;
#X connect 0 0 1 0;
#X connect 1 0 14 0;
#X connect 2 0 1 1;
#X connect 3 0 14 1;
#X connect 4 0 12 0;
#X connect 4 0 12 1;
#X connect 5 0 8 0;
#X connect 5 1 11 0;
#X connect 6 0 4 0;
#X connect 7 0 8 1;
#X connect 8 0 6 0;
#X connect 9 0 10 0;
#X connect 10 0 11 1;
#X connect 11 0 4 0;
#X connect 12 0 13 0;
#X connect 14 0 5 0;
#X restore 1124 468 pd autojump 2;
#X obj 330 306 hsl 128 12 0 2 0 1 empty empty empty -2 -8 0 9 -260097
-1 -260097 5800 0;
#X obj 770 337 hsl 128 12 0 2 0 1 empty empty empty -2 -8 0 9 -4034
-1 -260097 6500 0;
#X obj 330 291 hsl 128 12 0 2 0 1 empty empty empty -2 -8 0 9 -260097
-1 -260097 6300 0;
#X obj 770 322 hsl 128 12 0 2 0 1 empty empty empty -2 -8 0 9 -4034
-1 -260097 6000 0;
#X text 119 510 jump frame;
#X text 125 561 jump space;
#X obj 1125 610 cellular/sprites;
#X obj 290 139 tgl 15 0 empty empty connected 17 7 0 8 -257985 -1 -257985
0 1;
#X obj 329 156 nbx 1 14 1 2 0 1 empty empty mode 20 10 0 8 -257985
-1 -257985 1 256;
#X msg 290 64 connect;
#X msg 290 87 disconnect;
#X obj 328 578 wavesphere;
#X msg 407 578 red;
#X obj 328 554 tgl 15 1 empty __wavesphere empty 17 7 0 10 -260097
-1 -1 0 64;
#X obj 350 554 tgl 15 0 empty empty empty 17 7 0 10 -260097 -1 -1 0
1;
#X obj 328 678 tgl 15 1 empty __waveshards empty 17 7 0 10 -260097
-1 -1 0 64;
#X obj 380 643 tgl 15 0 empty empty autorotate 17 7 0 10 -260097 -1
-260097 0 1;
#X obj 372 554 tgl 15 0 empty empty autorotate 17 7 0 10 -260097 -1
-260097 0 1;
#X obj 328 659 hradio 15 1 0 3 empty empty texture 0 -8 0 10 -260097
-1 -260097 0;
#X obj 380 658 tgl 15 0 empty empty XY/Z 17 7 0 10 -260097 -1 -260097
0 1;
#X obj 425 658 tgl 15 0 empty empty object 17 7 0 10 -260097 -1 -260097
0 1;
#X obj 330 633 hsl 200 10 1 20000 1 1 empty empty filter -30 4 0 7
-260097 -1 -260097 4600 1;
#X obj 464 646 hsl 66 10 0 30 0 1 empty empty empty -2 -8 0 10 -260097
-1 -1 1100 1;
#X obj 328 693 waveshards;
#X msg 406 693 red;
#X obj 328 498 quoobrain;
#X obj 328 473 tgl 15 1 empty empty empty 17 7 0 10 -260097 -1 -1 0
1;
#X obj 368 478 tgl 15 0 empty empty autoscale 17 7 0 10 -260097 -1
-260097 0 1;
#X obj 348 465 tgl 15 0 empty empty autorotate 17 7 0 10 -260097 -1
-260097 0 1;
#X obj 769 666 polyfig;
#X msg 611 453 red;
#X obj 584 457 bng 15 250 50 0 empty empty empty 17 7 0 10 -258113
-1 -1;
#X obj 240 404 figures;
#X obj 240 383 tgl 15 1 empty empty empty 0 -6 0 8 -260097 -1 -1 0
1;
#N canvas 727 444 450 300 tapspeed 0;
#X obj 132 63 r __minterval;
#X obj 4 62 r __mov_01_frames;
#X obj 132 147 /;
#X obj 132 93 t b f;
#X floatatom 132 206 8 0 0 0 - - -, f 8;
#X obj 132 257 s xspeed1;
#X obj 132 177 * 1000;
#X obj 132 232 / 1;
#X floatatom 283 100 5 1 16 0 - - -, f 5;
#X obj 278 17 loadbang;
#X msg 283 49 1;
#X obj 283 134 t b f;
#X obj 132 121 f;
#X obj 357 49 r __plus;
#X obj 283 75 i;
#X obj 357 102 +;
#X msg 357 76 1;
#X obj 373 151 r __minus;
#X msg 373 179 -1;
#X obj 373 206 +;
#X connect 0 0 3 0;
#X connect 1 0 12 1;
#X connect 2 0 6 0;
#X connect 3 0 12 0;
#X connect 3 1 2 1;
#X connect 4 0 7 0;
#X connect 6 0 4 0;
#X connect 7 0 5 0;
#X connect 8 0 11 0;
#X connect 9 0 10 0;
#X connect 10 0 14 0;
#X connect 11 0 7 0;
#X connect 11 1 7 1;
#X connect 12 0 2 0;
#X connect 13 0 16 0;
#X connect 14 0 8 0;
#X connect 14 0 15 1;
#X connect 14 0 19 1;
#X connect 15 0 14 0;
#X connect 16 0 15 0;
#X connect 17 0 18 0;
#X connect 18 0 19 0;
#X connect 19 0 14 0;
#X coords 0 -1 1 1 120 20 1 200 100;
#X restore 29 595 pd tapspeed;
#X obj 328 325 glsl_contrast 3;
#X obj 1124 637 tgl 15 0 empty __chemoflock empty 17 7 0 10 -4034 -1
-1 0 64;
#X obj 1124 666 cellular/chemoflock;
#X obj 541 379 tgl 15 1 empty __blending_onoff empty 17 7 0 10 -258113
-1 -1 1 1;
#X obj 406 499 hsl 120 10 0.1 5 0 1 empty empty empty -2 -8 0 10 -260097
-1 -1 6000 1;
#X obj 792 639 tgl 15 1 empty empty empty 0 -6 0 8 -4034 -1 -1 0 1
;
#X floatatom 1217 37 5 0 0 0 - - -, f 5;
#N canvas 712 240 383 288 fps 0;
#X obj 22 62 realtime;
#X obj 22 41 t b b;
#X obj 22 19 gemhead;
#X obj 22 197 outlet;
#X msg 22 84 1000 \$1;
#X obj 22 105 /;
#X obj 22 126 + 0.5;
#X obj 22 174 i;
#X floatatom 172 101 5 0 0 0 - - -, f 5;
#X msg 172 155 \; fps_recv color \$1 -1 0;
#X obj 22 152 average 3;
#X connect 0 0 4 0;
#X connect 1 0 0 0;
#X connect 1 1 0 1;
#X connect 2 0 1 0;
#X connect 4 0 5 0;
#X connect 5 0 6 0;
#X connect 6 0 10 0;
#X connect 7 0 3 0;
#X connect 8 0 9 0;
#X connect 10 0 7 0;
#X restore 1217 17 pd fps;
#X obj 1200 19 vsl 10 100 0 50 0 0 empty fps_recv fps 0 -9 0 10 -143491
-1 -262144 0 1;
#X text 1210 89 - 10;
#X text 1209 59 - 25;
#N canvas 939 76 613 312 receiver 0;
#X obj 336 74 route movie_1 movie_2;
#X obj 336 135 s movie_1 \$1;
#X obj 429 135 s movie_2 \$1;
#X obj 13 40 netreceive 3000 1;
#X obj 336 41 netreceive 3001 1;
#X obj 336 109 symbol;
#X obj 429 109 symbol;
#N canvas 760 211 698 511 joystick2 0;
#X obj 463 348 bng 20 250 50 0 6_b_2 empty 6 0 -6 0 10 -262144 -1 -1
;
#X obj 215 315 bng 15 250 50 0 0_b_2 empty empty 0 -6 0 8 -262144 -1
-1;
#X obj 91 250 bng 15 250 50 0 1_b_2 empty empty 0 -6 0 8 -262144 -1
-1;
#X obj 91 265 bng 15 250 50 0 2_b_2 empty empty 0 -6 0 8 -262144 -1
-1;
#X obj 394 245 bng 15 250 50 0 3_b_2 empty empty 0 -6 0 8 -262144 -1
-1;
#X obj 134 61 route abs key ff;
#X obj 587 37 print abs:;
#X obj 587 58 print key:;
#X obj 587 81 print ff:;
#X obj 394 260 bng 15 250 50 0 4_b_2 empty empty 0 -6 0 8 -262144 -1
-1;
#X obj 302 314 bng 15 250 50 0 5_b_2 empty empty 0 -6 0 8 -262144 -1
-1;
#X obj 491 301 bng 20 250 50 0 7_b_2 empty 7 -12 0 0 10 -262144 -1
-1;
#X obj 518 411 bng 20 250 50 0 8_b_2 empty 8 0 -6 0 8 -262144 -1 -1
;
#X obj 545 348 bng 20 250 50 0 9_b_2 empty empty 10 0 0 1.65798e+07
-262144 -1 -262144;
#X obj 169 177 route btn_9 btn_6 btn_4 btn_7 btn_5 btn_8 btn_3 btn_0
btn_2 btn_1;
#X obj 437 349 tgl 20 0 6_bt_2 empty empty 0 -6 0 8 -262144 -1 -1 0
1;
#X obj 516 301 tgl 20 0 7_bt_2 empty empty 0 -6 0 8 -262144 -1 -1 0
1;
#X obj 491 411 tgl 20 0 8_bt_2 empty empty 0 -6 0 8 -262144 -1 -1 0
1;
#X obj 571 348 tgl 20 0 9_bt_2 empty 9 20 0 0 10 -262144 -1 -1 0 1
;
#X obj 53 319 bng 20 250 50 0 up_2 empty empty 0 -6 0 8 -262144 -1
-1;
#X obj 13 350 bng 20 250 50 0 left_2 empty empty 0 -6 0 8 -262144 -1
-1;
#X obj 52 385 bng 20 250 50 0 down_2 empty empty 0 -6 0 8 -262144 -1
-1;
#X obj 92 351 bng 20 250 50 0 right_2 empty empty 0 -6 0 8 -262144
-1 -1;
#X obj 127 353 hsl 128 15 0 255 0 0 left_x_2 empty empty -2 -6 0 8
-262144 -1 -1 0 1;
#X obj 182 296 vsl 15 128 255 0 0 0 left_y_2 empty empty 0 -8 0 8 -262144
-1 -1 0 1;
#X obj 282 353 hsl 128 15 0 255 0 0 right_x_2 empty empty -2 -6 0 8
-262144 -1 -1 0 1;
#X obj 337 296 vsl 15 128 255 0 0 0 right_y_2 empty empty 0 -8 0 8
-262144 -1 -1 0 1;
#X obj 540 37 spigot;
#X obj 540 58 spigot;
#X obj 540 81 spigot;
#X obj 540 15 tgl 15 0 empty empty debug 20 8 0 8 -262144 -1 -1 0 1
;
#X obj 374 244 tgl 15 0 3_t_2 empty empty 0 -6 0 8 -262144 -1 -1 0
1;
#X obj 110 251 tgl 15 0 1_t_2 empty empty 0 -6 0 8 -262144 -1 -1 0
1;
#X obj 134 12 inlet;
#X obj 374 260 tgl 15 0 4_t_2 empty empty 0 -6 0 8 -262144 -1 -1 0
1;
#X obj 110 267 tgl 15 0 2_t_2 empty empty 0 -6 0 8 -262144 -1 -1 0
1;
#X obj 541 105 spigot;
#X obj 587 106 print;
#X obj 134 103 route abs_x abs_y abs_hat0x abs_hat0y abs_z abs_rz;
#X obj 233 155 route -1 1;
#X obj 303 155 route -1 1;
#X obj 233 129 change;
#X obj 303 130 change;
#X obj 215 255 change;
#X obj 302 255 change;
#X obj 91 222 change;
#X connect 5 0 36 0;
#X connect 5 0 38 0;
#X connect 5 1 14 0;
#X connect 5 1 27 0;
#X connect 5 2 28 0;
#X connect 5 3 29 0;
#X connect 14 0 43 0;
#X connect 14 1 45 0;
#X connect 14 2 3 0;
#X connect 14 2 35 0;
#X connect 14 3 4 0;
#X connect 14 3 31 0;
#X connect 14 4 9 0;
#X connect 14 4 34 0;
#X connect 14 5 44 0;
#X connect 14 6 0 0;
#X connect 14 6 15 0;
#X connect 14 7 11 0;
#X connect 14 7 16 0;
#X connect 14 8 12 0;
#X connect 14 8 17 0;
#X connect 14 9 13 0;
#X connect 14 9 18 0;
#X connect 27 0 6 0;
#X connect 28 0 7 0;
#X connect 29 0 8 0;
#X connect 30 0 27 1;
#X connect 30 0 28 1;
#X connect 30 0 29 1;
#X connect 30 0 36 1;
#X connect 33 0 5 0;
#X connect 36 0 37 0;
#X connect 38 0 23 0;
#X connect 38 1 24 0;
#X connect 38 2 41 0;
#X connect 38 3 42 0;
#X connect 38 4 26 0;
#X connect 38 5 25 0;
#X connect 39 0 20 0;
#X connect 39 1 22 0;
#X connect 40 0 19 0;
#X connect 40 1 21 0;
#X connect 41 0 39 0;
#X connect 42 0 40 0;
#X connect 43 0 1 0;
#X connect 44 0 10 0;
#X connect 45 0 2 0;
#X connect 45 0 32 0;
#X restore 106 100 pd joystick2;
#N canvas 397 270 773 563 joystick1 0;
#X obj 463 348 bng 20 250 50 0 6_b empty empty 0 -6 0 8 -262144 -1
-1;
#X obj 215 315 bng 15 250 50 0 0_b empty empty 0 -6 0 8 -262144 -1
-1;
#X obj 91 250 bng 15 250 50 0 1_b empty empty 0 -6 0 8 -262144 -1 -1
;
#X obj 91 265 bng 15 250 50 0 2_b empty empty 0 -6 0 8 -262144 -1 -1
;
#X obj 394 245 bng 15 250 50 0 3_b empty empty 0 -6 0 8 -262144 -1
-1;
#X obj 134 62 route abs key ff;
#X obj 596 39 print abs:;
#X obj 596 60 print key:;
#X obj 596 83 print ff:;
#X obj 394 260 bng 15 250 50 0 4_b empty empty 0 -6 0 8 -262144 -1
-1;
#X obj 302 314 bng 15 250 50 0 5_b empty empty 0 -6 0 8 -262144 -1
-1;
#X obj 491 301 bng 20 250 50 0 7_b empty empty 0 -6 0 8 -262144 -1
-1;
#X obj 518 411 bng 20 250 50 0 8_b empty empty 0 -6 0 8 -262144 -1
-1;
#X obj 545 348 bng 20 250 50 0 9_b empty empty 0 -6 0 8 -262144 -1
-1;
#X obj 437 349 tgl 20 0 6_bt empty empty 0 -6 0 8 -262144 -1 -1 0 1
;
#X obj 516 301 tgl 20 0 7_bt empty empty 0 -6 0 8 -262144 -1 -1 0 1
;
#X obj 491 411 tgl 20 0 8_bt empty empty 0 -6 0 8 -262144 -1 -1 0 1
;
#X obj 571 348 tgl 20 0 9_bt empty empty 0 -6 0 8 -262144 -1 -1 0 1
;
#X obj 53 319 bng 20 250 50 0 up empty empty 0 -6 0 8 -262144 -1 -1
;
#X obj 13 350 bng 20 250 50 0 left empty empty 0 -6 0 8 -262144 -1
-1;
#X obj 52 385 bng 20 250 50 0 down empty empty 0 -6 0 8 -262144 -1
-1;
#X obj 92 351 bng 20 250 50 0 right empty empty 0 -6 0 8 -262144 -1
-1;
#X obj 127 353 hsl 128 15 0 255 0 0 left_x empty empty -2 -6 0 8 -262144
-1 -1 0 1;
#X obj 182 296 vsl 15 128 255 0 0 0 left_y empty empty 0 -8 0 8 -262144
-1 -1 0 1;
#X obj 282 353 hsl 128 15 0 255 0 0 right_x empty empty -2 -6 0 8 -262144
-1 -1 0 1;
#X obj 337 296 vsl 15 128 255 0 0 0 right_y empty empty 0 -8 0 8 -262144
-1 -1 0 1;
#X obj 549 39 spigot;
#X obj 549 60 spigot;
#X obj 549 83 spigot;
#X obj 549 17 tgl 15 0 empty empty debug 20 8 0 8 -262144 -1 -1 0 1
;
#X obj 374 244 tgl 15 0 3_t empty empty 0 -6 0 8 -262144 -1 -1 0 1
;
#X obj 110 251 tgl 15 0 1_t empty empty 0 -6 0 8 -262144 -1 -1 0 1
;
#X obj 134 13 inlet;
#X obj 374 260 tgl 15 0 4_t empty empty 0 -6 0 8 -262144 -1 -1 0 1
;
#X obj 110 266 tgl 15 0 2_t empty empty 0 -6 0 8 -262144 -1 -1 0 1
;
#X obj 169 177 route btn_8 btn_6 btn_4 btn_7 btn_5 btn_9 btn_3 btn_0
btn_2 btn_1;
#X obj 134 108 route abs_x abs_y abs_hat0x abs_hat0y abs_z abs_rz;
#X obj 215 156 route -1 1;
#X obj 282 156 route -1 1;
#X obj 216 129 change;
#X obj 282 130 change;
#X obj 215 253 change;
#X obj 302 253 change;
#X obj 91 225 change;
#X connect 5 0 36 0;
#X connect 5 1 26 0;
#X connect 5 1 35 0;
#X connect 5 2 27 0;
#X connect 5 3 28 0;
#X connect 26 0 6 0;
#X connect 27 0 7 0;
#X connect 28 0 8 0;
#X connect 29 0 26 1;
#X connect 29 0 27 1;
#X connect 29 0 28 1;
#X connect 32 0 5 0;
#X connect 35 0 41 0;
#X connect 35 1 43 0;
#X connect 35 2 3 0;
#X connect 35 2 34 0;
#X connect 35 3 30 0;
#X connect 35 3 4 0;
#X connect 35 4 33 0;
#X connect 35 4 9 0;
#X connect 35 5 42 0;
#X connect 35 6 0 0;
#X connect 35 6 14 0;
#X connect 35 7 11 0;
#X connect 35 7 15 0;
#X connect 35 8 12 0;
#X connect 35 8 16 0;
#X connect 35 9 13 0;
#X connect 35 9 17 0;
#X connect 36 0 22 0;
#X connect 36 1 23 0;
#X connect 36 2 39 0;
#X connect 36 3 40 0;
#X connect 36 4 25 0;
#X connect 36 5 24 0;
#X connect 37 0 19 0;
#X connect 37 1 21 0;
#X connect 38 0 18 0;
#X connect 38 1 20 0;
#X connect 39 0 37 0;
#X connect 40 0 38 0;
#X connect 41 0 1 0;
#X connect 42 0 10 0;
#X connect 43 0 2 0;
#X connect 43 0 31 0;
#X restore 13 100 pd joystick1;
#N canvas 515 122 1008 882 bhoreal 0;
#X obj 85 30 inlet;
#X msg 170 314 \; shader-effect \$1;
#X floatatom 170 276 5 0 0 0 - - -, f 5;
#X obj 85 66 moses 24;
#X obj 138 107 moses 32;
#X obj 138 141 & 7;
#X obj 138 202 s __blending_onoff;
#X obj 138 173 sel 0;
#X obj 170 248 - 1;
#X obj 191 382 moses 40;
#X obj 570 285 & 7;
#X obj 570 320 sel 0 1 2 3 4 5 6 7;
#X obj 570 427 s __autoblend_01;
#X obj 586 458 s __autohop_01;
#X obj 602 492 s __autojump_01;
#X floatatom 486 322 5 0 0 0 - - -, f 5;
#X obj 245 655 moses 48;
#X obj 245 698 & 7;
#X obj 245 769 s __strobe_mode;
#X obj 245 729 moses 4;
#X obj 689 426 s ms1;
#X obj 517 35 inlet;
#X obj 570 395 i;
#X obj 605 395 i;
#X obj 638 395 i;
#X obj 672 395 i;
#X obj 517 70 unpack f f;
#X obj 517 140 moses 40;
#X obj 708 395 i;
#X obj 743 395 i;
#X obj 776 395 i;
#X obj 810 395 i;
#X obj 708 580 s __wavesphere;
#X obj 743 612 s __waveshards;
#X obj 477 516 moses 48;
#X obj 477 579 & 7;
#X obj 477 614 sel 0 1 2 3 4 5 6 7;
#X obj 477 689 i;
#X obj 512 689 i;
#X obj 545 689 i;
#X obj 579 689 i;
#X obj 615 689 i;
#X obj 650 689 i;
#X obj 683 689 i;
#X obj 717 689 i;
#X obj 477 739 s __lissajous;
#X obj 512 773 s __polyfig;
#X obj 545 808 s __cell_epic;
#X obj 579 739 s __cell_symbols;
#X obj 615 772 s __cell_formulae;
#X obj 650 808 s __cell_diagrams;
#X obj 703 739 s __chemoflock;
#X obj 515 106 moses 32;
#X connect 0 0 3 0;
#X connect 2 0 1 0;
#X connect 3 1 4 0;
#X connect 4 0 5 0;
#X connect 4 1 9 0;
#X connect 5 0 7 0;
#X connect 7 0 6 0;
#X connect 7 1 8 0;
#X connect 8 0 2 0;
#X connect 9 1 16 0;
#X connect 10 0 11 0;
#X connect 10 0 15 0;
#X connect 11 0 22 0;
#X connect 11 1 23 0;
#X connect 11 2 24 0;
#X connect 11 3 25 0;
#X connect 11 4 28 0;
#X connect 11 5 29 0;
#X connect 11 6 30 0;
#X connect 11 7 31 0;
#X connect 16 0 17 0;
#X connect 17 0 19 0;
#X connect 19 0 18 0;
#X connect 21 0 26 0;
#X connect 22 0 12 0;
#X connect 23 0 13 0;
#X connect 24 0 14 0;
#X connect 25 0 20 0;
#X connect 26 0 52 0;
#X connect 26 1 22 1;
#X connect 26 1 23 1;
#X connect 26 1 24 1;
#X connect 26 1 25 1;
#X connect 26 1 28 1;
#X connect 26 1 29 1;
#X connect 26 1 30 1;
#X connect 26 1 31 1;
#X connect 26 1 37 1;
#X connect 26 1 38 1;
#X connect 26 1 39 1;
#X connect 26 1 40 1;
#X connect 26 1 41 1;
#X connect 26 1 42 1;
#X connect 26 1 43 1;
#X connect 26 1 44 1;
#X connect 27 0 10 0;
#X connect 27 1 34 0;
#X connect 28 0 32 0;
#X connect 29 0 33 0;
#X connect 34 0 35 0;
#X connect 35 0 36 0;
#X connect 36 0 37 0;
#X connect 36 1 38 0;
#X connect 36 2 39 0;
#X connect 36 3 40 0;
#X connect 36 4 41 0;
#X connect 36 5 42 0;
#X connect 36 6 43 0;
#X connect 36 7 44 0;
#X connect 37 0 45 0;
#X connect 38 0 46 0;
#X connect 39 0 47 0;
#X connect 40 0 48 0;
#X connect 41 0 49 0;
#X connect 42 0 50 0;
#X connect 43 0 51 0;
#X connect 52 1 27 0;
#X restore 162 158 pd bhoreal;
#X obj 13 70 route joystick_1 joystick_2 midi midi_onoff;
#X connect 0 0 5 0;
#X connect 0 1 6 0;
#X connect 3 0 10 0;
#X connect 4 0 0 0;
#X connect 5 0 1 0;
#X connect 6 0 2 0;
#X connect 10 0 8 0;
#X connect 10 1 7 0;
#X connect 10 2 9 0;
#X connect 10 3 9 1;
#X restore 890 16 pd receiver;
#X obj 25 118 analysis4;
#X text 562 232 F-keys;
#X text 673 372 qwertzu;
#N canvas 913 447 450 300 README 0;
#N canvas 413 321 450 526 TODO 0;
#X text 46 179 - Wii;
#X text 49 243 - blur circle;
#X text 49 261 - movieplayer: start stop loop;
#X text 49 316 - repair videogrid;
#X text 49 297 - cam control mit joystick;
#X text 49 278 - optimise;
#X text 49 333 - set size and origin of cellulars;
#X text 49 225 - modular shader drop ins for pixes;
#X text 46 197 - debug effects joy-control;
#X text 46 160 - QR codes;
#X text 46 143 - alpha texture over wavestart around wavesphere;
#X text 48 82 - distortion on keypress;
#X text 49 101 - all off on keypress;
#X restore 29 45 pd TODO;
#X text 25 88 split hid/vjgrid off to seperate application so it can
be restarted when it freezes. see vjgui_0_17;
#X restore 233 27 pd README;
#X text 802 138 comment;
#X obj 1012 450 bng 15 250 50 0 empty empty empty 17 7 0 10 -4034 -1
-4034;
#N canvas 159 218 495 303 record 0;
#X obj 100 101 t a b;
#X msg 132 122 snap;
#X text 148 99 later usage;
#X obj 100 184 pix_record;
#X obj 273 66 tgl 15 0 empty empty empty 17 7 0 10 -262144 -1 -1 0
1;
#X msg 327 222 codeclist;
#X floatatom 128 229 5 0 0 0 - - -, f 5;
#X msg 273 45 1;
#X msg 381 46 0;
#X obj 100 35 gemhead -1;
#X msg 273 95 record \$1;
#X msg 350 101 auto 1;
#X obj 38 88 bng 15 250 50 0 empty empty empty 17 7 0 10 -262144 -1
-1;
#X msg 275 155 codec 4;
#X msg 274 124 file /tmp/fettekreise.mov;
#X obj 273 22 r rec_start;
#X obj 381 20 r rec_stop;
#X obj 100 146 pix_snap 0 0 1280 960;
#X connect 0 0 17 0;
#X connect 0 1 1 0;
#X connect 1 0 17 0;
#X connect 3 1 6 0;
#X connect 4 0 10 0;
#X connect 5 0 3 0;
#X connect 7 0 4 0;
#X connect 8 0 4 0;
#X connect 9 0 0 0;
#X connect 10 0 3 0;
#X connect 11 0 3 0;
#X connect 12 0 3 0;
#X connect 13 0 3 0;
#X connect 14 0 3 0;
#X connect 15 0 7 0;
#X connect 16 0 8 0;
#X connect 17 0 3 0;
#X restore 31 673 pd record;
#X obj 268 248 videoin;
#X obj 268 229 tgl 15 0 empty empty empty 17 7 0 10 -260097 -1 -1 0
1;
#X msg 977 547 90;
#X msg 1044 297 red;
#N canvas 762 705 397 182 audiotexturer 0;
#X obj 30 12 inlet;
#X obj 30 50 tgl 15 0 empty empty empty 17 7 0 10 -4034 -1 -1 0 1;
#X obj 55 49 r~ filtered_mic;
#X obj 56 105 s _sigtex;
#X obj 30 135 outlet;
#X obj 83 135 outlet;
#X obj 83 13 inlet;
#X obj 30 77 sig2pix2;
#X connect 0 0 1 0;
#X connect 1 0 7 0;
#X connect 2 0 7 1;
#X connect 6 0 7 2;
#X connect 7 0 4 0;
#X connect 7 1 3 0;
#X connect 7 2 5 0;
#X coords 0 -1 1 1 15 15 1 30 50;
#X restore 927 297 pd audiotexturer;
#X obj 328 404 qprojection 1;
#X obj 344 678 tgl 15 0 empty empty audiosource 17 7 0 10 -260097 -1
-260097 0 1;
#X text 29 702 0.18 TEST;
#X obj 705 248 videoin;
#X obj 705 229 tgl 15 0 empty empty empty 17 7 0 10 -4034 -1 -1 0 1
;
#X obj 990 17 init;
#X obj 768 405 qprojection 2;
#N canvas 806 489 569 318 plane 0;
#X obj 31 14 inlet;
#X obj 31 238 rectangle 6.4 4.8;
#X obj 31 56 translateXYZ 0 0 0;
#X connect 0 0 2 0;
#X connect 2 0 1 0;
#X restore 236 345 pd plane;
#X obj 768 356 glsl_contrast 4;
#X obj 768 248 movieplayer 2;
#X connect 0 0 58 0;
#X connect 2 0 208 1;
#X connect 4 0 34 0;
#X connect 5 0 6 0;
#X connect 15 0 74 2;
#X connect 16 0 208 2;
#X connect 17 0 74 0;
#X connect 18 0 208 0;
#X connect 21 0 147 0;
#X connect 21 1 148 0;
#X connect 23 0 0 1;
#X connect 25 0 187 0;
#X connect 26 0 187 0;
#X connect 27 0 187 0;
#X connect 28 0 187 0;
#X connect 29 0 4 1;
#X connect 30 0 4 2;
#X connect 31 0 4 3;
#X connect 33 0 34 1;
#X connect 34 0 122 0;
#X connect 35 0 118 0;
#X connect 36 0 118 1;
#X connect 37 0 118 2;
#X connect 38 0 122 1;
#X connect 41 0 40 0;
#X connect 42 0 40 1;
#X connect 43 0 40 3;
#X connect 44 0 40 2;
#X connect 46 0 45 0;
#X connect 47 0 45 1;
#X connect 48 0 109 0;
#X connect 49 0 63 0;
#X connect 51 0 50 0;
#X connect 52 0 50 1;
#X connect 53 0 146 0;
#X connect 54 0 146 1;
#X connect 55 0 146 2;
#X connect 56 0 57 1;
#X connect 57 0 34 0;
#X connect 57 1 4 0;
#X connect 58 0 57 0;
#X connect 58 1 171 0;
#X connect 58 2 170 0;
#X connect 59 0 58 1;
#X connect 60 0 58 2;
#X connect 61 0 169 0;
#X connect 62 0 169 2;
#X connect 63 0 49 0;
#X connect 64 0 74 1;
#X connect 73 0 32 1;
#X connect 74 0 206 0;
#X connect 74 1 1 0;
#X connect 74 2 175 1;
#X connect 109 0 207 0;
#X connect 110 0 199 1;
#X connect 111 0 205 1;
#X connect 112 0 199 2;
#X connect 113 0 205 2;
#X connect 114 0 117 0;
#X connect 115 0 117 1;
#X connect 116 0 117 2;
#X connect 120 0 119 0;
#X connect 121 0 119 1;
#X connect 122 0 39 0;
#X connect 122 1 32 0;
#X connect 122 2 123 0;
#X connect 124 0 0 3;
#X connect 125 0 0 2;
#X connect 126 0 132 0;
#X connect 127 0 133 0;
#X connect 128 0 132 1;
#X connect 129 0 133 1;
#X connect 130 0 192 0;
#X connect 131 0 130 0;
#X connect 134 0 136 0;
#X connect 135 0 136 1;
#X connect 137 0 139 0;
#X connect 138 0 139 1;
#X connect 140 0 175 3;
#X connect 141 0 207 1;
#X connect 142 0 175 2;
#X connect 143 0 207 2;
#X connect 149 0 21 0;
#X connect 150 0 21 0;
#X connect 151 0 152 0;
#X connect 152 0 151 4;
#X connect 153 0 151 0;
#X connect 154 0 151 2;
#X connect 155 0 163 0;
#X connect 156 0 163 2;
#X connect 157 0 151 3;
#X connect 158 0 163 1;
#X connect 159 0 163 3;
#X connect 160 0 163 4;
#X connect 161 0 163 5;
#X connect 162 0 163 6;
#X connect 163 0 164 0;
#X connect 164 0 163 8;
#X connect 166 0 165 0;
#X connect 167 0 165 2;
#X connect 168 0 165 1;
#X connect 169 0 62 0;
#X connect 170 0 58 3;
#X connect 173 0 172 0;
#X connect 176 0 177 0;
#X connect 178 0 0 0;
#X connect 179 0 165 3;
#X connect 180 0 169 1;
#X connect 181 0 183 0;
#X connect 182 0 181 0;
#X connect 187 0 7 0;
#X connect 187 0 14 0;
#X connect 187 1 75 0;
#X connect 187 2 75 1;
#X connect 194 0 175 0;
#X connect 195 0 194 0;
#X connect 196 0 44 0;
#X connect 197 0 198 1;
#X connect 198 0 109 2;
#X connect 198 1 197 0;
#X connect 200 0 163 7;
#X connect 202 0 109 1;
#X connect 203 0 202 0;
#X connect 207 0 205 0;
#X connect 208 0 109 1;
#X connect 208 1 3 0;
