#N canvas 725 182 408 474 10;
#X obj 28 278 pix_texture;
#X obj 28 36 inlet;
#X obj 28 313 outlet;
#X obj 100 37 inlet~;
#X obj 28 150 gemhead 60;
#X obj 165 180 loadbang;
#X obj 102 313 outlet;
#X obj 231 27 inlet;
#X obj 101 128 *~ 1;
#X obj 231 90 sel red white;
#X obj 291 306 outlet;
#X msg 231 112 0;
#X msg 268 112 1;
#X msg 307 236 set red;
#X msg 258 204 set white;
#X obj 231 61 symbol;
#X msg 165 224 quality \$1;
#X obj 164 150 block~ 1764;
#X msg 165 202 1;
#X obj 300 27 loadbang;
#X msg 300 44 white;
#X obj 101 88 *~ 1;
#X obj 28 224 pix_sig2pix~ 1 1746;
#X obj 102 278 unpack f f f f;
#X connect 0 0 2 0;
#X connect 0 1 23 0;
#X connect 1 0 4 0;
#X connect 3 0 21 0;
#X connect 3 0 22 3;
#X connect 4 0 22 0;
#X connect 5 0 18 0;
#X connect 7 0 15 0;
#X connect 8 0 22 1;
#X connect 8 0 22 2;
#X connect 9 0 11 0;
#X connect 9 0 14 0;
#X connect 9 1 12 0;
#X connect 9 1 13 0;
#X connect 11 0 8 1;
#X connect 12 0 8 1;
#X connect 13 0 10 0;
#X connect 14 0 10 0;
#X connect 15 0 9 0;
#X connect 16 0 0 0;
#X connect 18 0 16 0;
#X connect 19 0 20 0;
#X connect 20 0 15 0;
#X connect 21 0 8 0;
#X connect 21 0 22 0;
#X connect 22 0 0 0;
#X connect 23 0 6 0;
