#N canvas 434 654 576 377 10;
#X obj 28 41 inlet;
#X obj 28 273 outlet;
#X obj 106 36 inlet~;
#X obj 28 110 gemhead 60;
#X obj 28 183 pix_sig2pix~ 32 256;
#X obj 411 36 block~ 16384 8;
#X obj 107 58 *~ 1;
#X obj 28 217 pix_texture;
#X obj 91 271 outlet;
#X obj 241 37 inlet;
#X obj 241 100 sel red white;
#X obj 301 316 outlet;
#X msg 241 122 0;
#X msg 278 122 1;
#X msg 317 246 set red;
#X msg 268 214 set white;
#X obj 241 71 symbol;
#X obj 310 37 loadbang;
#X msg 310 54 white;
#X obj 107 80 *~ 1;
#X connect 0 0 3 0;
#X connect 2 0 6 0;
#X connect 3 0 4 0;
#X connect 4 0 7 0;
#X connect 6 0 4 0;
#X connect 6 0 19 0;
#X connect 7 0 1 0;
#X connect 7 1 8 0;
#X connect 9 0 16 0;
#X connect 10 0 12 0;
#X connect 10 0 15 0;
#X connect 10 1 13 0;
#X connect 10 1 14 0;
#X connect 12 0 19 1;
#X connect 13 0 19 1;
#X connect 14 0 11 0;
#X connect 15 0 11 0;
#X connect 16 0 10 0;
#X connect 17 0 18 0;
#X connect 18 0 16 0;
#X connect 19 0 4 1;
#X connect 19 0 4 2;
