#N canvas 860 246 933 429 10;
#X obj 118 24 inlet;
#X obj 178 52 r bumm;
#X obj 250 53 r zack;
#X obj 48 29 inlet;
#X msg 134 155 1;
#X obj 48 195 spigot 1;
#X obj 134 127 switch 3;
#X obj 164 156 del 40;
#X msg 164 178 0;
#X obj 93 95 == 0;
#X obj 220 155 sel 0;
#X msg 220 183 stop;
#X obj 474 26 inlet;
#X obj 118 54 t f f f;
#X obj 48 240 outlet;
#X obj 493 306 world_light;
#X obj 493 189 gemhead;
#X obj 556 163 line;
#X msg 595 289 \$1 0 0;
#X msg 556 123 1 \, 0 \$1;
#X obj 556 94 f;
#X obj 134 239 outlet;
#X obj 556 193 shunt 2;
#X msg 556 260 \$1 \$1 \$1;
#X obj 662 35 inlet;
#X obj 662 98 sel red white;
#X obj 713 252 outlet;
#X msg 662 120 0;
#X msg 699 120 1;
#X msg 729 182 set red;
#X msg 680 150 set white;
#X obj 662 69 symbol;
#X obj 493 222 rotateXYZ 0 0 0;
#X obj 618 192 r level;
#X obj 618 223 * -1;
#X obj 464 162 r __lighting;
#X obj 322 54 r aubio_tempo;
#X connect 0 0 13 0;
#X connect 1 0 6 1;
#X connect 2 0 6 2;
#X connect 3 0 5 0;
#X connect 4 0 5 1;
#X connect 5 0 14 0;
#X connect 6 0 4 0;
#X connect 6 0 7 0;
#X connect 6 0 20 0;
#X connect 6 0 21 0;
#X connect 7 0 8 0;
#X connect 8 0 5 1;
#X connect 9 0 5 1;
#X connect 10 0 11 0;
#X connect 11 0 7 0;
#X connect 12 0 7 1;
#X connect 12 0 20 1;
#X connect 13 0 9 0;
#X connect 13 1 10 0;
#X connect 13 2 6 0;
#X connect 16 0 32 0;
#X connect 17 0 22 0;
#X connect 18 0 15 1;
#X connect 19 0 17 0;
#X connect 20 0 19 0;
#X connect 22 0 23 0;
#X connect 22 1 18 0;
#X connect 23 0 15 1;
#X connect 24 0 31 0;
#X connect 25 0 27 0;
#X connect 25 0 30 0;
#X connect 25 1 28 0;
#X connect 25 1 29 0;
#X connect 27 0 22 1;
#X connect 28 0 22 1;
#X connect 29 0 26 0;
#X connect 30 0 26 0;
#X connect 31 0 25 0;
#X connect 32 0 15 0;
#X connect 33 0 34 0;
#X connect 34 0 32 2;
#X connect 35 0 16 0;
#X connect 36 0 6 3;
