#N canvas 840 230 933 429 10;
#X obj 183 54 r bumm;
#X obj 250 53 r zack;
#X obj 48 29 inlet;
#X msg 134 155 1;
#X obj 48 195 spigot 1;
#X obj 134 127 switch 3;
#X obj 164 156 del 40;
#X msg 164 177 0;
#X obj 93 95 == 0;
#X obj 220 155 sel 0;
#X msg 220 183 stop;
#X obj 119 54 t f f f;
#X obj 48 240 outlet;
#X obj 322 54 r aubio_tempo;
#X obj 118 13 cnv 15 80 30 empty empty empty 20 12 0 14 -86277 -66577
0;
#X obj 119 26 hradio 15 1 0 4 empty empty strobe 0 -8 0 10 -258113
-1 -262144 0;
#X obj 181 27 bng 15 250 50 0 empty empty empty 17 7 0 10 -258113 -1
-1;
#X connect 0 0 5 1;
#X connect 1 0 5 2;
#X connect 2 0 4 0;
#X connect 3 0 4 1;
#X connect 4 0 12 0;
#X connect 5 0 3 0;
#X connect 5 0 6 0;
#X connect 5 0 16 0;
#X connect 6 0 7 0;
#X connect 7 0 4 1;
#X connect 8 0 4 1;
#X connect 9 0 10 0;
#X connect 10 0 6 0;
#X connect 11 0 8 0;
#X connect 11 1 9 0;
#X connect 11 2 5 0;
#X connect 13 0 5 3;
#X connect 15 0 11 0;
#X coords 0 -1 1 1 85 36 1 115 10;
