#N canvas 475 227 987 695 10;
#X obj 67 76 gemhead;
#X obj 67 441 pix_video;
#X msg 165 368 driver \$1;
#X obj 112 249 loadbang;
#X obj 165 345 tgl 15 0 empty empty empty 17 7 0 10 -262144 -1 -1 0
1;
#X obj 67 561 outlet;
#X obj 134 22 loadbang;
#X msg 134 46 0;
#X obj 67 484 pix_gray;
#X msg 198 307 device 0;
#X obj 12 12 cnv 15 56 16 empty empty cam_\$1 20 8 0 10 -86277 -262144
0;
#X obj 13 13 tgl 15 0 empty empty empty 17 7 0 10 -258113 -1 -1 1 1
;
#X obj 112 279 \$1;
#X msg 112 309 device \$1;
#X msg 122 103 dimen 1280 720;
#X obj 67 516 pix_texture;
#X connect 0 0 1 0;
#X connect 1 0 8 0;
#X connect 2 0 1 0;
#X connect 3 0 12 0;
#X connect 4 0 2 0;
#X connect 6 0 7 0;
#X connect 7 0 11 0;
#X connect 8 0 15 0;
#X connect 9 0 1 0;
#X connect 11 0 0 0;
#X connect 12 0 13 0;
#X connect 13 0 1 0;
#X connect 14 0 1 0;
#X connect 15 0 5 0;
#X coords 0 -1 1 1 60 20 1 10 10;
