#N canvas 757 227 987 695 10;
#X obj 67 76 gemhead;
#X msg 122 103 dimen 256 128;
#X obj 67 441 pix_video;
#X msg 165 368 driver \$1;
#X obj 67 46 tgl 15 0 empty empty empty 17 7 0 10 -262144 -1 -1 0 1
;
#X obj 112 276 loadbang;
#X obj 165 345 tgl 15 0 empty empty empty 17 7 0 10 -262144 -1 -1 0
1;
#X obj 67 539 outlet;
#X obj 67 22 inlet;
#X obj 134 22 loadbang;
#X msg 134 46 0;
#X obj 67 484 pix_gray;
#X msg 198 307 device 0;
#X msg 112 309 device 1;
#X connect 0 0 2 0;
#X connect 1 0 2 0;
#X connect 2 0 11 0;
#X connect 3 0 2 0;
#X connect 4 0 0 0;
#X connect 5 0 13 0;
#X connect 6 0 3 0;
#X connect 8 0 4 0;
#X connect 9 0 10 0;
#X connect 10 0 0 0;
#X connect 11 0 7 0;
#X connect 12 0 2 0;
#X connect 13 0 2 0;
