#N canvas 469 209 1359 807 10;
#X declare -lib cyclone;
#X obj 51 167 glsl_vertex;
#X obj 51 252 glsl_fragment;
#X obj 51 412 glsl_program;
#X obj 137 334 pack 0 0;
#X obj 155 311 t b f;
#X obj 155 270 change;
#X msg 137 360 link \$1 \$2;
#X floatatom 155 292 2 0 0 0 ID - -;
#X floatatom 137 207 2 0 0 0 ID - -;
#X obj 142 384 print linking;
#X obj 137 185 change;
#X obj 51 439 pix_texture;
#X obj 777 769 outlet;
#X msg 707 241 1;
#X obj 51 465 alpha;
#X floatatom 184 463 5 0 0 0 - - -;
#X floatatom 240 463 5 0 0 0 - - -;
#X floatatom 296 463 5 0 0 0 - - -;
#X obj 65 122 loadbang;
#X obj 1022 17 inlet red/white;
#X obj 24 51 gemhead 61;
#X obj 51 567 rotateXYZ 0 0 0;
#X obj 296 230 autorotate;
#X obj 284 624 line;
#X obj 284 530 r zack;
#X obj 284 576 i;
#X obj 312 576 r duration;
#X obj 332 313 autorotate;
#X obj 332 281 autorotate;
#X obj 332 376 spigot;
#X obj 331 407 spigot;
#X obj 338 147 t f f;
#X obj 240 304 sel 0;
#X msg 240 327 0;
#X obj 759 189 bp~, f 6;
#X obj 739 109 > 1;
#X obj 658 158 == 0;
#X obj 695 158 *~;
#X obj 739 84 int;
#X obj 638 85 r~ direct_mic;
#X floatatom 434 386 5 0 0 0 - - -;
#X floatatom 435 412 5 0 0 0 - - -;
#X msg 469 386 -0.3;
#X msg 470 410 0.4;
#X msg 485 345 bang;
#X msg 440 347 0;
#X obj 16 771 sphere 3 64;
#X obj 738 241 sig2pix;
#X obj 832 85 r sincomp_1;
#X obj 832 132 osc~;
#X obj 832 109 / 4;
#X obj 831 159 *~;
#X obj 906 17 inlet snd source;
#X obj 906 50 == 1;
#X obj 941 50 == 0;
#X obj 759 216 *~;
#X msg 241 205 boost \$1;
#X obj 637 199 *~ 1;
#X msg 65 229 open shaders/displace.frag;
#X msg 56 341 tex0 \$1;
#X obj 153 23 cnv 15 234 119 empty empty empty 4 8 0 10 -13330 -262144
0;
#X obj 156 25 tgl 15 1 empty empty waveshards 17 7 0 10 -4032 -1 -262144
0 1;
#X obj 156 106 tgl 15 0 empty empty autorotate 17 7 0 10 -2341 -228856
-162280 0 1;
#X obj 322 86 hradio 15 1 0 4 \$0-texture empty texture 0 -8 0 10 -2341
-204800 -162280 0;
#X obj 241 106 tgl 15 0 empty empty XY/Z 17 7 0 10 -2341 -1 -162280
0 1;
#X obj 159 61 hsl 144 11 1 20000 0 1 empty waveshard_filter filter
0 6 0 8 -2341 -1 -86277 4000 1;
#X obj 159 75 hsl 144 10 0 30 0 1 \$0-gain waveshard_amp gain 0 5 0
8 -2341 -1 -86277 2400 1;
#X obj 156 43 tgl 15 0 empty empty audiosource 17 7 0 10 -2341 -1 -162280
0 1;
#X obj 739 57 t f f;
#X obj 296 178 t f f f;
#X obj 322 25 tgl 15 0 empty empty distort 17 7 0 10 -162280 -228856
-228856 0 1;
#X obj 307 123 hradio 15 1 0 5 \$0-object empty object 0 -8 0 10 -2341
-204800 -162280 2;
#X obj 156 88 tgl 15 0 empty empty alpha 17 7 0 10 -2341 -1 -162280
0 1;
#X obj 241 88 tgl 15 0 empty empty boost 17 7 0 10 -2341 -1 -162280
0 1;
#X obj 51 597 translateXYZ 0 0 0;
#X msg 203 264 black \$1;
#X msg 284 601 1.5 \, 1 \$1;
#X obj 570 422 spigot;
#X obj 570 397 r volume;
#X obj 570 501 line;
#X msg 570 471 \$1 40;
#X obj 532 397 sel 0;
#X msg 532 453 1;
#X obj 576 367 t f f;
#X obj 51 519 scale 1;
#X obj 156 125 tgl 15 0 \$0-autoscale empty autoscale 17 7 0 10 -2341
-1 -162280 0 1;
#X obj 570 444 / 128;
#X msg 65 145 open shaders/displace.vert;
#X obj 1208 17 declare -lib cyclone;
#X obj 16 598 + 1;
#X obj 16 542 r \$0-object;
#X obj 56 313 r \$0-texture;
#X obj 576 340 r \$0-autoscale;
#X obj 792 61 r \$0-gain;
#X obj 241 125 tgl 15 0 \$0-bounce empty bounce 17 7 0 10 -2341 -1
-162280 0 1;
#X obj 648 241 loadbang;
#X obj 51 495 scale 1;
#X obj 284 553 spigot;
#X obj 39 656 model models/brain.obj;
#X obj 85 707 model models/quoobrain.obj;
#X obj 16 628 cyclone/gate 5 1;
#X obj 109 733 model models/potato.obj;
#X obj 62 681 model models/skull.obj;
#X obj 24 92 shunt;
#X connect 0 0 1 0;
#X connect 0 1 10 0;
#X connect 1 0 2 0;
#X connect 1 1 5 0;
#X connect 2 0 11 0;
#X connect 3 0 6 0;
#X connect 4 0 3 0;
#X connect 4 1 3 1;
#X connect 5 0 7 0;
#X connect 6 0 9 0;
#X connect 6 0 2 0;
#X connect 7 0 4 0;
#X connect 8 0 3 0;
#X connect 10 0 8 0;
#X connect 11 0 14 0;
#X connect 13 0 47 0;
#X connect 14 0 96 0;
#X connect 15 0 21 1;
#X connect 16 0 21 2;
#X connect 17 0 21 3;
#X connect 18 0 87 0;
#X connect 18 0 58 0;
#X connect 19 0 47 2;
#X connect 20 0 103 0;
#X connect 21 0 74 0;
#X connect 22 0 17 0;
#X connect 23 0 96 1;
#X connect 24 0 97 0;
#X connect 25 0 76 0;
#X connect 26 0 25 1;
#X connect 27 0 30 0;
#X connect 28 0 29 0;
#X connect 29 0 15 0;
#X connect 30 0 16 0;
#X connect 31 0 32 0;
#X connect 31 1 29 1;
#X connect 31 1 30 1;
#X connect 32 0 33 0;
#X connect 33 0 15 0;
#X connect 33 0 16 0;
#X connect 34 0 55 0;
#X connect 35 0 36 0;
#X connect 35 0 37 1;
#X connect 36 0 57 1;
#X connect 37 0 34 0;
#X connect 38 0 35 0;
#X connect 39 0 37 0;
#X connect 39 0 57 0;
#X connect 40 0 74 1;
#X connect 41 0 74 2;
#X connect 42 0 40 0;
#X connect 43 0 41 0;
#X connect 44 0 43 0;
#X connect 44 0 42 0;
#X connect 45 0 40 0;
#X connect 45 0 41 0;
#X connect 47 1 11 1;
#X connect 47 2 12 0;
#X connect 48 0 50 0;
#X connect 49 0 51 0;
#X connect 50 0 49 0;
#X connect 51 0 47 1;
#X connect 52 0 53 0;
#X connect 52 0 54 0;
#X connect 53 0 55 1;
#X connect 54 0 51 1;
#X connect 55 0 47 1;
#X connect 56 0 2 0;
#X connect 57 0 55 0;
#X connect 58 0 1 0;
#X connect 59 0 2 0;
#X connect 61 0 20 0;
#X connect 62 0 69 0;
#X connect 64 0 31 0;
#X connect 65 0 68 0;
#X connect 67 0 53 0;
#X connect 67 0 54 0;
#X connect 68 0 38 0;
#X connect 68 1 34 1;
#X connect 69 0 22 0;
#X connect 69 1 28 0;
#X connect 69 2 27 0;
#X connect 70 0 103 1;
#X connect 72 0 75 0;
#X connect 73 0 56 0;
#X connect 74 0 100 1;
#X connect 75 0 2 0;
#X connect 76 0 23 0;
#X connect 77 0 86 0;
#X connect 78 0 77 0;
#X connect 79 0 84 1;
#X connect 80 0 79 0;
#X connect 81 0 82 0;
#X connect 82 0 80 0;
#X connect 83 0 81 0;
#X connect 83 1 77 1;
#X connect 84 0 21 0;
#X connect 86 0 80 0;
#X connect 87 0 0 0;
#X connect 89 0 100 0;
#X connect 90 0 89 0;
#X connect 91 0 59 0;
#X connect 92 0 83 0;
#X connect 93 0 34 2;
#X connect 94 0 97 1;
#X connect 95 0 13 0;
#X connect 96 0 84 0;
#X connect 97 0 25 0;
#X connect 100 0 46 0;
#X connect 100 1 98 0;
#X connect 100 2 102 0;
#X connect 100 3 99 0;
#X connect 100 4 101 0;
#X connect 103 0 14 0;
#X connect 103 1 0 0;
#X coords 0 -1 1 1 240 125 1 150 20;
