#N canvas 547 314 1080 670 10;
#X obj 24 166 glsl_vertex;
#X obj 24 252 glsl_fragment;
#X obj 24 412 glsl_program;
#X obj 110 334 pack 0 0;
#X obj 128 311 t b f;
#X obj 128 270 change;
#X msg 110 360 link \$1 \$2;
#X floatatom 128 292 2 0 0 0 ID - -, f 2;
#X floatatom 110 206 2 0 0 0 ID - -, f 2;
#X obj 115 384 print linking;
#X obj 110 184 change;
#X obj 24 439 pix_texture;
#X obj 693 626 outlet;
#X msg 648 142 1;
#X obj 24 18 inlet on/off;
#X obj 24 465 alpha;
#X floatatom 157 463 5 0 0 0 - - -, f 5;
#X floatatom 213 463 5 0 0 0 - - -, f 5;
#X floatatom 269 463 5 0 0 0 - - -, f 5;
#X obj 24 490 scale 1;
#X obj 63 464 r volume;
#X obj 73 489 / 100;
#X obj 38 125 loadbang;
#X obj 932 21 inlet red/white;
#X obj 24 42 gemhead 61;
#X obj 24 527 rotateXYZ 0 0 0;
#X obj 269 230 autorotate;
#X obj 305 19 inlet autorotate;
#X obj 24 557 translateXYZ 0 0 0;
#X obj 210 19 inlet texture;
#X obj 24 582 shunt;
#X obj 63 583 tgl 15 0 empty empty empty 17 7 0 10 -262144 -1 -1 1
1;
#X obj 257 575 line;
#X obj 257 501 r zack;
#X obj 257 527 i;
#X obj 285 527 r duration;
#X floatatom 340 566 5 0 0 0 - - -, f 5;
#X obj 238 599 scale 3;
#X msg 257 552 5 \, 3 \$1;
#X obj 572 21 inlet object;
#X obj 305 316 autorotate;
#X obj 305 281 autorotate;
#X obj 305 376 spigot;
#X obj 304 407 spigot;
#X obj 418 20 inlet all axis;
#X obj 418 145 t f f;
#X obj 213 304 sel 0;
#X msg 213 327 0;
#X obj 24 70 alpha;
#X obj 24 95 polygon_smooth;
#X obj 669 189 bp~;
#X obj 676 22 inlet filter;
#X obj 759 21 inlet Q;
#X obj 649 109 > 1;
#X obj 568 158 == 0;
#X obj 605 158 *~;
#X obj 649 84 int;
#X obj 238 625 model /home/ub/3D/objects/quoobrain03_clip.obj;
#X msg 409 554 open /home/ub/3D/objects/hexagonzo.obj;
#X obj 548 85 r~ direct_mic;
#X floatatom 407 386 5 0 0 0 - - -, f 5;
#X floatatom 408 412 5 0 0 0 - - -, f 5;
#X msg 442 386 -0.3;
#X msg 443 410 0.4;
#X msg 458 345 bang;
#X obj 505 359 loadbang;
#X text 509 386 for pyramid;
#X msg 413 347 0;
#X obj 24 623 sphere 3 64;
#X obj 648 241 sig2pix;
#X obj 742 85 r sincomp_1;
#X obj 742 132 osc~;
#X obj 742 109 / 4;
#X obj 741 159 *~;
#X obj 816 17 inlet snd source;
#X obj 816 50 == 1;
#X obj 851 50 == 0;
#X obj 669 216 *~;
#X msg 192 269 alpha 0;
#X msg 414 272 boost \$1;
#X obj 414 247 tgl 15 0 empty empty empty 17 7 0 10 -262144 -1 -1 0
1;
#X obj 547 200 *~ 1;
#X msg 38 144 open shaders/displace.vert;
#X msg 38 229 open shaders/displace.frag;
#X msg 48 362 tex0 \$1;
#X connect 0 0 1 0;
#X connect 0 1 10 0;
#X connect 1 0 2 0;
#X connect 1 1 5 0;
#X connect 2 0 11 0;
#X connect 3 0 6 0;
#X connect 4 0 3 0;
#X connect 4 1 3 1;
#X connect 5 0 7 0;
#X connect 6 0 9 0;
#X connect 6 0 2 0;
#X connect 7 0 4 0;
#X connect 8 0 3 0;
#X connect 10 0 8 0;
#X connect 11 0 15 0;
#X connect 13 0 69 0;
#X connect 14 0 24 0;
#X connect 15 0 19 0;
#X connect 16 0 25 1;
#X connect 17 0 25 2;
#X connect 18 0 25 3;
#X connect 19 0 25 0;
#X connect 20 0 21 0;
#X connect 21 0 19 1;
#X connect 22 0 82 0;
#X connect 22 0 83 0;
#X connect 22 0 13 0;
#X connect 23 0 69 2;
#X connect 24 0 48 0;
#X connect 25 0 28 0;
#X connect 26 0 18 0;
#X connect 27 0 26 0;
#X connect 27 0 40 0;
#X connect 27 0 41 0;
#X connect 28 0 30 0;
#X connect 29 0 84 0;
#X connect 30 0 68 0;
#X connect 30 1 37 0;
#X connect 31 0 30 1;
#X connect 32 0 36 0;
#X connect 32 0 37 1;
#X connect 33 0 34 0;
#X connect 34 0 38 0;
#X connect 35 0 34 1;
#X connect 37 0 57 0;
#X connect 38 0 32 0;
#X connect 39 0 31 0;
#X connect 40 0 43 0;
#X connect 41 0 42 0;
#X connect 42 0 16 0;
#X connect 43 0 17 0;
#X connect 44 0 45 0;
#X connect 45 0 46 0;
#X connect 45 1 42 1;
#X connect 45 1 43 1;
#X connect 46 0 47 0;
#X connect 47 0 16 0;
#X connect 47 0 17 0;
#X connect 48 0 49 0;
#X connect 49 0 0 0;
#X connect 50 0 77 0;
#X connect 51 0 56 0;
#X connect 51 0 50 1;
#X connect 52 0 50 2;
#X connect 53 0 54 0;
#X connect 53 0 55 1;
#X connect 54 0 81 1;
#X connect 55 0 50 0;
#X connect 56 0 53 0;
#X connect 58 0 57 0;
#X connect 59 0 55 0;
#X connect 59 0 81 0;
#X connect 60 0 28 1;
#X connect 61 0 28 2;
#X connect 62 0 60 0;
#X connect 63 0 61 0;
#X connect 64 0 63 0;
#X connect 64 0 62 0;
#X connect 67 0 60 0;
#X connect 67 0 61 0;
#X connect 69 1 11 1;
#X connect 69 2 12 0;
#X connect 70 0 72 0;
#X connect 71 0 73 0;
#X connect 72 0 71 0;
#X connect 73 0 69 1;
#X connect 74 0 75 0;
#X connect 74 0 76 0;
#X connect 75 0 77 1;
#X connect 76 0 73 1;
#X connect 77 0 69 1;
#X connect 78 0 2 0;
#X connect 79 0 2 0;
#X connect 80 0 79 0;
#X connect 81 0 77 0;
#X connect 82 0 0 0;
#X connect 83 0 1 0;
#X connect 84 0 2 0;
