#N canvas 671 91 923 661 10;
#X obj 24 186 glsl_vertex;
#X obj 24 272 glsl_fragment;
#X obj 24 432 glsl_program;
#X obj 24 633 sphere 2 84;
#X obj 110 354 pack 0 0;
#X obj 128 331 t b f;
#X obj 128 289 change;
#X msg 110 380 link \$1 \$2;
#X floatatom 128 312 2 0 0 0 ID - -, f 2;
#X floatatom 110 226 2 0 0 0 ID - -, f 2;
#X obj 115 404 print linking;
#X obj 110 203 change;
#X obj 24 547 rotateXYZ;
#X obj 24 459 pix_texture;
#X obj 566 603 outlet;
#X msg 281 162 1;
#X obj 24 18 inlet on/off;
#X obj 517 18 inlet red/white;
#X obj 24 485 alpha;
#X floatatom 157 483 5 0 0 0 - - -, f 5;
#X floatatom 223 483 5 0 0 0 - - -, f 5;
#X floatatom 289 483 5 0 0 0 - - -, f 5;
#X obj 24 510 scale 1;
#X obj 63 484 r volume;
#X obj 73 509 / 100;
#X obj 38 145 loadbang;
#X msg 218 371 alpha \$1;
#X obj 218 347 tgl 15 0 empty empty empty 17 7 0 10 -262144 -1 -1 0
1;
#X obj 157 453 autorotate;
#X obj 223 453 autorotate;
#X obj 289 453 autorotate;
#X obj 401 18 inlet autorotate;
#X obj 401 395 tgl 15 0 empty empty empty 17 7 0 10 -262144 -1 -1 1
1;
#X obj 218 18 inlet alpha;
#X msg 47 384 repeat 1;
#X obj 24 112 polygon_smooth;
#X obj 304 49 r~ filtered_mic;
#X msg 191 560 draw line;
#X msg 296 565 draw fill;
#X floatatom 107 449 5 0 0 0 - - -, f 5;
#X obj 304 378 s sig_texture;
#X obj 116 18 inlet spec/wav;
#X floatatom 129 546 5 0 0 0 - - -, f 5;
#X obj 24 47 gemhead 66;
#X obj 24 577 translateXYZ 0 0 0;
#X msg 274 327 boost \$1;
#X obj 274 298 tgl 15 0 empty empty empty 17 7 0 10 -262144 -1 -1 0
1;
#X obj 281 225 sig2pix2;
#X msg 38 164 open shaders/displace_alpha.vert;
#X msg 38 249 open shaders/displace_alpha.frag;
#X connect 0 0 1 0;
#X connect 0 1 11 0;
#X connect 1 0 2 0;
#X connect 1 1 6 0;
#X connect 2 0 13 0;
#X connect 4 0 7 0;
#X connect 5 0 4 0;
#X connect 5 1 4 1;
#X connect 6 0 8 0;
#X connect 7 0 10 0;
#X connect 7 0 2 0;
#X connect 8 0 5 0;
#X connect 9 0 4 0;
#X connect 11 0 9 0;
#X connect 12 0 44 0;
#X connect 13 0 18 0;
#X connect 15 0 47 0;
#X connect 16 0 43 0;
#X connect 16 0 47 0;
#X connect 17 0 47 2;
#X connect 18 0 22 0;
#X connect 19 0 12 1;
#X connect 20 0 12 2;
#X connect 21 0 12 3;
#X connect 22 0 12 0;
#X connect 23 0 24 0;
#X connect 24 0 22 1;
#X connect 25 0 48 0;
#X connect 25 0 49 0;
#X connect 25 0 15 0;
#X connect 26 0 2 0;
#X connect 27 0 26 0;
#X connect 28 0 19 0;
#X connect 29 0 20 0;
#X connect 30 0 21 0;
#X connect 31 0 32 0;
#X connect 32 0 28 0;
#X connect 32 0 29 0;
#X connect 32 0 30 0;
#X connect 33 0 27 0;
#X connect 34 0 13 0;
#X connect 35 0 0 0;
#X connect 36 0 47 1;
#X connect 37 0 3 0;
#X connect 38 0 3 0;
#X connect 39 0 24 0;
#X connect 42 0 44 3;
#X connect 43 0 35 0;
#X connect 44 0 3 0;
#X connect 45 0 2 0;
#X connect 46 0 45 0;
#X connect 47 1 13 1;
#X connect 47 2 14 0;
#X connect 48 0 0 0;
#X connect 49 0 1 0;
