#N canvas 889 322 923 661 10;
#X obj 24 186 glsl_vertex;
#X obj 24 272 glsl_fragment;
#X obj 24 432 glsl_program;
#X obj 110 354 pack 0 0;
#X obj 128 331 t b f;
#X obj 128 288 change;
#X msg 110 380 link \$1 \$2;
#X floatatom 128 312 2 0 0 0 ID - -;
#X floatatom 110 226 2 0 0 0 ID - -;
#X obj 110 408 print linking;
#X obj 110 202 change;
#X obj 24 547 rotateXYZ;
#X obj 24 459 pix_texture;
#X obj 519 18 inlet red/white;
#X obj 24 485 alpha;
#X floatatom 157 483 5 0 0 0 - - -;
#X floatatom 223 483 5 0 0 0 - - -;
#X floatatom 289 483 5 0 0 0 - - -;
#X obj 24 510 scale 1;
#X obj 63 484 r volume;
#X obj 38 116 loadbang;
#X obj 218 347 tgl 15 0 empty empty empty 17 7 0 10 -262144 -1 -1 0
1;
#X obj 157 453 autorotate;
#X obj 223 453 autorotate;
#X obj 289 453 autorotate;
#X msg 47 384 repeat 1;
#X obj 306 49 r~ filtered_mic;
#X msg 191 560 draw line;
#X msg 296 565 draw fill;
#X floatatom 107 449 5 0 0 0 - - -;
#X floatatom 129 546 5 0 0 0 - - -;
#X obj 24 87 gemhead 66;
#X obj 24 577 translateXYZ 0 0 0;
#X msg 274 327 boost \$1;
#X obj 274 298 tgl 15 0 empty empty empty 17 7 0 10 -262144 -1 -1 0
1;
#X obj 123 23 cnv 15 114 94 empty empty empty 4 8 0 11 -86277 -262144
0;
#X obj 126 26 tgl 15 0 empty empty wavesphere 17 7 0 10 -258113 -1
-262144 0 1;
#X obj 126 58 tgl 15 0 empty empty autorotate 0 -8 0 10 -260097 -1
-228856 0 1;
#X obj 187 58 tgl 15 0 empty empty alpha 17 7 0 10 -260097 -1 -228856
0 1;
#X msg 38 249 open shaders/displace.frag;
#X msg 218 371 black \$1;
#X obj 283 225 sig2pix;
#X obj 145 58 tgl 15 0 empty empty empty 0 -8 0 10 -260097 -1 -228856
0 1;
#X obj 164 58 tgl 15 0 empty empty empty 0 -8 0 10 -260097 -1 -228856
0 1;
#X msg 405 328 push \$1;
#X obj 130 104 hsl 104 12 0 5 0 0 empty empty push -2 -8 0 10 -258113
-260097 -228856 6760 1;
#X obj 24 633 sphere 1 84;
#X obj 74 509 / 128;
#X obj 187 77 tgl 15 0 empty empty boost 17 7 0 10 -260097 -1 -228856
0 1;
#X msg 55 142 1;
#X msg 88 142 0;
#X msg 38 164 open shaders/displace_sphere.vert;
#X connect 0 0 1 0;
#X connect 0 1 10 0;
#X connect 1 0 2 0;
#X connect 1 1 5 0;
#X connect 2 0 12 0;
#X connect 3 0 6 0;
#X connect 4 0 3 0;
#X connect 4 1 3 1;
#X connect 5 0 7 0;
#X connect 6 0 9 0;
#X connect 6 0 2 0;
#X connect 7 0 4 0;
#X connect 8 0 3 0;
#X connect 10 0 8 0;
#X connect 11 0 32 0;
#X connect 12 0 14 0;
#X connect 13 0 41 2;
#X connect 14 0 18 0;
#X connect 15 0 11 1;
#X connect 16 0 11 2;
#X connect 17 0 11 3;
#X connect 18 0 11 0;
#X connect 19 0 47 0;
#X connect 20 0 51 0;
#X connect 20 0 39 0;
#X connect 20 0 49 0;
#X connect 20 0 50 0;
#X connect 21 0 40 0;
#X connect 22 0 15 0;
#X connect 23 0 16 0;
#X connect 24 0 17 0;
#X connect 25 0 12 0;
#X connect 26 0 41 1;
#X connect 27 0 46 0;
#X connect 28 0 46 0;
#X connect 30 0 32 3;
#X connect 31 0 0 0;
#X connect 32 0 46 0;
#X connect 33 0 2 0;
#X connect 34 0 33 0;
#X connect 36 0 31 0;
#X connect 36 0 41 0;
#X connect 37 0 22 0;
#X connect 38 0 21 0;
#X connect 39 0 1 0;
#X connect 40 0 2 0;
#X connect 41 1 12 1;
#X connect 42 0 23 0;
#X connect 43 0 24 0;
#X connect 44 0 2 0;
#X connect 45 0 44 0;
#X connect 47 0 18 1;
#X connect 48 0 34 0;
#X connect 49 0 45 0;
#X connect 50 0 36 0;
#X connect 51 0 0 0;
#X coords 0 -1 1 1 120 100 2 120 20;
