#N canvas 547 244 721 692 10;
#X obj 94 242 pix_texture;
#X obj 94 285 alpha 1;
#X obj 94 391 rotateXYZ;
#X obj 94 138 gemhead 50;
#X obj 94 183 polygon_smooth;
#X obj 94 161 alpha;
#X obj 94 491 square;
#X obj 94 215 pix_buffer_read chem;
#X obj 211 175 \$1;
#X obj 211 135 loadbang;
#X obj 266 320 unpack 0 0 0;
#X obj 266 45 inlet;
#X obj 94 426 translateXYZ;
#X obj 94 362 scale 1;
#X obj 472 169 bng 15 250 50 0 empty empty empty 17 7 0 10 -262144
-1 -1;
#X floatatom 544 101 5 0 0 0 - - -;
#X obj 474 197 random 360;
#X obj 484 207 random 360;
#X obj 494 217 random 360;
#X obj 473 301 line;
#X obj 473 271 pack 0 0;
#X obj 586 224 r duration;
#X floatatom 557 287 5 0 0 0 - - -;
#X obj 483 311 line;
#X obj 483 281 pack 0 0;
#X floatatom 567 297 5 0 0 0 - - -;
#X obj 493 321 line;
#X obj 493 291 pack 0 0;
#X floatatom 577 307 5 0 0 0 - - -;
#X obj 548 41 loadbang;
#X msg 554 74 36;
#X obj 597 161 * 3;
#X obj 595 130 r volume;
#X obj 94 96 r __flockon;
#X msg 180 242 quality 1;
#X obj 557 337 *;
#X obj 567 347 *;
#X obj 577 357 *;
#X obj 622 265 random 24;
#X obj 622 288 + 1;
#X obj 632 275 random 24;
#X obj 632 298 + 1;
#X obj 642 285 random 24;
#X obj 642 308 + 1;
#X msg 666 226 4;
#X obj 16 93 loadbang 0;
#X msg 16 120 0;
#X obj 211 194 + 1;
#X obj 472 144 ../countfilter 36;
#X obj 470 67 r fiddlebonk;
#X obj 94 458 emission 1 1 1;
#X connect 0 0 1 0;
#X connect 1 0 13 0;
#X connect 2 0 12 0;
#X connect 3 0 5 0;
#X connect 4 0 7 0;
#X connect 5 0 4 0;
#X connect 7 0 0 0;
#X connect 8 0 47 0;
#X connect 9 0 8 0;
#X connect 9 0 34 0;
#X connect 10 0 12 1;
#X connect 10 1 12 2;
#X connect 10 2 12 3;
#X connect 11 0 10 0;
#X connect 12 0 50 0;
#X connect 13 0 2 0;
#X connect 14 0 16 0;
#X connect 14 0 17 0;
#X connect 14 0 18 0;
#X connect 14 0 38 0;
#X connect 14 0 40 0;
#X connect 14 0 42 0;
#X connect 15 0 48 1;
#X connect 16 0 20 0;
#X connect 17 0 24 0;
#X connect 18 0 27 0;
#X connect 19 0 2 1;
#X connect 20 0 19 0;
#X connect 21 0 22 0;
#X connect 21 0 25 0;
#X connect 21 0 28 0;
#X connect 22 0 35 0;
#X connect 23 0 2 2;
#X connect 24 0 23 0;
#X connect 25 0 36 0;
#X connect 26 0 2 3;
#X connect 27 0 26 0;
#X connect 28 0 37 0;
#X connect 29 0 30 0;
#X connect 29 0 44 0;
#X connect 30 0 15 0;
#X connect 31 0 16 1;
#X connect 31 0 17 1;
#X connect 31 0 18 1;
#X connect 32 0 31 0;
#X connect 33 0 3 0;
#X connect 34 0 0 0;
#X connect 35 0 20 1;
#X connect 36 0 24 1;
#X connect 37 0 27 1;
#X connect 38 0 39 0;
#X connect 39 0 35 1;
#X connect 40 0 41 0;
#X connect 41 0 36 1;
#X connect 42 0 43 0;
#X connect 43 0 37 1;
#X connect 44 0 38 1;
#X connect 44 0 40 1;
#X connect 44 0 42 1;
#X connect 45 0 46 0;
#X connect 46 0 3 0;
#X connect 47 0 7 1;
#X connect 48 0 14 0;
#X connect 49 0 48 0;
#X connect 50 0 6 0;
