#N canvas 511 199 992 845 10;
#X declare -lib cyclone -path boids;
#X msg 546 65 neighbors \$1;
#X floatatom 546 50 5 0 4 0 - neighbors - 0;
#X floatatom 546 85 5 0 0 0 - maxspeed - 0;
#X msg 546 100 maxspeed \$1;
#X floatatom 546 120 5 0 0 0 - minspeed - 0;
#X msg 546 135 minspeed \$1;
#X floatatom 546 155 5 0 0 0 - center - 0;
#X msg 546 170 center \$1;
#X floatatom 546 190 5 0 0 0 - attract - 0;
#X msg 546 205 attract \$1;
#X floatatom 546 225 5 0 0 0 - match - 0;
#X msg 546 240 match \$1;
#X floatatom 546 260 5 0 0 0 - avoid - 0;
#X msg 546 275 avoid \$1;
#X floatatom 546 295 5 0 0 0 - repel - 0;
#X msg 546 310 repel \$1;
#X floatatom 546 330 5 0 0 0 - edgedist - 0;
#X msg 546 345 edgedist \$1;
#X floatatom 546 365 5 0 0 0 - speed - 0;
#X msg 546 380 speed \$1;
#X floatatom 546 400 5 0 0 0 - inertia - 0;
#X msg 546 415 inertia \$1;
#X floatatom 546 435 5 0 0 0 - accel - 0;
#X msg 546 450 accel \$1;
#X floatatom 546 470 5 0 0 0 - prefdist - 0;
#X msg 546 485 prefdist \$1;
#X text 637 100 maximum speed of speed range;
#X text 639 134 minimum speed of speed range;
#X text 636 169 strength of centering instinct;
#X text 638 380 overall speed;
#X text 639 451 speed of acceleration;
#X text 639 482 preferred distance from neighbors;
#X floatatom 547 508 5 0 0 0 - flyrect[0] - 0;
#X floatatom 586 508 5 0 0 0 - flyrect[1] - 0;
#X floatatom 625 508 5 0 0 0 - flyrect[2] - 0;
#X floatatom 664 508 5 0 0 0 - - - 0;
#X floatatom 546 567 5 0 0 0 - - - 0;
#X floatatom 586 567 5 0 0 0 - - - 0;
#X floatatom 546 15 5 0 0 0 - - - 0;
#X msg 546 30 number \$1;
#X text 637 28 number of boids;
#X obj 546 628 s boidParam;
#X text 637 63 number of neighbors each boid consults when flocking
;
#X text 636 240 strength of neighbor speed matching instinct;
#X text 636 275 strength of neighbor avoidance instinct;
#X text 636 307 strength of wall avoidance instinct;
#X text 638 343 distance of vision for avoiding wall edges;
#X text 639 414 willingness to change speed and direction;
#X text 635 203 strength of attraction to 'attractpt';
#X msg 546 544 flyrect \$1 \$2 \$3 \$4 \$5 \$6;
#X text 672 527 bounding box (walls) in which to fly (l/t/r/b/f/b)
;
#X text 669 566 point to which boids are attracted (x/y/z);
#X obj 546 526 pack 0 0 0 0 0 0;
#X msg 546 604 attractpt \$1 \$2 \$3;
#X obj 546 584 pack 0 0 0;
#X floatatom 625 567 5 0 0 0 - - - 0;
#X obj 103 215 r boidParam;
#X obj 59 180 metro 40;
#X obj 63 750 load_textures chem 30;
#X obj 63 774 pix_buffer chem;
#X floatatom 186 126 5 0 0 0 - - - 0;
#X floatatom 237 126 5 0 0 0 - - - 0;
#X obj 186 199 s boidParam;
#N canvas 675 571 466 316 orbit 0;
#X obj 103 82 counter 360;
#X floatatom 103 107 5 0 0 0 - - - 0;
#X obj 102 204 poltocar;
#X obj 134 169 expr $f1 * (3.141593/180.);
#X obj 103 134 t b f;
#X obj 103 45 inlet;
#X obj 152 254 outlet;
#X obj 96 254 outlet;
#X obj 235 47 r volume;
#X obj 236 70 / 50;
#X obj 206 106 + 1.5;
#X obj 102 170 1.5;
#X connect 0 0 1 0;
#X connect 1 0 4 0;
#X connect 2 0 6 0;
#X connect 2 1 7 0;
#X connect 3 0 2 1;
#X connect 4 0 11 0;
#X connect 4 1 3 0;
#X connect 5 0 0 0;
#X connect 8 0 9 0;
#X connect 9 0 10 0;
#X connect 10 0 11 1;
#X connect 11 0 2 0;
#X restore 186 104 pd orbit;
#X obj 186 149 pack 0 0 0;
#X msg 186 176 attractpt \$1 \$2 \$3;
#X floatatom 279 98 5 0 0 0 - - - 0;
#X obj 279 76 / 50;
#X obj 279 50 r volume;
#X obj 390 127 r duration;
#X obj 390 154 t b f;
#X msg 390 178 1000;
#X obj 390 203 /;
#X floatatom 390 227 5 0 0 0 - - - 0;
#X obj 98 143 s __flockon;
#X floatatom 335 51 5 0 0 0 - - - 0;
#X obj 325 114 t b f;
#X obj 325 162 -;
#X msg 325 138 1;
#X floatatom 325 182 5 0 0 0 - - - 0;
#X obj 103 242 boids/boids3d 30;
#X obj 103 274 clone chemical 30;
#X obj 58 63 cnv 15 114 16 empty empty empty 20 12 0 14 #541010 #404040
0;
#X obj 59 64 tgl 15 0 empty empty chemoflock 18 8 0 10 #fc0400 #000000
#dcdcdc 0 1;
#N canvas 754 175 178 480 init 0;
#X obj 34 21 loadbang;
#X obj 94 21 r reset;
#X msg 15 78 \; neighbors 4;
#X msg 15 168 \; center 1;
#X msg 15 228 \; match 1;
#X msg 15 318 \; edgedist 1;
#X msg 15 348 \; speed 3;
#X obj 16 49 b;
#X obj 17 21 bng 15 250 50 0 empty empty empty 0 -6 0 8 #fcfcfc #000000
#000000;
#X msg 15 258 \; avoid 2;
#X msg 15 288 \; repel 2;
#X msg 15 378 \; inertia 8;
#X msg 15 138 \; minspeed 1;
#X msg 15 108 \; maxspeed 3;
#X msg 15 198 \; attract 3;
#X msg 15 408 \; accel 2;
#X msg 15 438 \; prefdist 1.5;
#X connect 0 0 7 0;
#X connect 1 0 7 0;
#X connect 7 0 2 0;
#X connect 7 0 13 0;
#X connect 7 0 12 0;
#X connect 7 0 3 0;
#X connect 7 0 14 0;
#X connect 7 0 4 0;
#X connect 7 0 9 0;
#X connect 7 0 10 0;
#X connect 7 0 6 0;
#X connect 7 0 11 0;
#X connect 7 0 15 0;
#X connect 7 0 16 0;
#X connect 8 0 7 0;
#X restore 481 15 pd init;
#X obj 782 13 declare -lib cyclone -path boids;
#X connect 0 0 41 0;
#X connect 1 0 0 0;
#X connect 2 0 3 0;
#X connect 3 0 41 0;
#X connect 4 0 5 0;
#X connect 5 0 41 0;
#X connect 6 0 7 0;
#X connect 7 0 41 0;
#X connect 8 0 9 0;
#X connect 9 0 41 0;
#X connect 10 0 11 0;
#X connect 11 0 41 0;
#X connect 12 0 13 0;
#X connect 13 0 41 0;
#X connect 14 0 15 0;
#X connect 15 0 41 0;
#X connect 16 0 17 0;
#X connect 17 0 41 0;
#X connect 18 0 19 0;
#X connect 19 0 41 0;
#X connect 20 0 21 0;
#X connect 21 0 41 0;
#X connect 22 0 23 0;
#X connect 23 0 41 0;
#X connect 24 0 25 0;
#X connect 25 0 41 0;
#X connect 32 0 52 0;
#X connect 33 0 52 1;
#X connect 34 0 52 2;
#X connect 35 0 52 3;
#X connect 36 0 54 0;
#X connect 37 0 54 1;
#X connect 38 0 39 0;
#X connect 39 0 41 0;
#X connect 49 0 41 0;
#X connect 52 0 49 0;
#X connect 53 0 41 0;
#X connect 54 0 53 0;
#X connect 55 0 54 2;
#X connect 56 0 80 0;
#X connect 57 0 63 0;
#X connect 57 0 80 0;
#X connect 58 0 59 0;
#X connect 60 0 64 0;
#X connect 61 0 64 1;
#X connect 63 0 60 0;
#X connect 63 1 61 0;
#X connect 64 0 65 0;
#X connect 65 0 62 0;
#X connect 66 0 64 2;
#X connect 66 0 76 0;
#X connect 67 0 66 0;
#X connect 68 0 67 0;
#X connect 69 0 70 0;
#X connect 70 0 71 0;
#X connect 70 1 72 1;
#X connect 71 0 72 0;
#X connect 72 0 73 0;
#X connect 75 0 67 1;
#X connect 76 0 78 0;
#X connect 76 1 77 1;
#X connect 77 0 79 0;
#X connect 78 0 77 0;
#X connect 80 0 81 0;
#X connect 83 0 57 0;
#X connect 83 0 74 0;
#X coords 0 -1 1 1 120 22 2 55 60;
