#N canvas 511 199 992 845 10;
#X declare -lib cyclone;
#X msg 546 45 neighbors \$1;
#X floatatom 546 30 5 0 4 0 - neighbors -, f 5;
#X floatatom 546 65 5 0 0 0 - maxspeed -, f 5;
#X msg 546 80 maxspeed \$1;
#X floatatom 546 100 5 0 0 0 - minspeed -, f 5;
#X msg 546 115 minspeed \$1;
#X floatatom 546 135 5 0 0 0 - center -, f 5;
#X msg 546 150 center \$1;
#X floatatom 546 170 5 0 0 0 - attract -, f 5;
#X msg 546 185 attract \$1;
#X floatatom 546 205 5 0 0 0 - match -, f 5;
#X msg 546 220 match \$1;
#X floatatom 546 240 5 0 0 0 - avoid -, f 5;
#X msg 546 255 avoid \$1;
#X floatatom 546 275 5 0 0 0 - repel -, f 5;
#X msg 546 290 repel \$1;
#X floatatom 546 310 5 0 0 0 - edgedist -, f 5;
#X msg 546 325 edgedist \$1;
#X floatatom 546 345 5 0 0 0 - speed -, f 5;
#X msg 546 360 speed \$1;
#X floatatom 546 380 5 0 0 0 - inertia -, f 5;
#X msg 546 395 inertia \$1;
#X floatatom 546 415 5 0 0 0 - accel -, f 5;
#X msg 546 430 accel \$1;
#X floatatom 546 450 5 0 0 0 - prefdist -, f 5;
#X msg 546 465 prefdist \$1;
#X text 637 80 maximum speed of speed range;
#X text 639 114 minimum speed of speed range;
#X text 636 149 strength of centering instinct;
#X text 638 360 overall speed;
#X text 639 431 speed of acceleration;
#X text 639 462 preferred distance from neighbors;
#X floatatom 547 488 5 0 0 0 - flyrect[0] -, f 5;
#X floatatom 586 488 5 0 0 0 - flyrect[1] -, f 5;
#X floatatom 625 488 5 0 0 0 - flyrect[2] -, f 5;
#X floatatom 664 488 5 0 0 0 - - -, f 5;
#X floatatom 546 547 5 0 0 0 - - -, f 5;
#X floatatom 586 547 5 0 0 0 - - -, f 5;
#X floatatom 546 -5 5 0 0 0 - - -, f 5;
#X msg 546 10 number \$1;
#X text 637 8 number of boids;
#X obj 546 608 s boidParam;
#X text 637 43 number of neighbors each boid consults when flocking
;
#X text 636 220 strength of neighbor speed matching instinct;
#X text 636 255 strength of neighbor avoidance instinct;
#X text 636 287 strength of wall avoidance instinct;
#X text 638 323 distance of vision for avoiding wall edges;
#X text 639 394 willingness to change speed and direction;
#X text 635 183 strength of attraction to 'attractpt';
#X msg 546 524 flyrect \$1 \$2 \$3 \$4 \$5 \$6;
#X text 672 507 bounding box (walls) in which to fly (l/t/r/b/f/b)
;
#X text 669 546 point to which boids are attracted (x/y/z);
#X obj 546 506 pack 0 0 0 0 0 0;
#X msg 546 584 attractpt \$1 \$2 \$3;
#X obj 546 564 pack 0 0 0;
#X floatatom 625 547 5 0 0 0 - - -, f 5;
#X obj 103 195 r boidParam;
#X obj 59 160 metro 40;
#X obj 63 730 load_textures chem 30;
#X obj 63 754 pix_buffer chem;
#X floatatom 186 106 5 0 0 0 - - -, f 5;
#X floatatom 237 106 5 0 0 0 - - -, f 5;
#X obj 186 179 s boidParam;
#N canvas 675 571 466 316 orbit 0;
#X obj 103 82 counter 360;
#X floatatom 103 107 5 0 0 0 - - -, f 5;
#X obj 102 204 poltocar;
#X obj 134 169 expr $f1 * (3.141593/180.);
#X obj 103 134 t b f;
#X obj 103 45 inlet;
#X obj 152 254 outlet;
#X obj 96 254 outlet;
#X obj 235 47 r volume;
#X obj 236 70 / 50;
#X obj 206 106 + 1.5;
#X obj 102 170 1.5;
#X connect 0 0 1 0;
#X connect 1 0 4 0;
#X connect 2 0 6 0;
#X connect 2 1 7 0;
#X connect 3 0 2 1;
#X connect 4 0 11 0;
#X connect 4 1 3 0;
#X connect 5 0 0 0;
#X connect 8 0 9 0;
#X connect 9 0 10 0;
#X connect 10 0 11 1;
#X connect 11 0 2 0;
#X restore 186 84 pd orbit;
#X obj 186 129 pack 0 0 0;
#X msg 186 156 attractpt \$1 \$2 \$3;
#X floatatom 279 78 5 0 0 0 - - -, f 5;
#X obj 279 56 / 50;
#X obj 279 30 r volume;
#X obj 390 107 r duration;
#X obj 390 134 t b f;
#X msg 390 158 1000;
#X obj 390 183 /;
#X floatatom 390 207 5 0 0 0 - - -, f 5;
#X obj 98 123 s __flockon;
#X floatatom 335 31 5 0 0 0 - - -, f 5;
#X obj 325 94 t b f;
#X obj 325 142 -;
#X msg 325 118 1;
#X floatatom 325 162 5 0 0 0 - - -, f 5;
#X obj 103 222 boids/boids3d 30;
#X obj 811 10 declare -lib cyclone;
#X obj 103 254 clone chemical 30;
#X obj 58 43 cnv 15 80 16 empty empty empty 20 12 0 14 -86277 -66577
0;
#X obj 59 44 tgl 15 0 empty empty chemoflock 20 8 1 10 -258113 -1 -228856
1 1;
#N canvas 754 144 178 480 init 0;
#X obj 34 21 loadbang;
#X obj 94 21 r reset;
#X msg 15 78 \; neighbors 4;
#X msg 15 168 \; center 1;
#X msg 15 228 \; match 1;
#X msg 15 318 \; edgedist 1;
#X msg 15 348 \; speed 3;
#X obj 16 49 b;
#X obj 17 21 bng 15 250 50 0 empty empty empty 0 -6 0 8 -262144 -1
-1;
#X msg 15 258 \; avoid 2;
#X msg 15 288 \; repel 2;
#X msg 15 378 \; inertia 8;
#X msg 15 138 \; minspeed 1;
#X msg 15 108 \; maxspeed 3;
#X msg 15 198 \; attract 3;
#X msg 15 408 \; accel 2;
#X msg 15 438 \; prefdist 1.5;
#X connect 0 0 7 0;
#X connect 1 0 7 0;
#X connect 7 0 2 0;
#X connect 7 0 13 0;
#X connect 7 0 12 0;
#X connect 7 0 3 0;
#X connect 7 0 14 0;
#X connect 7 0 4 0;
#X connect 7 0 9 0;
#X connect 7 0 10 0;
#X connect 7 0 6 0;
#X connect 7 0 11 0;
#X connect 7 0 15 0;
#X connect 7 0 16 0;
#X connect 8 0 7 0;
#X restore 481 -5 pd init;
#X connect 0 0 41 0;
#X connect 1 0 0 0;
#X connect 2 0 3 0;
#X connect 3 0 41 0;
#X connect 4 0 5 0;
#X connect 5 0 41 0;
#X connect 6 0 7 0;
#X connect 7 0 41 0;
#X connect 8 0 9 0;
#X connect 9 0 41 0;
#X connect 10 0 11 0;
#X connect 11 0 41 0;
#X connect 12 0 13 0;
#X connect 13 0 41 0;
#X connect 14 0 15 0;
#X connect 15 0 41 0;
#X connect 16 0 17 0;
#X connect 17 0 41 0;
#X connect 18 0 19 0;
#X connect 19 0 41 0;
#X connect 20 0 21 0;
#X connect 21 0 41 0;
#X connect 22 0 23 0;
#X connect 23 0 41 0;
#X connect 24 0 25 0;
#X connect 25 0 41 0;
#X connect 32 0 52 0;
#X connect 33 0 52 1;
#X connect 34 0 52 2;
#X connect 35 0 52 3;
#X connect 36 0 54 0;
#X connect 37 0 54 1;
#X connect 38 0 39 0;
#X connect 39 0 41 0;
#X connect 49 0 41 0;
#X connect 52 0 49 0;
#X connect 53 0 41 0;
#X connect 54 0 53 0;
#X connect 55 0 54 2;
#X connect 56 0 80 0;
#X connect 57 0 63 0;
#X connect 57 0 80 0;
#X connect 58 0 59 0;
#X connect 60 0 64 0;
#X connect 61 0 64 1;
#X connect 63 0 60 0;
#X connect 63 1 61 0;
#X connect 64 0 65 0;
#X connect 65 0 62 0;
#X connect 66 0 64 2;
#X connect 66 0 76 0;
#X connect 67 0 66 0;
#X connect 68 0 67 0;
#X connect 69 0 70 0;
#X connect 70 0 71 0;
#X connect 70 1 72 1;
#X connect 71 0 72 0;
#X connect 72 0 73 0;
#X connect 75 0 67 1;
#X connect 76 0 78 0;
#X connect 76 1 77 1;
#X connect 77 0 79 0;
#X connect 78 0 77 0;
#X connect 80 0 82 0;
#X connect 84 0 57 0;
#X connect 84 0 74 0;
#X coords 0 -1 1 1 86 22 2 55 40;
