#N canvas 1139 177 536 347 10;
#X obj 424 41 r duration;
#X floatatom 424 73 5 0 0 0 - - -, f 5;
#X obj 191 44 r level;
#X obj 158 169 * 720;
#X obj 44 155 i;
#X obj 44 103 spigot;
#X obj 191 105 * 5;
#X obj 44 186 pack f f;
#X obj 191 84 t f f;
#X obj 191 128 spigot 1;
#X obj 377 61 t f f;
#X msg 377 137 4;
#X floatatom 208 171 5 0 0 0 - - -, f 5;
#X obj 191 64 / 200;
#X obj 347 281 pix_buffer c 1;
#X obj 347 213 r texture_dir;
#X obj 347 236 symbol;
#X msg 347 258 open \$1/sym/003.png 0;
#X msg 44 220 0 250 \$1 0 0 \$2;
#X obj 44 249 prepend next;
#X obj 42 23 cnv 15 116 38 empty empty empty 4 8 0 10 -86277 -228856
0;
#X obj 47 28 tgl 15 0 empty empty epic 17 7 0 10 -258113 -1 -228856
0 1;
#X obj 47 44 tgl 15 0 empty empty autoscale 17 7 0 10 -200769 -1 -228856
0 1;
#X obj 139 28 bng 15 250 50 0 empty empty empty 17 7 0 10 -147717 -258113
-1;
#X obj 44 282 clone -x rotator 10 _ _ c;
#X obj 190 22 r fiddlebonk;
#X connect 0 0 1 0;
#X connect 2 0 13 0;
#X connect 3 0 7 1;
#X connect 4 0 7 0;
#X connect 5 0 4 0;
#X connect 6 0 9 0;
#X connect 7 0 18 0;
#X connect 8 0 6 0;
#X connect 8 1 3 0;
#X connect 9 0 4 1;
#X connect 10 0 11 0;
#X connect 10 1 9 1;
#X connect 11 0 4 1;
#X connect 12 0 13 1;
#X connect 13 0 8 0;
#X connect 15 0 16 0;
#X connect 16 0 17 0;
#X connect 17 0 14 0;
#X connect 18 0 19 0;
#X connect 19 0 24 0;
#X connect 21 0 5 1;
#X connect 22 0 10 0;
#X connect 23 0 5 0;
#X connect 25 0 23 0;
#X coords 0 -1 1 1 120 44 1 40 20;
