#N canvas 218 476 577 471 10;
#X obj 111 226 pix_texture;
#X obj 179 252 line;
#X obj 110 -5 inlet;
#X obj 339 331 outlet;
#X obj 250 89 t b f;
#X msg 250 137 0;
#X obj 267 5 inlet;
#X obj 250 162 pack f f;
#X obj 111 390 square;
#X obj 111 263 alpha 1;
#X obj 339 289 delay;
#X text 108 66 i;
#X text 143 66 t;
#X text 182 65 s;
#X obj 111 129 gemhead 60;
#X obj 250 114 delay;
#X obj 288 90 / 10;
#X obj 288 113 * 7;
#X obj 222 287 / 100;
#X obj 222 310 - 0.5;
#X obj 159 283 +;
#X obj 111 339 scale;
#X obj 110 25 t a b;
#X obj 222 340 spigot;
#X msg 282 261 1;
#X msg 287 341 0;
#X obj 287 367 t f f;
#X msg 267 31 0;
#X obj 111 196 pix_buffer_read \$3;
#X obj 111 362 translateXYZ;
#X obj 110 51 unpack f f f;
#X obj 389 118 r right_x_2;
#X obj 428 146 r right_y_2;
#X obj 389 172 - 128;
#X obj 428 172 - 128;
#X obj 389 196 / 64;
#X obj 428 196 / 64;
#X obj 222 261 r volume;
#X connect 0 0 9 0;
#X connect 1 0 20 1;
#X connect 2 0 22 0;
#X connect 4 0 10 0;
#X connect 4 0 15 0;
#X connect 4 1 10 1;
#X connect 4 1 16 0;
#X connect 5 0 7 0;
#X connect 6 0 27 0;
#X connect 7 0 1 0;
#X connect 9 0 21 0;
#X connect 10 0 3 0;
#X connect 10 0 25 0;
#X connect 14 0 28 0;
#X connect 15 0 5 0;
#X connect 16 0 7 1;
#X connect 16 0 17 0;
#X connect 17 0 15 1;
#X connect 18 0 19 0;
#X connect 19 0 23 0;
#X connect 20 0 21 1;
#X connect 21 0 29 0;
#X connect 22 0 30 0;
#X connect 22 1 24 0;
#X connect 23 0 20 0;
#X connect 24 0 23 1;
#X connect 24 0 14 0;
#X connect 25 0 26 0;
#X connect 25 0 14 0;
#X connect 26 0 20 0;
#X connect 26 1 23 1;
#X connect 27 0 14 0;
#X connect 28 0 0 0;
#X connect 29 0 8 0;
#X connect 30 0 28 1;
#X connect 30 1 4 0;
#X connect 30 2 1 0;
#X connect 31 0 33 0;
#X connect 32 0 34 0;
#X connect 33 0 35 0;
#X connect 34 0 36 0;
#X connect 35 0 29 1;
#X connect 36 0 29 2;
#X connect 37 0 18 0;
