#N canvas 723 411 335 632 10;
#X symbolatom 56 394 10 0 0 0 - - - 0;
#X obj 56 313 moses 10;
#X obj 63 367 makefilename 0%d.png;
#X obj 56 337 makefilename 00%d.png;
#X obj 56 425 t b s;
#X obj 166 24 r texture_dir;
#X obj 56 482 symbol;
#X obj 56 584 outlet;
#X obj 55 69 i \$2;
#X obj 56 227 until;
#X obj 89 152 > 0;
#X obj 102 203 sel 0;
#X obj 55 24 inlet;
#X obj 102 230 print WARN_no_textures_for_\$1;
#X obj 56 203 spigot;
#X obj 85 258 + 1;
#X obj 56 258 i;
#X msg 87 113 1;
#X obj 56 287 t f f;
#X obj 129 113 symbol \$1;
#X obj 56 91 t f f b b f;
#X msg 257 163 resize \$1;
#X msg 56 549 open \$1/\$2/\$3 \$4;
#X obj 56 515 pack s s s f;
#X obj 166 51 t b a;
#X obj 193 182 symbol;
#X text 116 318 TODO: can be %02i i think;
#X obj 154 583 print;
#X obj 254 136 + 1;
#X connect 0 0 4 0;
#X connect 1 0 3 0;
#X connect 1 1 2 0;
#X connect 2 0 0 0;
#X connect 3 0 0 0;
#X connect 4 0 6 0;
#X connect 4 1 23 2;
#X connect 5 0 24 0;
#X connect 6 0 23 0;
#X connect 8 0 20 0;
#X connect 9 0 16 0;
#X connect 10 0 11 0;
#X connect 10 0 14 1;
#X connect 11 0 13 0;
#X connect 12 0 8 0;
#X connect 14 0 9 0;
#X connect 15 0 16 1;
#X connect 16 0 15 0;
#X connect 16 0 18 0;
#X connect 17 0 16 1;
#X connect 18 0 1 0;
#X connect 18 1 23 3;
#X connect 19 0 23 1;
#X connect 20 0 14 0;
#X connect 20 1 10 0;
#X connect 20 2 17 0;
#X connect 20 3 19 0;
#X connect 20 4 28 0;
#X connect 21 0 7 0;
#X connect 22 0 7 0;
#X connect 22 0 27 0;
#X connect 23 0 22 0;
#X connect 24 0 8 0;
#X connect 24 1 25 0;
#X connect 25 0 6 1;
#X connect 28 0 21 0;
