#N canvas 0 0 865 300 12;
#X obj 304 96 gemhead;
#X obj 304 217 scale;
#X obj 304 129 emission;
#X obj 304 157 translate 0 0 2;
#X obj 304 244 model ../models/ring.obj;
#X obj 304 180 rotateXYZ 90 0 0;
#X obj 304 24 inlet;
#X obj 304 49 unpack f f;
#X obj 88 177 hsl 128 15 0 1 0 0 empty empty empty -2 -8 0 10 #fcfcfc
#000000 #000000 0 1;
#X obj 85 81 pack 1 f;
#X msg 85 107 0 \, \$1 \$2;
#X obj 85 53 f 1;
#X obj 85 130 line 0 20;
#X obj 85 153 pow 3;
#X obj 85 197 * 10;
#X obj 85 20 t b f;
#X connect 0 0 2 0;
#X connect 1 0 4 0;
#X connect 2 0 3 0;
#X connect 3 0 5 0;
#X connect 5 0 1 0;
#X connect 6 0 7 0;
#X connect 7 0 0 0;
#X connect 7 1 15 0;
#X connect 8 0 14 0;
#X connect 9 0 10 0;
#X connect 10 0 12 0;
#X connect 11 0 9 0;
#X connect 12 0 13 0;
#X connect 13 0 8 0;
#X connect 14 0 1 1;
#X connect 15 0 11 0;
#X connect 15 1 9 1;
