#N canvas 418 284 1140 577 10;
#X floatatom 124 418 5 0 0 0 - - -, f 5;
#X obj 109 184 t b b b b b b;
#X floatatom 145 270 5 0 0 0 - - -, f 5;
#X floatatom 204 270 5 0 0 0 - - -, f 5;
#X floatatom 272 272 5 0 0 0 - - -, f 5;
#X floatatom 339 271 5 0 0 0 - - -, f 5;
#X obj 204 182 r duration;
#X obj 204 223 random 720;
#X obj 204 246 - 360;
#X obj 272 222 random 720;
#X obj 272 245 - 360;
#X obj 339 222 random 720;
#X obj 339 245 - 360;
#X obj 278 155 loadbang;
#X msg 278 182 500;
#X floatatom 525 403 5 0 0 0 - - -, f 5;
#X obj 507 169 t b b b b b b;
#X floatatom 542 255 5 0 0 0 - - -, f 5;
#X floatatom 602 256 5 0 0 0 - - -, f 5;
#X floatatom 669 259 5 0 0 0 - - -, f 5;
#X floatatom 736 258 5 0 0 0 - - -, f 5;
#X obj 603 140 r duration;
#X obj 677 140 loadbang;
#X msg 677 167 500;
#X obj 602 205 random 20;
#X obj 669 205 random 20;
#X obj 736 205 random 20;
#X obj 602 228 - 10;
#X obj 669 228 - 10;
#X obj 736 228 - 10;
#X obj 603 164 * 3;
#X obj 542 205 random 5;
#X obj 542 227 + 1;
#X floatatom 982 314 5 0 0 0 - - -, f 5;
#X obj 982 286 + 1;
#X obj 852 203 t b b b;
#X obj 922 140 r duration;
#X obj 996 140 loadbang;
#X msg 996 167 500;
#X obj 507 300 random 15;
#X obj 109 146 spigot;
#X obj 507 139 spigot;
#X floatatom 190 87 5 0 0 0 - - -, f 5;
#X floatatom 601 87 5 0 0 0 - - -, f 5;
#X floatatom 922 42 5 0 0 0 - - -, f 5;
#X obj 852 145 spigot;
#X obj 145 238 i;
#X obj 922 164 * 2;
#X obj 980 75 > 1;
#X obj 941 75 t b f;
#X obj 953 116 &&;
#X obj 204 143 / 20;
#X floatatom 277 94 5 0 0 0 - - -, f 5;
#X obj 982 264 random 4;
#X obj 507 424 pack f f f f f f;
#X obj 109 550 pix_buffer symbols;
#X obj 507 547 pix_buffer formulae;
#X obj 854 541 pix_buffer diagrams;
#X obj 109 361 + 1;
#X obj 507 358 + 1;
#X obj 852 356 + 1;
#X obj 507 525 load_textures form 15;
#X obj 109 439 pack f f f f f f f f;
#X obj 109 528 load_textures sym 53;
#X obj 109 318 random 53;
#X obj 389 264 r 3Dx_2;
#X obj 389 287 / 45;
#X obj 442 287 / 45;
#X obj 442 264 r 3Dy_2;
#X obj 852 428 pack f f f;
#X obj 922 12 r filter_diagrams;
#X obj 190 26 r filter_symbols;
#X obj 601 52 r filter_formulas;
#X text 9 526 preload;
#X obj 124 337 + 1;
#X obj 124 293 random 3;
#X obj 136 361 * 500;
#X obj 854 520 load_textures dia 52;
#X obj 109 459 prepend next;
#X obj 507 459 prepend next;
#X obj 852 459 prepend next;
#X obj 12 22 cnv 15 96 56 empty empty empty 20 12 0 14 -86277 -262144
0;
#X obj 17 26 tgl 15 0 empty empty symbols 17 7 0 10 -258113 -1 -228856
0 1;
#X obj 17 43 tgl 15 0 empty empty formulas 17 7 0 10 -258113 -1 -228856
0 1;
#X obj 17 60 tgl 15 0 empty empty diagrams 17 7 0 10 -258113 -1 -228856
1 1;
#X obj 90 27 bng 15 250 50 0 empty empty empty 17 7 0 10 -151617 -1
-1;
#X obj 90 43 bng 15 250 50 0 empty empty empty 17 7 0 10 -139329 -1
-1;
#X obj 90 60 bng 15 250 50 0 empty empty empty 17 7 0 10 -139329 -1
-1;
#X obj 109 116 ../countfilter;
#X obj 507 116 ../countfilter;
#X obj 852 116 ../countfilter;
#X obj 507 87 r bonkbonk;
#X obj 109 481 clone -x rotator 10 _ _ symbols;
#X obj 507 481 clone -x stieb 10 _ _ formulae;
#X obj 109 87 r fiddlebonk;
#X obj 852 87 r fiddlebonk;
#X floatatom 381 450 5 0 0 0 - - -, f 5;
#X obj 204 117 r volume;
#X obj 980 41 r volume;
#X obj 852 252 random 52;
#X obj 852 481 clone -x flirr 10 _ _ diagrams;
#X connect 0 0 62 1;
#X connect 1 0 64 0;
#X connect 1 1 75 0;
#X connect 1 2 46 0;
#X connect 1 3 7 0;
#X connect 1 4 9 0;
#X connect 1 5 11 0;
#X connect 2 0 62 2;
#X connect 3 0 62 3;
#X connect 4 0 62 4;
#X connect 5 0 62 5;
#X connect 6 0 76 1;
#X connect 7 0 8 0;
#X connect 8 0 3 0;
#X connect 9 0 10 0;
#X connect 10 0 4 0;
#X connect 11 0 12 0;
#X connect 12 0 5 0;
#X connect 13 0 14 0;
#X connect 14 0 0 0;
#X connect 15 0 54 1;
#X connect 16 0 39 0;
#X connect 16 1 15 0;
#X connect 16 2 31 0;
#X connect 16 3 24 0;
#X connect 16 4 25 0;
#X connect 16 5 26 0;
#X connect 17 0 54 2;
#X connect 18 0 54 3;
#X connect 19 0 54 4;
#X connect 20 0 54 5;
#X connect 21 0 30 0;
#X connect 22 0 23 0;
#X connect 23 0 15 0;
#X connect 24 0 27 0;
#X connect 25 0 28 0;
#X connect 26 0 29 0;
#X connect 27 0 18 0;
#X connect 28 0 19 0;
#X connect 29 0 20 0;
#X connect 30 0 15 0;
#X connect 31 0 32 0;
#X connect 32 0 17 0;
#X connect 33 0 69 2;
#X connect 34 0 33 0;
#X connect 35 0 99 0;
#X connect 35 1 53 0;
#X connect 36 0 47 0;
#X connect 37 0 38 0;
#X connect 38 0 69 1;
#X connect 39 0 59 0;
#X connect 40 0 1 0;
#X connect 41 0 16 0;
#X connect 42 0 88 1;
#X connect 43 0 89 1;
#X connect 44 0 90 1;
#X connect 45 0 35 0;
#X connect 46 0 2 0;
#X connect 47 0 69 1;
#X connect 48 0 50 0;
#X connect 49 0 50 0;
#X connect 49 1 50 1;
#X connect 50 0 45 1;
#X connect 51 0 46 1;
#X connect 52 0 51 1;
#X connect 53 0 34 0;
#X connect 54 0 79 0;
#X connect 58 0 62 0;
#X connect 59 0 54 0;
#X connect 60 0 69 0;
#X connect 61 0 56 0;
#X connect 62 0 78 0;
#X connect 63 0 55 0;
#X connect 64 0 58 0;
#X connect 65 0 66 0;
#X connect 66 0 62 6;
#X connect 67 0 62 7;
#X connect 68 0 67 0;
#X connect 69 0 80 0;
#X connect 70 0 44 0;
#X connect 71 0 42 0;
#X connect 72 0 43 0;
#X connect 74 0 76 0;
#X connect 75 0 74 0;
#X connect 76 0 0 0;
#X connect 77 0 57 0;
#X connect 78 0 92 0;
#X connect 79 0 93 0;
#X connect 80 0 100 0;
#X connect 82 0 40 1;
#X connect 83 0 41 1;
#X connect 84 0 49 0;
#X connect 85 0 40 0;
#X connect 86 0 41 0;
#X connect 87 0 45 0;
#X connect 88 0 85 0;
#X connect 89 0 86 0;
#X connect 90 0 87 0;
#X connect 91 0 89 0;
#X connect 94 0 88 0;
#X connect 95 0 90 0;
#X connect 97 0 51 0;
#X connect 98 0 48 0;
#X connect 99 0 60 0;
#X coords 0 -1 1 1 100 60 1 10 20;
