#N canvas 470 335 730 559 10;
#X obj 111 226 pix_texture;
#X obj 288 225 line;
#X obj 111 275 scale;
#X obj 191 226 line;
#X msg 315 120 0;
#X obj 111 -5 inlet;
#X obj 294 356 outlet;
#X obj 191 115 t b f;
#X obj 568 71 inlet;
#X obj 191 165 pack f f;
#X obj 288 204 pack f f;
#X obj 111 412 square;
#X obj 111 333 alpha 1;
#X obj 294 321 delay;
#X obj 288 98 t f b;
#X text 100 37 i;
#X text 132 37 t;
#X text 152 37 s;
#X text 169 38 rx;
#X text 189 37 ry;
#X text 209 38 rz;
#X obj 344 225 line;
#X msg 371 120 0;
#X obj 344 204 pack f f;
#X obj 344 98 t f b;
#X obj 400 225 line;
#X msg 427 120 0;
#X obj 400 204 pack f f;
#X obj 400 98 t f b;
#X obj 111 154 gemhead 50;
#X obj 111 378 translateXYZ;
#X msg 191 140 1;
#X msg 222 227 0;
#X obj 385 172 i;
#X obj 329 172 i;
#X obj 273 172 i;
#X obj 329 146 t b f;
#X msg 84 106 1;
#X msg 294 399 0;
#X obj 111 198 pix_buffer_read \$3;
#X obj 111 21 unpack f f f f f f;
#X obj 84 75 t b f;
#X connect 0 0 2 0;
#X connect 1 0 30 1;
#X connect 2 0 12 0;
#X connect 3 0 2 1;
#X connect 4 0 1 0;
#X connect 5 0 40 0;
#X connect 7 0 31 0;
#X connect 7 0 13 0;
#X connect 7 1 9 1;
#X connect 7 1 13 1;
#X connect 8 0 38 0;
#X connect 9 0 3 0;
#X connect 10 0 1 0;
#X connect 12 0 30 0;
#X connect 13 0 6 0;
#X connect 13 0 32 0;
#X connect 13 0 38 0;
#X connect 14 0 35 1;
#X connect 14 1 4 0;
#X connect 21 0 30 2;
#X connect 22 0 21 0;
#X connect 23 0 21 0;
#X connect 24 0 34 1;
#X connect 24 1 22 0;
#X connect 25 0 30 3;
#X connect 26 0 25 0;
#X connect 27 0 25 0;
#X connect 28 0 33 1;
#X connect 28 1 26 0;
#X connect 29 0 39 0;
#X connect 30 0 11 0;
#X connect 31 0 9 0;
#X connect 32 0 3 0;
#X connect 33 0 27 0;
#X connect 34 0 23 0;
#X connect 35 0 10 0;
#X connect 36 0 35 0;
#X connect 36 0 34 0;
#X connect 36 0 33 0;
#X connect 36 1 27 1;
#X connect 36 1 23 1;
#X connect 36 1 10 1;
#X connect 37 0 29 0;
#X connect 38 0 29 0;
#X connect 39 0 0 0;
#X connect 40 0 41 0;
#X connect 40 1 7 0;
#X connect 40 1 36 0;
#X connect 40 2 3 0;
#X connect 40 3 14 0;
#X connect 40 4 24 0;
#X connect 40 5 28 0;
#X connect 41 0 37 0;
#X connect 41 1 39 1;
